<svg width="76" height="12" viewBox="0 0 76 12" fill="none" xmlns="http://www.w3.org/2000/svg">
<g id="star1">
<g id="icon/star-fill">
<path id="&#244;&#128;&#139;&#130;" d="M2.79231 10.89C2.9845 11.0353 3.22825 10.9838 3.51887 10.7728L5.99856 8.95409L8.48293 10.7728C8.77356 10.9838 9.01262 11.0353 9.2095 10.89C9.40168 10.7447 9.44387 10.5057 9.32668 10.1635L8.347 7.24784L10.8501 5.44784C11.1407 5.24159 11.2579 5.02596 11.1829 4.79159C11.1079 4.56659 10.8876 4.45409 10.5267 4.45878L7.45637 4.47753L6.52356 1.54784C6.41106 1.20096 6.24231 1.02753 5.99856 1.02753C5.7595 1.02753 5.59075 1.20096 5.47825 1.54784L4.54543 4.47753L1.47512 4.45878C1.11418 4.45409 0.893871 4.56659 0.818871 4.79159C0.739183 5.02596 0.861058 5.24159 1.15168 5.44784L3.65481 7.24784L2.67512 10.1635C2.55793 10.5057 2.60012 10.7447 2.79231 10.89Z" fill="#FFB904"/>
</g>
<g id="icon/star">
<path id="&#244;&#128;&#139;&#130;_2" d="M18.7923 10.89C18.9845 11.0353 19.2282 10.9838 19.5189 10.7728L21.9986 8.95409L24.4829 10.7728C24.7736 10.9838 25.0126 11.0353 25.2095 10.89C25.4017 10.7447 25.4439 10.5057 25.3267 10.1635L24.347 7.24784L26.8501 5.44784C27.1407 5.24159 27.2579 5.02596 27.1829 4.79159C27.1079 4.56659 26.8876 4.45409 26.5267 4.45878L23.4564 4.47753L22.5236 1.54784C22.4111 1.20096 22.2423 1.02753 21.9986 1.02753C21.7595 1.02753 21.5907 1.20096 21.4782 1.54784L20.5454 4.47753L17.4751 4.45878C17.1142 4.45409 16.8939 4.56659 16.8189 4.79159C16.7392 5.02596 16.8611 5.24159 17.1517 5.44784L19.6548 7.24784L18.6751 10.1635C18.5579 10.5057 18.6001 10.7447 18.7923 10.89ZM19.4673 9.9619C19.4579 9.95253 19.4626 9.94784 19.4673 9.91971L20.4001 7.23846C20.4611 7.05565 20.4282 6.91034 20.2642 6.79784L17.9298 5.18534C17.9064 5.17128 17.9017 5.1619 17.9064 5.14784C17.9111 5.13378 17.9204 5.13378 17.9486 5.13378L20.7845 5.18534C20.9767 5.19003 21.0986 5.11034 21.1595 4.91815L21.9704 2.20409C21.9798 2.17596 21.9892 2.16659 21.9986 2.16659C22.0126 2.16659 22.022 2.17596 22.0267 2.20409L22.8423 4.91815C22.8986 5.11034 23.0251 5.19003 23.2173 5.18534L26.0532 5.13378C26.0814 5.13378 26.0907 5.13378 26.0954 5.14784C26.1001 5.1619 26.0907 5.17128 26.072 5.18534L23.7376 6.79784C23.5736 6.91034 23.5361 7.05565 23.6017 7.23846L24.5345 9.91971C24.5392 9.94784 24.5439 9.95253 24.5345 9.9619C24.5251 9.97596 24.5111 9.96659 24.4923 9.95253L22.2376 8.23221C22.0876 8.11503 21.9142 8.11503 21.7642 8.23221L19.5095 9.95253C19.4907 9.96659 19.4767 9.97596 19.4673 9.9619Z" fill="#FFB904"/>
</g>
<g id="icon/star_2">
<path id="&#244;&#128;&#139;&#130;_3" d="M34.7923 10.89C34.9845 11.0353 35.2282 10.9838 35.5189 10.7728L37.9986 8.95409L40.4829 10.7728C40.7736 10.9838 41.0126 11.0353 41.2095 10.89C41.4017 10.7447 41.4439 10.5057 41.3267 10.1635L40.347 7.24784L42.8501 5.44784C43.1407 5.24159 43.2579 5.02596 43.1829 4.79159C43.1079 4.56659 42.8876 4.45409 42.5267 4.45878L39.4564 4.47753L38.5236 1.54784C38.4111 1.20096 38.2423 1.02753 37.9986 1.02753C37.7595 1.02753 37.5907 1.20096 37.4782 1.54784L36.5454 4.47753L33.4751 4.45878C33.1142 4.45409 32.8939 4.56659 32.8189 4.79159C32.7392 5.02596 32.8611 5.24159 33.1517 5.44784L35.6548 7.24784L34.6751 10.1635C34.5579 10.5057 34.6001 10.7447 34.7923 10.89ZM35.4673 9.9619C35.4579 9.95253 35.4626 9.94784 35.4673 9.91971L36.4001 7.23846C36.4611 7.05565 36.4282 6.91034 36.2642 6.79784L33.9298 5.18534C33.9064 5.17128 33.9017 5.1619 33.9064 5.14784C33.9111 5.13378 33.9204 5.13378 33.9486 5.13378L36.7845 5.18534C36.9767 5.19003 37.0986 5.11034 37.1595 4.91815L37.9704 2.20409C37.9798 2.17596 37.9892 2.16659 37.9986 2.16659C38.0126 2.16659 38.022 2.17596 38.0267 2.20409L38.8423 4.91815C38.8986 5.11034 39.0251 5.19003 39.2173 5.18534L42.0532 5.13378C42.0814 5.13378 42.0907 5.13378 42.0954 5.14784C42.1001 5.1619 42.0907 5.17128 42.072 5.18534L39.7376 6.79784C39.5736 6.91034 39.5361 7.05565 39.6017 7.23846L40.5345 9.91971C40.5392 9.94784 40.5439 9.95253 40.5345 9.9619C40.5251 9.97596 40.5111 9.96659 40.4923 9.95253L38.2376 8.23221C38.0876 8.11503 37.9142 8.11503 37.7642 8.23221L35.5095 9.95253C35.4907 9.96659 35.4767 9.97596 35.4673 9.9619Z" fill="#FFB904"/>
</g>
<g id="icon/star_3">
<path id="&#244;&#128;&#139;&#130;_4" d="M50.7923 10.89C50.9845 11.0353 51.2282 10.9838 51.5189 10.7728L53.9986 8.95409L56.4829 10.7728C56.7736 10.9838 57.0126 11.0353 57.2095 10.89C57.4017 10.7447 57.4439 10.5057 57.3267 10.1635L56.347 7.24784L58.8501 5.44784C59.1407 5.24159 59.2579 5.02596 59.1829 4.79159C59.1079 4.56659 58.8876 4.45409 58.5267 4.45878L55.4564 4.47753L54.5236 1.54784C54.4111 1.20096 54.2423 1.02753 53.9986 1.02753C53.7595 1.02753 53.5907 1.20096 53.4782 1.54784L52.5454 4.47753L49.4751 4.45878C49.1142 4.45409 48.8939 4.56659 48.8189 4.79159C48.7392 5.02596 48.8611 5.24159 49.1517 5.44784L51.6548 7.24784L50.6751 10.1635C50.5579 10.5057 50.6001 10.7447 50.7923 10.89ZM51.4673 9.9619C51.4579 9.95253 51.4626 9.94784 51.4673 9.91971L52.4001 7.23846C52.4611 7.05565 52.4282 6.91034 52.2642 6.79784L49.9298 5.18534C49.9064 5.17128 49.9017 5.1619 49.9064 5.14784C49.9111 5.13378 49.9204 5.13378 49.9486 5.13378L52.7845 5.18534C52.9767 5.19003 53.0986 5.11034 53.1595 4.91815L53.9704 2.20409C53.9798 2.17596 53.9892 2.16659 53.9986 2.16659C54.0126 2.16659 54.022 2.17596 54.0267 2.20409L54.8423 4.91815C54.8986 5.11034 55.0251 5.19003 55.2173 5.18534L58.0532 5.13378C58.0814 5.13378 58.0907 5.13378 58.0954 5.14784C58.1001 5.1619 58.0907 5.17128 58.072 5.18534L55.7376 6.79784C55.5736 6.91034 55.5361 7.05565 55.6017 7.23846L56.5345 9.91971C56.5392 9.94784 56.5439 9.95253 56.5345 9.9619C56.5251 9.97596 56.5111 9.96659 56.4923 9.95253L54.2376 8.23221C54.0876 8.11503 53.9142 8.11503 53.7642 8.23221L51.5095 9.95253C51.4907 9.96659 51.4767 9.97596 51.4673 9.9619Z" fill="#FFB904"/>
</g>
<g id="icon/star_4">
<path id="&#244;&#128;&#139;&#130;_5" d="M66.7923 10.89C66.9845 11.0353 67.2282 10.9838 67.5189 10.7728L69.9986 8.95409L72.4829 10.7728C72.7736 10.9838 73.0126 11.0353 73.2095 10.89C73.4017 10.7447 73.4439 10.5057 73.3267 10.1635L72.347 7.24784L74.8501 5.44784C75.1407 5.24159 75.2579 5.02596 75.1829 4.79159C75.1079 4.56659 74.8876 4.45409 74.5267 4.45878L71.4564 4.47753L70.5236 1.54784C70.4111 1.20096 70.2423 1.02753 69.9986 1.02753C69.7595 1.02753 69.5907 1.20096 69.4782 1.54784L68.5454 4.47753L65.4751 4.45878C65.1142 4.45409 64.8939 4.56659 64.8189 4.79159C64.7392 5.02596 64.8611 5.24159 65.1517 5.44784L67.6548 7.24784L66.6751 10.1635C66.5579 10.5057 66.6001 10.7447 66.7923 10.89ZM67.4673 9.9619C67.4579 9.95253 67.4626 9.94784 67.4673 9.91971L68.4001 7.23846C68.4611 7.05565 68.4282 6.91034 68.2642 6.79784L65.9298 5.18534C65.9064 5.17128 65.9017 5.1619 65.9064 5.14784C65.9111 5.13378 65.9204 5.13378 65.9486 5.13378L68.7845 5.18534C68.9767 5.19003 69.0986 5.11034 69.1595 4.91815L69.9704 2.20409C69.9798 2.17596 69.9892 2.16659 69.9986 2.16659C70.0126 2.16659 70.022 2.17596 70.0267 2.20409L70.8423 4.91815C70.8986 5.11034 71.0251 5.19003 71.2173 5.18534L74.0532 5.13378C74.0814 5.13378 74.0907 5.13378 74.0954 5.14784C74.1001 5.1619 74.0907 5.17128 74.072 5.18534L71.7376 6.79784C71.5736 6.91034 71.5361 7.05565 71.6017 7.23846L72.5345 9.91971C72.5392 9.94784 72.5439 9.95253 72.5345 9.9619C72.5251 9.97596 72.5111 9.96659 72.4923 9.95253L70.2376 8.23221C70.0876 8.11503 69.9142 8.11503 69.7642 8.23221L67.5095 9.95253C67.4907 9.96659 67.4767 9.97596 67.4673 9.9619Z" fill="#FFB904"/>
</g>
</g>
</svg>
