<svg width="25" height="24" viewBox="0 0 25 24" fill="none" xmlns="http://www.w3.org/2000/svg">
<path d="M18.5693 17.4429C14.357 19.4616 10.2807 19.5535 6.43066 17.4429C6.43066 14.8276 7.83479 12.5336 9.91816 11.478C10.5975 12.0746 11.5034 12.4416 12.4998 12.4416C13.4963 12.4416 14.4021 12.0746 15.0815 11.478C17.1199 12.5792 18.5692 14.8275 18.5692 17.4429H18.5693Z" fill="white"/>
<path d="M15.6254 8.40377C15.6254 10.1523 14.2261 11.5697 12.5002 11.5697C10.7743 11.5697 9.375 10.1523 9.375 8.40377C9.375 6.65538 10.7743 5.23789 12.5002 5.23789C14.2261 5.23789 15.6254 6.65538 15.6254 8.40377Z" fill="white"/>
<path d="M23.3701 14.3226C21.966 15.0108 20.562 15.3778 19.2033 15.4697C18.7051 13.4967 17.4369 11.7532 15.7158 10.7897C15.8517 10.6521 15.9422 10.4685 16.0329 10.2851C16.2593 10.1015 16.5311 9.91805 16.8028 9.7804C17.3464 10.2393 18.0258 10.5146 18.7505 10.5146C19.5204 10.5146 20.1998 10.2393 20.6981 9.7804C22.2832 10.6061 23.3702 12.3498 23.3702 14.3228L23.3701 14.3226Z" fill="white"/>
<path d="M21.1508 7.44025C21.1508 8.77079 20.1091 9.82619 18.7955 9.82619C17.7085 9.82619 16.8027 9.09202 16.531 8.08271C16.531 7.89913 16.4856 7.7157 16.4404 7.53212V7.48619C16.4404 6.15565 17.4821 5.10025 18.7957 5.10025C20.1091 5.10025 21.1508 6.10971 21.1508 7.44025Z" fill="white"/>
<path d="M9.28457 10.8358C7.5635 11.7993 6.29525 13.5428 5.79708 15.5158C4.34761 15.4699 2.98882 15.0569 1.62988 14.3228C1.62988 12.3498 2.71691 10.6063 4.25692 9.82642C4.80043 10.2853 5.47982 10.5606 6.20456 10.5606C6.92929 10.5606 7.65388 10.2853 8.1522 9.82642C8.42396 9.96406 8.69571 10.1476 8.92213 10.3311C9.05785 10.5147 9.14854 10.6523 9.28442 10.8359L9.28457 10.8358Z" fill="white"/>
<path d="M8.60493 7.44025V7.48618C8.55959 7.66976 8.55959 7.85319 8.5144 8.03677C8.24264 9.04623 7.33684 9.78024 6.24981 9.78024C4.93637 9.78024 3.89453 8.725 3.89453 7.39431C3.89453 6.06378 4.93621 5.00838 6.24981 5.00838C7.56309 5.00853 8.60493 6.10971 8.60493 7.44025Z" fill="white"/>
</svg>
