<svg width="18" height="19" viewBox="0 0 18 19" fill="none" xmlns="http://www.w3.org/2000/svg">
<path d="M13.0809 8.27612C12.7627 8.54129 12.2898 8.4983 12.0246 8.18009C11.7594 7.86188 11.8024 7.38896 12.1206 7.12379L13.0809 8.27612ZM15.3008 5.44995L15.7809 4.87379C15.9519 5.01628 16.0508 5.22737 16.0508 5.44995C16.0508 5.67254 15.9519 5.88362 15.7809 6.02612L15.3008 5.44995ZM12.1206 3.77612C11.8024 3.51094 11.7594 3.03802 12.0246 2.71981C12.2898 2.40161 12.7627 2.35861 13.0809 2.62379L12.1206 3.77612ZM2.92914 7.3019L2.23623 7.01489L2.92914 7.3019ZM12.1206 7.12379L14.8206 4.87379L15.7809 6.02612L13.0809 8.27612L12.1206 7.12379ZM14.8206 6.02612L12.1206 3.77612L13.0809 2.62379L15.7809 4.87379L14.8206 6.02612ZM7.20078 4.69995H15.3008V6.19995H7.20078V4.69995ZM7.20078 6.19995C6.49161 6.19995 5.99729 6.20036 5.61037 6.22676C5.23018 6.2527 5.00878 6.3012 4.83974 6.37122L4.26572 4.9854C4.64799 4.82706 5.0517 4.76139 5.50826 4.73024C5.95808 4.69954 6.51213 4.69995 7.20078 4.69995V6.19995ZM1.95078 9.94995C1.95078 9.2613 1.95037 8.70725 1.98107 8.25743C2.01222 7.80087 2.07789 7.39716 2.23623 7.01489L3.62205 7.58891C3.55203 7.75795 3.50353 7.97935 3.47759 8.35954C3.45119 8.74646 3.45078 9.24078 3.45078 9.94995H1.95078ZM4.83974 6.37122C4.28843 6.59958 3.85041 7.0376 3.62205 7.58891L2.23623 7.01489C2.61683 6.09603 3.34686 5.36601 4.26572 4.9854L4.83974 6.37122Z" fill="#292929"/>
<path d="M4.92064 10.7239C5.23885 10.4587 5.71177 10.5017 5.97695 10.8199C6.24212 11.1381 6.19913 11.611 5.88092 11.8762L4.92064 10.7239ZM2.70078 13.55L2.22064 14.1262C2.04965 13.9837 1.95078 13.7726 1.95078 13.55C1.95078 13.3275 2.04965 13.1164 2.22064 12.9739L2.70078 13.55ZM5.88092 15.2239C6.19913 15.4891 6.24212 15.962 5.97695 16.2802C5.71177 16.5984 5.23885 16.6414 4.92064 16.3762L5.88092 15.2239ZM13.4488 13.3217L13.7358 14.0146L13.4488 13.3217ZM5.88092 11.8762L3.18092 14.1262L2.22064 12.9739L4.92064 10.7239L5.88092 11.8762ZM3.18092 12.9739L5.88092 15.2239L4.92064 16.3762L2.22064 14.1262L3.18092 12.9739ZM10.8008 14.3H2.70078V12.8H10.8008V14.3ZM10.8008 12.8C11.51 12.8 12.0043 12.7996 12.3912 12.7732C12.7714 12.7473 12.9928 12.6988 13.1618 12.6288L13.7358 14.0146C13.3536 14.1729 12.9499 14.2386 12.4933 14.2698C12.0435 14.3005 11.4894 14.3 10.8008 14.3V12.8ZM16.0508 9.05005C16.0508 9.7387 16.0512 10.2927 16.0205 10.7426C15.9893 11.1991 15.9237 11.6028 15.7653 11.9851L14.3795 11.4111C14.4495 11.242 14.498 11.0206 14.524 10.6405C14.5504 10.2535 14.5508 9.75922 14.5508 9.05005H16.0508ZM13.1618 12.6288C13.7131 12.4004 14.1511 11.9624 14.3795 11.4111L15.7653 11.9851C15.3847 12.904 14.6547 13.634 13.7358 14.0146L13.1618 12.6288Z" fill="#292929"/>
</svg>
