<svg width="14" height="14" viewBox="0 0 14 14" fill="none" xmlns="http://www.w3.org/2000/svg">
<path fill-rule="evenodd" clip-rule="evenodd" d="M7.14898 1.40632C7.28445 1.64668 7.26608 1.94421 7.10207 2.16608C6.62039 2.81775 6.3886 3.62065 6.44886 4.42877C6.50913 5.23688 6.85744 5.99653 7.43045 6.56954C8.00346 7.14255 8.76311 7.49086 9.57122 7.55113C10.3793 7.61139 11.1822 7.3796 11.8339 6.89792C12.0558 6.73391 12.3533 6.71554 12.5937 6.85101C12.834 6.98648 12.9724 7.2505 12.947 7.52525C12.843 8.65059 12.4207 9.72305 11.7294 10.6171C11.0382 11.5112 10.1066 12.1899 9.04363 12.5738C7.9807 12.9578 6.83041 13.0311 5.72736 12.7851C4.62431 12.5392 3.61411 11.9841 2.81498 11.185C2.01585 10.3859 1.46084 9.37569 1.21488 8.27263C0.968928 7.16958 1.04221 6.01929 1.42614 4.95637C1.81008 3.89344 2.48879 2.96184 3.38287 2.27057C4.27694 1.57931 5.3494 1.15697 6.47474 1.05297C6.74949 1.02758 7.01351 1.16595 7.14898 1.40632Z" fill="white"/>
</svg>
