<svg width="20" height="20" viewBox="0 0 20 20" fill="none" xmlns="http://www.w3.org/2000/svg">
<g clip-path="url(#clip0_6848_221458)">
<path d="M9.16406 3.33333H3.33073C2.8887 3.33333 2.46478 3.50892 2.15222 3.82148C1.83966 4.13404 1.66406 4.55797 1.66406 4.99999V16.6667C1.66406 17.1087 1.83966 17.5326 2.15222 17.8452C2.46478 18.1577 2.8887 18.3333 3.33073 18.3333H14.9974C15.4394 18.3333 15.8633 18.1577 16.1759 17.8452C16.4885 17.5326 16.6641 17.1087 16.6641 16.6667V10.8333" stroke="#737373" stroke-width="1.5" stroke-linecap="round" stroke-linejoin="round"/>
<path d="M15.4141 2.08333C15.7456 1.75181 16.1952 1.56557 16.6641 1.56557C17.1329 1.56557 17.5825 1.75181 17.9141 2.08333C18.2456 2.41485 18.4318 2.86449 18.4318 3.33333C18.4318 3.80217 18.2456 4.25181 17.9141 4.58333L9.9974 12.5L6.66406 13.3333L7.4974 10L15.4141 2.08333Z" stroke="#737373" stroke-width="1.5" stroke-linecap="round" stroke-linejoin="round"/>
</g>
<defs>
<clipPath id="clip0_6848_221458">
<rect width="20" height="20" fill="white"/>
</clipPath>
</defs>
</svg>
