<svg width="20" height="20" viewBox="0 0 20 20" fill="none" xmlns="http://www.w3.org/2000/svg">
<path d="M9.35248 2.02639C9.58881 1.89509 9.70698 1.82944 9.83212 1.80371C9.94288 1.78093 10.0571 1.78093 10.1679 1.80371C10.293 1.82944 10.4112 1.89509 10.6475 2.02639L16.8142 5.45232C17.0638 5.59098 17.1886 5.66032 17.2795 5.75893C17.3599 5.84617 17.4207 5.94958 17.4579 6.06222C17.5 6.18956 17.5 6.33232 17.5 6.61786V13.3821C17.5 13.6677 17.5 13.8104 17.4579 13.9378C17.4207 14.0504 17.3599 14.1538 17.2795 14.241C17.1886 14.3397 17.0638 14.409 16.8142 14.5477L10.6475 17.9736C10.4112 18.1049 10.293 18.1705 10.1679 18.1963C10.0571 18.219 9.94288 18.219 9.83212 18.1963C9.70698 18.1705 9.58881 18.1049 9.35248 17.9736L3.18581 14.5477C2.93621 14.409 2.8114 14.3397 2.72053 14.241C2.64013 14.1538 2.57929 14.0504 2.54207 13.9378C2.5 13.8104 2.5 13.6677 2.5 13.3821V6.61786C2.5 6.33232 2.5 6.18956 2.54207 6.06222C2.57929 5.94958 2.64013 5.84617 2.72053 5.75893C2.8114 5.66032 2.93621 5.59099 3.18581 5.45232L9.35248 2.02639Z" stroke="#8C8C8C"  stroke-width="1.66" stroke-linecap="round" stroke-linejoin="round"/>
<path fill-rule="evenodd" clip-rule="evenodd" d="M9.99715 7.55658C9.16408 6.58266 7.77489 6.32067 6.73112 7.21249C5.68735 8.10432 5.5404 9.5954 6.36008 10.6502C6.88509 11.3257 8.22965 12.5785 9.12853 13.392C9.42724 13.6623 9.57659 13.7974 9.75549 13.8516C9.90927 13.8982 10.085 13.8982 10.2388 13.8516C10.4177 13.7974 10.5671 13.6623 10.8658 13.392C11.7646 12.5785 13.1092 11.3257 13.6342 10.6502C14.4539 9.5954 14.3249 8.09493 13.2632 7.21249C12.2015 6.33005 10.8302 6.58266 9.99715 7.55658Z" stroke="#8C8C8C"  stroke-width="1.66" stroke-linecap="round" stroke-linejoin="round"/>
</svg>
