<svg xmlns="http://www.w3.org/2000/svg" width="20" height="20" viewBox="0 0 20 20" fill="none">
  <path d="M2.5 6.66666L12.5 6.66666M12.5 6.66666C12.5 8.04737 13.6193 9.16666 15 9.16666C16.3807 9.16666 17.5 8.04737 17.5 6.66666C17.5 5.28594 16.3807 4.16666 15 4.16666C13.6193 4.16666 12.5 5.28595 12.5 6.66666ZM7.5 13.3333L17.5 13.3333M7.5 13.3333C7.5 14.714 6.38071 15.8333 5 15.8333C3.61929 15.8333 2.5 14.714 2.5 13.3333C2.5 11.9526 3.61929 10.8333 5 10.8333C6.38071 10.8333 7.5 11.9526 7.5 13.3333Z" stroke="#F5620F"  stroke-width="2" stroke-linecap="round" stroke-linejoin="round"/>
</svg>