<svg width="20" height="20" viewBox="0 0 20 20" fill="none" xmlns="http://www.w3.org/2000/svg">
<g clip-path="url(#clip0_8156_99725)">
<path d="M9.54688 6.07479V11.0748L12.8802 12.7415" stroke="#8C8C8C" stroke-width="1.5" stroke-linecap="round" stroke-linejoin="round"/>
<path d="M2.41406 10C2.41406 9.58579 2.07828 9.25 1.66406 9.25C1.24985 9.25 0.914062 9.58579 0.914062 10H2.41406ZM2.86481 5.68826L2.12817 5.82922C2.19581 6.18266 2.50495 6.43826 2.86481 6.43826V5.68826ZM3.04368 2.63251C2.96583 2.22568 2.57291 1.95899 2.16608 2.03684C1.75925 2.11469 1.49256 2.5076 1.57041 2.91443L3.04368 2.63251ZM5.86483 6.43826C6.27905 6.43826 6.61483 6.10247 6.61483 5.68826C6.61483 5.27404 6.27905 4.93826 5.86483 4.93826V6.43826ZM17.5807 10C17.5807 14.1882 14.1856 17.5833 9.99739 17.5833V19.0833C15.014 19.0833 19.0807 15.0166 19.0807 10H17.5807ZM9.99739 17.5833C5.80924 17.5833 2.41406 14.1882 2.41406 10H0.914062C0.914062 15.0166 4.98081 19.0833 9.99739 19.0833V17.5833ZM9.99739 2.41667C14.1856 2.41667 17.5807 5.81184 17.5807 10H19.0807C19.0807 4.98341 15.014 0.916668 9.99739 0.916668V2.41667ZM3.50628 6.07687C4.83641 3.88125 7.24622 2.41667 9.99739 2.41667V0.916668C6.7001 0.916668 3.81396 2.67403 2.22334 5.29965L3.50628 6.07687ZM1.57041 2.91443L2.12817 5.82922L3.60144 5.5473L3.04368 2.63251L1.57041 2.91443ZM2.86481 6.43826H5.86483V4.93826H2.86481V6.43826Z" fill="#8C8C8C"/>
</g>
<defs>
<clipPath id="clip0_8156_99725">
<rect width="20" height="20" fill="white"/>
</clipPath>
</defs>
</svg>
