<svg width="16" height="16" viewBox="0 0 16 16" fill="none" xmlns="http://www.w3.org/2000/svg">
<path d="M9.66667 6.33259V4.35082C9.66667 3.35353 9.03283 2.46648 8.08933 2.14336L7.82933 2.05431C7.57736 1.96801 7.30137 1.9858 7.06255 2.10374C6.82374 2.22167 6.64184 2.43 6.55719 2.68253L5.33333 6.3334H2.95833C2.42906 6.3334 2 6.76246 2 7.29174V13.0417C2 13.571 2.42906 14.0001 2.95833 14.0001H11.7907C12.6702 14.0001 13.4369 13.4015 13.6502 12.5483L14.6085 8.71493C14.7516 8.14234 14.623 7.53574 14.2598 7.07053C13.8966 6.60532 13.3393 6.3334 12.7491 6.3334H9.66667" stroke="#8C8C8C" stroke-width="1.5" stroke-linecap="round" stroke-linejoin="round"/>
<path d="M5.33333 14V6.33337" stroke="#8C8C8C" stroke-width="1.5" stroke-linecap="round" stroke-linejoin="round"/>
</svg>
