<svg width="16" height="16" viewBox="0 0 16 16" fill="none" xmlns="http://www.w3.org/2000/svg">
<path d="M6.33333 9.66741L6.33333 11.6492C6.33333 12.6465 6.96717 13.5335 7.91067 13.8566L8.17067 13.9457C8.42264 14.032 8.69863 14.0142 8.93745 13.8963C9.17626 13.7783 9.35816 13.57 9.44281 13.3175L10.6667 9.6666L13.0417 9.6666C13.5709 9.6666 14 9.23754 14 8.70826L14 2.95826C14 2.42899 13.5709 1.99993 13.0417 1.99993L4.20928 1.99993C3.32978 1.99993 2.56315 2.5985 2.34984 3.45174L1.39151 7.28507C1.24836 7.85766 1.377 8.46426 1.74022 8.92947C2.10344 9.39467 2.66074 9.6666 3.25095 9.6666L6.33333 9.6666" stroke="white" stroke-width="1.5" stroke-linecap="round" stroke-linejoin="round"/>
<path d="M10.6667 1.99996L10.6667 9.66663" stroke="white" stroke-width="1.5" stroke-linecap="round" stroke-linejoin="round"/>
</svg>
