<svg width="18" height="18" viewBox="0 0 18 18" fill="none" xmlns="http://www.w3.org/2000/svg">
<path d="M10.875 7.12412V4.89463C10.875 3.77267 10.1619 2.77475 9.1005 2.41123L8.808 2.31105C8.52453 2.21397 8.21404 2.23398 7.94537 2.36666C7.67671 2.49933 7.47207 2.7337 7.37684 3.0178L6 7.12503H3.32812C2.73269 7.12503 2.25 7.60773 2.25 8.20316V14.6719C2.25 15.2673 2.73269 15.75 3.32812 15.75H13.2646C14.254 15.75 15.1165 15.0766 15.3564 14.1168L16.4346 9.80425C16.5956 9.16009 16.4509 8.47766 16.0423 7.9543C15.6336 7.43094 15.0067 7.12503 14.3427 7.12503H10.875" stroke="#59C65D" stroke-width="1.5" stroke-linecap="round" stroke-linejoin="round"/>
<path d="M6 15.75V7.125" stroke="#59C65D" stroke-width="1.5" stroke-linecap="round" stroke-linejoin="round"/>
</svg>
