<svg width="33" height="32" viewBox="0 0 33 32" fill="none" xmlns="http://www.w3.org/2000/svg">
<g clip-path="url(#clip0_5228_311347)">
<path d="M13.6997 5.65329C14.6174 5.43846 15.5571 5.33107 16.4997 5.33329C25.833 5.33329 31.1663 16 31.1663 16C30.357 17.5141 29.3917 18.9396 28.2863 20.2533M19.3263 18.8266C18.9601 19.2196 18.5185 19.5348 18.0279 19.7535C17.5372 19.9721 17.0075 20.0896 16.4705 20.0991C15.9334 20.1086 15.3999 20.0098 14.9018 19.8086C14.4037 19.6074 13.9513 19.308 13.5715 18.9282C13.1916 18.5483 12.8922 18.0959 12.691 17.5978C12.4898 17.0997 12.391 16.5662 12.4005 16.0292C12.41 15.4921 12.5276 14.9624 12.7462 14.4717C12.9648 13.9811 13.28 13.5395 13.673 13.1733M24.4197 23.92C22.1405 25.6573 19.3651 26.6198 16.4997 26.6666C7.16634 26.6666 1.83301 16 1.83301 16C3.49153 12.9091 5.79185 10.2088 8.57967 8.07995L24.4197 23.92Z" stroke="#8C8C8C" stroke-width="2" stroke-linecap="round" stroke-linejoin="round"/>
<path d="M1.83301 1.33337L31.1663 30.6667" stroke="#8C8C8C" stroke-width="2" stroke-linecap="round" stroke-linejoin="round"/>
</g>
<defs>
<clipPath id="clip0_5228_311347">
<rect width="32" height="32" fill="white" transform="translate(0.5)"/>
</clipPath>
</defs>
</svg>