<svg width="24" height="24" viewBox="0 0 24 24" fill="none" xmlns="http://www.w3.org/2000/svg">
<g clip-path="url(#clip0_3098_90622)">
<path d="M15.1253 1.41252C12.0468 1.78938 8.50169 3.11043 5.80616 5.80596C3.12405 8.48808 1.81653 12.0251 1.43858 15.0992M15.1253 1.41252C18.0331 1.05656 20.5246 1.54296 21.4907 2.50911C22.4569 3.47526 22.9433 5.96676 22.5873 8.87454M15.1253 1.41252L22.5873 8.87454M22.5873 8.87454C22.2105 11.9531 20.8894 15.4982 18.1939 18.1937C15.5118 20.8758 11.9748 22.1833 8.9006 22.5613M1.43858 15.0992C1.07791 18.0328 1.56373 20.545 2.5093 21.4905C3.45487 22.4361 5.967 22.9219 8.9006 22.5613M1.43858 15.0992L8.9006 22.5613M16.4483 7.47726L14.752 9.17355M7.58211 16.3434L9.22544 14.7001M14.752 9.17355L13.3555 7.77703M14.752 9.17355L16.1529 10.5745M14.752 9.17355L11.9289 11.9966M9.22544 14.7001L7.82893 13.3036M9.22544 14.7001L10.6264 16.101M9.22544 14.7001L11.9289 11.9966M11.9289 11.9966L10.5324 10.6001M11.9289 11.9966L13.3298 13.3975" stroke="white" stroke-linecap="round"/>
</g>
<defs>
<clipPath id="clip0_3098_90622">
<rect width="24" height="24" fill="white"/>
</clipPath>
</defs>
</svg>
