<svg width="24" height="24" viewBox="0 0 24 24" fill="none" xmlns="http://www.w3.org/2000/svg">
<g clip-path="url(#clip0_3100_90705)">
<path d="M2.50936 21.4907L10.4445 13.5556M2.50936 21.4907C4.13289 23.1142 11.9515 22.4345 17.193 17.1929C22.4346 11.9513 23.1584 4.17683 21.4908 2.50923M2.50936 21.4907C0.885838 19.8671 1.56556 12.0486 6.80713 6.807C12.0487 1.56542 19.8232 0.841629 21.4908 2.50923M21.4908 2.50923L13.5232 10.4769M12.0001 11.9999L11.2468 11.2378M12.0001 11.9999L12.8998 12.9115M12.0001 11.9999L13.5232 10.4769M12.0001 11.9999L10.4445 13.5556M13.5232 10.4769L12.5898 9.58483M13.5232 10.4769L14.3668 11.2378M10.4445 13.5556L9.55243 12.6429M10.4445 13.5556L11.5154 14.4199" stroke="white" stroke-linecap="round"/>
</g>
<defs>
<clipPath id="clip0_3100_90705">
<rect width="24" height="24" fill="white" transform="translate(0 0.00012207)"/>
</clipPath>
</defs>
</svg>
