<svg width="24" height="24" viewBox="0 0 24 24" fill="none" xmlns="http://www.w3.org/2000/svg">
<g clip-path="url(#clip0_3100_90695)">
<path d="M3.50619 13.8233L1.67544 15.9709C1.07891 16.7374 0.723633 17.7009 0.723633 18.7473C0.723633 21.246 2.74922 23.2716 5.2479 23.2716C6.1922 23.2716 7.06892 22.9823 7.79429 22.4875L10.2158 20.7294M3.50619 13.8233L7.74529 18.1865M3.50619 13.8233L5.41769 9.93085M10.2158 20.7294L7.74529 18.1865M10.2158 20.7294L14.1536 18.7096M9.16591 2.29827L12.9603 6.03842M9.16591 2.29827C9.84675 1.40947 11.8081 -0.0478582 14.2067 1.23322C15.3242 1.80565 15.7945 3.61885 15.89 4.4539M9.16591 2.29827L7.3292 6.03842M21.8238 14.7753L18.0913 11.0962M21.8238 14.7753C22.5833 14.0659 23.8745 12.1429 22.963 10.1259C22.2816 8.68125 20.3304 8.18102 19.4399 8.11149M21.8238 14.7753L18.0913 16.6898M6.03158 15.9709L8.25561 12.7827M12.9603 6.03842L18.0913 11.0962M12.9603 6.03842C13.5481 5.4138 14.6622 4.59488 15.89 4.4539M12.9603 6.03842L10.6604 9.33535M7.74529 18.1865L11.2458 15.7876M18.0913 11.0962C18.6374 10.4814 19.332 9.34634 19.4399 8.11149M18.0913 11.0962L14.7519 13.3848M15.89 4.4539C16.728 4.35768 17.6189 4.57726 18.4316 5.38993C19.281 6.23938 19.5194 7.20248 19.4399 8.11149M7.3292 6.03842L5.41769 9.93085M7.3292 6.03842L10.6604 9.33535M18.0913 16.6898L14.1536 18.7096M18.0913 16.6898L14.7519 13.3848M5.41769 9.93085L8.25561 12.7827M14.1536 18.7096L11.2458 15.7876M11.2458 15.7876L8.25561 12.7827M11.2458 15.7876L14.7519 13.3848M8.25561 12.7827L10.6604 9.33535M10.6604 9.33535L14.7519 13.3848" stroke="white" stroke-linejoin="round"/>
</g>
<defs>
<clipPath id="clip0_3100_90695">
<rect width="24" height="24" fill="white" transform="translate(0 0.00012207)"/>
</clipPath>
</defs>
</svg>
