<svg width="24" height="24" viewBox="0 0 24 24" fill="none" xmlns="http://www.w3.org/2000/svg">
<g clip-path="url(#clip0_3103_90770)">
<path d="M13.0315 16.9448L15.3254 15.6258M13.0315 19.296L15.8414 17.5182M12.3986 6.21672C11.1565 6.27961 8.67241 7.05625 8.67241 9.65975C8.67241 12.2632 10.8421 12.9141 11.9269 12.9141H12.3986M12.3986 6.21672H14.9926M12.3986 6.21672V12.9141M21.692 6.21672L23.0105 0.981445H19.2373L17.5867 6.21672M21.692 6.21672L21.407 7.34868C20.8882 9.20382 18.9072 12.9141 15.1341 12.9141H14.9926M21.692 6.21672H17.5867M17.5867 6.21672H14.9926M14.9926 6.21672V12.9141M14.9926 12.9141H12.3986M10.871 18.0781C10.871 20.8068 8.65903 23.0188 5.93039 23.0188C3.20175 23.0188 0.989746 20.8068 0.989746 18.0781C0.989746 15.3495 3.20175 13.1375 5.93039 13.1375C8.65903 13.1375 10.871 15.3495 10.871 18.0781Z" stroke="white" stroke-linecap="round" stroke-linejoin="round"/>
</g>
<defs>
<clipPath id="clip0_3103_90770">
<rect width="24" height="24" fill="white" transform="translate(0 0.00012207)"/>
</clipPath>
</defs>
</svg>
