<svg width="24" height="24" viewBox="0 0 24 24" fill="none" xmlns="http://www.w3.org/2000/svg">
<path d="M15.9903 12H19.4026M16.6185 8.12268L18.272 8.68378M19.8946 9.15707L18.272 8.68378M16.6185 15.8773L18.0443 15.3772M19.8946 14.8429L18.0443 15.3772M3.49455 4.34615C1.66896 6.37353 0.557861 9.05701 0.557861 12C0.557861 14.943 1.66896 17.6265 3.49455 19.6539M3.49455 4.34615C5.58891 2.02031 8.62362 0.557983 11.9999 0.557983C15.3761 0.557983 18.4109 2.02031 20.5052 4.34616M3.49455 4.34615C4.2972 5.27404 5.22185 6.78501 5.78174 8.65231M3.49455 19.6539C5.58891 21.9797 8.62362 23.442 11.9999 23.442C15.3761 23.442 18.4109 21.9797 20.5052 19.6539M3.49455 19.6539C4.64126 18.2095 5.37729 16.7602 5.8053 15.354M20.5052 19.6539C22.3308 17.6265 23.4419 14.943 23.4419 12C23.4419 9.05701 22.3308 6.37353 20.5052 4.34616M20.5052 19.6539C19.6225 18.8217 18.5954 17.3409 18.0443 15.3772M20.5052 4.34616C19.4404 5.86058 18.7223 7.31347 18.272 8.68378M7.98438 12H4.54864M7.3562 8.12268L5.78174 8.65231M4.05664 9.15707L5.78174 8.65231M7.3562 15.8773L5.8053 15.354M4.05664 14.8429L5.8053 15.354M18.272 8.68378C17.8877 9.85376 17.6986 10.9635 17.6557 12C17.6046 13.2377 17.7619 14.3709 18.0443 15.3772M5.8053 15.354C6.15712 14.1981 6.30083 13.0712 6.29345 12C6.2852 10.8022 6.08806 9.67393 5.78174 8.65231" stroke="white" stroke-linecap="round"/>
</svg>
