<svg width="24" height="24" viewBox="0 0 24 24" fill="none" xmlns="http://www.w3.org/2000/svg">
<path d="M23.4419 12H0.557861M23.4419 12C23.4419 14.943 22.3308 17.6265 20.5052 19.6539M23.4419 12C23.4419 9.05701 22.3308 6.37353 20.5052 4.34616M11.9999 23.442V0.557983M11.9999 23.442C8.62362 23.442 5.58891 21.9797 3.49455 19.6539M11.9999 23.442C15.3761 23.442 18.4109 21.9797 20.5052 19.6539M0.557861 12C0.557861 9.05701 1.66896 6.37353 3.49455 4.34615M0.557861 12C0.557861 14.943 1.66896 17.6265 3.49455 19.6539M11.9999 0.557983C8.62362 0.557983 5.58891 2.02031 3.49455 4.34615M11.9999 0.557983C15.3761 0.557983 18.4109 2.02031 20.5052 4.34616M3.49455 4.34615C5.60687 6.78806 8.56412 13.2683 3.49455 19.6539M20.5052 19.6539C18.3477 17.6198 15.3272 11.7105 20.5052 4.34616" stroke="white"/>
</svg>
