<svg width="24" height="24" viewBox="0 0 24 24" fill="none" xmlns="http://www.w3.org/2000/svg">
<g clip-path="url(#clip0_3103_90715)">
<path d="M23.4419 12.0001C23.4419 9.87195 22.8609 7.87949 21.8488 6.17269C21.2295 5.12815 20.4487 4.19061 19.5408 3.39443M23.4419 12.0001C23.4419 15.9048 21.486 19.3527 18.5004 21.4175C17.9035 21.8303 17.2653 22.1879 16.5934 22.4828M23.4419 12.0001L17.1914 9.17177M16.5934 7.55155C16.5051 7.47545 16.4093 7.40786 16.3072 7.35007C16.0486 7.20362 15.7496 7.12002 15.4312 7.12002C15.1127 7.12002 14.8138 7.20362 14.5551 7.35007M16.5934 7.55155C16.7395 7.67755 16.865 7.8269 16.964 7.9938C17.1215 8.25943 17.2119 8.56951 17.2119 8.90071C17.2119 8.99287 17.2049 9.08339 17.1914 9.17177M16.5934 7.55155L19.5408 3.39443M19.5408 3.39443C18.9536 2.87948 18.3132 2.42366 17.629 2.03628C15.967 1.09527 14.0462 0.558105 11.9999 0.558105C11.6361 0.558105 11.2762 0.575085 10.9211 0.608295M14.5551 7.35007C14.284 7.50356 14.0572 7.72611 13.8984 7.9938C13.8107 8.1417 13.7438 8.30338 13.7018 8.47481M14.5551 7.35007C14.4944 6.64234 13.6826 4.30318 10.9211 0.608295M10.9211 0.608295C7.18514 0.957661 3.971 3.10322 2.15093 6.17269C1.92624 6.55162 1.7228 6.94462 1.54225 7.35007M1.54225 7.35007C0.909531 8.77087 0.557861 10.3444 0.557861 12.0001C0.557861 12.5923 0.602844 13.1739 0.689579 13.7418C1.05233 16.117 2.14539 18.2519 3.73243 19.9102M1.54225 7.35007C3.89641 7.21633 9.62413 7.25405 13.7018 8.47481M13.7018 8.47481C13.6683 8.61128 13.6505 8.75392 13.6505 8.90071C13.6505 8.99287 13.6575 9.08339 13.671 9.17177C13.7213 9.50111 13.8618 9.80077 14.0665 10.0447M3.73243 19.9102C5.81542 22.0867 8.74936 23.4421 11.9999 23.4421C13.6336 23.4421 15.1874 23.0997 16.5934 22.4828M3.73243 19.9102C6.05782 17.0031 11.3802 10.9599 14.0665 10.0447M14.0665 10.0447C14.3932 10.434 14.8833 10.6814 15.4312 10.6814C15.5952 10.6814 15.754 10.6592 15.9048 10.6177M16.5934 22.4828C16.9766 20.3982 17.3754 15.1068 15.9048 10.6177M15.9048 10.6177C16.0995 10.5641 16.2809 10.4783 16.4429 10.3663C16.837 10.0937 17.1159 9.66619 17.1914 9.17177" stroke="white"/>
</g>
<defs>
<clipPath id="clip0_3103_90715">
<rect width="24" height="24" fill="white" transform="translate(0 0.00012207)"/>
</clipPath>
</defs>
</svg>
