<svg width="24" height="24" viewBox="0 0 24 24" fill="none" xmlns="http://www.w3.org/2000/svg">
<path d="M7.63068 15.9558C8.91012 16.6878 10.4042 17.108 12.0002 17.108C12.533 17.108 13.0545 17.0612 13.5604 16.9715V12.553C13.5425 11.6587 13.9881 9.86997 15.9136 9.86997C17.8391 9.86997 18.2679 11.6587 18.2416 12.553V13.4605M7.63068 15.9558C5.11563 14.5171 3.42993 11.8741 3.42993 8.85183C3.42993 4.29206 7.26696 0.595642 12.0002 0.595642C16.7334 0.595642 20.5704 4.29206 20.5704 8.85183C20.5704 12.1658 18.8216 17.2742 17.9472 19.4142V19.6801M7.63068 15.9558V19.6801M7.63068 19.6801V23.4044H17.9472V19.6801M7.63068 19.6801H9.83276H17.9472" stroke="white" stroke-linecap="round" stroke-linejoin="round"/>
</svg>
