<svg width="24" height="24" viewBox="0 0 24 24" fill="none" xmlns="http://www.w3.org/2000/svg">
<path d="M10.8437 17.933C10.4697 17.5632 9.95553 17.335 9.38808 17.335C8.24456 17.335 7.31756 18.262 7.31756 19.4055C7.31756 19.9395 7.51974 20.4263 7.85174 20.7936M10.8437 17.933C11.2233 18.3083 11.4586 18.8294 11.4586 19.4055C11.4586 20.549 10.5316 21.476 9.38808 21.476C8.77861 21.476 8.23063 21.2127 7.85174 20.7936M10.8437 17.933L16.0773 12.5318C16.4272 12.1707 16.4364 11.5994 16.3176 11.1109C16.1556 10.4445 16.2502 9.52989 17.1681 8.62616C17.9102 7.89549 19.0679 6.74455 20.1738 5.64255M7.85174 20.7936L5.988 22.7346C4.62153 22.0357 1.7768 20.097 1.32959 17.933C2.56016 16.6504 8.15629 11.0847 11.3467 7.92015C11.718 7.55188 12.314 7.55445 12.8157 7.70224C13.4681 7.89446 14.3361 7.82882 15.145 6.92247L18.2376 3.78528M18.2376 3.78528L19.9845 2.01311C20.3704 1.62166 20.9999 1.61504 21.3939 1.99828L21.8982 2.48878C22.298 2.87763 22.3026 3.51828 21.908 3.91241C21.4019 4.4179 20.796 5.02248 20.1738 5.64255M18.2376 3.78528L20.1738 5.64255" stroke="white" stroke-linejoin="round"/>
</svg>
