<svg width="24" height="25" viewBox="0 0 24 25" fill="none" xmlns="http://www.w3.org/2000/svg">
<g clip-path="url(#clip0_3100_90639)">
<path d="M19.8769 4.4743H19.3769C19.3769 4.75044 19.6007 4.9743 19.8769 4.9743V4.4743ZM22.5351 4.4743L22.9003 4.81573C23.0363 4.67023 23.073 4.45789 22.9937 4.2752C22.9144 4.0925 22.7342 3.9743 22.5351 3.9743V4.4743ZM19.8769 1.96181H20.3769C20.3769 1.75958 20.255 1.57726 20.0682 1.49987C19.8814 1.42248 19.6663 1.46525 19.5233 1.60825L19.8769 1.96181ZM17.0332 4.80551L16.6796 4.45196C16.5858 4.54573 16.5332 4.6729 16.5332 4.80551H17.0332ZM11.6543 11.99C11.459 12.1852 11.459 12.5018 11.6543 12.6971C11.8495 12.8923 12.1661 12.8923 12.3614 12.6971L11.6543 11.99ZM19.8769 7.31805V7.81805C20.0153 7.81805 20.1476 7.76064 20.2421 7.65949L19.8769 7.31805ZM18.5344 3.30425L18.888 3.6578L18.5344 3.30425ZM1.05786 12.698C1.05786 6.65489 5.95677 1.75598 11.9999 1.75598V0.755981C5.40448 0.755981 0.0578613 6.10261 0.0578613 12.698H1.05786ZM11.9999 23.64C5.95677 23.64 1.05786 18.7411 1.05786 12.698H0.0578613C0.0578613 19.2934 5.40448 24.64 11.9999 24.64V23.64ZM22.9419 12.698C22.9419 18.7411 18.043 23.64 11.9999 23.64V24.64C18.5953 24.64 23.9419 19.2934 23.9419 12.698H22.9419ZM4.20352 12.698C4.20352 8.39219 7.69407 4.90164 11.9999 4.90164V3.90164C7.14178 3.90164 3.20352 7.8399 3.20352 12.698H4.20352ZM11.9999 20.4944C7.69407 20.4944 4.20352 17.0038 4.20352 12.698H3.20352C3.20352 17.5561 7.14178 21.4944 11.9999 21.4944V20.4944ZM19.7962 12.698C19.7962 17.0038 16.3057 20.4944 11.9999 20.4944V21.4944C16.858 21.4944 20.7962 17.5561 20.7962 12.698H19.7962ZM12 8.28705C14.4361 8.28705 16.4109 10.2619 16.4109 12.698H17.4109C17.4109 9.70961 14.9883 7.28705 12 7.28705V8.28705ZM7.58906 12.698C7.58906 10.2619 9.56389 8.28705 12 8.28705V7.28705C9.01161 7.28705 6.58906 9.70961 6.58906 12.698H7.58906ZM12 17.1089C9.56389 17.1089 7.58906 15.1341 7.58906 12.698H6.58906C6.58906 15.6863 9.01161 18.1089 12 18.1089V17.1089ZM16.4109 12.698C16.4109 15.1341 14.4361 17.1089 12 17.1089V18.1089C14.9883 18.1089 17.4109 15.6863 17.4109 12.698H16.4109ZM19.8769 4.9743H22.5351V3.9743H19.8769V4.9743ZM20.3769 4.4743V1.96181H19.3769V4.4743H20.3769ZM12.3614 12.6971L17.3867 7.6716L16.6796 6.9645L11.6543 11.99L12.3614 12.6971ZM19.8769 6.81805H18.3156V7.81805H19.8769V6.81805ZM18.3156 6.81805H17.0332V7.81805H18.3156V6.81805ZM17.9351 7.64246C19.096 9.00391 19.7962 10.7685 19.7962 12.698H20.7962C20.7962 10.5219 20.0054 8.52923 18.6961 6.99364L17.9351 7.64246ZM11.9999 4.90164C13.779 4.90164 15.4177 5.49699 16.7295 6.49959L17.3368 5.70507C15.8567 4.57385 14.0061 3.90164 11.9999 3.90164V4.90164ZM16.5332 4.80551V6.10233H17.5332V4.80551H16.5332ZM16.5332 6.10233V7.31805H17.5332V6.10233H16.5332ZM19.5233 1.60825L18.1809 2.9507L18.888 3.6578L20.2304 2.31536L19.5233 1.60825ZM18.1809 2.9507L16.6796 4.45196L17.3867 5.15907L18.888 3.6578L18.1809 2.9507ZM11.9999 1.75598C14.3238 1.75598 16.4771 2.47987 18.2485 3.71446L18.8203 2.89404C16.8865 1.54633 14.5348 0.755981 11.9999 0.755981V1.75598ZM20.2421 7.65949L21.5712 6.23761L20.8407 5.55474L19.5116 6.97662L20.2421 7.65949ZM21.5712 6.23761L22.9003 4.81573L22.1698 4.13286L20.8407 5.55474L21.5712 6.23761ZM20.8361 6.23267C21.5034 6.96602 22.9419 9.35515 22.9419 12.698H23.9419C23.9419 9.08982 22.3992 6.46462 21.5758 5.55968L20.8361 6.23267Z" fill="white"/>
</g>
<defs>
<clipPath id="clip0_3100_90639">
<rect width="24" height="24" fill="white" transform="translate(0 0.697998)"/>
</clipPath>
</defs>
</svg>
