<svg width="24" height="24" viewBox="0 0 24 24" fill="none" xmlns="http://www.w3.org/2000/svg">
<path d="M10.9817 12.5323C11.0448 12.3432 11.079 12.1408 11.079 11.9305C11.079 10.8806 10.2279 10.0295 9.17797 10.0295C9.17512 10.0295 9.17228 10.0295 9.16943 10.0295M10.9817 12.5323C10.73 13.2872 10.0175 13.8315 9.17797 13.8315C8.55246 13.8315 7.99752 13.5294 7.65108 13.0631M10.9817 12.5323H12.9822M12.9822 12.5323C13.234 13.2872 13.9464 13.8315 14.786 13.8315C15.4115 13.8315 15.9664 13.5294 16.3129 13.0631M12.9822 12.5323C12.9191 12.3432 12.885 12.1408 12.885 11.9305C12.885 10.8806 13.7361 10.0295 14.786 10.0295C14.8024 10.0295 14.8188 10.0297 14.8351 10.0301M7.53458 5.5623C7.06562 5.32615 6.53579 5.19318 5.97491 5.19318C4.05707 5.19318 2.50235 6.74789 2.50235 8.66573C2.50235 8.91004 2.52758 9.14845 2.57557 9.37851M7.53458 5.5623C8.66915 6.13361 9.44746 7.30878 9.44746 8.66573C9.44746 9.14985 9.3484 9.61083 9.16943 10.0295M7.53458 5.5623H16.4697M16.4697 5.5623C15.3352 6.13361 14.5569 7.30878 14.5569 8.66573C14.5569 9.15008 14.656 9.61127 14.8351 10.0301M16.4697 5.5623C16.9387 5.32615 17.4685 5.19318 18.0294 5.19318C19.9473 5.19318 21.502 6.74789 21.502 8.66573C21.502 8.91004 21.4767 9.14845 21.4287 9.37851M21.4287 9.37851C21.1 10.9544 19.7029 12.1383 18.0294 12.1383C17.5531 12.1383 17.0992 12.0424 16.686 11.8689M21.4287 9.37851L23.0916 15.6022C23.3758 16.4945 23.1076 18.0749 21.6529 18.6039C20.1981 19.1329 18.8136 18.6039 18.1458 17.2948L16.3129 13.0631M14.8351 10.0301C15.8418 10.0557 16.654 10.8638 16.686 11.8689M16.686 11.8689C16.6866 11.8893 16.687 11.9099 16.687 11.9305C16.687 12.3549 16.5479 12.7468 16.3129 13.0631M7.27749 11.8857C6.87525 12.0486 6.43555 12.1383 5.97491 12.1383C4.30137 12.1383 2.90434 10.9544 2.57557 9.37851M7.27749 11.8857C7.27714 11.9006 7.27697 11.9155 7.27697 11.9305C7.27697 12.3549 7.41604 12.7468 7.65108 13.0631M7.27749 11.8857C7.3012 10.8593 8.13841 10.034 9.16943 10.0295M2.57557 9.37851L0.90324 15.6022C0.685537 16.4074 0.700575 18.1351 2.50235 18.6039C4.30412 19.0727 5.40465 18.1812 5.78625 17.2948L7.65108 13.0631" stroke="white"/>
</svg>
