<svg width="24" height="24" viewBox="0 0 24 24" fill="none" xmlns="http://www.w3.org/2000/svg">
<g clip-path="url(#clip0_3103_90754)">
<path d="M0.663859 10.4362C0.825356 10.3832 0.997873 10.3546 1.17708 10.3546C2.08591 10.3546 2.82267 11.0913 2.82267 12.0001C2.82267 12.909 2.08591 13.6457 1.17708 13.6457C0.997875 13.6457 0.825359 13.6171 0.663863 13.5641M0.663859 10.4362C0.593968 10.9475 0.557861 11.4696 0.557861 12.0001C0.557861 12.5307 0.59397 13.0528 0.663863 13.5641M0.663859 10.4362C1.35578 5.37388 5.35886 1.36587 10.4188 0.666462M0.663863 13.5641C1.35579 18.6263 5.3588 22.6343 10.4186 23.3338M10.4188 0.666462C10.9356 0.595025 11.4634 0.558105 11.9999 0.558105C12.5365 0.558105 13.0645 0.595045 13.5814 0.66652M10.4188 0.666462C10.3769 0.81153 10.3545 0.964832 10.3545 1.12337C10.3545 2.0322 11.0912 2.76896 12.0001 2.76896C12.9089 2.76896 13.6457 2.0322 13.6457 1.12337C13.6457 0.964853 13.6233 0.811571 13.5814 0.66652M13.5814 0.66652C18.641 1.36607 22.6439 5.37391 23.3359 10.4359M23.3359 10.4359C23.4058 10.9474 23.4419 11.4695 23.4419 12.0001C23.4419 12.5307 23.4058 13.0529 23.3359 13.5643M23.3359 10.4359C23.1746 10.3831 23.0023 10.3546 22.8233 10.3546C21.9145 10.3546 21.1777 11.0913 21.1777 12.0001C21.1777 12.909 21.9145 13.6457 22.8233 13.6457C23.0023 13.6457 23.1746 13.6172 23.3359 13.5643M23.3359 13.5643C22.6439 18.6263 18.6411 22.6341 13.5816 23.3337M10.4186 23.3338C10.9355 23.4052 11.4634 23.4421 11.9999 23.4421C12.5365 23.4421 13.0646 23.4052 13.5816 23.3337M10.4186 23.3338C10.3769 23.1888 10.3545 23.0357 10.3545 22.8773C10.3545 21.9685 11.0912 21.2318 12.0001 21.2318C12.9089 21.2318 13.6457 21.9685 13.6457 22.8773C13.6457 23.0357 13.6233 23.1888 13.5816 23.3337M13.6457 12.0001C13.6457 12.909 12.9089 13.6457 12.0001 13.6457C11.0912 13.6457 10.3545 12.909 10.3545 12.0001C10.3545 11.0913 11.0912 10.3546 12.0001 10.3546C12.9089 10.3546 13.6457 11.0913 13.6457 12.0001ZM9.09147 7.44588C9.09147 8.35471 8.35471 9.09147 7.44588 9.09147C6.53705 9.09147 5.80029 8.35471 5.80029 7.44588C5.80029 6.53705 6.53705 5.80029 7.44588 5.80029C8.35471 5.80029 9.09147 6.53705 9.09147 7.44588ZM18.2536 7.44588C18.2536 8.35471 17.5168 9.09147 16.608 9.09147C15.6992 9.09147 14.9624 8.35471 14.9624 7.44588C14.9624 6.53705 15.6992 5.80029 16.608 5.80029C17.5168 5.80029 18.2536 6.53705 18.2536 7.44588ZM18.2536 16.5009C18.2536 17.4097 17.5168 18.1465 16.608 18.1465C15.6992 18.1465 14.9624 17.4097 14.9624 16.5009C14.9624 15.592 15.6992 14.8553 16.608 14.8553C17.5168 14.8553 18.2536 15.592 18.2536 16.5009ZM9.09147 16.5009C9.09147 17.4097 8.35471 18.1465 7.44588 18.1465C6.53705 18.1465 5.80029 17.4097 5.80029 16.5009C5.80029 15.592 6.53705 14.8553 7.44588 14.8553C8.35471 14.8553 9.09147 15.592 9.09147 16.5009Z" stroke="white"/>
</g>
<defs>
<clipPath id="clip0_3103_90754">
<rect width="24" height="24" fill="white" transform="translate(0 0.00012207)"/>
</clipPath>
</defs>
</svg>
