<svg width="20" height="20" viewBox="0 0 20 20" fill="none" xmlns="http://www.w3.org/2000/svg">
<g clip-path="url(#clip0_7991_202066)">
<path d="M10 0C4.47721 0 0 4.47721 0 10C0 15.5228 4.47721 20 10 20C15.5228 20 20 15.5228 20 10C19.9938 4.47982 15.5202 0.00618492 10 0ZM17.7443 4.79671L17.0513 7.74268L13.4001 8.95964L10.3333 6.50667V2.89225L13.8333 1.49235C15.418 2.21029 16.7718 3.35417 17.7443 4.79671ZM17.8 15.1151L14.4943 15.637L12.6943 13.2593L13.6113 9.59261L17.222 8.38932L19.2904 10.8713C19.1494 12.3867 18.6375 13.8442 17.8 15.1151ZM5.52035 15.6393L2.20003 15.1151C1.36247 13.8439 0.850749 12.3861 0.709961 10.8703L2.77669 8.38835L6.38737 9.59163L7.30436 13.2603L5.52035 15.6393ZM0.669596 9.87565C0.687337 8.38867 1.0625 6.92757 1.76335 5.61605L2.30404 7.91602L0.669596 9.87565ZM7.92692 13L7.04264 9.45931L10 7.09359L12.958 9.46029L12.0731 13H7.92692ZM17.696 7.91471L18.2367 5.61475C18.9375 6.92627 19.3127 8.38721 19.3304 9.87435L17.696 7.91471ZM12.9243 1.13835L10 2.30794L7.06006 1.14372C8.96305 0.50944 11.0202 0.50765 12.9243 1.13835ZM6.15072 1.5L9.66667 2.89339V6.50667L6.59994 8.95964L2.94873 7.74268L2.2557 4.79671C3.22494 3.35938 4.57292 2.21842 6.15072 1.5ZM2.757 15.8779L5.46663 16.306L7.10531 18.8727C5.3986 18.3122 3.88916 17.2726 2.757 15.8779ZM8.06104 19.1294L6.07194 16.0153L7.83333 13.6667H12.1667L13.9533 16.0267L12.2201 19.0643C10.8566 19.4001 9.4349 19.4229 8.06136 19.131L8.06104 19.1294ZM13.146 18.7863L14.5667 16.3L17.2443 15.8776C16.1686 17.2023 14.7515 18.208 13.146 18.7863Z" fill="#F5620F"/>
</g>
<defs>
<clipPath id="clip0_7991_202066">
<rect width="20" height="20" fill="white"/>
</clipPath>
</defs>
</svg>
