<svg width="24" height="24" viewBox="0 0 24 24" fill="none" xmlns="http://www.w3.org/2000/svg">
<path d="M11.9998 8.38963L13.9533 9.80388L15.9019 11.2247M11.9998 8.38963L10.0464 9.80388L8.09777 11.2247M11.9998 8.38963L11.9999 3.16141M15.9019 11.2247L15.1605 13.5195L14.4115 15.8118M15.9019 11.2247L20.8217 9.62722M14.4115 15.8118L11.9998 15.8159L9.58823 15.8118M14.4115 15.8118L17.2432 19.2818M9.58823 15.8118L8.83916 13.5195L8.09777 11.2247M9.58823 15.8118L6.72729 19.2818M8.09777 11.2247L3.14049 9.62722M11.9999 3.16141L16.4018 1.4354M11.9999 3.16141L7.59793 1.4354M16.4018 1.4354C15.0468 0.87014 13.5598 0.557983 11.9999 0.557983C10.44 0.557983 8.95297 0.87014 7.59793 1.4354M16.4018 1.4354C18.5815 2.34466 20.4198 3.90885 21.6707 5.88212M7.59793 1.4354C5.41822 2.34466 3.57999 3.90885 2.32905 5.88212M20.8217 9.62722L21.6707 5.88212M20.8217 9.62722L23.4263 12.6025M21.6707 5.88212C22.7924 7.65156 23.4419 9.74993 23.4419 12C23.4419 12.2021 23.4367 12.403 23.4263 12.6025M23.4263 12.6025C23.3122 14.8018 22.5771 16.8368 21.393 18.5354M17.2432 19.2818L21.393 18.5354M17.2432 19.2818L15.1605 22.9999M21.393 18.5354C19.9084 20.6653 17.7179 22.2664 15.1605 22.9999M15.1605 22.9999C14.1567 23.2878 13.0963 23.442 11.9999 23.442C10.9035 23.442 9.84309 23.2878 8.83923 22.9999M6.72729 19.2818L8.83923 22.9999M6.72729 19.2818L2.60674 18.5354M8.83923 22.9999C6.28189 22.2664 4.09138 20.6653 2.60674 18.5354M2.60674 18.5354C1.42265 16.8368 0.687556 14.8018 0.573454 12.6025M3.14049 9.62722L2.32905 5.88212M3.14049 9.62722L0.573454 12.6025M2.32905 5.88212C1.20734 7.65156 0.557861 9.74993 0.557861 12C0.557861 12.2021 0.563102 12.403 0.573454 12.6025" stroke="white"/>
</svg>
