<svg width="24" height="24" viewBox="0 0 24 24" fill="none" xmlns="http://www.w3.org/2000/svg">
<path d="M11.9999 19.0712H1.31006V16.5931M11.9999 19.0712H22.6898V16.5931M11.9999 19.0712L12 13.6672M11.9999 4.92914H22.6898V7.40723M11.9999 4.92914H1.31006V7.40723M11.9999 4.92914L12 10.333M12 13.6672C12.9208 13.6672 13.6671 12.9208 13.6671 12.0001C13.6671 11.0794 12.9208 10.333 12 10.333M12 13.6672C11.0793 13.6672 10.3329 12.9208 10.3329 12.0001C10.3329 11.0794 11.0793 10.333 12 10.333M1.31006 7.40723H1.8398C4.37642 7.40723 6.43275 9.46356 6.43275 12.0002C6.43275 14.5368 4.37642 16.5931 1.8398 16.5931H1.31006M1.31006 7.40723V16.5931M22.6898 7.40723H22.1603C19.6237 7.40723 17.5673 9.46356 17.5673 12.0002C17.5673 14.5368 19.6237 16.5931 22.1603 16.5931H22.6898M22.6898 7.40723V16.5931" stroke="white" stroke-linejoin="round"/>
</svg>
