<svg width="24" height="24" viewBox="0 0 24 24" fill="none" xmlns="http://www.w3.org/2000/svg">
<path d="M1.48702 15.7267L1.02573 15.9196H1.02573L1.48702 15.7267ZM9.72007 14.7332L10.2201 14.7424V14.7332H9.72007ZM9.72007 8.85715H10.2203L10.2199 8.84319L9.72007 8.85715ZM15.214 3.90565L14.714 3.89703V3.90565H15.214ZM20.6484 5.68879L20.153 5.6208L20.1484 5.65463V5.68879H20.6484ZM23.3313 14.7332H22.8313V14.7406L22.8315 14.748L23.3313 14.7332ZM23.3313 10.5798H23.8313V10.5536L23.8285 10.5276L23.3313 10.5798ZM20.1484 14.7332C20.1484 15.0093 20.3722 15.2332 20.6484 15.2332C20.9245 15.2332 21.1484 15.0093 21.1484 14.7332H20.1484ZM12.0534 12.7617C12.0534 13.0378 12.2773 13.2617 12.5534 13.2617C12.8296 13.2617 13.0534 13.0378 13.0534 12.7617H12.0534ZM14.714 12.0872C14.714 12.3633 14.9379 12.5872 15.214 12.5872C15.4901 12.5872 15.714 12.3633 15.714 12.0872H14.714ZM17.4029 12.0872C17.4029 12.3633 17.6267 12.5872 17.9029 12.5872C18.179 12.5872 18.4029 12.3633 18.4029 12.0872H17.4029ZM1.16504 11.6123C1.16504 5.9945 5.71917 1.44037 11.337 1.44037V0.440369C5.16688 0.440369 0.165039 5.44221 0.165039 11.6123H1.16504ZM11.337 21.7842C7.10989 21.7842 3.48389 19.2057 1.94831 15.5338L1.02573 15.9196C2.71141 19.9504 6.69268 22.7842 11.337 22.7842V21.7842ZM1.94831 15.5338C1.44391 14.3276 1.16504 13.0032 1.16504 11.6123H0.165039C0.165039 13.138 0.471135 14.5934 1.02573 15.9196L1.94831 15.5338ZM11.337 1.44037C13.1334 1.44037 14.8196 1.9056 16.2833 2.72176L16.7703 1.84837C15.1615 0.951315 13.3082 0.440369 11.337 0.440369V1.44037ZM10.2199 8.84319C10.2126 8.58095 10.2663 8.19293 10.4276 7.89072C10.5746 7.6153 10.7901 7.43417 11.1665 7.43417V6.43417C10.3428 6.43417 9.82609 6.89403 9.54544 7.41985C9.27908 7.91888 9.20969 8.49236 9.22027 8.87111L10.2199 8.84319ZM11.1665 7.43417C11.5009 7.43417 11.6884 7.57495 11.8184 7.77618C11.9654 8.00395 12.0386 8.31987 12.0541 8.60849L13.0527 8.55473C13.0319 8.16886 12.9344 7.66106 12.6584 7.23373C12.3654 6.77986 11.8776 6.43417 11.1665 6.43417V7.43417ZM12.0541 8.60849C12.0585 8.69025 12.058 8.76467 12.0543 8.82776L13.0525 8.88654C13.0586 8.78447 13.059 8.67246 13.0527 8.55473L12.0541 8.60849ZM13.0534 8.85715V8.58161H12.0534V8.85715H13.0534ZM13.0534 8.58161V5.68879H12.0534V8.58161H13.0534ZM13.0534 5.68879C13.0534 5.52234 13.1043 5.26594 13.239 5.06709C13.3557 4.89493 13.5447 4.74529 13.912 4.74529V3.74529C13.1925 3.74529 12.7021 4.07681 12.4112 4.50611C12.1384 4.90872 12.0534 5.37407 12.0534 5.68879H13.0534ZM13.912 4.74529C14.2562 4.74529 14.4271 4.87578 14.5305 5.01792C14.6518 5.18473 14.7075 5.41223 14.7143 5.59838L15.7137 5.56175C15.702 5.24424 15.6117 4.80434 15.3392 4.42968C15.0487 4.03035 14.5779 3.74529 13.912 3.74529V4.74529ZM14.7143 5.59838C14.7153 5.62459 14.7152 5.64834 14.7144 5.66919L15.7136 5.70838C15.7155 5.66122 15.7155 5.61215 15.7137 5.56175L14.7143 5.59838ZM15.714 5.68879V5.58007H14.714V5.68879H15.714ZM15.714 5.58007V3.90565H14.714V5.58007H15.714ZM15.7139 3.91427C15.7178 3.69055 15.7709 3.37792 15.9081 3.13974C16.0291 2.92966 16.2039 2.78507 16.5268 2.78507V1.78507C15.7855 1.78507 15.3085 2.17716 15.0416 2.64057C14.7908 3.07588 14.7196 3.57355 14.7141 3.89703L15.7139 3.91427ZM16.5268 2.78507C16.8556 2.78507 17.0528 2.93637 17.1902 3.15564C17.3419 3.39763 17.4029 3.70627 17.4029 3.90565H18.4029C18.4029 3.55783 18.308 3.05617 18.0376 2.62468C17.753 2.17045 17.2622 1.78507 16.5268 1.78507V2.78507ZM17.4029 3.90565V5.68879H18.4029V3.90565H17.4029ZM18.4025 5.70838C18.4088 5.54818 18.471 5.29208 18.6252 5.08894C18.7624 4.90829 18.9874 4.74529 19.403 4.74529V3.74529C18.6638 3.74529 18.1482 4.06345 17.8287 4.48425C17.5263 4.88258 17.4159 5.34823 17.4033 5.6692L18.4025 5.70838ZM19.403 4.74529C19.814 4.74529 19.9715 4.90102 20.0515 5.03835C20.1546 5.21524 20.1758 5.45484 20.153 5.6208L21.1437 5.75678C21.187 5.44157 21.1629 4.95941 20.9155 4.53485C20.645 4.07072 20.1468 3.74529 19.403 3.74529V4.74529ZM16.5726 23.5596C19.5795 23.5596 21.443 22.0529 22.5181 20.1868C23.5762 18.3501 23.8743 16.1699 23.831 14.7183L22.8315 14.748C22.8709 16.0719 22.5922 18.0549 21.6516 19.6876C20.728 21.2908 19.1709 22.5596 16.5726 22.5596V23.5596ZM23.8313 14.7332V10.5798H22.8313V14.7332H23.8313ZM23.8285 10.5276C23.7997 10.2529 23.6759 9.84657 23.4184 9.49672C23.1502 9.13224 22.7106 8.80054 22.0779 8.80054V9.80054C22.3161 9.80054 22.4827 9.91238 22.6131 10.0895C22.7542 10.2812 22.8216 10.5145 22.834 10.6321L23.8285 10.5276ZM20.1484 5.68879V10.5798H21.1484V5.68879H20.1484ZM20.1484 10.5798V14.7332H21.1484V10.5798H20.1484ZM22.0779 8.80054C21.4519 8.80054 20.9989 9.12511 20.705 9.46732C20.4162 9.80358 20.2496 10.1889 20.1728 10.4255L21.124 10.7342C21.1745 10.5786 21.2872 10.3242 21.4636 10.1189C21.6348 9.91952 21.8329 9.80054 22.0779 9.80054V8.80054ZM12.0534 8.85715V12.7617H13.0534V8.85715H12.0534ZM14.714 5.68879V12.0872H15.714V5.68879H14.714ZM17.4029 5.68879V12.0872H18.4029V5.68879H17.4029ZM10.2201 14.7332V12.624H9.22007V14.7332H10.2201ZM10.2201 12.624V8.85715H9.22007V12.624H10.2201ZM1.42896 16.2233C3.39329 16.4529 6.72298 15.7898 10.0413 13.0071L9.3988 12.2408C6.26467 14.869 3.20335 15.4239 1.54508 15.2301L1.42896 16.2233ZM9.22016 14.7239C9.19995 15.8166 9.37742 17.3069 9.91568 18.7525C10.4541 20.1985 11.3682 21.6369 12.8464 22.5613L13.3766 21.7135C12.1424 20.9416 11.3416 19.7163 10.8528 18.4035C10.3638 17.0903 10.2018 15.7266 10.22 14.7424L9.22016 14.7239ZM12.8464 22.5613C13.8435 23.1849 15.0745 23.5596 16.5726 23.5596V22.5596C15.249 22.5596 14.2041 22.2309 13.3766 21.7135L12.8464 22.5613ZM13.029 21.6442C12.479 21.7363 11.9138 21.7842 11.337 21.7842V22.7842C11.9693 22.7842 12.5897 22.7317 13.194 22.6305L13.029 21.6442Z" fill="white"/>
</svg>
