<svg width="24" height="24" viewBox="0 0 24 24" fill="none" xmlns="http://www.w3.org/2000/svg">
<path d="M6.41345 7.21414C6.67447 7.12401 6.81301 6.83935 6.72288 6.57833C6.63276 6.31731 6.3481 6.17877 6.08708 6.2689L6.41345 7.21414ZM6.08708 12.6665C6.3481 12.7566 6.63276 12.618 6.72288 12.357C6.81301 12.096 6.67447 11.8113 6.41345 11.7212L6.08708 12.6665ZM22.652 9.46768C22.652 10.7582 21.6186 12.0545 19.6579 13.0579C17.7238 14.0476 15.0171 14.6744 11.9999 14.6744V15.6744C15.1419 15.6744 18.0112 15.0238 20.1134 13.9481C22.1889 12.886 23.652 11.3289 23.652 9.46768H22.652ZM11.9999 14.6744C8.98282 14.6744 6.27609 14.0476 4.34203 13.0579C2.38126 12.0545 1.3479 10.7582 1.3479 9.46768H0.3479C0.3479 11.3289 1.81101 12.886 3.88649 13.9481C5.98867 15.0238 8.85797 15.6744 11.9999 15.6744V14.6744ZM1.3479 9.46768C1.3479 8.17713 2.38126 6.88087 4.34203 5.8775C6.27609 4.8878 8.98282 4.26093 11.9999 4.26093V3.26093C8.85797 3.26093 5.98867 3.91155 3.88649 4.98729C1.81101 6.04936 0.3479 7.60647 0.3479 9.46768H1.3479ZM11.9999 4.26093C15.0171 4.26093 17.7238 4.8878 19.6579 5.8775C21.6186 6.88087 22.652 8.17713 22.652 9.46768H23.652C23.652 7.60647 22.1889 6.04936 20.1134 4.98729C18.0112 3.91155 15.1419 3.26093 11.9999 3.26093V4.26093ZM22.652 14.785C22.652 16.0755 21.6186 17.3718 19.6579 18.3752C17.7238 19.3649 15.0171 19.9917 11.9999 19.9917V20.9917C15.1419 20.9917 18.0112 20.3411 20.1134 19.2654C22.1889 18.2033 23.652 16.6462 23.652 14.785H22.652ZM11.9999 19.9917C8.98282 19.9917 6.27609 19.3649 4.34203 18.3752C2.38126 17.3718 1.3479 16.0755 1.3479 14.785H0.3479C0.3479 16.6462 1.81101 18.2033 3.88649 19.2654C5.98867 20.3411 8.85797 20.9917 11.9999 20.9917V19.9917ZM1.3479 14.785V9.46768H0.3479V14.785H1.3479ZM23.652 14.785V9.46768H22.652V14.785H23.652ZM3.64014 9.46767C3.64014 9.12086 3.83027 8.73023 4.30701 8.32121C4.78252 7.91325 5.49686 7.53061 6.41345 7.21414L6.08708 6.2689C5.10029 6.60961 4.25957 7.04431 3.65586 7.56226C3.05339 8.07915 2.64014 8.72301 2.64014 9.46767H3.64014ZM6.41345 11.7212C5.49686 11.4047 4.78252 11.0221 4.30701 10.6141C3.83027 10.2051 3.64014 9.81449 3.64014 9.46767H2.64014C2.64014 10.2123 3.05339 10.8562 3.65586 11.3731C4.25957 11.891 5.10029 12.3257 6.08708 12.6665L6.41345 11.7212Z" fill="white"/>
</svg>
