<svg width="24" height="24" viewBox="0 0 24 24" fill="none" xmlns="http://www.w3.org/2000/svg">
<g clip-path="url(#clip0_3099_90672)">
<path d="M6.9939 5.77832V2.58103C6.9939 1.53358 7.84303 0.684448 8.89048 0.684448H11.6746M6.9939 5.77832V10.9682M6.9939 5.77832H4.76525C3.36865 5.77832 1.73833 6.86514 2.07238 8.2212C2.24115 8.90632 2.54854 9.7985 3.07104 10.9682C4.71604 14.6508 5.40809 17.3338 6.9939 17.311L8.63826 17.3111M11.6746 0.684448V4.77952M11.6746 0.684448H16.8231M16.8231 0.684448H20.075C21.1225 0.684448 21.9716 1.53358 21.9716 2.58103V14.7822C21.9716 16.1788 20.8394 17.311 19.4428 17.311L18.9293 17.3111M16.8231 0.684448V4.77952M8.63826 17.3111H18.9293M8.63826 17.3111C7.93542 17.3111 7.33572 17.8564 7.33572 18.5755V22.0514C7.33572 22.7497 7.9018 23.3157 8.6001 23.3157H18.981C19.6793 23.3157 20.2454 22.7497 20.2454 22.0514V18.5755C20.2454 17.846 19.6368 17.3111 18.9293 17.3111" stroke="white" stroke-linecap="round" stroke-linejoin="round"/>
</g>
<defs>
<clipPath id="clip0_3099_90672">
<rect width="24" height="24" fill="white" transform="translate(0 0.00012207)"/>
</clipPath>
</defs>
</svg>
