<svg width="24" height="24" viewBox="0 0 24 24" fill="none" xmlns="http://www.w3.org/2000/svg">
<g clip-path="url(#clip0_3100_90611)">
<path d="M21.5975 20.6102L22.0657 20.7858L21.5975 20.6102ZM20.4058 23.0161L20.3565 23.5137C20.5415 23.532 20.7214 23.4462 20.8235 23.2909L20.4058 23.0161ZM22.0136 7.40149L22.4678 7.19255L22.0136 7.40149ZM23.0163 11.9999H22.5162L22.5164 12.0082L23.0163 11.9999ZM11.4639 8.23895L11.5034 8.73738V8.73738L11.4639 8.23895ZM22.7734 15.6808L23.269 15.7469V15.7469L22.7734 15.6808ZM11.3335 14.0455L11.2627 14.5404V14.5404L11.3335 14.0455ZM10.4811 22.0331L10.4318 22.5307H10.4318L10.4811 22.0331ZM1.93487 18.8315L1.97991 18.3336H1.97991L1.93487 18.8315ZM1.48389 11.9999C1.48389 6.19197 6.19215 1.4837 12.0001 1.4837V0.483704C5.63986 0.483704 0.483887 5.63968 0.483887 11.9999H1.48389ZM0.483887 11.9999V17.7907H1.48389V11.9999H0.483887ZM21.1294 20.4346C20.8145 21.2744 20.4369 22.059 19.9881 22.7413L20.8235 23.2909C21.3227 22.5321 21.7315 21.677 22.0657 20.7858L21.1294 20.4346ZM12.0001 1.4837C16.2404 1.4837 19.8955 3.99333 21.5593 7.61044L22.4678 7.19255C20.6469 3.23383 16.6452 0.483704 12.0001 0.483704V1.4837ZM21.5593 7.61044C22.1735 8.94571 22.5163 10.4321 22.5163 11.9999H23.5163C23.5163 10.2849 23.1411 8.65623 22.4678 7.19255L21.5593 7.61044ZM21.974 6.90306L11.4243 7.74052L11.5034 8.73738L22.0531 7.89992L21.974 6.90306ZM9.039 10.3227V11.9762H10.039V10.3227H9.039ZM22.5164 12.0082C22.5303 12.8533 22.4731 14.1511 22.2778 15.6147L23.269 15.7469C23.4705 14.2369 23.5311 12.8894 23.5162 11.9916L22.5164 12.0082ZM22.2778 15.6147C22.0712 17.1637 21.7122 18.8805 21.1294 20.4346L22.0657 20.7858C22.6833 19.1391 23.0561 17.3432 23.269 15.7469L22.2778 15.6147ZM11.2627 14.5404L22.7027 16.1758L22.8442 15.1858L11.4042 13.5505L11.2627 14.5404ZM20.4551 22.5185L10.5304 21.5355L10.4318 22.5307L20.3565 23.5137L20.4551 22.5185ZM1.88982 19.3295L9.49396 20.0174L9.58405 19.0214L1.97991 18.3336L1.88982 19.3295ZM9.49396 20.0174L21.5525 21.1082L21.6426 20.1122L9.58405 19.0214L9.49396 20.0174ZM10.039 20.993V19.5194H9.039V20.993H10.039ZM10.5304 21.5355C10.2515 21.5079 10.039 21.2733 10.039 20.993H9.039C9.039 21.7874 9.64134 22.4524 10.4318 22.5307L10.5304 21.5355ZM9.039 11.9762C9.039 13.2652 9.98673 14.358 11.2627 14.5404L11.4042 13.5505C10.6209 13.4385 10.039 12.7676 10.039 11.9762H9.039ZM11.4243 7.74052C10.0775 7.84743 9.039 8.97159 9.039 10.3227H10.039C10.039 9.49319 10.6765 8.80302 11.5034 8.73738L11.4243 7.74052ZM0.483887 17.7907C0.483887 18.5901 1.09366 19.2575 1.88982 19.3295L1.97991 18.3336C1.69902 18.3082 1.48389 18.0727 1.48389 17.7907H0.483887ZM6.17487 11.0785C6.17487 11.658 5.70509 12.1278 5.1256 12.1278V13.1278C6.25738 13.1278 7.17487 12.2103 7.17487 11.0785H6.17487ZM5.1256 12.1278C4.5461 12.1278 4.07633 11.658 4.07633 11.0785H3.07633C3.07633 12.2103 3.99382 13.1278 5.1256 13.1278V12.1278ZM4.07633 11.0785C4.07633 10.499 4.5461 10.0293 5.1256 10.0293V9.02927C3.99382 9.02927 3.07633 9.94676 3.07633 11.0785H4.07633ZM5.1256 10.0293C5.70509 10.0293 6.17487 10.499 6.17487 11.0785H7.17487C7.17487 9.94676 6.25738 9.02927 5.1256 9.02927V10.0293Z" fill="white"/>
</g>
<defs>
<clipPath id="clip0_3100_90611">
<rect width="24" height="24" fill="white" transform="translate(0 0.00012207)"/>
</clipPath>
</defs>
</svg>
