<svg width="24" height="24" viewBox="0 0 24 24" fill="none" xmlns="http://www.w3.org/2000/svg">
<g clip-path="url(#clip0_3100_90624)">
<path d="M17.6147 10.9743H21.0421C21.0421 5.42735 16.5454 0.930664 10.9985 0.930664C5.45152 0.930664 0.954834 5.42735 0.954834 10.9743C0.954834 12.5153 1.3019 13.9753 1.92212 15.2803V18.3439C1.80766 19.936 2.58208 23.0696 6.39366 23.0696C10.2052 23.0696 11.0349 19.936 10.9985 18.3439V16.3585M17.6147 10.9743H10.9985V16.3585M17.6147 10.9743V16.3585M17.6147 16.3585V23.0696C22.1497 23.0696 23.1215 18.5955 23.0405 16.3585H17.6147ZM17.6147 16.3585H10.9985M7.79556 18.3667C7.79556 19.115 7.18895 19.7216 6.44067 19.7216C5.69238 19.7216 5.08578 19.115 5.08578 18.3667C5.08578 17.6185 5.69238 17.0119 6.44067 17.0119C7.18895 17.0119 7.79556 17.6185 7.79556 18.3667Z" stroke="white"/>
</g>
<defs>
<clipPath id="clip0_3100_90624">
<rect width="24" height="24" fill="white" transform="translate(0 0.00012207)"/>
</clipPath>
</defs>
</svg>
