<svg width="24" height="24" viewBox="0 0 24 24" fill="none" xmlns="http://www.w3.org/2000/svg">
<path d="M12.0001 11.9995C12.0001 14.0962 13.6998 15.7959 15.7965 15.7959C16.5274 15.7959 17.21 15.5894 17.7892 15.2316M12.0001 11.9995C12.0001 9.9028 10.3002 8.20307 8.20352 8.20307C6.1068 8.20307 4.40708 9.9028 4.40708 11.9995C4.40708 13.3649 5.12786 14.5619 6.20967 15.2308M12.0001 11.9995C12.0001 10.5504 12.812 9.29099 14.0056 8.65119M12.0001 11.9995C12.0001 13.4114 11.2293 14.6433 10.0855 15.2974C9.53076 15.6146 8.88831 15.7959 8.20352 15.7959C7.47217 15.7959 6.78913 15.5892 6.20967 15.2308M15.7966 18.573C15.7966 20.6697 14.0969 22.3694 12.0001 22.3694C9.90343 22.3694 8.20371 20.6697 8.20371 18.573M15.7966 18.573C15.7966 20.6697 17.4962 22.3694 19.5929 22.3694C21.6896 22.3694 23.3894 20.6697 23.3894 18.573C23.3894 16.4763 21.6896 14.7765 19.5929 14.7765C18.9401 14.7765 18.3257 14.9413 17.7892 15.2316M15.7966 18.573C15.7966 17.177 15.0431 15.9569 13.9206 15.2974C13.3572 14.9664 12.7009 14.7765 12.0001 14.7765C9.90343 14.7765 8.20371 16.4763 8.20371 18.573M15.7966 18.573C15.7966 17.1291 16.6026 15.8735 17.7892 15.2316M8.20371 18.573C8.20371 20.6697 6.50399 22.3694 4.40728 22.3694C2.31056 22.3694 0.61084 20.6697 0.61084 18.573C0.61084 16.4763 2.31056 14.7765 4.40728 14.7765C5.05957 14.7765 5.67345 14.941 6.20967 15.2308M8.20371 18.573C8.20371 17.1286 7.39706 15.8725 6.20967 15.2308M14.0056 8.65119C14.5391 8.36524 15.1489 8.20307 15.7965 8.20307C17.8932 8.20307 19.593 9.9028 19.593 11.9995C19.593 13.3654 18.8717 14.5628 17.7892 15.2316M14.0056 8.65119C15.0808 7.98086 15.7963 6.7876 15.7963 5.42723C15.7963 3.33052 14.0966 1.6308 11.9999 1.6308C9.90319 1.6308 8.20347 3.33052 8.20347 5.42723C8.20347 6.75858 8.88877 7.92987 9.92587 8.60759C10.5221 8.99719 11.2345 9.22367 11.9999 9.22367C12.7363 9.22367 13.4236 9.01404 14.0056 8.65119Z" stroke="white"/>
</svg>
