<svg width="24" height="25" viewBox="0 0 24 25" fill="none" xmlns="http://www.w3.org/2000/svg">
<g clip-path="url(#clip0_3085_90788)">
<path d="M4.98949 10.3078L14.4338 19.7521M4.98949 10.3078C4.84623 11.0495 4.99146 12.7233 5.34396 13.8472C5.90333 15.6308 5.19202 17.1782 3.72425 18.2702L1.25672 20.1493C0.791626 20.5035 0.745602 21.1865 1.15898 21.5999L3.09104 23.532C3.50442 23.9453 4.18745 23.8993 4.54164 23.4342L6.42073 20.9667C7.51274 19.4989 9.06013 18.7876 10.8437 19.347C11.9677 19.6995 13.6921 19.8954 14.4338 19.7521M4.98949 10.3078C5.15102 9.47166 5.42504 8.63839 5.80974 7.83308M14.4338 19.7521C16.4084 19.3707 18.3669 18.3619 19.9789 16.7498C23.8111 12.9176 24.2343 7.12761 20.9242 3.81746C18.2007 1.09404 13.7987 0.89778 10.1894 3.04803M5.80974 7.83308C6.32478 8.16789 6.93943 8.36239 7.59951 8.36239C9.41552 8.36239 10.8877 6.89022 10.8877 5.07421C10.8877 4.30986 10.6269 3.60642 10.1894 3.04803M5.80974 7.83308C4.9078 7.24676 4.31133 6.23014 4.31133 5.07421C4.31133 3.25821 5.7835 1.78604 7.59951 1.78604C8.65116 1.78604 9.58751 2.27975 10.1894 3.04803" stroke="white"/>
</g>
<defs>
<clipPath id="clip0_3085_90788">
<rect width="24" height="24" fill="white" transform="translate(0 0.697998)"/>
</clipPath>
</defs>
</svg>
