<svg width="24" height="24" viewBox="0 0 24 24" fill="none" xmlns="http://www.w3.org/2000/svg">
<path d="M9.50471 0.830352C9.92726 1.43536 9.95211 3.98038 13.4521 4.4872C18.0841 5.15794 21.6093 11.7811 15.9019 16.7289C9.96087 21.3932 4.12726 16.675 4.34788 12C4.51339 8.49263 2.056 7.96736 1.51803 7.44161M9.50471 0.830352C10.6704 0.56934 11.8921 0.488599 13.1324 0.613422C19.3411 1.23827 24.046 6.9724 23.3788 13.2051C22.7222 19.3397 17.078 23.9874 10.9114 23.3909C4.70147 22.7902 0.0811404 17.1124 0.603218 10.9971C0.709397 9.75335 1.02604 8.55501 1.51803 7.44161M9.50471 0.830352C5.9225 1.63246 2.96348 4.17049 1.51803 7.44161" stroke="white"/>
</svg>
