<svg width="24" height="24" viewBox="0 0 24 24" fill="none" xmlns="http://www.w3.org/2000/svg">
<path d="M11.9999 23.442C14.4144 23.442 16.6543 22.6941 18.5004 21.4174M11.9999 23.442C13.1536 21.6497 13.5193 19.662 13.4727 17.8139M11.9999 23.442C6.27278 23.442 1.52844 19.2343 0.689579 13.7417M11.9999 12C10.779 12.1391 8.58365 11.905 6.39022 10.615M11.9999 12C12.5584 10.8572 13.863 9.09049 15.8714 7.8001M11.9999 12C12.6335 13.1843 13.4112 15.3779 13.4727 17.8139M21.8488 6.17257C22.8609 7.87937 23.4419 9.87183 23.4419 12C23.4419 15.9047 21.486 19.3526 18.5004 21.4174M21.8488 6.17257C20.8289 4.45244 19.3711 3.02247 17.629 2.03616M21.8488 6.17257C19.44 6.07432 17.4408 6.7918 15.8714 7.8001M2.15093 6.17257C1.13887 7.87937 0.557861 9.87183 0.557861 12C0.557861 12.5922 0.602844 13.1738 0.689579 13.7417M2.15093 6.17257C4.14401 2.81132 7.8088 0.557983 11.9999 0.557983C14.0462 0.557983 15.967 1.09515 17.629 2.03616M2.15093 6.17257C3.34527 8.31475 4.86729 9.7194 6.39022 10.615M6.39022 10.615C6.78008 8.08755 9.57364 2.83329 17.629 2.03616M15.8714 7.8001C17.8864 9.85263 21.2332 15.4496 18.5004 21.4174M13.4727 17.8139C10.9055 18.6607 4.75477 19.0318 0.689579 13.7417" stroke="white"/>
</svg>
