<svg width="24" height="24" viewBox="0 0 24 24" fill="none" xmlns="http://www.w3.org/2000/svg">
<g clip-path="url(#clip0_3103_90732)">
<path d="M19.068 5.49045C19.7943 6.71532 20.2113 8.1452 20.2113 9.67246C20.2113 11.4017 19.6768 13.0061 18.7639 14.3294M19.068 5.49045C18.3361 4.25601 17.2899 3.2298 16.0397 2.52198M19.068 5.49045C17.3394 5.41994 15.9047 5.93484 14.7784 6.65844M4.93197 5.49045C4.20568 6.71532 3.78872 8.1452 3.78872 9.67246C3.78872 10.0974 3.821 10.5148 3.88324 10.9224M4.93197 5.49045C6.36229 3.07827 8.9923 1.46118 12 1.46118C13.4685 1.46118 14.847 1.84667 16.0397 2.52198M4.93197 5.49045C5.78908 7.02777 6.88135 8.03581 7.97427 8.67856M12 9.67246C11.1238 9.77227 9.54837 9.60429 7.97427 8.67856M12 9.67246C12.4008 8.85233 13.337 7.58448 14.7784 6.65844M12 9.67246C12.4547 10.5224 13.0129 12.0966 13.057 13.8447C13.0597 13.9533 13.0604 14.0626 13.0591 14.1724M7.97427 8.67856C8.25405 6.86472 10.2588 3.09404 16.0397 2.52198M14.7784 6.65844C15.9154 7.81663 17.6433 10.5474 17.3765 13.7437M3.88324 10.9224C4.07288 12.1641 4.54064 13.3143 5.22095 14.3074M3.88324 10.9224C4.86546 12.2006 6.01734 13.0182 7.1836 13.5174M0.924316 13.3243C1.21152 13.3157 1.99897 13.4116 2.85121 13.8638C3.63274 14.2785 4.27386 14.5294 5.22095 14.3074M23.0757 13.3243C22.8639 13.3243 22.5018 13.2029 21.1625 13.8638C20.1147 14.3809 19.4076 14.4721 18.7639 14.3294M5.22095 14.3074C5.56483 14.2268 5.94904 14.0839 6.39495 13.8638C6.70757 13.7095 6.96695 13.5979 7.1836 13.5174M7.1836 13.5174C7.89505 13.2529 8.14575 13.3243 8.30814 13.3243C8.59534 13.3157 9.38276 13.4116 10.235 13.8638C10.4794 13.9935 10.71 14.1071 10.9406 14.1953C11.5594 14.432 12.1776 14.4852 13.0591 14.1724M13.0591 14.1724C13.2809 14.0937 13.5194 13.9918 13.7787 13.8638C15.118 13.2029 15.4801 13.3243 15.6919 13.3243C15.9517 13.3165 16.6206 13.3942 17.3765 13.7437M17.3765 13.7437C17.4564 13.7806 17.5373 13.8206 17.6188 13.8638C18.0173 14.0752 18.3793 14.2441 18.7639 14.3294M0.924316 17.3988C1.21152 17.3903 1.99897 17.4861 2.85121 17.9383C3.9165 18.5036 4.72091 18.7645 6.39495 17.9383C7.73418 17.2774 8.09629 17.3988 8.30814 17.3988C8.59534 17.3903 9.38276 17.4861 10.235 17.9383C11.3003 18.5036 12.1047 18.7645 13.7787 17.9383C15.118 17.2774 15.4801 17.3988 15.6919 17.3988C15.9791 17.3903 16.7666 17.4861 17.6188 17.9383C18.6841 18.5036 19.4885 18.7645 21.1625 17.9383C22.5018 17.2774 22.8639 17.3988 23.0757 17.3988M0.924316 21.4734C1.21152 21.4648 1.99897 21.5607 2.85121 22.0129C3.9165 22.5781 4.72091 22.839 6.39495 22.0129C7.73418 21.3519 8.09629 21.4734 8.30814 21.4734C8.59534 21.4648 9.38276 21.5607 10.235 22.0129C11.3003 22.5781 12.1047 22.839 13.7787 22.0129C15.118 21.3519 15.4801 21.4734 15.6919 21.4734C15.9791 21.4648 16.7666 21.5607 17.6188 22.0129C18.6841 22.5781 19.4885 22.839 21.1625 22.0129C22.5018 21.3519 22.8639 21.4734 23.0757 21.4734" stroke="white"/>
</g>
<defs>
<clipPath id="clip0_3103_90732">
<rect width="24" height="24" fill="white" transform="translate(0 0.00012207)"/>
</clipPath>
</defs>
</svg>
