<svg width="24" height="24" viewBox="0 0 24 24" fill="none" xmlns="http://www.w3.org/2000/svg">
<g clip-path="url(#clip0_10031_526529)">
<path d="M3.26172 5V19M13.7617 5V19M5.01172 5H1.51172M13.7617 12L3.26172 12M5.01172 19H1.51172M15.5117 19H12.0117M15.5117 5H12.0117" stroke="black" stroke-width="2" stroke-linecap="round" stroke-linejoin="round"/>
<path d="M17.8828 16.2456C17.8828 14.4839 18.1973 13.2769 18.8262 12.6245C19.459 11.9722 20.2559 11.646 21.2168 11.646C21.5918 11.646 21.9648 11.7007 22.3359 11.8101C22.707 11.9155 22.9922 12.0562 23.1914 12.2319C23.3789 12.3999 23.4199 12.564 23.3145 12.7241L22.9277 13.3042C22.8027 13.4956 22.6211 13.4956 22.3828 13.3042C22.2656 13.2104 22.0938 13.1304 21.8672 13.064C21.6445 12.9937 21.4102 12.9585 21.1641 12.9585C20.7539 12.9585 20.377 13.1519 20.0332 13.5386C19.6895 13.9214 19.5176 14.5737 19.5176 15.4956H19.541C19.7168 15.23 19.9609 15.0405 20.2734 14.9272C20.5859 14.8101 20.9668 14.7515 21.416 14.7515C22.2324 14.7515 22.8496 15.021 23.2676 15.5601C23.6855 16.0952 23.8945 16.7593 23.8945 17.5522C23.8945 18.4116 23.6504 19.0972 23.1621 19.6089C22.6738 20.1206 21.9277 20.3765 20.9238 20.3765C19.8535 20.3765 19.0781 20.019 18.5977 19.3042C18.1211 18.5854 17.8828 17.5659 17.8828 16.2456ZM19.8047 17.5815C19.8047 18.0581 19.9023 18.4253 20.0977 18.6831C20.293 18.937 20.5781 19.064 20.9531 19.064C21.3516 19.064 21.6484 18.9565 21.8438 18.7417C22.0391 18.5269 22.1367 18.1265 22.1367 17.5405C22.1367 17.0249 22.0391 16.6499 21.8438 16.4155C21.6484 16.1812 21.375 16.064 21.0234 16.064C20.6367 16.064 20.3359 16.2222 20.1211 16.5386C19.9102 16.855 19.8047 17.2026 19.8047 17.5815Z" fill="black"/>
</g>
<defs>
<clipPath id="clip0_10031_526529">
<rect width="24" height="24" fill="white"/>
</clipPath>
</defs>
</svg>
