<svg width="24" height="24" viewBox="0 0 24 24" fill="none" xmlns="http://www.w3.org/2000/svg">
<g clip-path="url(#clip0_10031_526526)">
<path d="M3.26172 5V19M13.7617 5V19M5.01172 5H1.51172M13.7617 12L3.26172 12M5.01172 19H1.51172M15.5117 19H12.0117M15.5117 5H12.0117" stroke="black" stroke-width="2" stroke-linecap="round" stroke-linejoin="round"/>
<path d="M18.0996 19.5854C17.9707 19.4136 17.9531 19.2651 18.0469 19.1401L18.457 18.5776C18.6211 18.3511 18.8203 18.3452 19.0547 18.5601C19.1953 18.689 19.4121 18.8062 19.7051 18.9116C19.998 19.0132 20.291 19.064 20.584 19.064C21.0293 19.064 21.4043 18.939 21.709 18.689C22.0176 18.439 22.1719 18.0737 22.1719 17.5933C22.1719 17.1362 22.0742 16.7671 21.8789 16.4858C21.6836 16.2046 21.4473 16.064 21.1699 16.064C20.9316 16.064 20.7129 16.0835 20.5137 16.1226C20.3145 16.1577 20.1074 16.269 19.8926 16.4565C19.7441 16.5854 19.5645 16.6499 19.3535 16.6499H18.7148C18.4609 16.6499 18.334 16.5229 18.334 16.269V12.2261C18.334 11.9722 18.4609 11.8452 18.7148 11.8452H22.9336C23.1875 11.8452 23.3145 11.9722 23.3145 12.2261V12.9175C23.3145 13.1714 23.1875 13.2983 22.9336 13.2983H19.9746V14.7339C19.9746 14.8901 19.9668 15.0464 19.9512 15.2026H19.9863C20.1934 15.0229 20.4238 14.9038 20.6777 14.8452C20.9316 14.7827 21.2031 14.7515 21.4922 14.7515C22.1758 14.7515 22.752 14.9858 23.2207 15.4546C23.6934 15.9194 23.9297 16.6401 23.9297 17.6167C23.9297 18.5151 23.6289 19.2007 23.0273 19.6733C22.4297 20.1421 21.7188 20.3765 20.8945 20.3765C20.207 20.3765 19.6113 20.3022 19.1074 20.1538C18.6074 20.0015 18.2715 19.812 18.0996 19.5854Z" fill="black"/>
</g>
<defs>
<clipPath id="clip0_10031_526526">
<rect width="24" height="24" fill="white"/>
</clipPath>
</defs>
</svg>
