<svg width="502" height="216" viewBox="0 0 502 216" fill="none" xmlns="http://www.w3.org/2000/svg">
<g filter="url(#filter0_i_2481_65092)">
<rect width="502" height="216" fill="white"/>
<circle cx="36" cy="32" r="16" fill="#F2F2F2"/>
<rect x="68" y="22" width="414" height="20" rx="2" fill="#F2F2F2"/>
<rect x="250" y="117" width="64" height="30" rx="4" fill="#F2F2F2"/>
<rect x="334" y="117" width="64" height="30" rx="4" fill="#F2F2F2"/>
<rect x="418" y="117" width="64" height="30" rx="4" fill="#F2F2F2"/>
<path d="M30 132C30 125.373 35.3726 120 42 120H62C68.6274 120 74 125.373 74 132C74 138.627 68.6274 144 62 144H42C35.3726 144 30 138.627 30 132Z" fill="#F2F2F2"/>
<circle cx="107" cy="132" r="17" fill="#F2F2F2"/>
<rect x="140" y="122" width="94" height="20" rx="2" fill="#F2F2F2"/>
<rect x="250" y="165" width="64" height="30" rx="4" fill="#F2F2F2"/>
<rect x="334" y="165" width="64" height="30" rx="4" fill="#F2F2F2"/>
<rect x="418" y="165" width="64" height="30" rx="4" fill="#F2F2F2"/>
<path d="M30 180C30 173.373 35.3726 168 42 168H62C68.6274 168 74 173.373 74 180C74 186.627 68.6274 192 62 192H42C35.3726 192 30 186.627 30 180Z" fill="#F2F2F2"/>
<circle cx="107" cy="180" r="17" fill="#F2F2F2"/>
<rect x="140" y="170" width="94" height="20" rx="2" fill="#F2F2F2"/>
<rect x="20" y="64" width="462" height="32" rx="2" fill="#F2F2F2"/>
<path d="M93.1152 80.6602V84H91.9902V75.4688H95.1367C96.0703 75.4688 96.8008 75.707 97.3281 76.1836C97.8594 76.6602 98.125 77.291 98.125 78.0762C98.125 78.9043 97.8652 79.543 97.3457 79.9922C96.8301 80.4375 96.0898 80.6602 95.125 80.6602H93.1152ZM93.1152 79.7402H95.1367C95.7383 79.7402 96.1992 79.5996 96.5195 79.3184C96.8398 79.0332 97 78.623 97 78.0879C97 77.5801 96.8398 77.1738 96.5195 76.8691C96.1992 76.5645 95.7598 76.4062 95.2012 76.3945H93.1152V79.7402ZM100.568 84H99.4844V75H100.568V84ZM106.223 84C106.16 83.875 106.109 83.6523 106.07 83.332C105.566 83.8555 104.965 84.1172 104.266 84.1172C103.641 84.1172 103.127 83.9414 102.725 83.5898C102.326 83.2344 102.127 82.7852 102.127 82.2422C102.127 81.582 102.377 81.0703 102.877 80.707C103.381 80.3398 104.088 80.1562 104.998 80.1562H106.053V79.6582C106.053 79.2793 105.939 78.9785 105.713 78.7559C105.486 78.5293 105.152 78.416 104.711 78.416C104.324 78.416 104 78.5137 103.738 78.709C103.477 78.9043 103.346 79.1406 103.346 79.418H102.256C102.256 79.1016 102.367 78.7969 102.59 78.5039C102.816 78.207 103.121 77.9727 103.504 77.8008C103.891 77.6289 104.314 77.543 104.775 77.543C105.506 77.543 106.078 77.7266 106.492 78.0938C106.906 78.457 107.121 78.959 107.137 79.5996V82.5176C107.137 83.0996 107.211 83.5625 107.359 83.9062V84H106.223ZM104.424 83.1738C104.764 83.1738 105.086 83.0859 105.391 82.9102C105.695 82.7344 105.916 82.5059 106.053 82.2246V80.9238H105.203C103.875 80.9238 103.211 81.3125 103.211 82.0898C103.211 82.4297 103.324 82.6953 103.551 82.8867C103.777 83.0781 104.068 83.1738 104.424 83.1738ZM110.816 82.4121L112.293 77.6602H113.453L110.904 84.9785C110.51 86.0332 109.883 86.5605 109.023 86.5605L108.818 86.543L108.414 86.4668V85.5879L108.707 85.6113C109.074 85.6113 109.359 85.5371 109.562 85.3887C109.77 85.2402 109.939 84.9688 110.072 84.5742L110.312 83.9297L108.051 77.6602H109.234L110.816 82.4121ZM116.975 84.1172C116.115 84.1172 115.416 83.8359 114.877 83.2734C114.338 82.707 114.068 81.9512 114.068 81.0059V80.8066C114.068 80.1777 114.188 79.6172 114.426 79.125C114.668 78.6289 115.004 78.2422 115.434 77.9648C115.867 77.6836 116.336 77.543 116.84 77.543C117.664 77.543 118.305 77.8145 118.762 78.3574C119.219 78.9004 119.447 79.6777 119.447 80.6895V81.1406H115.152C115.168 81.7656 115.35 82.2715 115.697 82.6582C116.049 83.041 116.494 83.2324 117.033 83.2324C117.416 83.2324 117.74 83.1543 118.006 82.998C118.271 82.8418 118.504 82.6348 118.703 82.377L119.365 82.8926C118.834 83.709 118.037 84.1172 116.975 84.1172ZM116.84 78.4336C116.402 78.4336 116.035 78.5938 115.738 78.9141C115.441 79.2305 115.258 79.6758 115.188 80.25H118.363V80.168C118.332 79.6172 118.184 79.1914 117.918 78.8906C117.652 78.5859 117.293 78.4336 116.84 78.4336ZM123.771 78.6328C123.607 78.6055 123.43 78.5918 123.238 78.5918C122.527 78.5918 122.045 78.8945 121.791 79.5V84H120.707V77.6602H121.762L121.779 78.3926C122.135 77.8262 122.639 77.543 123.291 77.543C123.502 77.543 123.662 77.5703 123.771 77.625V78.6328Z" fill="#8C8C8C"/>
<path d="M40.1191 80.5488H38.1152V84H36.9844V75.4688H39.8086C40.7695 75.4688 41.5078 75.6875 42.0234 76.125C42.543 76.5625 42.8027 77.1992 42.8027 78.0352C42.8027 78.5664 42.6582 79.0293 42.3691 79.4238C42.084 79.8184 41.6855 80.1133 41.1738 80.3086L43.1777 83.9297V84H41.9707L40.1191 80.5488ZM38.1152 79.6289H39.8438C40.4023 79.6289 40.8457 79.4844 41.1738 79.1953C41.5059 78.9062 41.6719 78.5195 41.6719 78.0352C41.6719 77.5078 41.5137 77.1035 41.1973 76.8223C40.8848 76.541 40.4316 76.3984 39.8379 76.3945H38.1152V79.6289ZM48.1289 84C48.0664 83.875 48.0156 83.6523 47.9766 83.332C47.4727 83.8555 46.8711 84.1172 46.1719 84.1172C45.5469 84.1172 45.0332 83.9414 44.6309 83.5898C44.2324 83.2344 44.0332 82.7852 44.0332 82.2422C44.0332 81.582 44.2832 81.0703 44.7832 80.707C45.2871 80.3398 45.9941 80.1562 46.9043 80.1562H47.959V79.6582C47.959 79.2793 47.8457 78.9785 47.6191 78.7559C47.3926 78.5293 47.0586 78.416 46.6172 78.416C46.2305 78.416 45.9062 78.5137 45.6445 78.709C45.3828 78.9043 45.252 79.1406 45.252 79.418H44.1621C44.1621 79.1016 44.2734 78.7969 44.4961 78.5039C44.7227 78.207 45.0273 77.9727 45.4102 77.8008C45.7969 77.6289 46.2207 77.543 46.6816 77.543C47.4121 77.543 47.9844 77.7266 48.3984 78.0938C48.8125 78.457 49.0273 78.959 49.043 79.5996V82.5176C49.043 83.0996 49.1172 83.5625 49.2656 83.9062V84H48.1289ZM46.3301 83.1738C46.6699 83.1738 46.9922 83.0859 47.2969 82.9102C47.6016 82.7344 47.8223 82.5059 47.959 82.2246V80.9238H47.1094C45.7812 80.9238 45.1172 81.3125 45.1172 82.0898C45.1172 82.4297 45.2305 82.6953 45.457 82.8867C45.6836 83.0781 45.9746 83.1738 46.3301 83.1738ZM52.2129 76.125V77.6602H53.3965V78.498H52.2129V82.4297C52.2129 82.6836 52.2656 82.875 52.3711 83.0039C52.4766 83.1289 52.6562 83.1914 52.9102 83.1914C53.0352 83.1914 53.207 83.168 53.4258 83.1211V84C53.1406 84.0781 52.8633 84.1172 52.5938 84.1172C52.1094 84.1172 51.7441 83.9707 51.498 83.6777C51.252 83.3848 51.1289 82.9688 51.1289 82.4297V78.498H49.9746V77.6602H51.1289V76.125H52.2129ZM55.8457 84H54.7617V77.6602H55.8457V84ZM54.6738 75.9785C54.6738 75.8027 54.7266 75.6543 54.832 75.5332C54.9414 75.4121 55.1016 75.3516 55.3125 75.3516C55.5234 75.3516 55.6836 75.4121 55.793 75.5332C55.9023 75.6543 55.957 75.8027 55.957 75.9785C55.957 76.1543 55.9023 76.3008 55.793 76.418C55.6836 76.5352 55.5234 76.5938 55.3125 76.5938C55.1016 76.5938 54.9414 76.5352 54.832 76.418C54.7266 76.3008 54.6738 76.1543 54.6738 75.9785ZM58.6113 77.6602L58.6465 78.457C59.1309 77.8477 59.7637 77.543 60.5449 77.543C61.8848 77.543 62.5605 78.2988 62.5723 79.8105V84H61.4883V79.8047C61.4844 79.3477 61.3789 79.0098 61.1719 78.791C60.9688 78.5723 60.6504 78.4629 60.2168 78.4629C59.8652 78.4629 59.5566 78.5566 59.291 78.7441C59.0254 78.9316 58.8184 79.1777 58.6699 79.4824V84H57.5859V77.6602H58.6113ZM63.9492 80.7773C63.9492 79.7891 64.1777 79.0039 64.6348 78.4219C65.0918 77.8359 65.6973 77.543 66.4512 77.543C67.2246 77.543 67.8281 77.8164 68.2617 78.3633L68.3145 77.6602H69.3047V83.8477C69.3047 84.668 69.0605 85.3145 68.5723 85.7871C68.0879 86.2598 67.4355 86.4961 66.6152 86.4961C66.1582 86.4961 65.7109 86.3984 65.2734 86.2031C64.8359 86.0078 64.502 85.7402 64.2715 85.4004L64.834 84.75C65.2988 85.3242 65.8672 85.6113 66.5391 85.6113C67.0664 85.6113 67.4766 85.4629 67.7695 85.166C68.0664 84.8691 68.2148 84.4512 68.2148 83.9121V83.3672C67.7812 83.8672 67.1895 84.1172 66.4395 84.1172C65.6973 84.1172 65.0957 83.8184 64.6348 83.2207C64.1777 82.623 63.9492 81.8086 63.9492 80.7773ZM65.0391 80.9004C65.0391 81.6152 65.1855 82.1777 65.4785 82.5879C65.7715 82.9941 66.1816 83.1973 66.709 83.1973C67.3926 83.1973 67.8945 82.8867 68.2148 82.2656V79.3711C67.8828 78.7656 67.3848 78.4629 66.7207 78.4629C66.1934 78.4629 65.7812 78.668 65.4844 79.0781C65.1875 79.4883 65.0391 80.0957 65.0391 80.9004Z" fill="#8C8C8C"/>
<path d="M261.443 75.4688L264.232 82.4297L267.021 75.4688H268.48V84H267.355V80.6777L267.461 77.0918L264.66 84H263.799L261.004 77.1094L261.115 80.6777V84H259.99V75.4688H261.443ZM274.211 84C274.148 83.875 274.098 83.6523 274.059 83.332C273.555 83.8555 272.953 84.1172 272.254 84.1172C271.629 84.1172 271.115 83.9414 270.713 83.5898C270.314 83.2344 270.115 82.7852 270.115 82.2422C270.115 81.582 270.365 81.0703 270.865 80.707C271.369 80.3398 272.076 80.1562 272.986 80.1562H274.041V79.6582C274.041 79.2793 273.928 78.9785 273.701 78.7559C273.475 78.5293 273.141 78.416 272.699 78.416C272.312 78.416 271.988 78.5137 271.727 78.709C271.465 78.9043 271.334 79.1406 271.334 79.418H270.244C270.244 79.1016 270.355 78.7969 270.578 78.5039C270.805 78.207 271.109 77.9727 271.492 77.8008C271.879 77.6289 272.303 77.543 272.764 77.543C273.494 77.543 274.066 77.7266 274.48 78.0938C274.895 78.457 275.109 78.959 275.125 79.5996V82.5176C275.125 83.0996 275.199 83.5625 275.348 83.9062V84H274.211ZM272.412 83.1738C272.752 83.1738 273.074 83.0859 273.379 82.9102C273.684 82.7344 273.904 82.5059 274.041 82.2246V80.9238H273.191C271.863 80.9238 271.199 81.3125 271.199 82.0898C271.199 82.4297 271.312 82.6953 271.539 82.8867C271.766 83.0781 272.057 83.1738 272.412 83.1738ZM278.295 76.125V77.6602H279.479V78.498H278.295V82.4297C278.295 82.6836 278.348 82.875 278.453 83.0039C278.559 83.1289 278.738 83.1914 278.992 83.1914C279.117 83.1914 279.289 83.168 279.508 83.1211V84C279.223 84.0781 278.945 84.1172 278.676 84.1172C278.191 84.1172 277.826 83.9707 277.58 83.6777C277.334 83.3848 277.211 82.9688 277.211 82.4297V78.498H276.057V77.6602H277.211V76.125H278.295ZM283.293 83.2324C283.68 83.2324 284.018 83.1152 284.307 82.8809C284.596 82.6465 284.756 82.3535 284.787 82.002H285.812C285.793 82.3652 285.668 82.7109 285.438 83.0391C285.207 83.3672 284.898 83.6289 284.512 83.8242C284.129 84.0195 283.723 84.1172 283.293 84.1172C282.43 84.1172 281.742 83.8301 281.23 83.2559C280.723 82.6777 280.469 81.8887 280.469 80.8887V80.707C280.469 80.0898 280.582 79.541 280.809 79.0605C281.035 78.5801 281.359 78.207 281.781 77.9414C282.207 77.6758 282.709 77.543 283.287 77.543C283.998 77.543 284.588 77.7559 285.057 78.1816C285.529 78.6074 285.781 79.1602 285.812 79.8398H284.787C284.756 79.4297 284.6 79.0938 284.318 78.832C284.041 78.5664 283.697 78.4336 283.287 78.4336C282.736 78.4336 282.309 78.6328 282.004 79.0312C281.703 79.4258 281.553 79.998 281.553 80.748V80.9531C281.553 81.6836 281.703 82.2461 282.004 82.6406C282.305 83.0352 282.734 83.2324 283.293 83.2324ZM288.115 78.4277C288.596 77.8379 289.221 77.543 289.99 77.543C291.33 77.543 292.006 78.2988 292.018 79.8105V84H290.934V79.8047C290.93 79.3477 290.824 79.0098 290.617 78.791C290.414 78.5723 290.096 78.4629 289.662 78.4629C289.311 78.4629 289.002 78.5566 288.736 78.7441C288.471 78.9316 288.264 79.1777 288.115 79.4824V84H287.031V75H288.115V78.4277ZM296.271 84.1172C295.412 84.1172 294.713 83.8359 294.174 83.2734C293.635 82.707 293.365 81.9512 293.365 81.0059V80.8066C293.365 80.1777 293.484 79.6172 293.723 79.125C293.965 78.6289 294.301 78.2422 294.73 77.9648C295.164 77.6836 295.633 77.543 296.137 77.543C296.961 77.543 297.602 77.8145 298.059 78.3574C298.516 78.9004 298.744 79.6777 298.744 80.6895V81.1406H294.449C294.465 81.7656 294.646 82.2715 294.994 82.6582C295.346 83.041 295.791 83.2324 296.33 83.2324C296.713 83.2324 297.037 83.1543 297.303 82.998C297.568 82.8418 297.801 82.6348 298 82.377L298.662 82.8926C298.131 83.709 297.334 84.1172 296.271 84.1172ZM296.137 78.4336C295.699 78.4336 295.332 78.5938 295.035 78.9141C294.738 79.2305 294.555 79.6758 294.484 80.25H297.66V80.168C297.629 79.6172 297.48 79.1914 297.215 78.8906C296.949 78.5859 296.59 78.4336 296.137 78.4336ZM303.695 82.3184C303.695 82.0254 303.584 81.7988 303.361 81.6387C303.143 81.4746 302.758 81.334 302.207 81.2168C301.66 81.0996 301.225 80.959 300.9 80.7949C300.58 80.6309 300.342 80.4355 300.186 80.209C300.033 79.9824 299.957 79.7129 299.957 79.4004C299.957 78.8809 300.176 78.4414 300.613 78.082C301.055 77.7227 301.617 77.543 302.301 77.543C303.02 77.543 303.602 77.7285 304.047 78.0996C304.496 78.4707 304.721 78.9453 304.721 79.5234H303.631C303.631 79.2266 303.504 78.9707 303.25 78.7559C303 78.541 302.684 78.4336 302.301 78.4336C301.906 78.4336 301.598 78.5195 301.375 78.6914C301.152 78.8633 301.041 79.0879 301.041 79.3652C301.041 79.627 301.145 79.8242 301.352 79.957C301.559 80.0898 301.932 80.2168 302.471 80.3379C303.014 80.459 303.453 80.6035 303.789 80.7715C304.125 80.9395 304.373 81.1426 304.533 81.3809C304.697 81.6152 304.779 81.9023 304.779 82.2422C304.779 82.8086 304.553 83.2637 304.1 83.6074C303.646 83.9473 303.059 84.1172 302.336 84.1172C301.828 84.1172 301.379 84.0273 300.988 83.8477C300.598 83.668 300.291 83.418 300.068 83.0977C299.85 82.7734 299.74 82.4238 299.74 82.0488H300.824C300.844 82.4121 300.988 82.7012 301.258 82.916C301.531 83.127 301.891 83.2324 302.336 83.2324C302.746 83.2324 303.074 83.1504 303.32 82.9863C303.57 82.8184 303.695 82.5957 303.695 82.3184Z" fill="#8C8C8C"/>
<path d="M350.701 81.7734H347.127L346.324 84H345.164L348.422 75.4688H349.406L352.67 84H351.516L350.701 81.7734ZM347.467 80.8477H350.367L348.914 76.8574L347.467 80.8477ZM357.34 82.3184C357.34 82.0254 357.229 81.7988 357.006 81.6387C356.787 81.4746 356.402 81.334 355.852 81.2168C355.305 81.0996 354.869 80.959 354.545 80.7949C354.225 80.6309 353.986 80.4355 353.83 80.209C353.678 79.9824 353.602 79.7129 353.602 79.4004C353.602 78.8809 353.82 78.4414 354.258 78.082C354.699 77.7227 355.262 77.543 355.945 77.543C356.664 77.543 357.246 77.7285 357.691 78.0996C358.141 78.4707 358.365 78.9453 358.365 79.5234H357.275C357.275 79.2266 357.148 78.9707 356.895 78.7559C356.645 78.541 356.328 78.4336 355.945 78.4336C355.551 78.4336 355.242 78.5195 355.02 78.6914C354.797 78.8633 354.686 79.0879 354.686 79.3652C354.686 79.627 354.789 79.8242 354.996 79.957C355.203 80.0898 355.576 80.2168 356.115 80.3379C356.658 80.459 357.098 80.6035 357.434 80.7715C357.77 80.9395 358.018 81.1426 358.178 81.3809C358.342 81.6152 358.424 81.9023 358.424 82.2422C358.424 82.8086 358.197 83.2637 357.744 83.6074C357.291 83.9473 356.703 84.1172 355.98 84.1172C355.473 84.1172 355.023 84.0273 354.633 83.8477C354.242 83.668 353.936 83.418 353.713 83.0977C353.494 82.7734 353.385 82.4238 353.385 82.0488H354.469C354.488 82.4121 354.633 82.7012 354.902 82.916C355.176 83.127 355.535 83.2324 355.98 83.2324C356.391 83.2324 356.719 83.1504 356.965 82.9863C357.215 82.8184 357.34 82.5957 357.34 82.3184ZM363.527 82.3184C363.527 82.0254 363.416 81.7988 363.193 81.6387C362.975 81.4746 362.59 81.334 362.039 81.2168C361.492 81.0996 361.057 80.959 360.732 80.7949C360.412 80.6309 360.174 80.4355 360.018 80.209C359.865 79.9824 359.789 79.7129 359.789 79.4004C359.789 78.8809 360.008 78.4414 360.445 78.082C360.887 77.7227 361.449 77.543 362.133 77.543C362.852 77.543 363.434 77.7285 363.879 78.0996C364.328 78.4707 364.553 78.9453 364.553 79.5234H363.463C363.463 79.2266 363.336 78.9707 363.082 78.7559C362.832 78.541 362.516 78.4336 362.133 78.4336C361.738 78.4336 361.43 78.5195 361.207 78.6914C360.984 78.8633 360.873 79.0879 360.873 79.3652C360.873 79.627 360.977 79.8242 361.184 79.957C361.391 80.0898 361.764 80.2168 362.303 80.3379C362.846 80.459 363.285 80.6035 363.621 80.7715C363.957 80.9395 364.205 81.1426 364.365 81.3809C364.529 81.6152 364.611 81.9023 364.611 82.2422C364.611 82.8086 364.385 83.2637 363.932 83.6074C363.479 83.9473 362.891 84.1172 362.168 84.1172C361.66 84.1172 361.211 84.0273 360.82 83.8477C360.43 83.668 360.123 83.418 359.9 83.0977C359.682 82.7734 359.572 82.4238 359.572 82.0488H360.656C360.676 82.4121 360.82 82.7012 361.09 82.916C361.363 83.127 361.723 83.2324 362.168 83.2324C362.578 83.2324 362.906 83.1504 363.152 82.9863C363.402 82.8184 363.527 82.5957 363.527 82.3184ZM367.201 84H366.117V77.6602H367.201V84ZM366.029 75.9785C366.029 75.8027 366.082 75.6543 366.188 75.5332C366.297 75.4121 366.457 75.3516 366.668 75.3516C366.879 75.3516 367.039 75.4121 367.148 75.5332C367.258 75.6543 367.312 75.8027 367.312 75.9785C367.312 76.1543 367.258 76.3008 367.148 76.418C367.039 76.5352 366.879 76.5938 366.668 76.5938C366.457 76.5938 366.297 76.5352 366.188 76.418C366.082 76.3008 366.029 76.1543 366.029 75.9785ZM372.633 82.3184C372.633 82.0254 372.521 81.7988 372.299 81.6387C372.08 81.4746 371.695 81.334 371.145 81.2168C370.598 81.0996 370.162 80.959 369.838 80.7949C369.518 80.6309 369.279 80.4355 369.123 80.209C368.971 79.9824 368.895 79.7129 368.895 79.4004C368.895 78.8809 369.113 78.4414 369.551 78.082C369.992 77.7227 370.555 77.543 371.238 77.543C371.957 77.543 372.539 77.7285 372.984 78.0996C373.434 78.4707 373.658 78.9453 373.658 79.5234H372.568C372.568 79.2266 372.441 78.9707 372.188 78.7559C371.938 78.541 371.621 78.4336 371.238 78.4336C370.844 78.4336 370.535 78.5195 370.312 78.6914C370.09 78.8633 369.979 79.0879 369.979 79.3652C369.979 79.627 370.082 79.8242 370.289 79.957C370.496 80.0898 370.869 80.2168 371.408 80.3379C371.951 80.459 372.391 80.6035 372.727 80.7715C373.062 80.9395 373.311 81.1426 373.471 81.3809C373.635 81.6152 373.717 81.9023 373.717 82.2422C373.717 82.8086 373.49 83.2637 373.037 83.6074C372.584 83.9473 371.996 84.1172 371.273 84.1172C370.766 84.1172 370.316 84.0273 369.926 83.8477C369.535 83.668 369.229 83.418 369.006 83.0977C368.787 82.7734 368.678 82.4238 368.678 82.0488H369.762C369.781 82.4121 369.926 82.7012 370.195 82.916C370.469 83.127 370.828 83.2324 371.273 83.2324C371.684 83.2324 372.012 83.1504 372.258 82.9863C372.508 82.8184 372.633 82.5957 372.633 82.3184ZM376.6 76.125V77.6602H377.783V78.498H376.6V82.4297C376.6 82.6836 376.652 82.875 376.758 83.0039C376.863 83.1289 377.043 83.1914 377.297 83.1914C377.422 83.1914 377.594 83.168 377.812 83.1211V84C377.527 84.0781 377.25 84.1172 376.98 84.1172C376.496 84.1172 376.131 83.9707 375.885 83.6777C375.639 83.3848 375.516 82.9688 375.516 82.4297V78.498H374.361V77.6602H375.516V76.125H376.6ZM382.746 82.3184C382.746 82.0254 382.635 81.7988 382.412 81.6387C382.193 81.4746 381.809 81.334 381.258 81.2168C380.711 81.0996 380.275 80.959 379.951 80.7949C379.631 80.6309 379.393 80.4355 379.236 80.209C379.084 79.9824 379.008 79.7129 379.008 79.4004C379.008 78.8809 379.227 78.4414 379.664 78.082C380.105 77.7227 380.668 77.543 381.352 77.543C382.07 77.543 382.652 77.7285 383.098 78.0996C383.547 78.4707 383.771 78.9453 383.771 79.5234H382.682C382.682 79.2266 382.555 78.9707 382.301 78.7559C382.051 78.541 381.734 78.4336 381.352 78.4336C380.957 78.4336 380.648 78.5195 380.426 78.6914C380.203 78.8633 380.092 79.0879 380.092 79.3652C380.092 79.627 380.195 79.8242 380.402 79.957C380.609 80.0898 380.982 80.2168 381.521 80.3379C382.064 80.459 382.504 80.6035 382.84 80.7715C383.176 80.9395 383.424 81.1426 383.584 81.3809C383.748 81.6152 383.83 81.9023 383.83 82.2422C383.83 82.8086 383.604 83.2637 383.15 83.6074C382.697 83.9473 382.109 84.1172 381.387 84.1172C380.879 84.1172 380.43 84.0273 380.039 83.8477C379.648 83.668 379.342 83.418 379.119 83.0977C378.9 82.7734 378.791 82.4238 378.791 82.0488H379.875C379.895 82.4121 380.039 82.7012 380.309 82.916C380.582 83.127 380.941 83.2324 381.387 83.2324C381.797 83.2324 382.125 83.1504 382.371 82.9863C382.621 82.8184 382.746 82.5957 382.746 82.3184Z" fill="#8C8C8C"/>
<path d="M441.289 82.8809C441 83.2949 440.596 83.6055 440.076 83.8125C439.561 84.0156 438.959 84.1172 438.271 84.1172C437.576 84.1172 436.959 83.9551 436.42 83.6309C435.881 83.3027 435.463 82.8379 435.166 82.2363C434.873 81.6348 434.723 80.9375 434.715 80.1445V79.4004C434.715 78.1152 435.014 77.1191 435.611 76.4121C436.213 75.7051 437.057 75.3516 438.143 75.3516C439.033 75.3516 439.75 75.5801 440.293 76.0371C440.836 76.4902 441.168 77.1348 441.289 77.9707H440.164C439.953 76.8418 439.281 76.2773 438.148 76.2773C437.395 76.2773 436.822 76.543 436.432 77.0742C436.045 77.6016 435.85 78.3672 435.846 79.3711V80.0684C435.846 81.0254 436.064 81.7871 436.502 82.3535C436.939 82.916 437.531 83.1973 438.277 83.1973C438.699 83.1973 439.068 83.1504 439.385 83.0566C439.701 82.9629 439.963 82.8047 440.17 82.582V80.666H438.195V79.752H441.289V82.8809ZM442.713 80.7715C442.713 80.1504 442.834 79.5918 443.076 79.0957C443.322 78.5996 443.662 78.2168 444.096 77.9473C444.533 77.6777 445.031 77.543 445.59 77.543C446.453 77.543 447.15 77.8418 447.682 78.4395C448.217 79.0371 448.484 79.832 448.484 80.8242V80.9004C448.484 81.5176 448.365 82.0723 448.127 82.5645C447.893 83.0527 447.555 83.4336 447.113 83.707C446.676 83.9805 446.172 84.1172 445.602 84.1172C444.742 84.1172 444.045 83.8184 443.51 83.2207C442.979 82.623 442.713 81.832 442.713 80.8477V80.7715ZM443.803 80.9004C443.803 81.6035 443.965 82.168 444.289 82.5938C444.617 83.0195 445.055 83.2324 445.602 83.2324C446.152 83.2324 446.59 83.0176 446.914 82.5879C447.238 82.1543 447.4 81.5488 447.4 80.7715C447.4 80.0762 447.234 79.5137 446.902 79.084C446.574 78.6504 446.137 78.4336 445.59 78.4336C445.055 78.4336 444.623 78.6465 444.295 79.0723C443.967 79.498 443.803 80.1074 443.803 80.9004ZM453.758 84C453.695 83.875 453.645 83.6523 453.605 83.332C453.102 83.8555 452.5 84.1172 451.801 84.1172C451.176 84.1172 450.662 83.9414 450.26 83.5898C449.861 83.2344 449.662 82.7852 449.662 82.2422C449.662 81.582 449.912 81.0703 450.412 80.707C450.916 80.3398 451.623 80.1562 452.533 80.1562H453.588V79.6582C453.588 79.2793 453.475 78.9785 453.248 78.7559C453.021 78.5293 452.688 78.416 452.246 78.416C451.859 78.416 451.535 78.5137 451.273 78.709C451.012 78.9043 450.881 79.1406 450.881 79.418H449.791C449.791 79.1016 449.902 78.7969 450.125 78.5039C450.352 78.207 450.656 77.9727 451.039 77.8008C451.426 77.6289 451.85 77.543 452.311 77.543C453.041 77.543 453.613 77.7266 454.027 78.0938C454.441 78.457 454.656 78.959 454.672 79.5996V82.5176C454.672 83.0996 454.746 83.5625 454.895 83.9062V84H453.758ZM451.959 83.1738C452.299 83.1738 452.621 83.0859 452.926 82.9102C453.23 82.7344 453.451 82.5059 453.588 82.2246V80.9238H452.738C451.41 80.9238 450.746 81.3125 450.746 82.0898C450.746 82.4297 450.859 82.6953 451.086 82.8867C451.312 83.0781 451.604 83.1738 451.959 83.1738ZM457.549 84H456.465V75H457.549V84ZM462.98 82.3184C462.98 82.0254 462.869 81.7988 462.646 81.6387C462.428 81.4746 462.043 81.334 461.492 81.2168C460.945 81.0996 460.51 80.959 460.186 80.7949C459.865 80.6309 459.627 80.4355 459.471 80.209C459.318 79.9824 459.242 79.7129 459.242 79.4004C459.242 78.8809 459.461 78.4414 459.898 78.082C460.34 77.7227 460.902 77.543 461.586 77.543C462.305 77.543 462.887 77.7285 463.332 78.0996C463.781 78.4707 464.006 78.9453 464.006 79.5234H462.916C462.916 79.2266 462.789 78.9707 462.535 78.7559C462.285 78.541 461.969 78.4336 461.586 78.4336C461.191 78.4336 460.883 78.5195 460.66 78.6914C460.438 78.8633 460.326 79.0879 460.326 79.3652C460.326 79.627 460.43 79.8242 460.637 79.957C460.844 80.0898 461.217 80.2168 461.756 80.3379C462.299 80.459 462.738 80.6035 463.074 80.7715C463.41 80.9395 463.658 81.1426 463.818 81.3809C463.982 81.6152 464.064 81.9023 464.064 82.2422C464.064 82.8086 463.838 83.2637 463.385 83.6074C462.932 83.9473 462.344 84.1172 461.621 84.1172C461.113 84.1172 460.664 84.0273 460.273 83.8477C459.883 83.668 459.576 83.418 459.354 83.0977C459.135 82.7734 459.025 82.4238 459.025 82.0488H460.109C460.129 82.4121 460.273 82.7012 460.543 82.916C460.816 83.127 461.176 83.2324 461.621 83.2324C462.031 83.2324 462.359 83.1504 462.605 82.9863C462.855 82.8184 462.98 82.5957 462.98 82.3184Z" fill="#8C8C8C"/>
</g>
<defs>
<filter id="filter0_i_2481_65092" x="0" y="0" width="502" height="216" filterUnits="userSpaceOnUse" color-interpolation-filters="sRGB">
<feFlood flood-opacity="0" result="BackgroundImageFix"/>
<feBlend mode="normal" in="SourceGraphic" in2="BackgroundImageFix" result="shape"/>
<feColorMatrix in="SourceAlpha" type="matrix" values="0 0 0 0 0 0 0 0 0 0 0 0 0 0 0 0 0 0 127 0" result="hardAlpha"/>
<feOffset dy="-1"/>
<feComposite in2="hardAlpha" operator="arithmetic" k2="-1" k3="1"/>
<feColorMatrix type="matrix" values="0 0 0 0 0.921569 0 0 0 0 0.921569 0 0 0 0 0.921569 0 0 0 1 0"/>
<feBlend mode="normal" in2="shape" result="effect1_innerShadow_2481_65092"/>
</filter>
</defs>
</svg>
