<svg width="85" height="18" viewBox="0 0 85 18" fill="none" xmlns="http://www.w3.org/2000/svg">
<path d="M8.65764 0.225586C3.89587 0.225586 0.0383301 4.20216 0.0383301 9.11086C0.0383301 14.0196 3.89587 17.9961 8.65764 17.9961C13.4158 17.9961 17.2769 14.0196 17.2769 9.11086C17.2769 4.20216 13.4158 0.225586 8.65764 0.225586ZM12.6829 13.2528C12.2527 13.2303 12.2417 13.2152 11.8078 13.0837C11.7349 13.0611 11.2792 12.8506 11.0166 12.9897C11.013 12.9935 11.0057 12.9935 11.0021 12.9972C10.8963 13.0649 10.7869 13.1288 10.6739 13.1889C10.652 13.2002 10.6302 13.2115 10.6119 13.2227C10.0213 13.5234 9.35768 13.6888 8.65764 13.6888C6.20383 13.6888 4.21308 11.6404 4.21308 9.11086C4.21308 6.58134 6.20383 4.52916 8.65764 4.52916C11.1114 4.52916 13.0985 6.58134 13.0985 9.11086C13.0985 9.77613 12.96 10.4076 12.7121 10.9789C12.6391 11.2946 12.6975 11.46 12.8543 11.7419C13.1387 12.2605 13.485 12.6552 13.97 12.9784C13.5762 13.1551 13.1459 13.2791 12.6829 13.2528Z" fill="#F7F7F7"/>
<path d="M8.65449 0.262695C5.3548 0.262695 2.48899 2.01043 1.0415 5.01729L6.68197 4.94588L6.87157 4.9083C7.23617 4.64144 8.03831 4.52492 8.69825 4.52492C11.1521 4.52492 13.1173 6.5771 13.1173 9.10662C13.1173 9.77189 12.9678 10.4033 12.7199 10.9746C12.6469 11.2904 12.698 11.4557 12.8548 11.7414C13.1428 12.2601 13.4855 12.6547 13.9668 12.978C13.573 13.1546 13.1392 13.2786 12.6761 13.2523C12.5376 13.2448 12.4391 13.2373 12.3589 13.2298C12.5521 13.8988 12.6579 14.6092 12.6579 15.3459C12.6579 15.9472 12.5886 16.5298 12.4573 17.0861C15.3086 15.639 17.2702 12.6322 17.2702 9.13293C17.2738 4.22048 13.4126 0.262695 8.65449 0.262695Z" fill="#D2D2D2"/>
<path d="M8.65548 0.225586C8.51329 0.225586 8.37109 0.229345 8.22889 0.236862C11.1494 1.6764 13.1657 4.75091 13.1657 8.31404C13.1657 8.81769 13.0417 9.8062 13.0308 9.80996C12.9724 10.1896 12.8703 10.5579 12.7281 10.8999C12.6261 11.2683 12.6807 11.4374 12.8485 11.7456C13.1329 12.2643 13.4792 12.659 13.9642 12.9822C13.5704 13.1588 13.1401 13.2829 12.6734 13.2566C12.2432 13.234 12.2323 13.219 11.7984 13.0874C11.7328 13.0686 11.3426 12.8882 11.0765 12.9672C9.8915 15.32 7.91898 17.0189 5.15161 17.2369C6.21991 17.7255 7.40488 17.9999 8.64819 17.9999C13.4063 17.9999 17.2675 14.0233 17.2675 9.11462C17.2748 4.20216 13.4136 0.225586 8.65548 0.225586Z" fill="#D2D2D2"/>
<path d="M2.58927 11.6741C2.58927 7.59608 5.79417 4.29229 9.75016 4.29229C13.6697 4.29229 16.8673 7.59984 16.922 11.6253C17.1808 10.7796 17.3085 9.8174 17.3085 8.88152C17.3121 3.97657 13.4509 0 8.6928 0C3.93103 0 0.0734863 3.97657 0.0734863 8.88527C0.0734863 12.1928 1.82725 15.0757 4.42325 16.6054C3.28567 15.2974 2.58927 13.5685 2.58927 11.6741Z" fill="#F7F7F7"/>
<path d="M11.0804 13.0049C10.9382 13.0688 10.7924 13.1289 10.6465 13.1853C10.6429 13.1853 10.6392 13.189 10.6356 13.189C10.6137 13.2003 10.5918 13.2116 10.5736 13.2229C9.98293 13.5235 9.31935 13.6889 8.6193 13.6889C8.46252 13.6889 8.30574 13.6814 8.14896 13.6626C8.09427 13.6626 8.04323 13.6626 7.98853 13.6626C4.06537 13.6626 0.824011 10.6633 0.298978 6.76562C0.105736 7.51734 0 8.29912 0 9.11098C0 12.7643 2.14024 15.9027 5.19565 17.2671C7.94114 17.0341 9.90272 15.3427 11.0804 13.0049Z" fill="#E9E9E9"/>
<path d="M22.5571 11.573V2.3418H24.6147V5.6832C25.1069 5.593 25.5731 5.54789 26.0209 5.54789C27.2939 5.54789 28.2709 5.92376 28.9518 6.67548C29.6365 7.4272 29.9769 8.50968 29.9769 9.92292C29.9769 10.701 29.877 11.385 29.6772 11.9789C29.4773 12.5727 29.2405 13.02 28.9703 13.3282C28.7002 13.6327 28.3708 13.8845 27.9934 14.0762C27.6122 14.2679 27.2828 14.3882 27.0016 14.4333C26.7203 14.4784 26.4391 14.5009 26.1541 14.5009C24.9329 14.5009 24.0263 14.2153 23.4379 13.6402C22.8495 13.0689 22.5571 12.3811 22.5571 11.573ZM24.6147 11.7722C24.6147 12.3961 25.1254 12.7081 26.1541 12.7081C26.8055 12.7081 27.2643 12.4825 27.5271 12.0315C27.7898 11.5805 27.9194 10.84 27.9194 9.81016C27.9194 8.83292 27.7491 8.14885 27.4124 7.76172C27.0756 7.37082 26.5871 7.17913 25.9432 7.17913C25.4399 7.17913 24.9959 7.22799 24.6147 7.32572V11.7722Z" fill="white"/>
<path d="M31.3367 10.1186C31.3367 8.72412 31.6438 7.61157 32.2544 6.77716C32.865 5.94274 33.8346 5.5293 35.1631 5.5293C36.4176 5.5293 37.3687 5.93523 38.0126 6.74333C38.6565 7.55519 38.9785 8.55122 38.9785 9.73519C38.9785 10.2238 38.9674 10.5809 38.9452 10.8139H33.3942C33.4497 11.5656 33.6718 12.073 34.0603 12.3249C34.4489 12.5805 34.9522 12.7082 35.5702 12.7082C36.5731 12.7082 37.5426 12.4865 38.4826 12.0355V13.7193C37.5352 14.2418 36.4621 14.5011 35.263 14.5011C34.8819 14.5011 34.5266 14.471 34.1936 14.4071C33.8605 14.3432 33.5126 14.2155 33.1537 14.0162C32.7947 13.817 32.4876 13.5652 32.2285 13.2608C31.9695 12.9563 31.7585 12.5316 31.592 11.9904C31.4218 11.4491 31.3367 10.8252 31.3367 10.1186ZM33.3942 9.3706H36.8395C36.784 8.77674 36.6101 8.27308 36.3177 7.85964C36.0254 7.44995 35.622 7.24322 35.1076 7.24322C34.5932 7.24322 34.1936 7.41236 33.9049 7.74312C33.6237 8.0814 33.4497 8.62264 33.3942 9.3706Z" fill="white"/>
<path d="M39.5012 7.47576V5.6829H40.9408V3.10449H42.9983V5.67914H45.0226V7.472H42.9983V11.7531C42.9983 12.1252 43.076 12.3808 43.2278 12.5085C43.3832 12.6401 43.6533 12.704 44.0456 12.704C44.4157 12.704 44.7413 12.6401 45.0226 12.5161V14.2413C44.6229 14.4104 44.1825 14.4969 43.7089 14.4969C43.694 14.4969 43.6792 14.4969 43.6681 14.4969C42.8207 14.4969 42.1546 14.2413 41.6698 13.7339C41.185 13.2227 40.9408 12.5198 40.9408 11.6253V7.47576H39.5012Z" fill="white"/>
<path d="M46.2712 11.6973C46.2712 11.3064 46.3416 10.9569 46.4859 10.6487C46.6302 10.3405 46.8041 10.0886 47.0077 9.89695C47.2149 9.70526 47.4776 9.53989 47.7959 9.40458C48.1142 9.26927 48.3954 9.16778 48.6396 9.10389C48.8839 9.03999 49.1762 8.99113 49.513 8.9573C49.8498 8.92347 50.0903 8.90468 50.2309 8.89716C50.3715 8.8934 50.5418 8.88964 50.7379 8.88964L52.1108 8.97233C52.1108 8.18303 51.8999 7.62299 51.4817 7.28472C51.0599 6.94644 50.4382 6.78106 49.6166 6.78106C48.6915 6.78106 47.8588 6.92013 47.115 7.19827V5.98424C47.9587 5.68355 48.8136 5.5332 49.6832 5.5332C50.8822 5.5332 51.7963 5.84141 52.4254 6.45406C53.0545 7.07048 53.3691 7.96878 53.3691 9.15275V11.7612C53.3691 12.3175 53.2432 12.7911 52.9879 13.1857C52.7326 13.5804 52.4069 13.866 52.0109 14.0389C51.6113 14.2156 51.2375 14.3359 50.8896 14.4035C50.5418 14.4712 50.1976 14.505 49.8572 14.505C49.5944 14.505 49.3243 14.4862 49.0504 14.4524C48.7729 14.4186 48.462 14.3396 48.1105 14.2194C47.7626 14.0953 47.4591 13.9412 47.2038 13.7495C46.9448 13.5578 46.7264 13.2872 46.5451 12.9302C46.3601 12.5731 46.2712 12.1634 46.2712 11.6973ZM47.5073 11.6973C47.5073 12.7798 48.2807 13.321 49.8313 13.321C49.835 13.321 49.8461 13.321 49.8572 13.321C51.3707 13.321 52.1294 12.7986 52.1294 11.75V10.0849C51.7519 10.0172 51.2449 9.9834 50.6084 9.9834C48.5434 9.97964 47.5073 10.5547 47.5073 11.6973Z" fill="white"/>
<path d="M55.2046 14.3656V6.36723C56.4924 5.81847 57.8765 5.54785 59.353 5.54785V6.72806C58.4204 6.75061 57.4472 6.90095 56.4406 7.17909V14.3656H55.2046Z" fill="white"/>
<path d="M60.1292 10.1336C60.1292 10.1223 60.1292 10.1035 60.1292 10.0735C60.1292 10.0472 60.1292 10.0208 60.1292 10.0058C60.1292 7.02147 61.3763 5.5293 63.8742 5.5293C64.396 5.5293 64.8697 5.61199 65.2915 5.78112C65.7171 5.9465 66.0539 6.14571 66.3018 6.37123C66.5498 6.59674 66.7718 6.89367 66.9605 7.25826C67.1493 7.62284 67.2825 7.93481 67.3639 8.1904C67.4453 8.44598 67.5082 8.75419 67.5526 9.11501C67.597 9.46457 67.6192 9.68632 67.6192 9.77653V10.1486L67.5859 10.7613H61.3689C61.4466 11.6333 61.7093 12.2685 62.1571 12.6594C62.6049 13.054 63.2673 13.2495 64.1443 13.2495C65.3841 13.2495 66.361 13.0352 67.0716 12.603V13.896C66.25 14.2981 65.2508 14.4973 64.0777 14.4973C64.0629 14.4973 64.0444 14.4973 64.0259 14.4973C63.5263 14.4973 63.0675 14.4372 62.6493 14.3132C62.2311 14.1929 61.8203 13.9824 61.4207 13.6817C61.0173 13.381 60.7028 12.93 60.4733 12.3249C60.2439 11.7273 60.1292 10.9943 60.1292 10.1336ZM61.3689 9.64874H66.3795C66.3795 9.44953 66.3573 9.22777 66.3092 8.98722C66.2611 8.74291 66.1686 8.43095 66.0243 8.04757C65.8799 7.66419 65.6246 7.34471 65.2545 7.09288C64.8845 6.83729 64.4219 6.7095 63.8742 6.7095C63.0268 6.7095 62.4087 6.93502 62.0276 7.38229C61.6427 7.82957 61.4244 8.58505 61.3689 9.64874Z" fill="white"/>
<path d="M69.321 14.3658V6.37874C70.4423 5.81119 71.6487 5.5293 72.9403 5.5293C74.0172 5.5293 74.8498 5.80743 75.4419 6.36371C76.034 6.91998 76.3338 7.70178 76.3338 8.70908V14.3696H75.094V8.70532C75.094 8.46101 75.0681 8.24677 75.02 8.05508C74.9682 7.86715 74.872 7.66419 74.7277 7.44619C74.5834 7.23195 74.3502 7.06657 74.0246 6.95005C73.7026 6.83354 73.2955 6.77716 72.8071 6.77716C72.0891 6.77716 71.3416 6.89367 70.5608 7.12671V14.3658H69.321Z" fill="white"/>
<path d="M77.905 11.6973C77.905 11.3064 77.9753 10.9569 78.1197 10.6487C78.2603 10.3405 78.4379 10.0886 78.6415 9.89695C78.8487 9.70526 79.1114 9.53989 79.4297 9.40458C79.748 9.26927 80.0292 9.16778 80.2734 9.10389C80.5177 9.03999 80.81 8.99113 81.1468 8.9573C81.4835 8.92347 81.7241 8.90468 81.8647 8.89716C82.0053 8.8934 82.1756 8.88964 82.3717 8.88964L83.7446 8.97233C83.7446 8.18303 83.5337 7.62299 83.1155 7.28472C82.6937 6.94644 82.0719 6.78106 81.2504 6.78106C80.3252 6.78106 79.4926 6.92013 78.7488 7.19827V5.98424C79.5925 5.68355 80.4474 5.5332 81.317 5.5332C82.516 5.5332 83.4301 5.84141 84.0592 6.45406C84.6883 7.07048 85.0029 7.96878 85.0029 9.15275V11.7612C85.0029 12.3175 84.877 12.7911 84.6217 13.1857C84.3663 13.5804 84.0407 13.866 83.6447 14.0389C83.2451 14.2156 82.8713 14.3359 82.5234 14.4035C82.1756 14.4712 81.8314 14.505 81.4909 14.505C81.2282 14.505 80.9581 14.4862 80.6842 14.4524C80.4067 14.4186 80.0958 14.3396 79.7442 14.2194C79.3964 14.0953 79.0929 13.9412 78.8339 13.7495C78.5785 13.5578 78.3565 13.2872 78.1752 12.9302C77.9975 12.5731 77.905 12.1634 77.905 11.6973ZM79.1447 11.6973C79.1447 12.7798 79.9182 13.321 81.465 13.321C81.4687 13.321 81.4798 13.321 81.4909 13.321C83.0045 13.321 83.7631 12.7986 83.7631 11.75V10.0849C83.3857 10.0172 82.8787 9.9834 82.2422 9.9834C80.1772 9.97964 79.1447 10.5547 79.1447 11.6973Z" fill="white"/>
</svg>
