<svg width="24" height="24" viewBox="0 0 24 24" fill="none" xmlns="http://www.w3.org/2000/svg">
<path d="M21.0099 14.992V13.9939C21.0246 13.1953 20.7131 12.4251 20.147 11.8604C19.581 11.2956 18.809 10.9849 18.0086 10.9995H16.0078" stroke="white" stroke-width="1.5" stroke-linecap="round" stroke-linejoin="round"/>
<path d="M12.0082 14.992V13.9939C12.0228 13.1953 11.7114 12.4251 11.1453 11.8604C10.5792 11.2956 9.8073 10.9849 9.0069 10.9995H6.00565C5.20526 10.9849 4.43332 11.2956 3.86726 11.8604C3.3012 12.4251 2.98972 13.1953 3.0044 13.9939V14.992" stroke="white" stroke-width="1.5" stroke-linecap="round" stroke-linejoin="round"/>
<ellipse cx="7.50495" cy="5.49138" rx="2.50104" ry="2.49529" stroke="white" stroke-width="1.5" stroke-linecap="round" stroke-linejoin="round"/>
<ellipse cx="17.0086" cy="5.9933" rx="2.00083" ry="1.99623" stroke="white" stroke-width="1.5" stroke-linecap="round" stroke-linejoin="round"/>
<path d="M18.0071 20.102V17.5508H15.4141" stroke="white" stroke-width="1.5" stroke-linecap="round" stroke-linejoin="round"/>
<path d="M6.00391 17.5508C7.1628 19.6742 9.39236 20.9958 11.8158 20.9958C14.2392 20.9958 16.4687 19.6742 17.6276 17.5508" stroke="white" stroke-width="1.5" stroke-linecap="round" stroke-linejoin="round"/>
</svg>
