<svg width="20" height="20" viewBox="0 0 20 20" fill="none" xmlns="http://www.w3.org/2000/svg">
<path fill-rule="evenodd" clip-rule="evenodd" d="M10 20C15.525 20 20 15.525 20 10C20 4.475 15.525 0 10 0C4.475 0 0 4.475 0 10C0 15.525 4.475 20 10 20ZM7.84061 14.3318C7.89187 14.509 7.91357 14.584 8.16536 14.584L8.16797 14.5809V14.5833C8.40395 14.5833 8.51371 14.4794 8.64442 14.3556L8.66797 14.3333C8.75727 14.2475 9.2826 13.7369 9.86935 13.1663L12.3676 15.009C12.8259 15.259 13.1593 15.134 13.2759 14.584L14.9176 6.85069C15.0843 6.17569 14.6593 5.87569 14.2176 6.07569L4.58426 9.79235C3.92593 10.059 3.93426 10.4257 4.46759 10.584L6.9349 11.3566L7.78203 14.1507C7.80831 14.2201 7.82571 14.2803 7.84061 14.3318Z" fill="white"/>
</svg>
