<svg width="20" height="20" viewBox="0 0 20 20" fill="none" xmlns="http://www.w3.org/2000/svg">
<path d="M0.0429688 19.9984L1.45 14.866C0.582812 13.3605 0.124609 11.659 0.124609 9.9082C0.124609 4.44336 4.575 -0.00195312 10.0348 -0.00195312C12.6855 -0.00195312 15.1727 1.02891 17.0488 2.90508C18.9195 4.77578 19.9504 7.26836 19.9504 9.91367C19.9504 15.3785 15.5 19.8238 10.0402 19.8238H10.0348C8.37656 19.8238 6.74609 19.4094 5.30078 18.6184L0.0429688 19.9984ZM5.54062 16.8297L5.84062 17.0098C7.10586 17.7625 8.55664 18.1551 10.0348 18.1605H10.0402C14.5836 18.1605 18.2758 14.468 18.2758 9.925C18.2758 7.72148 17.4195 5.6543 15.8652 4.1C14.3109 2.5457 12.2437 1.68398 10.0402 1.68398C5.49687 1.68398 1.79922 5.37656 1.79922 9.91953C1.79922 11.4738 2.23555 12.9902 3.05898 14.3047L3.25547 14.6156L2.42109 17.6535L5.54062 16.8297Z" fill="#F5620F"/>
<path d="M7.56172 5.76875C7.37617 5.3543 7.18008 5.34883 7.00547 5.34336C6.86367 5.33789 6.69453 5.33789 6.53086 5.33789C6.36719 5.33789 6.1 5.39805 5.87109 5.64883C5.64219 5.89414 5.00391 6.49414 5.00391 7.71602C5.00391 8.93242 5.89297 10.1102 6.01289 10.2793C6.13828 10.443 7.72539 13.0227 10.2453 14.0152C12.3398 14.8387 12.7652 14.675 13.2176 14.6371C13.6703 14.5934 14.6848 14.0371 14.8918 13.459C15.0992 12.8809 15.0992 12.3844 15.0336 12.2809C14.9734 12.1773 14.8047 12.1172 14.559 11.9918C14.3137 11.8664 13.0918 11.2664 12.8684 11.1848C12.6395 11.1031 12.4758 11.0594 12.3121 11.3102C12.1484 11.5555 11.6738 12.1172 11.5266 12.2809C11.3848 12.4445 11.2375 12.4664 10.9922 12.341C10.7469 12.2156 9.94492 11.9539 9.00156 11.1137C8.26523 10.4594 7.76914 9.64648 7.62188 9.40117C7.48008 9.15586 7.60547 9.01953 7.73086 8.89414C7.83984 8.78516 7.97617 8.60508 8.10156 8.45781C8.22695 8.31055 8.26523 8.2125 8.34688 8.04336C8.42852 7.87969 8.39063 7.73242 8.325 7.60703C8.26523 7.48125 7.78516 6.25977 7.56172 5.76875Z" fill="white"/>
</svg>
