<svg width="20" height="16" viewBox="0 0 20 16" fill="none" xmlns="http://www.w3.org/2000/svg">
<path d="M17.8967 4.02347C17.9088 4.19366 17.9088 4.36386 17.9088 4.53562C17.9088 9.76935 13.812 15.8054 6.32087 15.8054V15.8023C4.10796 15.8054 1.94103 15.189 0.078125 14.0266C0.399899 14.0643 0.723286 14.0831 1.04748 14.0839C2.88135 14.0854 4.6628 13.487 6.10554 12.385C4.3628 12.3529 2.83458 11.2478 2.30071 9.63445C2.91119 9.74896 3.54022 9.72543 4.13942 9.56621C2.23942 9.19288 0.87248 7.56935 0.87248 5.68386C0.87248 5.66661 0.87248 5.65013 0.87248 5.63366C1.43861 5.94033 2.07248 6.11053 2.72087 6.12935C0.931351 4.96621 0.379738 2.65092 1.46038 0.840723C3.52812 3.31523 6.57893 4.81955 9.85393 4.97876C9.52571 3.60308 9.97409 2.16151 11.0322 1.19445C12.6725 -0.30516 15.2523 -0.228297 16.7943 1.36621C17.7064 1.19131 18.5805 0.865821 19.3805 0.404644C19.0765 1.32151 18.4402 2.10033 17.5902 2.59523C18.3975 2.50268 19.1862 2.29249 19.9289 1.9717C19.3822 2.76857 18.6934 3.46268 17.8967 4.02347Z" fill="white"/>
</svg>
