<svg width="20" height="20" viewBox="0 0 20 20" fill="none" xmlns="http://www.w3.org/2000/svg">
<path d="M0.386719 19.6551L1.74492 14.6973C0.905078 13.2465 0.46875 11.5992 0.46875 9.91406C0.46875 4.63984 4.76094 0.347656 10.0352 0.347656C12.593 0.347656 14.9984 1.3457 16.8035 3.15117C18.609 4.96211 19.607 7.36172 19.6016 9.91953C19.6016 15.1938 15.3094 19.4859 10.0352 19.4859H10.0297C8.42617 19.4859 6.85547 19.0824 5.45937 18.3242L0.386719 19.6551Z" fill="white"/>
<path d="M7.5616 5.76875C7.37605 5.3543 7.17996 5.34883 7.00535 5.34336C6.86355 5.33789 6.69441 5.33789 6.53074 5.33789C6.36707 5.33789 6.09988 5.39805 5.87097 5.64883C5.64207 5.89414 5.00378 6.49414 5.00378 7.71602C5.00378 8.93242 5.89285 10.1102 6.01277 10.2793C6.13816 10.443 7.72527 13.0227 10.2452 14.0152C12.3397 14.8387 12.7651 14.675 13.2175 14.6371C13.6702 14.5934 14.6846 14.0371 14.8917 13.459C15.0991 12.8809 15.0991 12.3844 15.0335 12.2809C14.9733 12.1773 14.8046 12.1172 14.5589 11.9918C14.3135 11.8664 13.0917 11.2664 12.8682 11.1848C12.6393 11.1031 12.4757 11.0594 12.312 11.3102C12.1483 11.5555 11.6737 12.1172 11.5264 12.2809C11.3846 12.4445 11.2374 12.4664 10.9921 12.341C10.7468 12.2156 9.9448 11.9539 9.00144 11.1137C8.26511 10.4594 7.76902 9.64648 7.62175 9.40117C7.47996 9.15586 7.60535 9.01953 7.73074 8.89414C7.83972 8.78516 7.97605 8.60508 8.10144 8.45781C8.22683 8.31055 8.26511 8.2125 8.34675 8.04336C8.42839 7.87969 8.3905 7.73242 8.32488 7.60703C8.26511 7.48125 7.78503 6.25977 7.5616 5.76875Z" fill="#4B4B4B"/>
</svg>
