<svg width="20" height="20" viewBox="0 0 20 20" fill="none" xmlns="http://www.w3.org/2000/svg">
<g clip-path="url(#clip0_5095_62654)">
<path d="M10 20C15.5228 20 20 15.5228 20 10C20 4.47715 15.5228 0 10 0C4.47715 0 0 4.47715 0 10C0 15.5228 4.47715 20 10 20Z" fill="#F5620F"/>
<path d="M16.6682 10.0003C16.6702 10.1373 16.6532 10.2741 16.6172 10.4063C16.5812 10.5386 16.5267 10.6653 16.4552 10.7823C16.3839 10.8993 16.2964 11.0058 16.1954 11.0986C16.0944 11.1913 15.9809 11.2693 15.8582 11.3303C15.8609 11.3668 15.8632 11.4036 15.8644 11.4403C15.8675 11.5136 15.8675 11.587 15.8644 11.6603C15.8632 11.6971 15.8609 11.7338 15.8582 11.7703C15.8582 14.0103 13.2482 15.8303 10.0282 15.8303C6.8082 15.8303 4.1982 14.0103 4.1982 11.7703C4.19545 11.7338 4.1932 11.6971 4.19195 11.6603C4.18894 11.587 4.18894 11.5136 4.19195 11.4403C4.1932 11.4036 4.19545 11.3668 4.1982 11.3303C4.00589 11.2419 3.83508 11.1128 3.69759 10.9519C3.56011 10.791 3.45923 10.6021 3.40195 10.3983C3.34475 10.1945 3.33257 9.98065 3.36624 9.77163C3.39991 9.56261 3.47863 9.36341 3.59695 9.18784C3.71516 9.0123 3.87014 8.86458 4.05115 8.75492C4.23217 8.64527 4.43487 8.57632 4.6452 8.55284C4.85555 8.52926 5.06852 8.55171 5.26934 8.61862C5.47015 8.68553 5.65402 8.79531 5.8082 8.94034C6.0944 8.74635 6.39427 8.57332 6.70545 8.42259C7.0167 8.27209 7.33845 8.14409 7.6682 8.04009C7.99795 7.93609 8.33495 7.85634 8.6762 7.80109C9.01745 7.74584 9.36245 7.71559 9.7082 7.71034L10.4482 4.24034C10.4564 4.20009 10.4727 4.16209 10.4959 4.12809C10.5189 4.09434 10.5487 4.06534 10.5829 4.04309C10.6174 4.02084 10.6559 4.00559 10.6964 3.99809C10.7367 3.99084 10.7782 3.99159 10.8182 4.00034L13.2682 4.49034C13.5154 4.06559 14.0344 3.88359 14.4927 4.06059C14.9509 4.23759 15.2129 4.72134 15.1104 5.20184C15.0082 5.68234 14.5717 6.01734 14.0812 5.99209C13.5904 5.96684 13.1907 5.58884 13.1382 5.10034L10.9982 4.65034L10.3482 7.77034C10.6897 7.77759 11.0304 7.80959 11.3674 7.86584C12.0423 7.97833 12.6974 8.18766 13.3124 8.48734C13.6196 8.63684 13.9157 8.80828 14.1982 9.00034C14.4014 8.80529 14.6566 8.67323 14.9332 8.62009C15.2098 8.56677 15.4959 8.59464 15.7569 8.70034C16.0181 8.80599 16.243 8.98494 16.4047 9.21559C16.5664 9.44626 16.6579 9.71881 16.6682 10.0003ZM6.7442 11.3831C6.7947 11.5043 6.8682 11.6146 6.9612 11.7073C7.05395 11.8003 7.1642 11.8738 7.28545 11.9243C7.40681 11.9745 7.53686 12.0004 7.6682 12.0003C8.0727 12.0003 8.4372 11.7566 8.5922 11.3831C8.74695 11.0093 8.6612 10.5793 8.3752 10.2933C8.0892 10.0073 7.6592 9.92159 7.28545 10.0763C6.91195 10.2313 6.6682 10.5958 6.6682 11.0003C6.6682 11.1316 6.69395 11.2616 6.7442 11.3831ZM12.4717 13.7836C12.5229 13.7336 12.5522 13.6653 12.5532 13.5938C12.5542 13.5221 12.5264 13.4531 12.4764 13.4018C12.4264 13.3506 12.3582 13.3213 12.2867 13.3203C12.2149 13.3193 12.1459 13.3471 12.0882 13.3903C11.9378 13.4982 11.7786 13.5931 11.6122 13.6741C11.4458 13.7551 11.2728 13.8219 11.0952 13.8738C10.9177 13.9256 10.7359 13.9623 10.5522 13.9836C10.3682 14.0048 10.1829 14.0103 9.9982 14.0003C9.8137 14.0086 9.6287 14.0011 9.44545 13.9781C9.26215 13.9553 9.08115 13.9168 8.90445 13.8631C8.72745 13.8096 8.5557 13.7411 8.39045 13.6586C8.2252 13.5761 8.0672 13.4796 7.9182 13.3703C7.86645 13.3278 7.8007 13.3061 7.7337 13.3093C7.6667 13.3126 7.60345 13.3408 7.55595 13.3881C7.5087 13.4356 7.48045 13.4988 7.4772 13.5658C7.47395 13.6328 7.4957 13.6986 7.5382 13.7503C7.71395 13.8828 7.9007 13.9998 8.09645 14.1003C8.2922 14.2008 8.49645 14.2841 8.70645 14.3496C8.91645 14.4151 9.1317 14.4623 9.34995 14.4911C9.5682 14.5196 9.78845 14.5293 10.0082 14.5203C10.2279 14.5293 10.4482 14.5196 10.6664 14.4911C11.1036 14.4336 11.5276 14.3014 11.9199 14.1003C12.1157 13.9998 12.3024 13.8828 12.4782 13.7503L12.4717 13.7836ZM12.2882 12.0803C12.4237 12.0818 12.5582 12.0556 12.6834 12.0036C12.8087 11.9513 12.9219 11.8743 13.0164 11.7771C13.1109 11.6798 13.1844 11.5643 13.2329 11.4376C13.2815 11.311 13.3037 11.1758 13.2982 11.0403C13.2982 10.6358 13.0544 10.2713 12.6809 10.1163C12.3072 9.96159 11.8772 10.0473 11.5912 10.3333C11.3052 10.6193 11.2194 11.0493 11.3742 11.4231C11.5292 11.7966 11.8937 12.0403 12.2982 12.0403L12.2882 12.0803Z" fill="white"/>
</g>
<defs>
<clipPath id="clip0_5095_62654">
<rect width="20" height="20" fill="white"/>
</clipPath>
</defs>
</svg>
