<svg width="20" height="20" viewBox="0 0 20 20" fill="none" xmlns="http://www.w3.org/2000/svg">
<path d="M20 10C20 4.47656 15.5234 0 10 0C4.47656 0 0 4.47656 0 10C0 14.9918 3.65469 19.1289 8.43828 19.8793V12.893H5.90117V10H8.43828V7.79727C8.43828 5.29297 9.92852 3.90703 12.2137 3.90703C13.3094 3.90703 14.4547 4.1043 14.4547 4.1043V6.56445H13.1945C11.9508 6.56445 11.5672 7.33711 11.5672 8.12617V10H14.3398L13.8961 12.893H11.5672V19.8793C16.3453 19.1289 20 14.9918 20 10Z" fill="#4B4B4B"/>
<path d="M13.8891 12.8932L14.3332 10.0002H11.5605V8.12637C11.5605 7.3373 11.9496 6.56465 13.1879 6.56465H14.448V4.10449C14.448 4.10449 13.3027 3.90723 12.207 3.90723C9.92227 3.90723 8.43164 5.29355 8.43164 7.79746V10.0002H5.89453V12.8932H8.43164V19.8795C8.94141 19.9615 9.46172 20.0002 9.99336 20.0002C10.525 20.0002 11.0453 19.9564 11.5551 19.8795V12.8932H13.8891Z" fill="white"/>
</svg>
