<svg width="18" height="19" viewBox="0 0 18 19" fill="none" xmlns="http://www.w3.org/2000/svg">
<rect y="0.5" width="18" height="18" rx="9" fill="#4B4B4B"/>
<path d="M9.45117 10.9863H8.14453C8.14844 10.623 8.17969 10.3184 8.23828 10.0723C8.29688 9.82227 8.39453 9.5957 8.53125 9.39258C8.67188 9.18945 8.85742 8.97461 9.08789 8.74805C9.26758 8.57617 9.42969 8.41406 9.57422 8.26172C9.71875 8.10547 9.83398 7.94141 9.91992 7.76953C10.0059 7.59375 10.0488 7.39258 10.0488 7.16602C10.0488 6.91992 10.0078 6.71094 9.92578 6.53906C9.84375 6.36719 9.72266 6.23633 9.5625 6.14648C9.40625 6.05664 9.21094 6.01172 8.97656 6.01172C8.78125 6.01172 8.59766 6.05078 8.42578 6.12891C8.25391 6.20312 8.11523 6.32031 8.00977 6.48047C7.9043 6.63672 7.84766 6.84375 7.83984 7.10156H6.42773C6.43555 6.60938 6.55273 6.19531 6.7793 5.85938C7.00586 5.52344 7.31055 5.27148 7.69336 5.10352C8.07617 4.93555 8.50391 4.85156 8.97656 4.85156C9.5 4.85156 9.94727 4.94141 10.3184 5.12109C10.6895 5.29688 10.9727 5.55469 11.168 5.89453C11.3672 6.23047 11.4668 6.63672 11.4668 7.11328C11.4668 7.45703 11.3984 7.76953 11.2617 8.05078C11.125 8.32812 10.9473 8.58789 10.7285 8.83008C10.5098 9.06836 10.2734 9.30664 10.0195 9.54492C9.80078 9.74414 9.65234 9.96094 9.57422 10.1953C9.49609 10.4258 9.45508 10.6895 9.45117 10.9863ZM8.02734 12.8145C8.02734 12.6035 8.09961 12.4258 8.24414 12.2812C8.38867 12.1328 8.58594 12.0586 8.83594 12.0586C9.08594 12.0586 9.2832 12.1328 9.42773 12.2812C9.57227 12.4258 9.64453 12.6035 9.64453 12.8145C9.64453 13.0254 9.57227 13.2051 9.42773 13.3535C9.2832 13.498 9.08594 13.5703 8.83594 13.5703C8.58594 13.5703 8.38867 13.498 8.24414 13.3535C8.09961 13.2051 8.02734 13.0254 8.02734 12.8145Z" fill="white"/>
</svg>
