<svg width="24" height="18" viewBox="0 0 24 18" fill="none" xmlns="http://www.w3.org/2000/svg">
<mask id="mask0" mask-type="alpha" maskUnits="userSpaceOnUse" x="0" y="0" width="24" height="18">
<rect width="24" height="18" fill="white"/>
</mask>
<g mask="url(#mask0)">
<path fill-rule="evenodd" clip-rule="evenodd" d="M0 0V18H24V0H0Z" fill="#F7FCFF"/>
<mask id="mask1" mask-type="alpha" maskUnits="userSpaceOnUse" x="0" y="0" width="24" height="18">
<path fill-rule="evenodd" clip-rule="evenodd" d="M0 0V18H24V0H0Z" fill="white"/>
</mask>
<g mask="url(#mask1)">
<path fill-rule="evenodd" clip-rule="evenodd" d="M0 0V18H24V0H0Z" fill="#083FA4"/>
<path fill-rule="evenodd" clip-rule="evenodd" d="M15.0247 8.68439C14.5986 8.48986 14.1249 8.38146 13.6259 8.38146C13.4122 8.38146 13.2033 8.40132 13.0007 8.4393C13.447 7.91836 13.7371 7.25971 13.7986 6.53587C14.4749 7.03308 14.9378 7.8035 15.0247 8.68439ZM11.804 8.6693C11.7932 8.66453 11.7824 8.65981 11.7716 8.65514C11.1152 8.14909 10.6715 7.38075 10.5973 6.50707C11.2344 6.95978 11.6894 7.65186 11.8313 8.45215C11.8199 8.52381 11.8108 8.59622 11.804 8.6693ZM11.064 8.43938C10.8614 8.40139 10.6524 8.38151 10.4388 8.38151C9.91315 8.38151 9.41564 8.50176 8.97221 8.71626C9.05329 7.79565 9.54477 6.99286 10.2626 6.49197C10.3159 7.23311 10.6087 7.90792 11.064 8.43938ZM9.14981 9.00008C9.54113 8.81659 9.97797 8.71406 10.4388 8.71406C10.8515 8.71406 11.2449 8.79631 11.6037 8.94531C11.6285 8.96389 11.6535 8.98214 11.6788 9.00004C11.6534 9.01801 11.6283 9.03631 11.6035 9.05495C11.2448 9.20389 10.8514 9.28611 10.4388 9.28611C9.97797 9.28611 9.54113 9.18357 9.14981 9.00008ZM8.49171 9.00008C7.69649 8.43676 7.15597 7.53762 7.07671 6.50926C6.30333 7.06031 5.79897 7.96448 5.79897 8.98645C5.79897 10.0093 6.30424 10.9142 7.0788 11.4651C7.16503 10.4475 7.70315 9.55869 8.49171 9.00008ZM7.40044 11.665C7.42824 10.6947 7.91075 9.83831 8.64236 9.30145C8.73678 10.3206 9.28474 11.2083 10.0825 11.7607C9.70279 11.9312 9.28176 12.026 8.83856 12.026C8.31831 12.026 7.82859 11.8953 7.40044 11.665ZM7.06818 11.857C6.10693 11.2629 5.46643 10.1995 5.46643 8.98645C5.46643 7.77301 6.10735 6.70927 7.06914 6.11529C7.13807 4.31374 8.62033 2.87439 10.4388 2.87439C11.0152 2.87439 11.5578 3.01901 12.0323 3.27394C12.5069 3.01901 13.0495 2.87439 13.6259 2.87439C15.4584 2.87439 16.9495 4.33605 16.9969 6.15709C17.9218 6.75838 18.5335 7.80095 18.5335 8.98639C18.5335 10.1716 17.9221 11.214 16.9974 11.8153C16.9645 13.6492 15.4676 15.1257 13.6259 15.1257C13.0495 15.1257 12.5069 14.9811 12.0324 14.7262C11.5578 14.9811 11.0152 15.1258 10.4388 15.1258C8.61097 15.1258 7.12282 13.6716 7.06818 11.857ZM11.6983 14.5208C11.3145 14.6958 10.888 14.7932 10.4388 14.7932C8.85771 14.7932 7.5586 13.5861 7.41279 12.0432C7.84585 12.2456 8.32901 12.3586 8.83856 12.3586C9.34875 12.3586 9.83247 12.2453 10.2659 12.0425C10.353 13.0683 10.8992 13.9632 11.6983 14.5208ZM12.3665 14.5208C12.7502 14.6957 13.1766 14.7932 13.6259 14.7932C15.218 14.7932 16.5242 13.5691 16.6547 12.0107C16.2046 12.2334 15.6976 12.3585 15.1614 12.3585C14.6755 12.3585 14.2135 12.2557 13.7962 12.0707C13.7016 13.0847 13.1581 13.9683 12.3665 14.5208ZM13.4665 12.0238C13.3801 13.0046 12.8279 13.8518 12.0324 14.3425C11.2454 13.8571 10.6965 13.023 10.6011 12.0556C11.0272 12.2501 11.5009 12.3585 12 12.3585C12.5256 12.3585 13.0231 12.2383 13.4665 12.0238ZM13.4688 11.5115C12.7972 11.0604 12.3154 10.3484 12.1686 9.52069C12.1801 9.44835 12.1893 9.37524 12.1962 9.30144C12.2282 9.31646 12.2605 9.33099 12.2931 9.34502C12.954 9.85463 13.3994 10.6302 13.4688 11.5115ZM13.7964 11.4386C13.7302 10.7248 13.4417 10.0756 13.0006 9.56079C13.2032 9.59878 13.4122 9.61865 13.6259 9.61865C14.1238 9.61865 14.5964 9.51076 15.0218 9.31708C14.9277 10.187 14.4665 10.9468 13.7964 11.4386ZM12.4609 9.05486C12.4362 9.03626 12.4111 9.01801 12.3858 9.00008C12.4112 8.98211 12.4363 8.9638 12.4611 8.94515C12.8198 8.79621 13.2133 8.714 13.6259 8.714C14.0867 8.714 14.5235 8.81655 14.9149 9.00006C14.5236 9.18357 14.0867 9.28611 13.6259 9.28611C13.2132 9.28611 12.8197 9.20386 12.4609 9.05486ZM11.8065 9.32972L11.7713 9.34512C11.1224 9.84555 10.6813 10.6024 10.5999 11.464C11.2356 11.0112 11.6896 10.3199 11.8314 9.52069C11.8213 9.4576 11.813 9.39393 11.8065 9.32972ZM13.471 6.45983C13.4091 7.35295 12.9613 8.13984 12.2933 8.655C12.2614 8.66871 12.2298 8.68291 12.1985 8.69757C12.1915 8.61487 12.1815 8.53303 12.1686 8.45215C12.3155 7.6235 12.7982 6.91086 13.471 6.45983ZM15.1614 5.61426C14.6745 5.61426 14.2117 5.71746 13.7936 5.90319C13.6922 4.90024 13.1513 4.02709 12.3664 3.47933C12.7502 3.30439 13.1766 3.20693 13.6259 3.20693C15.2083 3.20693 16.5083 4.41611 16.6522 5.96088C16.2027 5.73896 15.6966 5.61426 15.1614 5.61426ZM13.4638 5.94772C13.3693 4.97902 12.8201 4.14359 12.0323 3.65766C11.2532 4.13825 10.7074 4.9607 10.6041 5.91583C11.0294 5.72215 11.5021 5.61426 12 5.61426C12.5245 5.61426 13.0211 5.73403 13.4638 5.94772ZM10.4388 3.20693C8.86749 3.20693 7.57468 4.39917 7.41562 5.92835C7.84796 5.72685 8.33012 5.61432 8.83856 5.61432C9.34967 5.61432 9.83421 5.72803 10.2683 5.93152C10.3623 4.91669 10.906 4.03225 11.6982 3.47933C11.3145 3.30439 10.888 3.20693 10.4388 3.20693ZM7.39979 6.30828C7.41932 7.28862 7.90299 8.15511 8.64007 8.69704C8.72759 7.66716 9.27799 6.76925 10.0824 6.21218C9.70272 6.0417 9.28172 5.94686 8.83856 5.94686C8.31805 5.94686 7.82809 6.0777 7.39979 6.30828ZM10.4388 9.61865C9.91421 9.61865 9.41763 9.49888 8.97488 9.28519C9.06361 10.1946 9.55312 10.9866 10.2645 11.4822C10.3227 10.7513 10.614 10.086 11.064 9.5608C10.8614 9.59879 10.6524 9.61865 10.4388 9.61865ZM16.663 11.6298C16.22 11.8819 15.7075 12.026 15.1614 12.026C14.7182 12.026 14.2972 11.9311 13.9175 11.7606C14.7266 11.2003 15.2787 10.2952 15.3613 9.25781C16.118 9.78494 16.6236 10.6474 16.663 11.6298ZM16.9818 11.4208C16.8839 10.4217 16.35 9.55056 15.573 9.00006C16.3567 8.44489 16.893 7.56355 16.9842 6.5538C17.723 7.10831 18.201 7.99153 18.201 8.98639C18.201 9.98234 17.722 10.8664 16.9818 11.4208ZM13.9175 6.21215C14.7333 6.77712 15.2879 7.69268 15.3633 8.74095C16.1257 8.20891 16.6328 7.33624 16.664 6.34356C16.2208 6.09106 15.7079 5.9468 15.1614 5.9468C14.7182 5.9468 14.2972 6.04165 13.9175 6.21215ZM13.2439 11.7606C12.8642 11.9311 12.4431 12.026 12 12.026C11.5568 12.026 11.1358 11.9311 10.7561 11.7607C11.3189 11.3709 11.7574 10.8143 12 10.1624C12.2426 10.8143 12.6811 11.3709 13.2439 11.7606ZM12 7.81046C12.2426 7.15853 12.681 6.60191 13.2439 6.21215C12.8642 6.04165 12.4431 5.9468 12 5.9468C11.5568 5.9468 11.1357 6.04166 10.756 6.21217C11.3189 6.60191 11.7574 7.15853 12 7.81046Z" fill="white"/>
</g>
</g>
</svg>
