<svg width="16" height="17" viewBox="0 0 16 17" fill="none" xmlns="http://www.w3.org/2000/svg">
<g clip-path="url(#clip0_5984_326196)">
<path d="M7.99908 6.09317L9.30136 7.036L10.6005 7.98319M7.99908 6.09317L6.69681 7.036L5.3977 7.98319M7.99908 6.09317L7.99911 2.60769M10.6005 7.98319L10.1062 9.51307L9.60683 11.0413M10.6005 7.98319L13.8803 6.91823M9.60683 11.0413L7.99908 11.044L6.39134 11.0413M9.60683 11.0413L11.4946 13.3546M6.39134 11.0413L5.89196 9.51307L5.3977 7.98319M6.39134 11.0413L4.48404 13.3546M5.3977 7.98319L2.09285 6.91823M7.99911 2.60769L10.9337 1.45701M7.99911 2.60769L5.06447 1.45701M10.9337 1.45701C10.0304 1.08017 9.03905 0.87207 7.99911 0.87207C6.95917 0.87207 5.96783 1.08017 5.06447 1.45701M10.9337 1.45701C12.3869 2.06319 13.6124 3.10598 14.4463 4.42149M5.06447 1.45701C3.61133 2.06319 2.38584 3.10598 1.55189 4.42149M13.8803 6.91823L14.4463 4.42149M13.8803 6.91823L15.6167 8.90178M14.4463 4.42149C15.1941 5.60112 15.6271 7.00004 15.6271 8.50008C15.6271 8.63483 15.6236 8.76875 15.6167 8.90178M15.6167 8.90178C15.5407 10.3679 15.0506 11.7246 14.2612 12.857M11.4946 13.3546L14.2612 12.857M11.4946 13.3546L10.1062 15.8333M14.2612 12.857C13.2714 14.2769 11.8111 15.3444 10.1062 15.8333M10.1062 15.8333C9.43697 16.0253 8.73004 16.1281 7.99911 16.1281C7.26817 16.1281 6.56125 16.0253 5.89201 15.8333M4.48404 13.3546L5.89201 15.8333M4.48404 13.3546L1.73701 12.857M5.89201 15.8333C4.18711 15.3444 2.72677 14.2769 1.73701 12.857M1.73701 12.857C0.947619 11.7246 0.457557 10.3679 0.381489 8.90178M2.09285 6.91823L1.55189 4.42149M2.09285 6.91823L0.381489 8.90178M1.55189 4.42149C0.80408 5.60112 0.371094 7.00004 0.371094 8.50008C0.371094 8.63483 0.374587 8.76875 0.381489 8.90178" stroke="#59C65D"/>
</g>
<defs>
<clipPath id="clip0_5984_326196">
<rect width="16" height="16" fill="white" transform="translate(0 0.5)"/>
</clipPath>
</defs>
</svg>
