<svg width="18" height="19" viewBox="0 0 18 19" fill="none" xmlns="http://www.w3.org/2000/svg">
<path d="M13.0809 8.27612C12.7627 8.54129 12.2898 8.4983 12.0246 8.18009C11.7594 7.86188 11.8024 7.38896 12.1206 7.12379L13.0809 8.27612ZM15.3008 5.44995L15.7809 4.87379C15.9519 5.01628 16.0508 5.22737 16.0508 5.44995C16.0508 5.67254 15.9519 5.88362 15.7809 6.02612L15.3008 5.44995ZM12.1206 3.77612C11.8024 3.51094 11.7594 3.03802 12.0246 2.71981C12.2898 2.40161 12.7627 2.35861 13.0809 2.62379L12.1206 3.77612ZM2.92914 7.3019L2.23623 7.01489L2.92914 7.3019ZM12.1206 7.12379L14.8206 4.87379L15.7809 6.02612L13.0809 8.27612L12.1206 7.12379ZM14.8206 6.02612L12.1206 3.77612L13.0809 2.62379L15.7809 4.87379L14.8206 6.02612ZM7.20078 4.69995H15.3008V6.19995H7.20078V4.69995ZM7.20078 6.19995C6.49161 6.19995 5.99729 6.20036 5.61037 6.22676C5.23018 6.2527 5.00878 6.3012 4.83974 6.37122L4.26572 4.9854C4.64799 4.82706 5.0517 4.76139 5.50826 4.73024C5.95808 4.69954 6.51213 4.69995 7.20078 4.69995V6.19995ZM1.95078 9.94995C1.95078 9.2613 1.95037 8.70725 1.98107 8.25743C2.01222 7.80087 2.07789 7.39716 2.23623 7.01489L3.62205 7.58891C3.55203 7.75795 3.50353 7.97935 3.47759 8.35954C3.45119 8.74646 3.45078 9.24078 3.45078 9.94995H1.95078ZM4.83974 6.37122C4.28843 6.59958 3.85041 7.0376 3.62205 7.58891L2.23623 7.01489C2.61683 6.09603 3.34686 5.36601 4.26572 4.9854L4.83974 6.37122Z" fill="#292929"/>
<path d="M4.92039 10.7239C5.2386 10.4587 5.71152 10.5017 5.97669 10.8199C6.24187 11.1381 6.19887 11.611 5.88067 11.8762L4.92039 10.7239ZM2.70053 13.55L2.22039 14.1262C2.04939 13.9837 1.95053 13.7726 1.95053 13.55C1.95053 13.3275 2.04939 13.1164 2.22039 12.9739L2.70053 13.55ZM5.88067 15.2239C6.19887 15.4891 6.24187 15.962 5.97669 16.2802C5.71152 16.5984 5.2386 16.6414 4.92039 16.3762L5.88067 15.2239ZM7.98446 12.8C8.39867 12.8 8.73446 13.1358 8.73446 13.55C8.73446 13.9643 8.39867 14.3 7.98446 14.3V12.8ZM5.88067 11.8762L3.18067 14.1262L2.22039 12.9739L4.92039 10.7239L5.88067 11.8762ZM3.18067 12.9739L5.88067 15.2239L4.92039 16.3762L2.22039 14.1262L3.18067 12.9739ZM7.98446 14.3H2.70053V12.8H7.98446V14.3Z" fill="#292929"/>
<path d="M15.2999 13.55H10.5478" stroke="#FF3C3C" stroke-width="1.5" stroke-linecap="round" stroke-linejoin="round"/>
<path d="M12.9238 11.174V15.926" stroke="#FF3C3C" stroke-width="1.5" stroke-linecap="round" stroke-linejoin="round"/>
</svg>
