<svg width="18" height="19" viewBox="0 0 18 19" fill="none" xmlns="http://www.w3.org/2000/svg">
<path d="M5.7712 16.2181H11.725M3.40078 3.20001H14.6008C15.4844 3.20001 16.2008 3.84671 16.2008 4.64446V13.4556C16.2008 14.2533 15.4844 14.9 14.6008 14.9H3.40078C2.51713 14.9 1.80078 14.2533 1.80078 13.4556V4.64446C1.80078 3.84671 2.51713 3.20001 3.40078 3.20001Z" stroke="#FFB904" stroke-width="1.5" stroke-linecap="round" stroke-linejoin="round"/>
<path d="M5.11945 10.4985L6.14039 7.20502H6.9982L5.55258 11.3H4.98164L5.11945 10.4985ZM4.17727 7.20502L5.19258 10.4985L5.33883 11.3H4.76227L3.32227 7.20502H4.17727Z" fill="#FFB904"/>
<path d="M8.83477 7.82658L7.66758 11.3H6.84914L8.37914 7.20502H8.90227L8.83477 7.82658ZM9.8107 11.3L8.63789 7.82658L8.56758 7.20502H9.09352L10.632 11.3H9.8107ZM9.75727 9.77845V10.3888H7.5607V9.77845H9.75727Z" fill="#FFB904"/>
<path d="M11.0538 7.20502H12.5416C12.8529 7.20502 13.1201 7.25189 13.3432 7.34564C13.5663 7.43939 13.7379 7.57814 13.8579 7.76189C13.9779 7.94564 14.0379 8.17158 14.0379 8.4397C14.0379 8.65158 14.0004 8.83533 13.9254 8.99095C13.8504 9.14658 13.7445 9.27689 13.6076 9.38189C13.4726 9.48689 13.3132 9.56939 13.1295 9.62939L12.8876 9.75314H11.5741L11.5685 9.14283H12.5501C12.7095 9.14283 12.8416 9.1147 12.9466 9.05845C13.0516 9.0022 13.1304 8.92439 13.1829 8.82502C13.2373 8.72564 13.2645 8.6122 13.2645 8.4847C13.2645 8.34783 13.2382 8.2297 13.1857 8.13033C13.1332 8.02908 13.0535 7.95127 12.9466 7.89689C12.8398 7.84252 12.7048 7.81533 12.5416 7.81533H11.8273V11.3H11.0538V7.20502ZM13.3657 11.3L12.4179 9.46627L13.2363 9.46345L14.1954 11.2606V11.3H13.3657Z" fill="#FFB904"/>
</svg>
