<svg width="18" height="19" viewBox="0 0 18 19" fill="none" xmlns="http://www.w3.org/2000/svg">
<path d="M13.0809 8.27636C12.7627 8.54153 12.2898 8.49854 12.0246 8.18033C11.7594 7.86213 11.8024 7.3892 12.1206 7.12403L13.0809 8.27636ZM15.3008 5.4502L15.7809 4.87403C15.9519 5.01652 16.0508 5.22761 16.0508 5.4502C16.0508 5.67278 15.9519 5.88387 15.7809 6.02636L15.3008 5.4502ZM12.1206 3.77636C11.8024 3.51119 11.7594 3.03826 12.0246 2.72006C12.2898 2.40185 12.7627 2.35886 13.0809 2.62403L12.1206 3.77636ZM2.92914 7.30215L2.23623 7.01513L2.92914 7.30215ZM12.1206 7.12403L14.8206 4.87403L15.7809 6.02636L13.0809 8.27636L12.1206 7.12403ZM14.8206 6.02636L12.1206 3.77636L13.0809 2.62403L15.7809 4.87403L14.8206 6.02636ZM7.20078 4.7002H15.3008V6.2002H7.20078V4.7002ZM7.20078 6.2002C6.49161 6.2002 5.99729 6.2006 5.61037 6.227C5.23018 6.25294 5.00878 6.30145 4.83974 6.37147L4.26572 4.98565C4.64799 4.8273 5.0517 4.76163 5.50826 4.73048C5.95808 4.69979 6.51213 4.7002 7.20078 4.7002V6.2002ZM1.95078 9.9502C1.95078 9.26154 1.95037 8.7075 1.98107 8.25768C2.01222 7.80112 2.07789 7.39741 2.23623 7.01513L3.62205 7.58916C3.55203 7.7582 3.50353 7.9796 3.47759 8.35978C3.45119 8.7467 3.45078 9.24102 3.45078 9.9502H1.95078ZM4.83974 6.37147C4.28843 6.59983 3.85041 7.03784 3.62205 7.58916L2.23623 7.01513C2.61683 6.09628 3.34686 5.36625 4.26572 4.98565L4.83974 6.37147Z" fill="white"/>
<path d="M4.92064 10.7236C5.23885 10.4585 5.71177 10.5015 5.97695 10.8197C6.24212 11.1379 6.19913 11.6108 5.88092 11.876L4.92064 10.7236ZM2.70078 13.5498L2.22064 14.126C2.04965 13.9835 1.95078 13.7724 1.95078 13.5498C1.95078 13.3272 2.04965 13.1161 2.22064 12.9736L2.70078 13.5498ZM5.88092 15.2236C6.19913 15.4888 6.24212 15.9617 5.97695 16.2799C5.71177 16.5982 5.23885 16.6411 4.92064 16.376L5.88092 15.2236ZM13.4488 13.3214L13.7358 14.0144L13.4488 13.3214ZM5.88092 11.876L3.18092 14.126L2.22064 12.9736L4.92064 10.7236L5.88092 11.876ZM3.18092 12.9736L5.88092 15.2236L4.92064 16.376L2.22064 14.126L3.18092 12.9736ZM10.8008 14.2998H2.70078V12.7998H10.8008V14.2998ZM10.8008 12.7998C11.51 12.7998 12.0043 12.7994 12.3912 12.773C12.7714 12.7471 12.9928 12.6986 13.1618 12.6285L13.7358 14.0144C13.3536 14.1727 12.9499 14.2384 12.4933 14.2695C12.0435 14.3002 11.4894 14.2998 10.8008 14.2998V12.7998ZM16.0508 9.0498C16.0508 9.73846 16.0512 10.2925 16.0205 10.7423C15.9893 11.1989 15.9237 11.6026 15.7653 11.9849L14.3795 11.4108C14.4495 11.2418 14.498 11.0204 14.524 10.6402C14.5504 10.2533 14.5508 9.75898 14.5508 9.0498H16.0508ZM13.1618 12.6285C13.7131 12.4002 14.1511 11.9622 14.3795 11.4108L15.7653 11.9849C15.3847 12.9037 14.6547 13.6338 13.7358 14.0144L13.1618 12.6285Z" fill="white"/>
</svg>
