<svg width="18" height="19" viewBox="0 0 18 19" fill="none" xmlns="http://www.w3.org/2000/svg">
<g clip-path="url(#clip0_6031_331284)">
<path d="M4.05 3.65002C3.05589 3.65002 2.25 4.45591 2.25 5.45002V16.25C2.25 17.2441 3.05589 18.05 4.05 18.05H11.25C12.2441 18.05 13.05 17.2441 13.05 16.25H5.85C4.85589 16.25 4.05 15.4441 4.05 14.45V3.65002Z" fill="#FFB904"/>
<path d="M4.94922 1.84995C4.94922 1.35289 5.35216 0.949951 5.84922 0.949951H14.8492C15.3463 0.949951 15.7492 1.35289 15.7492 1.84995V14.45C15.7492 14.947 15.3463 15.35 14.8492 15.35H5.84922C5.35216 15.35 4.94922 14.947 4.94922 14.45V1.84995Z" fill="#FF3C3C"/>
</g>
<defs>
<clipPath id="clip0_6031_331284">
<rect width="18" height="18" fill="white" transform="translate(0 0.5)"/>
</clipPath>
</defs>
</svg>
