<svg width="24" height="24" viewBox="0 0 24 24" fill="none" xmlns="http://www.w3.org/2000/svg">
<g clip-path="url(#clip0_6687_170)">
<path d="M21.792 18.7036C21.429 19.542 20.9994 20.3139 20.5016 21.0235C19.8231 21.9909 19.2676 22.6605 18.8395 23.0323C18.1758 23.6427 17.4647 23.9552 16.7032 23.973C16.1566 23.973 15.4973 23.8175 14.73 23.5019C13.9601 23.1879 13.2525 23.0323 12.6056 23.0323C11.9271 23.0323 11.1994 23.1879 10.4211 23.5019C9.64153 23.8175 9.01355 23.9819 8.53342 23.9982C7.80322 24.0293 7.07539 23.7078 6.3489 23.0323C5.88521 22.6279 5.30523 21.9346 4.61043 20.9524C3.86498 19.9035 3.25211 18.6873 2.77198 17.3006C2.25777 15.8029 2 14.3526 2 12.9485C2 11.3401 2.34754 9.95285 3.04367 8.79037C3.59076 7.85662 4.31859 7.12005 5.22953 6.57932C6.14046 6.0386 7.12473 5.76305 8.18469 5.74542C8.76467 5.74542 9.52524 5.92483 10.4704 6.27741C11.4129 6.63117 12.0181 6.81058 12.2834 6.81058C12.4817 6.81058 13.154 6.6008 14.2937 6.18259C15.3714 5.79475 16.281 5.63417 17.0262 5.69742C19.0454 5.86038 20.5624 6.65636 21.5712 8.09039C19.7654 9.18458 18.8721 10.7171 18.8898 12.6831C18.9061 14.2145 19.4617 15.4888 20.5535 16.5007C21.0483 16.9703 21.6009 17.3332 22.2156 17.591C22.0823 17.9776 21.9416 18.348 21.792 18.7036ZM17.161 0.480396C17.161 1.68067 16.7225 2.80136 15.8484 3.83866C14.7937 5.07181 13.5179 5.78438 12.1343 5.67194C12.1167 5.52795 12.1065 5.3764 12.1065 5.21714C12.1065 4.06488 12.6081 2.83173 13.4989 1.82347C13.9436 1.31296 14.5092 0.888487 15.1951 0.549875C15.8796 0.216314 16.5269 0.0318484 17.1358 0.000259399C17.1536 0.160717 17.161 0.321185 17.161 0.480381V0.480396Z" fill="black"/>
</g>
<defs>
<clipPath id="clip0_6687_170">
<rect width="24" height="24" fill="white"/>
</clipPath>
</defs>
</svg>
