<svg width="99" height="72" viewBox="0 0 99 72" fill="none" xmlns="http://www.w3.org/2000/svg">
<path d="M98.5 60.4994C98.5 66.5128 93.6245 71.3883 87.6111 71.3883H11.3889C5.3755 71.3883 0.5 66.5128 0.5 60.4994V11.4994C0.5 5.48599 5.3755 0.610489 11.3889 0.610489H87.6111C93.6245 0.610489 98.5 5.48599 98.5 11.4994V60.4994Z" fill="#CCD6DD"/>
<path d="M33.0302 35.0085L2.23365 65.805C2.16015 65.8812 2.13292 65.9765 2.07031 66.0527C2.99587 67.6044 4.2862 68.892 5.83787 69.8203C5.91681 69.7577 6.00937 69.7304 6.08287 69.6569L36.8821 38.8577C37.9438 37.7933 37.9438 36.0729 36.8821 35.0085C35.815 33.9441 34.0945 33.9441 33.0302 35.0085ZM96.9289 66.0527C96.8717 65.9765 96.839 65.8812 96.7655 65.8077L65.9718 35.0085C64.9047 33.9441 63.1842 33.9441 62.1198 35.0085C61.0554 36.0729 61.0554 37.7933 62.1198 38.8577L92.9163 69.6569C92.9871 69.7277 93.0851 69.7577 93.1613 69.8203C94.7157 68.8947 96.0033 67.6044 96.9289 66.0527Z" fill="#99AAB5"/>
<path d="M87.6111 0.610489H11.3889C5.3755 0.610489 0.5 5.48599 0.5 11.4994V14.3033L40.0485 53.7646C45.2043 58.9178 53.6269 58.9178 58.7882 53.7646L98.5 14.2461V11.4994C98.5 5.48599 93.6245 0.610489 87.6111 0.610489Z" fill="#99AAB5"/>
<path d="M87.6102 0.610489H11.388C7.06506 0.610489 3.36012 3.15305 1.60156 6.80355L41.7979 47.0026C46.05 51.2547 52.9481 51.2547 57.1975 47.0026L97.3966 6.80355C95.638 3.15305 91.9358 0.610489 87.6102 0.610489Z" fill="#E1E8ED"/>
<path d="M49.5027 10.0712C42.1445 10.0712 36.1836 15.872 36.1836 23.0325C36.1836 30.1931 42.1445 35.9939 49.5027 35.9939C56.8552 35.9939 62.8217 30.1931 62.8217 23.0325C62.8217 15.872 56.8552 10.0712 49.5027 10.0712ZM55.7227 29.0746C55.0579 29.0417 55.041 29.0198 54.3705 28.8279C54.2579 28.795 53.5536 28.4879 53.1479 28.6908C53.1423 28.6963 53.131 28.6963 53.1254 28.7018C52.962 28.8005 52.793 28.8937 52.6183 28.9814C52.5845 28.9978 52.5507 29.0143 52.5225 29.0307C51.6098 29.4694 50.5844 29.7106 49.5027 29.7106C45.7109 29.7106 42.6347 26.7225 42.6347 23.0325C42.6347 19.3426 45.7109 16.349 49.5027 16.349C53.2944 16.349 56.365 19.3426 56.365 23.0325C56.365 24.003 56.1509 24.9241 55.7678 25.7575C55.6551 26.2181 55.7453 26.4593 55.9875 26.8705C56.427 27.6271 56.9622 28.2028 57.7116 28.6744C57.1031 28.932 56.4383 29.113 55.7227 29.0746Z" fill="#F77C42"/>
<path d="M49.5062 10.1261C44.4074 10.1261 39.9789 12.6756 37.7422 17.0618L46.4582 16.9577L46.7511 16.9028C47.3146 16.5136 48.5541 16.3436 49.5738 16.3436C53.3656 16.3436 56.4024 19.3372 56.4024 23.0271C56.4024 23.9976 56.1714 24.9187 55.7883 25.7521C55.6756 26.2126 55.7545 26.4539 55.9967 26.8706C56.4418 27.6272 56.9714 28.2029 57.7151 28.6744C57.1067 28.9321 56.4362 29.113 55.7207 29.0747C55.5066 29.0637 55.3545 29.0527 55.2305 29.0418C55.5291 30.0177 55.6925 31.0539 55.6925 32.1286C55.6925 33.0058 55.5854 33.8557 55.3826 34.6671C59.7885 32.5562 62.8197 28.17 62.8197 23.0655C62.8253 15.8995 56.8588 10.1261 49.5062 10.1261Z" fill="#D25E27"/>
<path d="M49.5042 10.0712C49.2845 10.0712 49.0648 10.0767 48.845 10.0877C53.358 12.1876 56.4736 16.6725 56.4736 21.8702C56.4736 22.6049 56.2821 24.0469 56.2652 24.0524C56.175 24.6061 56.0173 25.1434 55.7975 25.6424C55.6398 26.1797 55.7243 26.4264 55.9835 26.876C56.4229 27.6326 56.9582 28.2083 57.7075 28.6798C57.099 28.9375 56.4342 29.1185 55.713 29.0801C55.0482 29.0472 55.0313 29.0253 54.3608 28.8334C54.2594 28.8059 53.6566 28.5428 53.2453 28.6579C51.4142 32.0901 48.3661 34.5684 44.0898 34.8864C45.7406 35.5991 47.5717 35.9994 49.493 35.9994C56.8455 35.9994 62.812 30.1986 62.812 23.038C62.8233 15.872 56.8568 10.0712 49.5042 10.0712Z" fill="#D25E27"/>
<path d="M40.1297 26.7719C40.1297 20.823 45.0821 16.0036 51.1951 16.0036C57.2518 16.0036 62.1929 20.8285 62.2775 26.7006C62.6775 25.4669 62.8747 24.0634 62.8747 22.6981C62.8803 15.5431 56.9138 9.74228 49.5612 9.74228C42.2031 9.74228 36.2422 15.5431 36.2422 22.7036C36.2422 27.5285 38.9522 31.7338 42.9637 33.9653C41.2058 32.0573 40.1297 29.5352 40.1297 26.7719Z" fill="#F77C42"/>
<path d="M53.251 28.7128C53.0313 28.806 52.8059 28.8937 52.5805 28.9759C52.5749 28.9759 52.5693 28.9814 52.5636 28.9814C52.5298 28.9979 52.496 29.0143 52.4679 29.0308C51.5551 29.4694 50.5297 29.7106 49.448 29.7106C49.2057 29.7106 48.9634 29.6997 48.7212 29.6722C48.6367 29.6722 48.5578 29.6722 48.4733 29.6722C42.411 29.6722 37.4022 25.297 36.5909 19.6113C36.2923 20.7079 36.1289 21.8483 36.1289 23.0326C36.1289 28.3619 39.4361 32.94 44.1575 34.9303C48.4 34.5903 51.4312 32.1231 53.251 28.7128Z" fill="#E96F35"/>
</svg>
