<svg width="25" height="24" viewBox="0 0 25 24" fill="none" xmlns="http://www.w3.org/2000/svg">
<g clip-path="url(#clip0_6726_167)">
<path fill-rule="evenodd" clip-rule="evenodd" d="M12.6676 0.5C9.81885 0.501478 7.06349 1.51046 4.89423 3.34652C2.72497 5.18259 1.28326 7.72601 0.826903 10.522C0.370544 13.318 0.929285 16.1842 2.40323 18.6082C3.87717 21.0321 6.1702 22.8558 8.87229 23.753C9.46841 23.8636 9.69296 23.4941 9.69296 23.18C9.69296 22.8658 9.68103 21.955 9.67705 20.9592C6.33875 21.6804 5.63334 19.5505 5.63334 19.5505C5.08888 18.1674 4.302 17.8039 4.302 17.8039C3.21307 17.065 4.38347 17.0788 4.38347 17.0788C5.58963 17.1637 6.22351 18.3097 6.22351 18.3097C7.29257 20.1333 9.03125 19.6058 9.71481 19.2976C9.82211 18.5251 10.1341 17.9995 10.4779 17.7012C7.81119 17.4008 5.0094 16.3774 5.0094 11.8054C4.99287 10.6197 5.43538 9.47305 6.24537 8.60268C6.12217 8.30236 5.71084 7.08923 6.3626 5.44143C6.3626 5.44143 7.37006 5.12136 9.66316 6.66444C11.63 6.12962 13.7052 6.12962 15.6721 6.66444C17.9632 5.12136 18.9687 5.44143 18.9687 5.44143C19.6224 7.08528 19.2111 8.29841 19.0879 8.60268C19.9004 9.47319 20.3439 10.6218 20.3258 11.8094C20.3258 16.3912 17.5181 17.4008 14.8475 17.6952C15.2767 18.0667 15.6602 18.7918 15.6602 19.9061C15.6602 21.5026 15.6463 22.7868 15.6463 23.18C15.6463 23.4981 15.8628 23.8695 16.4709 23.753C19.1733 22.8557 21.4666 21.0317 22.9405 18.6073C24.4144 16.183 24.9728 13.3163 24.516 10.5201C24.0591 7.7238 22.6167 5.18035 20.4467 3.34461C18.2767 1.50886 15.5207 0.500541 12.6716 0.5H12.6676Z" fill="#191717"/>
<path d="M8.69434 19.9753C8.69434 20.0721 8.58307 20.1551 8.44 20.157C8.29693 20.159 8.17969 20.08 8.17969 19.9832C8.17969 19.8864 8.29096 19.8034 8.43403 19.8014C8.5771 19.7994 8.69434 19.8765 8.69434 19.9753Z" fill="#191717"/>
<path d="M9.61035 19.8231C9.62824 19.9199 9.52888 20.0207 9.38581 20.0444C9.24274 20.0681 9.11755 20.0108 9.09967 19.916C9.08179 19.8212 9.18512 19.7184 9.32421 19.6927C9.46331 19.6671 9.59247 19.7263 9.61035 19.8231Z" fill="#191717"/>
<path d="M7.71414 19.9081C7.68434 20.001 7.54921 20.0424 7.41409 20.0029C7.27897 19.9634 7.18955 19.8528 7.21538 19.7579C7.24122 19.6631 7.37833 19.6196 7.51543 19.6631C7.65254 19.7066 7.73997 19.8113 7.71414 19.9081Z" fill="#191717"/>
<path d="M6.81555 19.5208C6.74998 19.5939 6.61684 19.5742 6.50755 19.4754C6.39826 19.3766 6.37243 19.2423 6.438 19.1711C6.50357 19.1 6.63671 19.1198 6.74997 19.2166C6.86324 19.3134 6.8851 19.4497 6.81555 19.5208Z" fill="#191717"/>
<path d="M6.17282 18.857C6.0993 18.9084 5.97411 18.857 5.90456 18.7542C5.88533 18.7358 5.87004 18.7137 5.85959 18.6893C5.84914 18.6648 5.84375 18.6385 5.84375 18.612C5.84375 18.5854 5.84914 18.5591 5.85959 18.5347C5.87004 18.5103 5.88533 18.4882 5.90456 18.4697C5.97808 18.4203 6.10328 18.4697 6.17282 18.5705C6.24237 18.6713 6.24436 18.8056 6.17282 18.857Z" fill="#191717"/>
<path d="M5.6992 18.1714C5.65805 18.192 5.61097 18.1978 5.56602 18.1877C5.52107 18.1776 5.48105 18.1523 5.4528 18.1161C5.3753 18.0331 5.3594 17.9185 5.41901 17.8671C5.47862 17.8157 5.58594 17.8395 5.66343 17.9224C5.74093 18.0054 5.75881 18.12 5.6992 18.1714Z" fill="#191717"/>
<path d="M5.21155 17.632C5.18572 17.6913 5.09034 17.7091 5.01284 17.6676C4.93535 17.6261 4.87773 17.549 4.90554 17.4878C4.93336 17.4265 5.02676 17.4107 5.10425 17.4522C5.18175 17.4937 5.24136 17.5727 5.21155 17.632Z" fill="#191717"/>
</g>
<defs>
<clipPath id="clip0_6726_167">
<rect width="24" height="24" fill="white" transform="translate(0.667969)"/>
</clipPath>
</defs>
</svg>
