<svg width="24" height="24" viewBox="0 0 24 24" fill="none" xmlns="http://www.w3.org/2000/svg">
<g clip-path="url(#clip0_6687_130933)">
<path d="M23.7682 12.2764C23.7682 11.4607 23.7021 10.6406 23.561 9.83806H12.2422V14.459H18.7239C18.455 15.9494 17.5907 17.2678 16.3252 18.1056V21.1039H20.1922C22.463 19.0139 23.7682 15.9273 23.7682 12.2764Z" fill="#4285F4"/>
<path d="M12.2391 24.0008C15.4756 24.0008 18.205 22.9382 20.1936 21.1039L16.3266 18.1055C15.2507 18.8375 13.8618 19.252 12.2435 19.252C9.11291 19.252 6.45849 17.1399 5.50607 14.3003H1.51562V17.3912C3.55274 21.4434 7.70192 24.0008 12.2391 24.0008Z" fill="#34A853"/>
<path d="M5.50473 14.3003C5.00206 12.8099 5.00206 11.1961 5.50473 9.70576V6.61482H1.51869C-0.183313 10.0056 -0.183313 14.0005 1.51869 17.3912L5.50473 14.3003Z" fill="#FBBC04"/>
<path d="M12.2391 4.74966C13.9499 4.7232 15.6034 5.36697 16.8425 6.54867L20.2685 3.12262C18.0991 1.0855 15.2198 -0.034466 12.2391 0.000808666C7.70192 0.000808666 3.55274 2.55822 1.51562 6.61481L5.50166 9.70575C6.44967 6.86173 9.1085 4.74966 12.2391 4.74966Z" fill="#EA4335"/>
</g>
<defs>
<clipPath id="clip0_6687_130933">
<rect width="24" height="24" fill="white"/>
</clipPath>
</defs>
</svg>
