<svg id="eYl9t53jwL21" xmlns="http://www.w3.org/2000/svg" xmlns:xlink="http://www.w3.org/1999/xlink" viewBox="0 0 48 48" shape-rendering="geometricPrecision" text-rendering="geometricPrecision">
<style><![CDATA[
#eYl9t53jwL23_tr {animation: eYl9t53jwL23_tr__tr 2000ms linear infinite normal forwards}@keyframes eYl9t53jwL23_tr__tr { 0% {transform: translate(23.99953px,24.69003px) rotate(0deg)} 5% {transform: translate(23.99953px,24.69003px) rotate(0deg)} 25% {transform: translate(23.99953px,24.69003px) rotate(90deg)} 50% {transform: translate(23.99953px,24.69003px) rotate(180deg)} 75% {transform: translate(23.99953px,24.69003px) rotate(270deg)} 100% {transform: translate(23.99953px,24.69003px) rotate(360deg)}}
]]></style>
<rect width="48" height="48" rx="0" ry="0" fill="none"/><g id="eYl9t53jwL23_tr" transform="translate(23.99953,24.69003) rotate(0)"><g transform="translate(-23.99953,-24.69003)"><g clip-path="url(#eYl9t53jwL210)"><g><path d="M38.5,24c0-2.7515-.7829-5.4463-2.2572-7.7695-1.4744-2.3232-3.5793-4.1789-6.069-5.3505" opacity="0.05" fill="none" stroke="#f5620f" stroke-width="3" stroke-linecap="round"/><path d="M38.5,24c0-3.688-1.4053-7.2375-3.93-9.9259" opacity="0.1" fill="none" stroke="#f5620f" stroke-width="3" stroke-linecap="round"/><path d="M38.5,24c0-1.8275-.3455-3.6386-1.0182-5.3378" opacity="0.3" fill="none" stroke="#f5620f" stroke-width="3" stroke-linecap="round"/><path d="M37,24c0-.0272-.0001-.0544-.0003-.0817" fill="none" stroke="#f5620f" stroke-width="6" stroke-linecap="round"/></g><clipPath id="eYl9t53jwL210"><rect width="32" height="32" rx="0" ry="0" transform="translate(8 8)" fill="#fff"/></clipPath></g><g clip-path="url(#eYl9t53jwL218)"><g><path d="M16.7491,11.4427c-2.3829,1.3757-4.3252,3.4011-5.6,5.8395-1.27476,2.4385-1.82942,5.1893-1.59918,7.9311" opacity="0.05" fill="none" stroke="#f5620f" stroke-width="3" stroke-linecap="round"/><path d="M16.7491,11.4427c-3.194,1.844-5.5652,4.8357-6.6312,8.3664" opacity="0.1" fill="none" stroke="#f5620f" stroke-width="3" stroke-linecap="round"/><path d="M16.7491,11.4427c-1.5827.9137-2.9784,2.1184-4.1136,3.5507" opacity="0.3" fill="none" stroke="#f5620f" stroke-width="3" stroke-linecap="round"/><path d="M17.4991,12.7417c-.0236.0136-.0472.0273-.0706.0411" fill="none" stroke="#f5620f" stroke-width="6" stroke-linecap="round"/></g><clipPath id="eYl9t53jwL218"><rect width="32" height="32" rx="0" ry="0" transform="matrix(-.5-.866025 0.866025-.5 18.1445 45.8564)" fill="#fff"/></clipPath></g><g clip-path="url(#eYl9t53jwL226)"><g><path d="M16.7509,36.5574c2.3829,1.3758,5.1081,2.0451,7.8572,1.9299s5.4088-1.0103,7.6682-2.5806" opacity="0.05" fill="none" stroke="#f5620f" stroke-width="3" stroke-linecap="round"/><path d="M16.7509,36.5574c3.194,1.844,6.9705,2.4017,10.5611,1.5595" opacity="0.1" fill="none" stroke="#f5620f" stroke-width="3" stroke-linecap="round"/><path d="M16.7509,36.5574c1.5827.9138,3.3239,1.5201,5.1318,1.7871" opacity="0.3" fill="none" stroke="#f5620f" stroke-width="3" stroke-linecap="round"/><path d="M17.5009,35.2584c.0236.0136.0472.0271.0709.0406" fill="none" stroke="#f5620f" stroke-width="6" stroke-linecap="round"/></g><clipPath id="eYl9t53jwL226"><rect width="32" height="32" rx="0" ry="0" transform="matrix(-.5 0.866025-.866025-.5 45.8555 18.1436)" fill="#fff"/></clipPath></g></g></g></svg>
