<svg width="138" height="28" viewBox="0 0 138 28" fill="none" xmlns="http://www.w3.org/2000/svg">
<path d="M14.2617 0.350586C6.41516 0.350586 0.0585938 6.53643 0.0585938 14.1723C0.0585938 21.8081 6.41516 27.9939 14.2617 27.9939C22.1023 27.9939 28.4649 21.8081 28.4649 14.1723C28.4649 6.53643 22.1023 0.350586 14.2617 0.350586ZM20.8947 20.6154C20.1857 20.5803 20.1677 20.5569 19.4527 20.3523C19.3326 20.3172 18.5816 19.9898 18.149 20.2061C18.143 20.2119 18.131 20.2119 18.1249 20.2178C17.9507 20.323 17.7705 20.4224 17.5842 20.516C17.5482 20.5335 17.5121 20.551 17.4821 20.5686C16.5088 21.0363 15.4153 21.2936 14.2617 21.2936C10.2183 21.2936 6.93787 18.1071 6.93787 14.1723C6.93787 10.2374 10.2183 7.04509 14.2617 7.04509C18.3052 7.04509 21.5796 10.2374 21.5796 14.1723C21.5796 15.2071 21.3513 16.1894 20.9427 17.0781C20.8226 17.5692 20.9187 17.8265 21.1771 18.265C21.6457 19.0718 22.2165 19.6857 23.0155 20.1885C22.3667 20.4633 21.6577 20.6563 20.8947 20.6154Z" fill="#F77C42"/>
<path d="M14.2637 0.40918C8.82633 0.40918 4.10397 3.12791 1.71875 7.8053L11.0133 7.69421L11.3257 7.63574C11.9265 7.22062 13.2483 7.03937 14.3358 7.03937C18.3792 7.03937 21.6176 10.2317 21.6176 14.1665C21.6176 15.2014 21.3712 16.1837 20.9627 17.0724C20.8425 17.5635 20.9266 17.8207 21.185 18.2651C21.6596 19.0719 22.2244 19.6859 23.0175 20.1887C22.3686 20.4635 21.6536 20.6564 20.8906 20.6155C20.6623 20.6038 20.5001 20.5921 20.3679 20.5804C20.6863 21.6211 20.8606 22.7262 20.8606 23.8721C20.8606 24.8076 20.7464 25.7138 20.5301 26.5792C25.2284 24.3282 28.4608 19.6508 28.4608 14.2075C28.4668 6.56579 22.1042 0.40918 14.2637 0.40918Z" fill="#D25E27"/>
<path d="M14.2621 0.350586C14.0277 0.350586 13.7934 0.356433 13.5591 0.368126C18.3716 2.60742 21.6941 7.39005 21.6941 12.9328C21.6941 13.7162 21.4898 15.2539 21.4718 15.2598C21.3757 15.8503 21.2074 16.4233 20.9731 16.9553C20.8049 17.5283 20.895 17.7914 21.1714 18.2708C21.64 19.0777 22.2108 19.6916 23.0099 20.1944C22.361 20.4692 21.652 20.6621 20.883 20.6212C20.174 20.5861 20.156 20.5627 19.441 20.3581C19.3329 20.3289 18.69 20.0482 18.2514 20.171C16.2988 23.8311 13.0484 26.4738 8.48828 26.8129C10.2487 27.573 12.2013 27.9998 14.25 27.9998C22.0906 27.9998 28.4532 21.8139 28.4532 14.1781C28.4652 6.53643 22.1026 0.350586 14.2621 0.350586Z" fill="#D25E27"/>
<path d="M4.26668 18.16C4.26668 11.8162 9.5478 6.67697 16.0666 6.67697C22.5253 6.67697 27.7944 11.8221 27.8845 18.0839C28.3111 16.7684 28.5214 15.2717 28.5214 13.8158C28.5274 6.18584 22.1648 0 14.3242 0C6.47766 0 0.121094 6.18584 0.121094 13.8217C0.121094 18.9668 3.01099 23.4512 7.28875 25.8309C5.41423 23.7962 4.26668 21.1067 4.26668 18.16Z" fill="#F77C42"/>
<path d="M18.2586 20.23C18.0243 20.3294 17.784 20.4229 17.5436 20.5106C17.5376 20.5106 17.5316 20.5165 17.5256 20.5165C17.4896 20.534 17.4535 20.5516 17.4235 20.5691C16.4502 21.0368 15.3567 21.2941 14.2031 21.2941C13.9448 21.2941 13.6864 21.2824 13.4281 21.2532C13.338 21.2532 13.2539 21.2532 13.1637 21.2532C6.69903 21.2532 1.35783 16.5875 0.492664 10.5244C0.174235 11.6938 0 12.9099 0 14.1728C0 19.8558 3.52675 24.7378 8.56154 26.8602C13.0856 26.4977 16.318 23.8667 18.2586 20.23Z" fill="#E96F35"/>
<path d="M36.6211 18.0022V3.64258H39.9616V8.84032C40.7607 8.7 41.5177 8.62984 42.2447 8.62984C44.3115 8.62984 45.8976 9.21451 47.0031 10.3839C48.1146 11.5532 48.6673 13.2371 48.6673 15.4354C48.6673 16.6457 48.5051 17.7098 48.1807 18.6336C47.8562 19.5574 47.4717 20.2531 47.0331 20.7326C46.5945 21.2062 46.0598 21.5979 45.447 21.8961C44.8282 22.1943 44.2934 22.3814 43.8368 22.4515C43.3802 22.5217 42.9236 22.5568 42.461 22.5568C40.4783 22.5568 39.0063 22.1124 38.051 21.2179C37.0957 20.3292 36.6211 19.2592 36.6211 18.0022ZM39.9616 18.312C39.9616 19.2826 40.7907 19.7679 42.461 19.7679C43.5184 19.7679 44.2634 19.4171 44.69 18.7155C45.1165 18.0138 45.3268 16.862 45.3268 15.26C45.3268 13.7399 45.0505 12.6758 44.5037 12.0736C43.957 11.4655 43.1639 11.1673 42.1185 11.1673C41.3014 11.1673 40.5804 11.2433 39.9616 11.3953V18.312Z" fill="white"/>
<path d="M50.8789 15.7394C50.8789 13.5703 51.3776 11.8397 52.3689 10.5417C53.3603 9.24373 54.9344 8.60059 57.0913 8.60059C59.128 8.60059 60.6721 9.23203 61.7175 10.4891C62.7629 11.752 63.2856 13.3014 63.2856 15.1431C63.2856 15.9032 63.2676 16.4586 63.2316 16.8211H54.2194C54.3095 17.9904 54.67 18.7797 55.3009 19.1715C55.9317 19.5691 56.7488 19.7678 57.7522 19.7678C59.3804 19.7678 60.9545 19.4229 62.4805 18.7213V21.3406C60.9425 22.1533 59.2001 22.5567 57.2535 22.5567C56.6347 22.5567 56.0579 22.51 55.5172 22.4106C54.9764 22.3112 54.4117 22.1124 53.8289 21.8025C53.2461 21.4926 52.7474 21.1009 52.3269 20.6273C51.9063 20.1537 51.5638 19.493 51.2935 18.6511C51.0171 17.8092 50.8789 16.8386 50.8789 15.7394ZM54.2194 14.5759H59.813C59.7228 13.6522 59.4404 12.8687 58.9658 12.2256C58.4912 11.5883 57.8363 11.2667 57.0012 11.2667C56.166 11.2667 55.5172 11.5298 55.0485 12.0443C54.5919 12.5705 54.3095 13.4124 54.2194 14.5759Z" fill="white"/>
<path d="M64.1328 11.6289V8.83996H66.47V4.8291H69.8105V8.83411H73.0969V11.623H69.8105V18.2824C69.8105 18.8613 69.9366 19.2588 70.183 19.4576C70.4353 19.6623 70.8739 19.7617 71.5108 19.7617C72.1116 19.7617 72.6403 19.6623 73.0969 19.4693V22.153C72.448 22.4161 71.7331 22.5505 70.964 22.5505C70.94 22.5505 70.916 22.5505 70.8979 22.5505C69.5221 22.5505 68.4406 22.153 67.6536 21.3637C66.8665 20.5685 66.47 19.4752 66.47 18.0836V11.6289H64.1328Z" fill="white"/>
<path d="M75.1211 18.1951C75.1211 17.587 75.2352 17.0433 75.4696 16.5638C75.7039 16.0844 75.9863 15.6927 76.3167 15.3945C76.6532 15.0963 77.0797 14.8391 77.5964 14.6286C78.1131 14.4181 78.5697 14.2602 78.9663 14.1608C79.3628 14.0614 79.8374 13.9854 80.3842 13.9328C80.9309 13.8802 81.3214 13.851 81.5498 13.8393C81.7781 13.8334 82.0544 13.8276 82.3729 13.8276L84.6019 13.9562C84.6019 12.7284 84.2594 11.8572 83.5805 11.331C82.8956 10.8048 81.8862 10.5476 80.5524 10.5476C79.0504 10.5476 77.6986 10.7639 76.4909 11.1965V9.30805C77.8608 8.84031 79.2487 8.60645 80.6606 8.60645C82.6072 8.60645 84.0912 9.08588 85.1126 10.0389C86.1339 10.9978 86.6446 12.3951 86.6446 14.2368V18.2945C86.6446 19.1598 86.4403 19.8965 86.0258 20.5104C85.6112 21.1243 85.0825 21.5686 84.4397 21.8376C83.7908 22.1124 83.184 22.2995 82.6192 22.4047C82.0544 22.51 81.4957 22.5626 80.9429 22.5626C80.5164 22.5626 80.0778 22.5334 79.6332 22.4807C79.1826 22.4281 78.6779 22.3053 78.1071 22.1182C77.5424 21.9253 77.0497 21.6856 76.6351 21.3874C76.2146 21.0892 75.8601 20.6683 75.5657 20.1128C75.2653 19.5574 75.1211 18.9201 75.1211 18.1951ZM77.1278 18.1951C77.1278 19.8789 78.3835 20.7209 80.9009 20.7209C80.9069 20.7209 80.9249 20.7209 80.9429 20.7209C83.4003 20.7209 84.6319 19.9082 84.6319 18.2769V15.6868C84.0191 15.5816 83.196 15.529 82.1626 15.529C78.8101 15.5231 77.1278 16.4177 77.1278 18.1951Z" fill="white"/>
<path d="M89.625 22.3463V9.90447C91.7158 9.05085 93.9628 8.62988 96.3601 8.62988V10.4658C94.846 10.5008 93.2659 10.7347 91.6317 11.1674V22.3463H89.625Z" fill="white"/>
<path d="M97.6211 15.7628C97.6211 15.7453 97.6211 15.7161 97.6211 15.6693C97.6211 15.6284 97.6211 15.5874 97.6211 15.564C97.6211 10.9217 99.6458 8.60059 103.701 8.60059C104.548 8.60059 105.317 8.72921 106.002 8.99232C106.693 9.24957 107.24 9.55945 107.643 9.91025C108.045 10.2611 108.406 10.7229 108.712 11.2901C109.018 11.8572 109.235 12.3425 109.367 12.7401C109.499 13.1377 109.601 13.6171 109.673 14.1784C109.745 14.7221 109.781 15.0671 109.781 15.2074V15.7862L109.727 16.7392H99.6338C99.76 18.0957 100.187 19.0838 100.914 19.6918C101.641 20.3057 102.716 20.6098 104.14 20.6098C106.153 20.6098 107.739 20.2765 108.892 19.6041V21.6154C107.558 22.241 105.936 22.5509 104.032 22.5509C104.008 22.5509 103.978 22.5509 103.948 22.5509C103.137 22.5509 102.392 22.4573 101.713 22.2644C101.034 22.0773 100.367 21.7499 99.7179 21.2821C99.063 20.8144 98.5524 20.1128 98.1799 19.1715C97.8073 18.2418 97.6211 17.1017 97.6211 15.7628ZM99.6338 15.0086H107.769C107.769 14.6987 107.733 14.3538 107.655 13.9796C107.577 13.5995 107.426 13.1143 107.192 12.5179C106.958 11.9215 106.543 11.4246 105.942 11.0328C105.342 10.6352 104.59 10.4365 103.701 10.4365C102.325 10.4365 101.322 10.7873 100.703 11.483C100.078 12.1788 99.7239 13.354 99.6338 15.0086Z" fill="white"/>
<path d="M112.547 22.3463V9.92195C114.367 9.03909 116.326 8.60059 118.423 8.60059C120.171 8.60059 121.523 9.03324 122.484 9.89856C123.446 10.7639 123.932 11.98 123.932 13.5469V22.3521H121.92V13.5411C121.92 13.161 121.877 12.8278 121.799 12.5296C121.715 12.2373 121.559 11.9215 121.325 11.5824C121.09 11.2492 120.712 10.9919 120.183 10.8107C119.66 10.6294 119 10.5417 118.207 10.5417C117.041 10.5417 115.827 10.7229 114.56 11.0854V22.3463H112.547Z" fill="white"/>
<path d="M126.477 18.1951C126.477 17.587 126.591 17.0433 126.825 16.5638C127.053 16.0844 127.342 15.6927 127.672 15.3945C128.009 15.0963 128.435 14.8391 128.952 14.6286C129.469 14.4181 129.925 14.2602 130.322 14.1608C130.718 14.0614 131.193 13.9854 131.74 13.9328C132.286 13.8802 132.677 13.851 132.905 13.8393C133.134 13.8334 133.41 13.8276 133.728 13.8276L135.957 13.9562C135.957 12.7284 135.615 11.8572 134.936 11.331C134.251 10.8048 133.242 10.5476 131.908 10.5476C130.406 10.5476 129.054 10.7639 127.846 11.1965V9.30805C129.216 8.84031 130.604 8.60645 132.016 8.60645C133.963 8.60645 135.447 9.08588 136.468 10.0389C137.489 10.9978 138 12.3951 138 14.2368V18.2945C138 19.1598 137.796 19.8965 137.381 20.5104C136.967 21.1243 136.438 21.5686 135.795 21.8376C135.146 22.1124 134.539 22.2995 133.975 22.4047C133.41 22.51 132.851 22.5626 132.298 22.5626C131.872 22.5626 131.433 22.5334 130.989 22.4807C130.538 22.4281 130.033 22.3053 129.463 22.1182C128.898 21.9253 128.405 21.6856 127.985 21.3874C127.57 21.0892 127.21 20.6683 126.915 20.1128C126.627 19.5574 126.477 18.9201 126.477 18.1951ZM128.489 18.1951C128.489 19.8789 129.745 20.7209 132.256 20.7209C132.262 20.7209 132.28 20.7209 132.298 20.7209C134.756 20.7209 135.987 19.9082 135.987 18.2769V15.6868C135.375 15.5816 134.551 15.529 133.518 15.529C130.166 15.5231 128.489 16.4177 128.489 18.1951Z" fill="white"/>
</svg>
