<svg width="138" height="28" viewBox="0 0 138 28" fill="none" xmlns="http://www.w3.org/2000/svg">
<path d="M14.2617 0.3508C6.41516 0.3508 0.0585938 6.53664 0.0585938 14.1725C0.0585938 21.8083 6.41516 27.9942 14.2617 27.9942C22.1023 27.9942 28.4649 21.8083 28.4649 14.1725C28.4649 6.53664 22.1023 0.3508 14.2617 0.3508ZM20.8947 20.6156C20.1857 20.5805 20.1677 20.5571 19.4527 20.3525C19.3326 20.3174 18.5816 19.99 18.149 20.2063C18.143 20.2122 18.131 20.2122 18.1249 20.218C17.9507 20.3232 17.7705 20.4226 17.5842 20.5162C17.5482 20.5337 17.5121 20.5513 17.4821 20.5688C16.5088 21.0365 15.4153 21.2938 14.2617 21.2938C10.2183 21.2938 6.93787 18.1073 6.93787 14.1725C6.93787 10.2376 10.2183 7.04531 14.2617 7.04531C18.3052 7.04531 21.5796 10.2376 21.5796 14.1725C21.5796 15.2073 21.3513 16.1896 20.9427 17.0783C20.8226 17.5694 20.9187 17.8267 21.1771 18.2652C21.6457 19.072 22.2165 19.6859 23.0155 20.1888C22.3667 20.4636 21.6577 20.6565 20.8947 20.6156Z" fill="#F77C42"/>
<path d="M14.2637 0.409302C8.82633 0.409302 4.10397 3.12803 1.71875 7.80542L11.0133 7.69433L11.3257 7.63586C11.9265 7.22075 13.2483 7.0395 14.3358 7.0395C18.3792 7.0395 21.6176 10.2318 21.6176 14.1667C21.6176 15.2015 21.3712 16.1838 20.9627 17.0725C20.8425 17.5636 20.9266 17.8209 21.185 18.2652C21.6596 19.0721 22.2244 19.686 23.0175 20.1888C22.3686 20.4636 21.6536 20.6565 20.8906 20.6156C20.6623 20.6039 20.5001 20.5922 20.3679 20.5805C20.6863 21.6212 20.8606 22.7263 20.8606 23.8722C20.8606 24.8077 20.7464 25.714 20.5301 26.5793C25.2284 24.3283 28.4608 19.6509 28.4608 14.2076C28.4668 6.56591 22.1042 0.409302 14.2637 0.409302Z" fill="#D25E27"/>
<path d="M14.2621 0.350769C14.0277 0.350769 13.7934 0.356616 13.5591 0.368309C18.3716 2.60761 21.6941 7.39024 21.6941 12.9329C21.6941 13.7164 21.4898 15.2541 21.4718 15.2599C21.3757 15.8505 21.2074 16.4234 20.9731 16.9555C20.8049 17.5285 20.895 17.7916 21.1714 18.271C21.64 19.0779 22.2108 19.6918 23.0099 20.1946C22.361 20.4694 21.652 20.6623 20.883 20.6214C20.174 20.5863 20.156 20.5629 19.441 20.3583C19.3329 20.3291 18.69 20.0484 18.2514 20.1712C16.2988 23.8312 13.0484 26.474 8.48828 26.8131C10.2487 27.5732 12.2013 28 14.25 28C22.0906 28 28.4532 21.8141 28.4532 14.1783C28.4652 6.53661 22.1026 0.350769 14.2621 0.350769Z" fill="#D25E27"/>
<path d="M4.26668 18.16C4.26668 11.8162 9.5478 6.67697 16.0666 6.67697C22.5253 6.67697 27.7944 11.8221 27.8845 18.0839C28.3111 16.7684 28.5214 15.2717 28.5214 13.8158C28.5274 6.18584 22.1648 0 14.3242 0C6.47766 0 0.121094 6.18584 0.121094 13.8217C0.121094 18.9668 3.01099 23.4512 7.28875 25.8309C5.41423 23.7962 4.26668 21.1067 4.26668 18.16Z" fill="#F77C42"/>
<path d="M18.2586 20.2297C18.0243 20.3291 17.784 20.4226 17.5436 20.5103C17.5376 20.5103 17.5316 20.5162 17.5256 20.5162C17.4896 20.5337 17.4535 20.5513 17.4235 20.5688C16.4502 21.0365 15.3567 21.2938 14.2031 21.2938C13.9448 21.2938 13.6864 21.2821 13.4281 21.2529C13.338 21.2529 13.2539 21.2529 13.1637 21.2529C6.69903 21.2529 1.35783 16.5872 0.492664 10.5241C0.174235 11.6935 0 12.9096 0 14.1725C0 19.8555 3.52675 24.7375 8.56154 26.8599C13.0856 26.4974 16.318 23.8663 18.2586 20.2297Z" fill="#E96F35"/>
<path d="M36.6211 18.0021V3.64249H39.9616V8.84023C40.7607 8.69991 41.5177 8.62975 42.2447 8.62975C44.3115 8.62975 45.8976 9.21442 47.0031 10.3838C48.1146 11.5531 48.6673 13.237 48.6673 15.4353C48.6673 16.6456 48.5051 17.7097 48.1807 18.6335C47.8562 19.5573 47.4717 20.2531 47.0331 20.7325C46.5945 21.2061 46.0598 21.5978 45.447 21.896C44.8282 22.1942 44.2934 22.3813 43.8368 22.4514C43.3802 22.5216 42.9236 22.5567 42.461 22.5567C40.4783 22.5567 39.0063 22.1123 38.051 21.2178C37.0957 20.3291 36.6211 19.2591 36.6211 18.0021ZM39.9616 18.3119C39.9616 19.2825 40.7907 19.7678 42.461 19.7678C43.5184 19.7678 44.2634 19.417 44.69 18.7154C45.1165 18.0138 45.3268 16.8619 45.3268 15.2599C45.3268 13.7398 45.0505 12.6757 44.5037 12.0735C43.957 11.4654 43.1639 11.1672 42.1185 11.1672C41.3014 11.1672 40.5804 11.2432 39.9616 11.3953V18.3119Z" fill="#292929"/>
<path d="M50.8789 15.7394C50.8789 13.5702 51.3776 11.8396 52.3689 10.5416C53.3603 9.24367 54.9344 8.60052 57.0913 8.60052C59.128 8.60052 60.6721 9.23197 61.7175 10.489C62.7629 11.7519 63.2856 13.3013 63.2856 15.143C63.2856 15.9031 63.2676 16.4585 63.2316 16.821H54.2194C54.3095 17.9904 54.67 18.7797 55.3009 19.1714C55.9317 19.569 56.7488 19.7678 57.7522 19.7678C59.3804 19.7678 60.9545 19.4228 62.4805 18.7212V21.3406C60.9425 22.1533 59.2001 22.5567 57.2535 22.5567C56.6347 22.5567 56.0579 22.5099 55.5172 22.4105C54.9764 22.3111 54.4117 22.1123 53.8289 21.8024C53.2461 21.4926 52.7474 21.1008 52.3269 20.6273C51.9063 20.1537 51.5638 19.493 51.2935 18.6511C51.0171 17.8091 50.8789 16.8386 50.8789 15.7394ZM54.2194 14.5759H59.813C59.7228 13.6521 59.4404 12.8686 58.9658 12.2255C58.4912 11.5882 57.8363 11.2666 57.0012 11.2666C56.166 11.2666 55.5172 11.5297 55.0485 12.0443C54.5919 12.5705 54.3095 13.4124 54.2194 14.5759Z" fill="#292929"/>
<path d="M64.1328 11.6291V8.84023H66.47V4.82938H69.8105V8.83439H73.0969V11.6233H69.8105V18.2827C69.8105 18.8615 69.9366 19.2591 70.183 19.4579C70.4353 19.6625 70.8739 19.7619 71.5108 19.7619C72.1116 19.7619 72.6403 19.6625 73.0969 19.4696V22.1532C72.448 22.4163 71.7331 22.5508 70.964 22.5508C70.94 22.5508 70.916 22.5508 70.8979 22.5508C69.5221 22.5508 68.4406 22.1532 67.6536 21.3639C66.8665 20.5688 66.47 19.4754 66.47 18.0839V11.6291H64.1328Z" fill="#292929"/>
<path d="M75.1211 18.195C75.1211 17.587 75.2352 17.0432 75.4696 16.5638C75.7039 16.0844 75.9863 15.6926 76.3167 15.3944C76.6532 15.0963 77.0797 14.839 77.5964 14.6285C78.1131 14.418 78.5697 14.2602 78.9663 14.1608C79.3628 14.0614 79.8374 13.9854 80.3842 13.9328C80.9309 13.8801 81.3214 13.8509 81.5498 13.8392C81.7781 13.8334 82.0544 13.8275 82.3729 13.8275L84.6019 13.9561C84.6019 12.7283 84.2594 11.8572 83.5805 11.331C82.8956 10.8048 81.8862 10.5475 80.5524 10.5475C79.0504 10.5475 77.6986 10.7638 76.4909 11.1965V9.30799C77.8608 8.84025 79.2487 8.60638 80.6606 8.60638C82.6072 8.60638 84.0912 9.08582 85.1126 10.0388C86.1339 10.9977 86.6446 12.3951 86.6446 14.2368V18.2944C86.6446 19.1597 86.4403 19.8964 86.0258 20.5103C85.6112 21.1242 85.0825 21.5686 84.4397 21.8375C83.7908 22.1123 83.184 22.2994 82.6192 22.4047C82.0544 22.5099 81.4957 22.5625 80.9429 22.5625C80.5164 22.5625 80.0778 22.5333 79.6332 22.4807C79.1826 22.4281 78.6779 22.3053 78.1071 22.1182C77.5424 21.9252 77.0497 21.6855 76.6351 21.3873C76.2146 21.0892 75.8601 20.6682 75.5657 20.1128C75.2653 19.5573 75.1211 18.92 75.1211 18.195ZM77.1278 18.195C77.1278 19.8789 78.3835 20.7208 80.9009 20.7208C80.9069 20.7208 80.9249 20.7208 80.9429 20.7208C83.4003 20.7208 84.6319 19.9081 84.6319 18.2769V15.6868C84.0191 15.5815 83.196 15.5289 82.1626 15.5289C78.8101 15.5231 77.1278 16.4176 77.1278 18.195Z" fill="#F5620F"/>
<path d="M89.625 22.3462V9.90438C91.7158 9.05076 93.9628 8.62979 96.3601 8.62979V10.4657C94.846 10.5007 93.2659 10.7346 91.6317 11.1673V22.3462H89.625Z" fill="#F5620F"/>
<path d="M97.6211 15.7628C97.6211 15.7452 97.6211 15.716 97.6211 15.6692C97.6211 15.6283 97.6211 15.5874 97.6211 15.564C97.6211 10.9217 99.6458 8.60052 103.701 8.60052C104.548 8.60052 105.317 8.72915 106.002 8.99226C106.693 9.24951 107.24 9.55939 107.643 9.91019C108.045 10.261 108.406 10.7229 108.712 11.29C109.018 11.8572 109.235 12.3424 109.367 12.74C109.499 13.1376 109.601 13.617 109.673 14.1783C109.745 14.7221 109.781 15.067 109.781 15.2073V15.7862L109.727 16.7392H99.6338C99.76 18.0956 100.187 19.0837 100.914 19.6918C101.641 20.3057 102.716 20.6097 104.14 20.6097C106.153 20.6097 107.739 20.2764 108.892 19.6041V21.6154C107.558 22.241 105.936 22.5508 104.032 22.5508C104.008 22.5508 103.978 22.5508 103.948 22.5508C103.137 22.5508 102.392 22.4573 101.713 22.2643C101.034 22.0772 100.367 21.7498 99.7179 21.2821C99.063 20.8144 98.5524 20.1127 98.1799 19.1714C97.8073 18.2418 97.6211 17.1017 97.6211 15.7628ZM99.6338 15.0085H107.769C107.769 14.6987 107.733 14.3537 107.655 13.9795C107.577 13.5995 107.426 13.1142 107.192 12.5178C106.958 11.9215 106.543 11.4245 105.942 11.0328C105.342 10.6352 104.59 10.4364 103.701 10.4364C102.325 10.4364 101.322 10.7872 100.703 11.483C100.078 12.1787 99.7239 13.3539 99.6338 15.0085Z" fill="#F5620F"/>
<path d="M112.547 22.3462V9.92189C114.367 9.03903 116.326 8.60052 118.423 8.60052C120.171 8.60052 121.523 9.03318 122.484 9.8985C123.446 10.7638 123.932 11.9799 123.932 13.5469V22.352H121.92V13.541C121.92 13.161 121.877 12.8277 121.799 12.5295C121.715 12.2372 121.559 11.9215 121.325 11.5824C121.09 11.2491 120.712 10.9918 120.183 10.8106C119.66 10.6293 119 10.5416 118.207 10.5416C117.041 10.5416 115.827 10.7229 114.56 11.0854V22.3462H112.547Z" fill="#F5620F"/>
<path d="M126.477 18.195C126.477 17.587 126.591 17.0432 126.825 16.5638C127.053 16.0844 127.342 15.6926 127.672 15.3944C128.009 15.0963 128.435 14.839 128.952 14.6285C129.469 14.418 129.925 14.2602 130.322 14.1608C130.718 14.0614 131.193 13.9854 131.74 13.9328C132.286 13.8801 132.677 13.8509 132.905 13.8392C133.134 13.8334 133.41 13.8275 133.728 13.8275L135.957 13.9561C135.957 12.7283 135.615 11.8572 134.936 11.331C134.251 10.8048 133.242 10.5475 131.908 10.5475C130.406 10.5475 129.054 10.7638 127.846 11.1965V9.30799C129.216 8.84025 130.604 8.60638 132.016 8.60638C133.963 8.60638 135.447 9.08582 136.468 10.0388C137.489 10.9977 138 12.3951 138 14.2368V18.2944C138 19.1597 137.796 19.8964 137.381 20.5103C136.967 21.1242 136.438 21.5686 135.795 21.8375C135.146 22.1123 134.539 22.2994 133.975 22.4047C133.41 22.5099 132.851 22.5625 132.298 22.5625C131.872 22.5625 131.433 22.5333 130.989 22.4807C130.538 22.4281 130.033 22.3053 129.463 22.1182C128.898 21.9252 128.405 21.6855 127.985 21.3873C127.57 21.0892 127.21 20.6682 126.915 20.1128C126.627 19.5573 126.477 18.92 126.477 18.195ZM128.489 18.195C128.489 19.8789 129.745 20.7208 132.256 20.7208C132.262 20.7208 132.28 20.7208 132.298 20.7208C134.756 20.7208 135.987 19.9081 135.987 18.2769V15.6868C135.375 15.5815 134.551 15.5289 133.518 15.5289C130.166 15.5231 128.489 16.4176 128.489 18.195Z" fill="#F5620F"/>
</svg>
