<svg width="16" height="16" viewBox="0 0 16 16" fill="none" xmlns="http://www.w3.org/2000/svg">
<g clip-path="url(#clip0_7991_176026)">
<path fill-rule="evenodd" clip-rule="evenodd" d="M8.00078 15.2C11.9772 15.2 15.2008 11.9764 15.2008 7.99999C15.2008 4.02354 11.9772 0.799988 8.00078 0.799988C4.02433 0.799988 0.800781 4.02354 0.800781 7.99999C0.800781 11.9764 4.02433 15.2 8.00078 15.2ZM8.75078 3.19999C8.75078 2.78577 8.41499 2.44999 8.00078 2.44999C7.58657 2.44999 7.25078 2.78577 7.25078 3.19999V4.04999H7.00078C6.39579 4.04999 5.83948 4.3255 5.4464 4.77474C5.05611 5.22078 4.85078 5.80667 4.85078 6.39999C4.85078 6.9933 5.05611 7.5792 5.4464 8.02524C5.83948 8.47447 6.39579 8.74999 7.00078 8.74999H7.25078V10.45H5.60078C5.18657 10.45 4.85078 10.7858 4.85078 11.2C4.85078 11.6142 5.18657 11.95 5.60078 11.95H7.25078V12.8C7.25078 13.2142 7.58657 13.55 8.00078 13.55C8.41499 13.55 8.75078 13.2142 8.75078 12.8V11.95H9.00078C9.60577 11.95 10.1621 11.6745 10.5552 11.2252C10.9454 10.7792 11.1508 10.1933 11.1508 9.59999C11.1508 9.00667 10.9454 8.42078 10.5552 7.97474C10.1621 7.5255 9.60577 7.24999 9.00078 7.24999H8.75078V5.54999H10.0008C10.415 5.54999 10.7508 5.2142 10.7508 4.79999C10.7508 4.38577 10.415 4.04999 10.0008 4.04999H8.75078V3.19999ZM7.00078 5.54999H7.25078V7.24999H7.00078C6.86317 7.24999 6.70728 7.18836 6.57526 7.03748C6.44045 6.8834 6.35078 6.65536 6.35078 6.39999C6.35078 6.14461 6.44045 5.91657 6.57526 5.7625C6.70728 5.61162 6.86317 5.54999 7.00078 5.54999ZM8.75078 10.45V8.74999H9.00078C9.1384 8.74999 9.29428 8.81162 9.4263 8.9625C9.56112 9.11657 9.65078 9.34461 9.65078 9.59999C9.65078 9.85536 9.56112 10.0834 9.4263 10.2375C9.29428 10.3884 9.1384 10.45 9.00078 10.45H8.75078Z" fill="white"/>
</g>
<defs>
<clipPath id="clip0_7991_176026">
<rect width="16" height="16" fill="white"/>
</clipPath>
</defs>
</svg>
