<svg xmlns="http://www.w3.org/2000/svg" width="20" height="20" viewBox="0 0 20 20" fill="none">
  <path d="M5.94589 9.32417L2.77527 3.65045C2.4107 2.99806 2.22841 2.67186 2.25913 2.40479C2.28594 2.17178 2.40969 1.96085 2.60002 1.82379C2.81817 1.66669 3.19185 1.66669 3.93919 1.66669H5.80155C6.07929 1.66669 6.21817 1.66669 6.34273 1.7068C6.45295 1.74229 6.55457 1.80037 6.6411 1.87732C6.73888 1.96429 6.80937 2.08394 6.95035 2.32325L10 7.50002L13.0497 2.32325C13.1907 2.08394 13.2612 1.96429 13.359 1.87732C13.4455 1.80037 13.5471 1.74229 13.6573 1.7068C13.7819 1.66669 13.9208 1.66669 14.1985 1.66669H16.0609C16.8082 1.66669 17.1819 1.66669 17.4 1.82379C17.5904 1.96085 17.7141 2.17178 17.7409 2.40479C17.7716 2.67186 17.5894 2.99806 17.2248 3.65045L14.0542 9.32417M8.75003 11.6667L10 10.8334V15M8.95836 15H11.0417M13.8302 9.08652C15.9455 11.2019 15.9455 14.6315 13.8302 16.7469C11.7149 18.8622 8.28521 18.8622 6.16986 16.7469C4.05453 14.6315 4.05453 11.2019 6.16986 9.08652C8.2852 6.97119 11.7148 6.97119 13.8302 9.08652Z" stroke="#F5620F" stroke-width="1.66667" stroke-linecap="round" stroke-linejoin="round"/>
</svg>