<svg width="103" height="30" viewBox="0 0 103 30" fill="none" xmlns="http://www.w3.org/2000/svg">
<path d="M0.15007 19.2879V3.90266H3.53899V9.47168C4.34964 9.32133 5.11763 9.24616 5.85515 9.24616C7.95188 9.24616 9.56101 9.8726 10.6825 11.1255C11.8101 12.3783 12.3709 14.1825 12.3709 16.5379C12.3709 17.8346 12.2063 18.9747 11.8772 19.9645C11.548 20.9542 11.1579 21.6997 10.713 22.2134C10.2681 22.7208 9.72558 23.1405 9.10387 23.46C8.47607 23.7795 7.9336 23.9799 7.47037 24.0551C7.00713 24.1303 6.5439 24.1679 6.07457 24.1679C4.06317 24.1679 2.56985 23.6918 1.60072 22.7333C0.631589 21.7811 0.15007 20.6348 0.15007 19.2879ZM3.53899 19.6199C3.53899 20.6598 4.38012 21.1798 6.07457 21.1798C7.14732 21.1798 7.90312 20.8039 8.33588 20.0522C8.76864 19.3005 8.98197 18.0664 8.98197 16.3499C8.98197 14.7212 8.70159 13.5811 8.14693 12.9359C7.59227 12.2844 6.78771 11.9649 5.72715 11.9649C4.89821 11.9649 4.16679 12.0463 3.53899 12.2092V19.6199Z" fill="white"/>
<path d="M14.6139 16.8636C14.6139 14.5396 15.1198 12.6853 16.1255 11.2946C17.1312 9.90394 18.7281 9.21486 20.9163 9.21486C22.9826 9.21486 24.549 9.89141 25.6096 11.2382C26.6702 12.5913 27.2004 14.2514 27.2004 16.2247C27.2004 17.039 27.1822 17.6342 27.1456 18.0225H18.0028C18.0942 19.2754 18.46 20.1211 19.1 20.5408C19.7399 20.9668 20.5689 21.1798 21.5868 21.1798C23.2386 21.1798 24.8355 20.8102 26.3837 20.0585V22.8649C24.8233 23.7356 23.0557 24.1679 21.0809 24.1679C20.4531 24.1679 19.8679 24.1178 19.3194 24.0113C18.7708 23.9048 18.1979 23.6918 17.6066 23.3598C17.0154 23.0278 16.5095 22.6081 16.0828 22.1006C15.6562 21.5932 15.3088 20.8854 15.0345 19.9833C14.7541 19.0812 14.6139 18.0413 14.6139 16.8636ZM18.0028 15.617H23.6774C23.586 14.6273 23.2995 13.7878 22.818 13.0988C22.3365 12.4159 21.6721 12.0714 20.8249 12.0714C19.9777 12.0714 19.3194 12.3533 18.844 12.9046C18.3807 13.4684 18.0942 14.3704 18.0028 15.617Z" fill="white"/>
<path d="M28.0599 12.4598V9.47168H30.4309V5.17433H33.8198V9.46542H37.1539V12.4535H33.8198V19.5886C33.8198 20.2088 33.9478 20.6348 34.1977 20.8477C34.4537 21.067 34.8986 21.1735 35.5447 21.1735C36.1543 21.1735 36.6906 21.067 37.1539 20.8603V23.7356C36.4956 24.0175 35.7703 24.1616 34.9901 24.1616C34.9657 24.1616 34.9413 24.1616 34.923 24.1616C33.5272 24.1616 32.4301 23.7356 31.6316 22.8899C30.8332 22.038 30.4309 20.8665 30.4309 19.3756V12.4598H28.0599Z" fill="white"/>
<path d="M39.2079 19.4947C39.2079 18.8432 39.3237 18.2606 39.5614 17.7469C39.7991 17.2332 40.0856 16.8135 40.4209 16.494C40.7622 16.1746 41.1949 15.8989 41.7191 15.6734C42.2433 15.4479 42.7065 15.2787 43.1088 15.1723C43.5111 15.0658 43.9926 14.9843 44.5473 14.9279C45.1019 14.8716 45.4981 14.8402 45.7298 14.8277C45.9614 14.8214 46.2418 14.8152 46.5648 14.8152L48.8261 14.953C48.8261 13.6375 48.4787 12.7041 47.7899 12.1403C47.0951 11.5765 46.0711 11.3009 44.718 11.3009C43.1942 11.3009 41.8227 11.5327 40.5976 11.9962V9.97284C41.9873 9.47169 43.3953 9.22112 44.8277 9.22112C46.8025 9.22112 48.308 9.73479 49.3442 10.7559C50.3804 11.7832 50.8985 13.2804 50.8985 15.2537V19.6012C50.8985 20.5283 50.6912 21.3176 50.2707 21.9753C49.8501 22.6331 49.3137 23.1092 48.6615 23.3974C48.0033 23.6918 47.3876 23.8922 46.8147 24.005C46.2417 24.1178 45.6749 24.1741 45.1141 24.1741C44.6814 24.1741 44.2364 24.1428 43.7854 24.0864C43.3283 24.0301 42.8163 23.8985 42.2372 23.698C41.6643 23.4913 41.1645 23.2345 40.7439 22.915C40.3172 22.5955 39.9576 22.1445 39.659 21.5494C39.3542 20.9543 39.2079 20.2714 39.2079 19.4947ZM41.2437 19.4947C41.2437 21.2988 42.5176 22.2009 45.0715 22.2009C45.0776 22.2009 45.0959 22.2009 45.1141 22.2009C47.6071 22.2009 48.8566 21.3301 48.8566 19.5824V16.8073C48.2349 16.6945 47.3998 16.6381 46.3515 16.6381C42.9504 16.6318 41.2437 17.5903 41.2437 19.4947Z" fill="white"/>
<path d="M53.9217 23.9424V10.6118C56.0428 9.69725 58.3224 9.24622 60.7544 9.24622V11.2132C59.2184 11.2508 57.6154 11.5014 55.9575 11.9649V23.9424H53.9217Z" fill="white"/>
<path d="M62.0343 16.8887C62.0343 16.8699 62.0343 16.8386 62.0343 16.7885C62.0343 16.7446 62.0343 16.7008 62.0343 16.6757C62.0343 11.7018 64.0884 9.21486 68.2027 9.21486C69.0621 9.21486 69.8423 9.35267 70.5371 9.63457C71.2381 9.9102 71.7927 10.2422 72.2011 10.6181C72.6095 10.9939 72.9752 11.4888 73.286 12.0965C73.5969 12.7041 73.8163 13.224 73.9504 13.65C74.0845 14.076 74.1881 14.5897 74.2613 15.1911C74.3344 15.7736 74.371 16.1432 74.371 16.2936V16.9138L74.3161 17.9348H64.0762C64.2042 19.3882 64.637 20.4468 65.3745 21.0983C66.112 21.7561 67.2031 22.0818 68.6476 22.0818C70.6895 22.0818 72.2986 21.7248 73.4689 21.0044V23.1593C72.1158 23.8296 70.4701 24.1616 68.5379 24.1616C68.5135 24.1616 68.483 24.1616 68.4526 24.1616C67.6297 24.1616 66.8739 24.0614 66.1852 23.8547C65.4964 23.6542 64.8198 23.3034 64.1616 22.8022C63.4972 22.3011 62.9791 21.5494 62.6012 20.5408C62.2233 19.5448 62.0343 18.3232 62.0343 16.8887ZM64.0762 16.0806H72.3291C72.3291 15.7486 72.2925 15.379 72.2133 14.9781C72.134 14.5709 71.9817 14.0509 71.744 13.412C71.5063 12.773 71.0857 12.2405 70.4762 11.8208C69.8666 11.3949 69.1048 11.1819 68.2027 11.1819C66.8069 11.1819 65.789 11.5577 65.1612 12.3032C64.5273 13.0486 64.1677 14.3078 64.0762 16.0806Z" fill="white"/>
<path d="M77.1748 23.9424V10.6306C79.0216 9.68469 81.0086 9.21486 83.1358 9.21486C84.9095 9.21486 86.2809 9.67842 87.2562 10.6055C88.2314 11.5327 88.7251 12.8357 88.7251 14.5145V23.9486H86.6832V14.5082C86.6832 14.1011 86.6406 13.744 86.5613 13.4245C86.476 13.1113 86.3175 12.773 86.0798 12.4097C85.8421 12.0526 85.4581 11.777 84.9217 11.5828C84.3914 11.3886 83.721 11.2946 82.9164 11.2946C81.7339 11.2946 80.5027 11.4888 79.2166 11.8772V23.9424H77.1748Z" fill="white"/>
<path d="M91.3094 19.4947C91.3094 18.8432 91.4253 18.2606 91.663 17.7469C91.8946 17.2332 92.1872 16.8135 92.5224 16.494C92.8637 16.1746 93.2965 15.8989 93.8207 15.6734C94.3449 15.4479 94.8081 15.2787 95.2104 15.1723C95.6126 15.0658 96.0942 14.9843 96.6488 14.9279C97.2035 14.8716 97.5997 14.8402 97.8313 14.8277C98.0629 14.8214 98.3433 14.8152 98.6663 14.8152L100.928 14.953C100.928 13.6375 100.58 12.7041 99.8915 12.1403C99.1966 11.5765 98.1726 11.3009 96.8195 11.3009C95.2957 11.3009 93.9243 11.5327 92.6991 11.9962V9.97284C94.0888 9.47169 95.4968 9.22112 96.9292 9.22112C98.904 9.22112 100.41 9.73479 101.446 10.7559C102.482 11.7832 103 13.2804 103 15.2537V19.6012C103 20.5283 102.793 21.3176 102.372 21.9753C101.952 22.6331 101.415 23.1092 100.763 23.3974C100.105 23.6918 99.4892 23.8922 98.9162 24.005C98.3433 24.1178 97.7764 24.1741 97.2157 24.1741C96.7829 24.1741 96.338 24.1428 95.8869 24.0864C95.4298 24.0301 94.9178 23.8985 94.3388 23.698C93.7658 23.4913 93.266 23.2345 92.8393 22.915C92.4188 22.5955 92.0531 22.1445 91.7544 21.5494C91.4618 20.9543 91.3094 20.2714 91.3094 19.4947ZM93.3513 19.4947C93.3513 21.2988 94.6252 22.2009 97.173 22.2009C97.1791 22.2009 97.1974 22.2009 97.2157 22.2009C99.7086 22.2009 100.958 21.3301 100.958 19.5824V16.8073C100.336 16.6945 99.5014 16.6381 98.453 16.6381C95.0519 16.6318 93.3513 17.5903 93.3513 19.4947Z" fill="white"/>
</svg>
