<svg width="24" height="24" viewBox="0 0 24 24" fill="none" xmlns="http://www.w3.org/2000/svg">
<path d="M18.0683 17.4429C13.8561 19.4616 9.7797 19.5535 5.92969 17.4429C5.92969 14.8276 7.33382 12.5336 9.41718 11.478C10.0966 12.0746 11.0024 12.4416 11.9989 12.4416C12.9954 12.4416 13.9012 12.0746 14.5806 11.478C16.6189 12.5792 18.0682 14.8275 18.0682 17.4429H18.0683Z" fill="#292929"/>
<path d="M15.1254 8.40378C15.1254 10.1523 13.7261 11.5697 12.0002 11.5697C10.2743 11.5697 8.875 10.1523 8.875 8.40378C8.875 6.65539 10.2743 5.2379 12.0002 5.2379C13.7261 5.2379 15.1254 6.65539 15.1254 8.40378Z" fill="#292929"/>
<path d="M22.8692 14.3226C21.465 15.0108 20.061 15.3778 18.7023 15.4697C18.2042 13.4967 16.9359 11.7532 15.2148 10.7897C15.3507 10.6521 15.4413 10.4685 15.5319 10.285C15.7584 10.1015 16.0301 9.91804 16.3019 9.7804C16.8454 10.2393 17.5248 10.5146 18.2495 10.5146C19.0194 10.5146 19.6988 10.2393 20.1972 9.7804C21.7822 10.6061 22.8692 12.3498 22.8692 14.3227L22.8692 14.3226Z" fill="#292929"/>
<path d="M20.6518 7.44025C20.6518 8.77079 19.6101 9.82619 18.2965 9.82619C17.2095 9.82619 16.3037 9.09202 16.0319 8.08271C16.0319 7.89913 15.9866 7.7157 15.9414 7.53212V7.48619C15.9414 6.15565 16.9831 5.10025 18.2967 5.10025C19.6101 5.10025 20.6518 6.10971 20.6518 7.44025Z" fill="#292929"/>
<path d="M8.7836 10.8358C7.06252 11.7993 5.79427 13.5428 5.2961 15.5158C3.84663 15.4699 2.48785 15.0569 1.12891 14.3228C1.12891 12.3498 2.21593 10.6063 3.75594 9.82642C4.29945 10.2853 4.97885 10.5606 5.70358 10.5606C6.42832 10.5606 7.1529 10.2853 7.65122 9.82642C7.92298 9.96406 8.19474 10.1476 8.42115 10.3311C8.55688 10.5147 8.64756 10.6523 8.78344 10.8359L8.7836 10.8358Z" fill="#292929"/>
<path d="M8.10493 7.44025V7.48618C8.05959 7.66976 8.05959 7.85319 8.0144 8.03677C7.74264 9.04623 6.83684 9.78024 5.74981 9.78024C4.43637 9.78024 3.39453 8.725 3.39453 7.39431C3.39453 6.06378 4.43621 5.00838 5.74981 5.00838C7.06309 5.00853 8.10493 6.10971 8.10493 7.44025Z" fill="#292929"/>
</svg>
