<svg width="24" height="24" viewBox="0 0 24 24" fill="none" xmlns="http://www.w3.org/2000/svg">
<path d="M10.0664 12.8662V20H8.88965V14.2627L7.14648 14.8535V13.8818L9.9248 12.8662H10.0664ZM17.1709 15.8496V17.0117C17.1709 17.5684 17.1156 18.0436 17.0049 18.4375C16.8975 18.8281 16.7412 19.1455 16.5361 19.3896C16.3311 19.6338 16.0853 19.8128 15.7988 19.9268C15.5156 20.0407 15.1982 20.0977 14.8467 20.0977C14.5667 20.0977 14.3063 20.0618 14.0654 19.9902C13.8278 19.9186 13.613 19.8063 13.4209 19.6533C13.2288 19.5003 13.0645 19.3034 12.9277 19.0625C12.7943 18.8184 12.6901 18.527 12.6152 18.1885C12.5436 17.8499 12.5078 17.4577 12.5078 17.0117V15.8496C12.5078 15.2897 12.5632 14.8177 12.6738 14.4336C12.7845 14.0462 12.9424 13.7321 13.1475 13.4912C13.3525 13.2471 13.5967 13.0697 13.8799 12.959C14.1663 12.8483 14.4854 12.793 14.8369 12.793C15.1201 12.793 15.3805 12.8288 15.6182 12.9004C15.859 12.9688 16.0739 13.0778 16.2627 13.2275C16.4548 13.3773 16.6175 13.5726 16.751 13.8135C16.8877 14.0511 16.9919 14.3392 17.0635 14.6777C17.1351 15.013 17.1709 15.4036 17.1709 15.8496ZM15.9941 17.1777V15.6738C15.9941 15.3906 15.9779 15.1416 15.9453 14.9268C15.9128 14.7087 15.8639 14.5247 15.7988 14.375C15.737 14.222 15.6589 14.0983 15.5645 14.0039C15.4701 13.9062 15.3626 13.8363 15.2422 13.7939C15.1217 13.7484 14.9867 13.7256 14.8369 13.7256C14.6546 13.7256 14.4919 13.7614 14.3486 13.833C14.2054 13.9014 14.085 14.012 13.9873 14.165C13.8896 14.318 13.8148 14.5199 13.7627 14.7705C13.7139 15.0179 13.6895 15.319 13.6895 15.6738V17.1777C13.6895 17.4642 13.7057 17.7165 13.7383 17.9346C13.7708 18.1527 13.8197 18.3398 13.8848 18.4961C13.9499 18.6491 14.028 18.776 14.1191 18.877C14.2135 18.9746 14.321 19.0462 14.4414 19.0918C14.5651 19.1374 14.7002 19.1602 14.8467 19.1602C15.0322 19.1602 15.1966 19.1243 15.3398 19.0527C15.4831 18.9811 15.6035 18.8672 15.7012 18.7109C15.7988 18.5514 15.8721 18.3447 15.9209 18.0908C15.9697 17.8369 15.9941 17.5326 15.9941 17.1777Z" fill="white"/>
<path d="M19 4H5C3.89543 4 3 4.89543 3 6V20C3 21.1046 3.89543 22 5 22H19C20.1046 22 21 21.1046 21 20V6C21 4.89543 20.1046 4 19 4Z" stroke="white" stroke-width="1.5" stroke-linecap="round" stroke-linejoin="round"/>
<path d="M16 2V6" stroke="white" stroke-width="1.5" stroke-linecap="round" stroke-linejoin="round"/>
<path d="M8 2V6" stroke="white" stroke-width="1.5" stroke-linecap="round" stroke-linejoin="round"/>
<path d="M3 10H21" stroke="white" stroke-width="1.5" stroke-linecap="round" stroke-linejoin="round"/>
</svg>
