<svg width="32" height="32" viewBox="0 0 32 32" fill="none" xmlns="http://www.w3.org/2000/svg">
<path d="M21.2242 15.9999C21.2242 18.8775 18.8773 21.2244 15.9999 21.2244C13.1224 21.2244 10.7756 18.8775 10.7756 15.9999C10.7756 13.1224 13.1224 10.7755 15.9999 10.7755C18.8773 10.7755 21.2242 13.1224 21.2242 15.9999ZM24.0404 15.9999C24.0404 11.551 20.4487 7.95912 15.9999 7.95912C11.5511 7.95912 7.95935 11.551 7.95935 15.9999C7.95935 20.4489 11.5511 24.0408 15.9999 24.0408C20.4487 24.0408 24.0404 20.4489 24.0404 15.9999ZM26.2444 7.63259C26.2444 6.59178 25.4077 5.75504 24.3669 5.75504C23.3262 5.75504 22.4895 6.59178 22.4895 7.63259C22.4895 8.67341 23.3262 9.51014 24.3669 9.51014C25.4077 9.51014 26.2444 8.67341 26.2444 7.63259ZM15.9999 3.1428C18.2855 3.1428 23.1833 2.95912 25.2445 3.77545C25.9587 4.06116 26.4893 4.4081 27.0403 4.95912C27.5913 5.51015 27.9382 6.04076 28.2239 6.75504C29.0402 8.81627 28.8566 13.7142 28.8566 15.9999C28.8566 18.2857 29.0402 23.1836 28.2239 25.2448C27.9382 25.9591 27.5913 26.4897 27.0403 27.0408C26.4893 27.5918 25.9587 27.9387 25.2445 28.2244C23.1833 29.0408 18.2855 28.8571 15.9999 28.8571C13.7142 28.8571 8.81646 29.0408 6.75531 28.2244C6.04105 27.9387 5.51045 27.5918 4.95945 27.0408C4.40845 26.4897 4.06152 25.9591 3.77582 25.2448C2.95952 23.1836 3.14319 18.2857 3.14319 15.9999C3.14319 13.7142 2.95952 8.81627 3.77582 6.75504C4.06152 6.04076 4.40845 5.51015 4.95945 4.95912C5.51045 4.4081 6.04105 4.06116 6.75531 3.77545C8.81646 2.95912 13.7142 3.1428 15.9999 3.1428ZM31.6728 15.9999C31.6728 13.8367 31.6932 11.6938 31.5708 9.53055C31.4483 7.02035 30.8769 4.79586 29.0402 2.95912C27.2036 1.12239 24.9792 0.55096 22.469 0.428513C20.3059 0.306063 18.1631 0.326471 15.9999 0.326471C13.8367 0.326471 11.6939 0.306063 9.53072 0.428513C7.0206 0.55096 4.79619 1.12239 2.95952 2.95912C1.12285 4.79586 0.551441 7.02035 0.428996 9.53055C0.306552 11.6938 0.326959 13.8367 0.326959 15.9999C0.326959 18.1632 0.306552 20.3061 0.428996 22.4693C0.551441 24.9795 1.12285 27.204 2.95952 29.0408C4.79619 30.8775 7.0206 31.4489 9.53072 31.5714C11.6939 31.6938 13.8367 31.6734 15.9999 31.6734C18.1631 31.6734 20.3059 31.6938 22.469 31.5714C24.9792 31.4489 27.2036 30.8775 29.0402 29.0408C30.8769 27.204 31.4483 24.9795 31.5708 22.4693C31.6932 20.3061 31.6728 18.1632 31.6728 15.9999Z" fill="#8C8C8C"/>
</svg>
