<svg width="32" height="32" viewBox="0 0 32 32" fill="none" xmlns="http://www.w3.org/2000/svg">
<g clip-path="url(#clip0_3691_30167)">
<path d="M29.4467 6.31083L32 3.86816V3.3335H23.1547L16.8507 19.0242L9.67867 3.3335H0.404V3.86816L3.38667 7.45883C3.67733 7.72416 3.82933 8.11216 3.79067 8.50283V22.6135C3.88267 23.1215 3.71733 23.6442 3.36 24.0135L0 28.0855V28.6135H9.52667V28.0788L6.16667 24.0135C5.80267 23.6428 5.63067 23.1295 5.704 22.6135V10.4082L14.0667 28.6202H15.0387L22.2293 10.4082V24.9162C22.2293 25.2988 22.2293 25.3775 21.9787 25.6282L19.392 28.1308V28.6668H31.9413V28.1322L29.448 25.6908C29.2293 25.5255 29.116 25.2482 29.1627 24.9788V7.02283C29.116 6.75216 29.228 6.47483 29.4467 6.31083Z" fill="#8C8C8C"/>
</g>
<defs>
<clipPath id="clip0_3691_30167">
<rect width="32" height="32" fill="white"/>
</clipPath>
</defs>
</svg>
