<svg width="128" height="24" viewBox="0 0 128 24" fill="none" xmlns="http://www.w3.org/2000/svg">
<rect width="24" height="24" rx="12" fill="#F7931A"/>
<path d="M7.78076 5.51751C8.22144 5.6377 8.66213 5.71783 9.10282 5.83802C9.54351 5.9582 9.9842 6.03833 10.4249 6.15852C10.5451 6.19858 10.5851 6.15852 10.6252 6.03833C10.7855 5.35726 10.9457 4.71626 11.106 4.0352C11.146 3.91501 11.1861 3.87495 11.3063 3.91501C11.7069 4.0352 12.0675 4.11532 12.4681 4.19545C12.5883 4.23551 12.5883 4.27557 12.5482 4.3557C12.388 4.9967 12.2277 5.67777 12.0675 6.31877C12.0675 6.35883 12.0675 6.39889 12.0274 6.47902C12.3479 6.55914 12.7085 6.63927 13.029 6.71939C13.069 6.71939 13.1091 6.63927 13.1491 6.5992C13.2693 6.07839 13.3895 5.59764 13.5498 5.07683C13.5898 4.91658 13.6299 4.75633 13.67 4.59607C13.67 4.51595 13.71 4.47589 13.7901 4.51595C14.1908 4.63614 14.5914 4.71626 15.0321 4.83645C15.0721 4.83645 15.0721 4.87651 15.1122 4.87651C14.992 5.39733 14.8718 5.87808 14.7516 6.35883C14.7116 6.55914 14.6715 6.75946 14.5914 6.95977C14.5513 7.07996 14.5914 7.12002 14.7116 7.16008C15.1523 7.36039 15.593 7.56071 16.0337 7.76102C16.4343 8.0014 16.7948 8.3219 17.0753 8.72252C17.4358 9.32346 17.4759 9.96446 17.3157 10.6055C17.1955 11.0462 17.0352 11.4468 16.7147 11.7673C16.4743 12.0077 16.1538 12.1679 15.8333 12.2881C15.7933 12.2881 15.7532 12.3282 15.6731 12.3282C15.8333 12.4483 15.9936 12.5285 16.1538 12.6487C16.6346 13.0092 16.9551 13.4499 17.1153 14.0108C17.1955 14.4515 17.1554 14.9322 17.0352 15.3729C16.875 15.9338 16.6747 16.4145 16.3141 16.8552C15.8734 17.376 15.3125 17.6565 14.6715 17.7366C13.8302 17.8568 13.029 17.7767 12.2277 17.6565C12.1075 17.6164 12.0274 17.6565 11.9873 17.7767C11.8271 18.4177 11.6668 19.0987 11.5066 19.7397C11.4665 19.9 11.4665 19.94 11.2662 19.8599C10.9056 19.7798 10.505 19.6596 10.1444 19.5795C10.0243 19.5394 10.0243 19.4994 10.0643 19.4192C10.2246 18.7382 10.3848 18.0571 10.5851 17.4161C10.5851 17.336 10.6252 17.2959 10.5451 17.2559C10.2246 17.1757 9.90407 17.0956 9.54351 17.0155C9.46339 17.376 9.3432 17.7366 9.26307 18.0972C9.18295 18.4577 9.06276 18.8183 8.98263 19.1789C8.94257 19.259 8.94257 19.299 8.82238 19.259C8.42176 19.1388 8.02113 19.0587 7.62051 18.9785C7.50032 18.9385 7.50032 18.8984 7.54038 18.8183C7.70063 18.1372 7.86088 17.4562 8.06119 16.8152C8.06119 16.7751 8.10126 16.735 8.10126 16.6549C7.17982 16.4145 6.25838 16.1742 5.29688 15.9338C5.377 15.7735 5.41706 15.6534 5.49719 15.4931C5.65744 15.1325 5.81769 14.772 5.93788 14.4515C5.97794 14.3313 6.018 14.3313 6.13819 14.3313C6.41863 14.4114 6.73913 14.4915 7.01957 14.5316C7.34007 14.6117 7.58044 14.4515 7.62051 14.171C8.14132 12.1278 8.66213 10.0847 9.14288 8.0014C9.22301 7.68089 9.0227 7.32033 8.66213 7.20014C8.30157 7.07996 7.94101 6.99983 7.62051 6.91971C7.54038 6.91971 7.50032 6.87964 7.54038 6.79952C7.66057 6.35883 7.78076 5.87808 7.90094 5.43739C7.74069 5.55758 7.74069 5.55758 7.78076 5.51751ZM9.82395 15.413C9.86401 15.413 9.90407 15.453 9.90407 15.453C10.5451 15.6133 11.2261 15.8136 11.9072 15.8537C12.388 15.8937 12.8286 15.8937 13.2693 15.7335C14.0305 15.4931 14.351 14.4915 13.9103 13.8505C13.71 13.53 13.3895 13.3297 13.069 13.1294C12.3479 12.7288 11.5066 12.5685 10.7053 12.4083C10.5851 12.3682 10.5851 12.4083 10.5451 12.5285C10.4649 12.9291 10.3448 13.2897 10.2646 13.6903C10.1044 14.2512 9.9842 14.812 9.82395 15.413ZM13.1892 11.3266C13.2693 11.3266 13.4696 11.2865 13.6299 11.2465C14.3911 11.0862 14.7917 10.2048 14.3911 9.52378C14.1908 9.16321 13.8302 8.92284 13.4696 8.76259C12.9088 8.52221 12.3479 8.40202 11.747 8.24177C11.6268 8.20171 11.5867 8.24177 11.5466 8.36196C11.3463 9.20327 11.146 10.0045 10.9056 10.8458C10.8656 10.926 10.9056 10.966 10.9858 11.0061C11.146 11.0462 11.2662 11.0862 11.4265 11.1263C12.0274 11.2064 12.5482 11.3266 13.1892 11.3266Z" fill="white"/>
<path d="M38.8906 13.2598H40.5996C40.5449 13.9115 40.3626 14.4925 40.0527 15.0029C39.7428 15.5088 39.3076 15.9076 38.7471 16.1992C38.1865 16.4909 37.5052 16.6367 36.7031 16.6367C36.0879 16.6367 35.5342 16.5273 35.042 16.3086C34.5498 16.0853 34.1283 15.7708 33.7773 15.3652C33.4264 14.9551 33.1576 14.4606 32.9707 13.8818C32.7884 13.3031 32.6973 12.6559 32.6973 11.9404V11.1133C32.6973 10.3978 32.7907 9.75065 32.9775 9.17188C33.1689 8.5931 33.4424 8.09863 33.7979 7.68848C34.1533 7.27376 34.5794 6.95703 35.0762 6.73828C35.5775 6.51953 36.1403 6.41016 36.7646 6.41016C37.5576 6.41016 38.2275 6.55599 38.7744 6.84766C39.3213 7.13932 39.7451 7.54264 40.0459 8.05762C40.3512 8.57259 40.5381 9.16276 40.6064 9.82812H38.8975C38.8519 9.39974 38.7516 9.03288 38.5967 8.72754C38.4463 8.4222 38.223 8.18978 37.9268 8.03027C37.6305 7.86621 37.2432 7.78418 36.7646 7.78418C36.3727 7.78418 36.0309 7.8571 35.7393 8.00293C35.4476 8.14876 35.2038 8.36296 35.0078 8.64551C34.8118 8.92806 34.6637 9.27669 34.5635 9.69141C34.4678 10.1016 34.4199 10.571 34.4199 11.0996V11.9404C34.4199 12.4417 34.4632 12.8975 34.5498 13.3076C34.641 13.7132 34.7777 14.0618 34.96 14.3535C35.1468 14.6452 35.3838 14.8708 35.6709 15.0303C35.958 15.1898 36.3021 15.2695 36.7031 15.2695C37.1908 15.2695 37.585 15.1921 37.8857 15.0371C38.1911 14.8822 38.4212 14.6566 38.5762 14.3604C38.7357 14.0596 38.8405 13.6927 38.8906 13.2598ZM43.6484 10.5117V16.5H42.001V9.10352H43.5732L43.6484 10.5117ZM45.9111 9.05566L45.8975 10.5869C45.7972 10.5687 45.6878 10.555 45.5693 10.5459C45.4554 10.5368 45.3415 10.5322 45.2275 10.5322C44.945 10.5322 44.6966 10.5732 44.4824 10.6553C44.2682 10.7327 44.0882 10.8467 43.9424 10.9971C43.8011 11.1429 43.6917 11.3206 43.6143 11.5303C43.5368 11.7399 43.4912 11.9746 43.4775 12.2344L43.1016 12.2617C43.1016 11.7969 43.1471 11.3662 43.2383 10.9697C43.3294 10.5732 43.4661 10.2246 43.6484 9.92383C43.8353 9.62305 44.0677 9.38835 44.3457 9.21973C44.6283 9.05111 44.9541 8.9668 45.3232 8.9668C45.4235 8.9668 45.5306 8.97591 45.6445 8.99414C45.763 9.01237 45.8519 9.03288 45.9111 9.05566ZM49.2129 15.6934L51.2227 9.10352H52.9863L50.0195 17.6279C49.9512 17.8102 49.8623 18.0085 49.7529 18.2227C49.6436 18.4368 49.5 18.6396 49.3223 18.8311C49.1491 19.027 48.9326 19.1842 48.6729 19.3027C48.4131 19.4258 48.0986 19.4873 47.7295 19.4873C47.5837 19.4873 47.4424 19.4736 47.3057 19.4463C47.1735 19.4235 47.0482 19.3984 46.9297 19.3711L46.9229 18.1133C46.9684 18.1178 47.0231 18.1224 47.0869 18.127C47.1553 18.1315 47.21 18.1338 47.251 18.1338C47.5244 18.1338 47.7523 18.0996 47.9346 18.0312C48.1169 17.9674 48.265 17.8626 48.3789 17.7168C48.4974 17.571 48.5977 17.375 48.6797 17.1289L49.2129 15.6934ZM48.0781 9.10352L49.835 14.6406L50.1289 16.377L48.9873 16.6709L46.3008 9.10352H48.0781ZM55.584 10.5254V19.3438H53.9365V9.10352H55.4541L55.584 10.5254ZM60.4033 12.7334V12.877C60.4033 13.4147 60.3395 13.9137 60.2119 14.374C60.0889 14.8298 59.9043 15.2285 59.6582 15.5703C59.4167 15.9076 59.1182 16.1696 58.7627 16.3564C58.4072 16.5433 57.9971 16.6367 57.5322 16.6367C57.0719 16.6367 56.6686 16.5524 56.3223 16.3838C55.9805 16.2106 55.6911 15.9668 55.4541 15.6523C55.2171 15.3379 55.0257 14.9688 54.8799 14.5449C54.7386 14.1165 54.6383 13.6471 54.5791 13.1367V12.583C54.6383 12.0407 54.7386 11.5485 54.8799 11.1064C55.0257 10.6644 55.2171 10.2839 55.4541 9.96484C55.6911 9.64583 55.9805 9.39974 56.3223 9.22656C56.6641 9.05339 57.0628 8.9668 57.5186 8.9668C57.9834 8.9668 58.3958 9.05794 58.7559 9.24023C59.1159 9.41797 59.4189 9.67318 59.665 10.0059C59.9111 10.334 60.0957 10.7305 60.2188 11.1953C60.3418 11.6556 60.4033 12.1683 60.4033 12.7334ZM58.7559 12.877V12.7334C58.7559 12.3916 58.724 12.0749 58.6602 11.7832C58.5964 11.487 58.4961 11.2272 58.3594 11.0039C58.2227 10.7806 58.0472 10.6074 57.833 10.4844C57.6234 10.3568 57.3704 10.293 57.0742 10.293C56.7826 10.293 56.5319 10.3431 56.3223 10.4434C56.1126 10.5391 55.9372 10.6735 55.7959 10.8467C55.6546 11.0199 55.5452 11.2227 55.4678 11.4551C55.3903 11.6829 55.3356 11.9313 55.3037 12.2002V13.5264C55.3584 13.8545 55.4518 14.1553 55.584 14.4287C55.7161 14.7021 55.903 14.9209 56.1445 15.085C56.3906 15.2445 56.7051 15.3242 57.0879 15.3242C57.3841 15.3242 57.637 15.2604 57.8467 15.1328C58.0563 15.0052 58.2272 14.8298 58.3594 14.6064C58.4961 14.3786 58.5964 14.1165 58.6602 13.8203C58.724 13.5241 58.7559 13.2096 58.7559 12.877ZM65.1953 9.10352V10.3066H61.0254V9.10352H65.1953ZM62.2285 7.29199H63.876V14.4561C63.876 14.6839 63.9079 14.8594 63.9717 14.9824C64.04 15.1009 64.1335 15.1807 64.252 15.2217C64.3704 15.2627 64.5094 15.2832 64.6689 15.2832C64.7829 15.2832 64.8923 15.2764 64.9971 15.2627C65.1019 15.249 65.1862 15.2354 65.25 15.2217L65.2568 16.4795C65.1201 16.5205 64.9606 16.557 64.7783 16.5889C64.6006 16.6208 64.3955 16.6367 64.1631 16.6367C63.7848 16.6367 63.4499 16.5706 63.1582 16.4385C62.8665 16.3018 62.6387 16.0807 62.4746 15.7754C62.3105 15.4701 62.2285 15.0645 62.2285 14.5586V7.29199ZM65.9883 12.8838V12.7266C65.9883 12.1934 66.0658 11.6989 66.2207 11.2432C66.3757 10.7829 66.599 10.3841 66.8906 10.0469C67.1868 9.70508 67.5469 9.44076 67.9707 9.25391C68.3991 9.0625 68.8822 8.9668 69.4199 8.9668C69.9622 8.9668 70.4453 9.0625 70.8691 9.25391C71.2975 9.44076 71.6598 9.70508 71.9561 10.0469C72.2523 10.3841 72.4779 10.7829 72.6328 11.2432C72.7878 11.6989 72.8652 12.1934 72.8652 12.7266V12.8838C72.8652 13.417 72.7878 13.9115 72.6328 14.3672C72.4779 14.8229 72.2523 15.2217 71.9561 15.5635C71.6598 15.9007 71.2998 16.165 70.876 16.3564C70.4521 16.5433 69.9714 16.6367 69.4336 16.6367C68.8913 16.6367 68.4059 16.5433 67.9775 16.3564C67.5537 16.165 67.1937 15.9007 66.8975 15.5635C66.6012 15.2217 66.3757 14.8229 66.2207 14.3672C66.0658 13.9115 65.9883 13.417 65.9883 12.8838ZM67.6357 12.7266V12.8838C67.6357 13.2165 67.6699 13.5309 67.7383 13.8271C67.8066 14.1234 67.9137 14.3831 68.0596 14.6064C68.2054 14.8298 68.3923 15.0052 68.6201 15.1328C68.848 15.2604 69.1191 15.3242 69.4336 15.3242C69.7389 15.3242 70.0033 15.2604 70.2266 15.1328C70.4544 15.0052 70.6413 14.8298 70.7871 14.6064C70.9329 14.3831 71.04 14.1234 71.1084 13.8271C71.1813 13.5309 71.2178 13.2165 71.2178 12.8838V12.7266C71.2178 12.3984 71.1813 12.0885 71.1084 11.7969C71.04 11.5007 70.9307 11.2386 70.7803 11.0107C70.6344 10.7829 70.4476 10.6051 70.2197 10.4775C69.9964 10.3454 69.7298 10.2793 69.4199 10.2793C69.11 10.2793 68.8411 10.3454 68.6133 10.4775C68.39 10.6051 68.2054 10.7829 68.0596 11.0107C67.9137 11.2386 67.8066 11.5007 67.7383 11.7969C67.6699 12.0885 67.6357 12.3984 67.6357 12.7266ZM77.2676 15.3242C77.5365 15.3242 77.778 15.2718 77.9922 15.167C78.2109 15.0576 78.3864 14.9072 78.5186 14.7158C78.6553 14.5244 78.7305 14.3034 78.7441 14.0527H80.2959C80.2868 14.5312 80.1455 14.9665 79.8721 15.3584C79.5986 15.7503 79.2363 16.0625 78.7852 16.2949C78.334 16.5228 77.835 16.6367 77.2881 16.6367C76.723 16.6367 76.2308 16.541 75.8115 16.3496C75.3923 16.1536 75.0436 15.8848 74.7656 15.543C74.4876 15.2012 74.278 14.807 74.1367 14.3604C74 13.9137 73.9316 13.4352 73.9316 12.9248V12.6855C73.9316 12.1751 74 11.6966 74.1367 11.25C74.278 10.7988 74.4876 10.4023 74.7656 10.0605C75.0436 9.71875 75.3923 9.45215 75.8115 9.26074C76.2308 9.06478 76.7207 8.9668 77.2812 8.9668C77.8737 8.9668 78.3932 9.08529 78.8398 9.32227C79.2865 9.55469 79.6374 9.88053 79.8926 10.2998C80.1523 10.7145 80.2868 11.1976 80.2959 11.749H78.7441C78.7305 11.4756 78.6621 11.2295 78.5391 11.0107C78.4206 10.7874 78.252 10.6097 78.0332 10.4775C77.819 10.3454 77.5615 10.2793 77.2607 10.2793C76.9281 10.2793 76.6523 10.3477 76.4336 10.4844C76.2148 10.6165 76.0439 10.7988 75.9209 11.0312C75.7979 11.2591 75.709 11.5166 75.6543 11.8037C75.6042 12.0863 75.5791 12.3802 75.5791 12.6855V12.9248C75.5791 13.2301 75.6042 13.5264 75.6543 13.8135C75.7044 14.1006 75.791 14.3581 75.9141 14.5859C76.0417 14.8092 76.2148 14.9893 76.4336 15.126C76.6523 15.2581 76.9303 15.3242 77.2676 15.3242ZM86.0107 14.7568V9.10352H87.665V16.5H86.1064L86.0107 14.7568ZM86.2432 13.2188L86.7969 13.2051C86.7969 13.7018 86.7422 14.1598 86.6328 14.5791C86.5234 14.9938 86.3548 15.3561 86.127 15.666C85.8991 15.9714 85.6074 16.2106 85.252 16.3838C84.8965 16.5524 84.4704 16.6367 83.9736 16.6367C83.6136 16.6367 83.2832 16.5843 82.9824 16.4795C82.6816 16.3747 82.4219 16.2129 82.2031 15.9941C81.9889 15.7754 81.8226 15.4906 81.7041 15.1396C81.5856 14.7887 81.5264 14.3695 81.5264 13.8818V9.10352H83.1738V13.8955C83.1738 14.1644 83.2057 14.39 83.2695 14.5723C83.3333 14.75 83.4199 14.8936 83.5293 15.0029C83.6387 15.1123 83.7663 15.1898 83.9121 15.2354C84.0579 15.2809 84.2129 15.3037 84.377 15.3037C84.8464 15.3037 85.2155 15.2126 85.4844 15.0303C85.7578 14.8434 85.9515 14.5928 86.0654 14.2783C86.1839 13.9639 86.2432 13.6107 86.2432 13.2188ZM91.0078 10.5117V16.5H89.3604V9.10352H90.9326L91.0078 10.5117ZM93.2705 9.05566L93.2568 10.5869C93.1566 10.5687 93.0472 10.555 92.9287 10.5459C92.8148 10.5368 92.7008 10.5322 92.5869 10.5322C92.3044 10.5322 92.056 10.5732 91.8418 10.6553C91.6276 10.7327 91.4476 10.8467 91.3018 10.9971C91.1605 11.1429 91.0511 11.3206 90.9736 11.5303C90.8962 11.7399 90.8506 11.9746 90.8369 12.2344L90.4609 12.2617C90.4609 11.7969 90.5065 11.3662 90.5977 10.9697C90.6888 10.5732 90.8255 10.2246 91.0078 9.92383C91.1947 9.62305 91.4271 9.38835 91.7051 9.21973C91.9876 9.05111 92.3135 8.9668 92.6826 8.9668C92.7829 8.9668 92.89 8.97591 93.0039 8.99414C93.1224 9.01237 93.2113 9.03288 93.2705 9.05566ZM95.957 10.5117V16.5H94.3096V9.10352H95.8818L95.957 10.5117ZM98.2197 9.05566L98.2061 10.5869C98.1058 10.5687 97.9964 10.555 97.8779 10.5459C97.764 10.5368 97.6501 10.5322 97.5361 10.5322C97.2536 10.5322 97.0052 10.5732 96.791 10.6553C96.5768 10.7327 96.3968 10.8467 96.251 10.9971C96.1097 11.1429 96.0003 11.3206 95.9229 11.5303C95.8454 11.7399 95.7998 11.9746 95.7861 12.2344L95.4102 12.2617C95.4102 11.7969 95.4557 11.3662 95.5469 10.9697C95.638 10.5732 95.7747 10.2246 95.957 9.92383C96.1439 9.62305 96.3763 9.38835 96.6543 9.21973C96.9368 9.05111 97.2627 8.9668 97.6318 8.9668C97.7321 8.9668 97.8392 8.97591 97.9531 8.99414C98.0716 9.01237 98.1605 9.03288 98.2197 9.05566ZM102.376 16.6367C101.829 16.6367 101.335 16.5479 100.893 16.3701C100.455 16.1878 100.081 15.9349 99.7715 15.6113C99.4661 15.2878 99.2314 14.9072 99.0674 14.4697C98.9033 14.0322 98.8213 13.5605 98.8213 13.0547V12.7812C98.8213 12.2025 98.9056 11.6784 99.0742 11.209C99.2428 10.7396 99.4775 10.3385 99.7783 10.0059C100.079 9.66862 100.435 9.41113 100.845 9.2334C101.255 9.05566 101.699 8.9668 102.178 8.9668C102.706 8.9668 103.169 9.05566 103.565 9.2334C103.962 9.41113 104.29 9.66178 104.55 9.98535C104.814 10.3044 105.01 10.6849 105.138 11.127C105.27 11.569 105.336 12.0566 105.336 12.5898V13.2939H99.6211V12.1113H103.709V11.9814C103.7 11.6852 103.641 11.4072 103.531 11.1475C103.426 10.8877 103.265 10.6781 103.046 10.5186C102.827 10.359 102.535 10.2793 102.171 10.2793C101.897 10.2793 101.654 10.3385 101.439 10.457C101.23 10.571 101.054 10.7373 100.913 10.9561C100.772 11.1748 100.662 11.4391 100.585 11.749C100.512 12.0544 100.476 12.3984 100.476 12.7812V13.0547C100.476 13.3783 100.519 13.679 100.605 13.957C100.697 14.2305 100.829 14.4697 101.002 14.6748C101.175 14.8799 101.385 15.0417 101.631 15.1602C101.877 15.2741 102.157 15.3311 102.472 15.3311C102.868 15.3311 103.221 15.2513 103.531 15.0918C103.841 14.9323 104.11 14.7067 104.338 14.415L105.206 15.2559C105.047 15.4883 104.839 15.7116 104.584 15.9258C104.329 16.1354 104.017 16.3063 103.647 16.4385C103.283 16.5706 102.859 16.6367 102.376 16.6367ZM108.255 10.6826V16.5H106.607V9.10352H108.159L108.255 10.6826ZM107.961 12.5283L107.428 12.5215C107.432 11.9974 107.505 11.5166 107.646 11.0791C107.792 10.6416 107.993 10.2656 108.248 9.95117C108.508 9.63672 108.818 9.39518 109.178 9.22656C109.538 9.05339 109.939 8.9668 110.381 8.9668C110.736 8.9668 111.058 9.01693 111.345 9.11719C111.636 9.21289 111.885 9.37012 112.09 9.58887C112.299 9.80762 112.459 10.0924 112.568 10.4434C112.678 10.7897 112.732 11.2158 112.732 11.7217V16.5H111.078V11.7148C111.078 11.3594 111.026 11.0791 110.921 10.874C110.821 10.6644 110.673 10.5163 110.477 10.4297C110.285 10.3385 110.046 10.293 109.759 10.293C109.476 10.293 109.223 10.3522 109 10.4707C108.777 10.5892 108.588 10.751 108.433 10.9561C108.282 11.1611 108.166 11.3981 108.084 11.667C108.002 11.9359 107.961 12.223 107.961 12.5283ZM117.436 15.3242C117.704 15.3242 117.946 15.2718 118.16 15.167C118.379 15.0576 118.554 14.9072 118.687 14.7158C118.823 14.5244 118.898 14.3034 118.912 14.0527H120.464C120.455 14.5312 120.313 14.9665 120.04 15.3584C119.767 15.7503 119.404 16.0625 118.953 16.2949C118.502 16.5228 118.003 16.6367 117.456 16.6367C116.891 16.6367 116.399 16.541 115.979 16.3496C115.56 16.1536 115.212 15.8848 114.934 15.543C114.656 15.2012 114.446 14.807 114.305 14.3604C114.168 13.9137 114.1 13.4352 114.1 12.9248V12.6855C114.1 12.1751 114.168 11.6966 114.305 11.25C114.446 10.7988 114.656 10.4023 114.934 10.0605C115.212 9.71875 115.56 9.45215 115.979 9.26074C116.399 9.06478 116.889 8.9668 117.449 8.9668C118.042 8.9668 118.561 9.08529 119.008 9.32227C119.454 9.55469 119.805 9.88053 120.061 10.2998C120.32 10.7145 120.455 11.1976 120.464 11.749H118.912C118.898 11.4756 118.83 11.2295 118.707 11.0107C118.589 10.7874 118.42 10.6097 118.201 10.4775C117.987 10.3454 117.729 10.2793 117.429 10.2793C117.096 10.2793 116.82 10.3477 116.602 10.4844C116.383 10.6165 116.212 10.7988 116.089 11.0312C115.966 11.2591 115.877 11.5166 115.822 11.8037C115.772 12.0863 115.747 12.3802 115.747 12.6855V12.9248C115.747 13.2301 115.772 13.5264 115.822 13.8135C115.872 14.1006 115.959 14.3581 116.082 14.5859C116.21 14.8092 116.383 14.9893 116.602 15.126C116.82 15.2581 117.098 15.3242 117.436 15.3242ZM123.875 15.6934L125.885 9.10352H127.648L124.682 17.6279C124.613 17.8102 124.524 18.0085 124.415 18.2227C124.306 18.4368 124.162 18.6396 123.984 18.8311C123.811 19.027 123.595 19.1842 123.335 19.3027C123.075 19.4258 122.761 19.4873 122.392 19.4873C122.246 19.4873 122.104 19.4736 121.968 19.4463C121.836 19.4235 121.71 19.3984 121.592 19.3711L121.585 18.1133C121.631 18.1178 121.685 18.1224 121.749 18.127C121.817 18.1315 121.872 18.1338 121.913 18.1338C122.187 18.1338 122.414 18.0996 122.597 18.0312C122.779 17.9674 122.927 17.8626 123.041 17.7168C123.16 17.571 123.26 17.375 123.342 17.1289L123.875 15.6934ZM122.74 9.10352L124.497 14.6406L124.791 16.377L123.649 16.6709L120.963 9.10352H122.74Z" fill="#292929"/>
</svg>
