<svg width="56" height="15" viewBox="0 0 56 15" fill="none" xmlns="http://www.w3.org/2000/svg">
<path d="M9.80988 0.836468C9.1205 0.362549 8.22092 0.125015 7.11114 0.125015H2.81467C2.47446 0.125015 2.2865 0.295163 2.25079 0.63513L0.505479 11.5909C0.487339 11.6985 0.514261 11.7969 0.585997 11.8864C0.657323 11.976 0.747035 12.0206 0.854476 12.0206H2.89527C3.25322 12.0206 3.44996 11.8509 3.48607 11.5105L3.96935 8.55682C3.987 8.41367 4.04995 8.29729 4.15739 8.20766C4.26475 8.11819 4.39903 8.05967 4.56015 8.03291C4.72127 8.00632 4.8732 7.99286 5.01667 7.99286C5.15973 7.99286 5.32971 8.00197 5.52695 8.01978C5.72369 8.03759 5.84911 8.04637 5.90287 8.04637C7.44233 8.04637 8.65069 7.61259 9.52802 6.74404C10.4049 5.87598 10.8439 4.67222 10.8439 3.13227C10.8439 2.07609 10.4989 1.31088 9.80988 0.836222V0.836468ZM7.59467 4.12616C7.50487 4.75282 7.27243 5.16436 6.89651 5.36135C6.52051 5.55859 5.98347 5.65675 5.28539 5.65675L4.39919 5.68351L4.85579 2.8102C4.89142 2.61346 5.00772 2.51497 5.20479 2.51497H5.71515C6.43088 2.51497 6.95035 2.61814 7.27259 2.82366C7.59467 3.02968 7.70211 3.46395 7.59467 4.12616Z" fill="#003087"/>
<path d="M55.1475 0.125H53.1606C52.9631 0.125 52.8469 0.223495 52.8115 0.420564L51.066 11.5914L51.0391 11.6451C51.0391 11.735 51.0749 11.8197 51.1467 11.9003C51.2178 11.9807 51.3078 12.021 51.4151 12.021H53.1876C53.5272 12.021 53.7152 11.8513 53.7516 11.5109L55.4969 0.528004V0.501329C55.4968 0.25058 55.3801 0.125329 55.1475 0.125329V0.125Z" fill="#009CDE"/>
<path d="M31.1473 4.44867C31.1473 4.35937 31.1114 4.27417 31.0402 4.19382C30.9684 4.1133 30.8878 4.07275 30.7985 4.07275H28.7309C28.5335 4.07275 28.3724 4.16271 28.2473 4.34123L25.401 8.53042L24.2195 4.50252C24.1295 4.21631 23.9329 4.07275 23.6288 4.07275H21.6145C21.5247 4.07275 21.4442 4.11314 21.3731 4.19382C21.3012 4.27417 21.2656 4.35953 21.2656 4.44867C21.2656 4.4847 21.4402 5.01263 21.7892 6.03303C22.1382 7.05375 22.5141 8.15474 22.917 9.33634C23.3198 10.5177 23.53 11.1446 23.548 11.2156C22.0799 13.2209 21.3462 14.295 21.3462 14.438C21.3462 14.6709 21.4624 14.7871 21.6953 14.7871H23.763C23.9598 14.7871 24.1208 14.6978 24.2464 14.5188L31.094 4.63655C31.1295 4.60109 31.1473 4.53871 31.1473 4.44859V4.44867Z" fill="#003087"/>
<path d="M50.3969 4.07286H48.356C48.1051 4.07286 47.9535 4.36834 47.8998 4.95923C47.4337 4.24334 46.584 3.8849 45.3485 3.8849C44.0596 3.8849 42.963 4.36835 42.0591 5.33507C41.155 6.30179 40.7031 7.4389 40.7031 8.74559C40.7031 9.80202 41.0119 10.6433 41.6294 11.2697C42.247 11.8967 43.0748 12.2095 44.1135 12.2095C44.6326 12.2095 45.1607 12.1019 45.6977 11.8873C46.2347 11.6725 46.655 11.3862 46.96 11.028C46.96 11.046 46.9417 11.1263 46.9063 11.2694C46.8701 11.4129 46.8524 11.5207 46.8524 11.5917C46.8524 11.8784 46.9685 12.0213 47.2016 12.0213H49.0546C49.3943 12.0213 49.5914 11.8515 49.645 11.5111L50.7461 4.50246C50.7638 4.39494 50.737 4.29669 50.6655 4.20706C50.5935 4.11776 50.5042 4.07286 50.3969 4.07286ZM46.8927 9.36315C46.4361 9.81072 45.8856 10.0344 45.2412 10.0344C44.7218 10.0344 44.3015 9.89141 43.9791 9.60479C43.6567 9.31899 43.4956 8.9251 43.4956 8.42327C43.4956 7.76139 43.7194 7.20145 44.1671 6.74501C44.614 6.28849 45.1695 6.06031 45.8319 6.06031C46.3327 6.06031 46.749 6.20797 47.0805 6.50321C47.4114 6.79869 47.5775 7.20596 47.5775 7.72527C47.5773 8.36967 47.3491 8.91582 46.8927 9.36315Z" fill="#009CDE"/>
<path d="M19.8894 4.07286H17.8485C17.5975 4.07286 17.4457 4.36834 17.3919 4.95923C16.9085 4.24334 16.0581 3.8849 14.8408 3.8849C13.5519 3.8849 12.4552 4.36835 11.5513 5.33507C10.6472 6.30179 10.1953 7.4389 10.1953 8.74559C10.1953 9.80202 10.5042 10.6433 11.1218 11.2697C11.7394 11.8967 12.5672 12.2095 13.6056 12.2095C14.1066 12.2095 14.6261 12.1019 15.1631 11.8873C15.7001 11.6725 16.1298 11.3862 16.452 11.028C16.3802 11.2427 16.3446 11.4307 16.3446 11.5917C16.3446 11.8784 16.4609 12.0213 16.6937 12.0213H18.5465C18.8864 12.0213 19.0835 11.8515 19.1373 11.5111L20.2382 4.50246C20.2558 4.39494 20.2291 4.29669 20.1577 4.20706C20.086 4.11776 19.9966 4.07286 19.8894 4.07286ZM16.385 9.37645C15.9284 9.81557 15.3688 10.0344 14.7068 10.0344C14.1873 10.0344 13.7711 9.89141 13.4581 9.60479C13.1446 9.31899 12.9881 8.9251 12.9881 8.42327C12.9881 7.76139 13.2118 7.20145 13.6595 6.74501C14.1067 6.28849 14.6617 6.06023 15.3244 6.06023C15.8254 6.06023 16.2416 6.20797 16.5731 6.50321C16.904 6.79869 17.0698 7.20596 17.0698 7.72527C17.0697 8.38765 16.8416 8.93831 16.385 9.37645Z" fill="#003087"/>
<path d="M40.3178 0.836453C39.6285 0.362534 38.7292 0.125 37.6192 0.125H33.3495C32.9914 0.125 32.7943 0.295148 32.7588 0.635115L31.0133 11.5909C30.9952 11.6985 31.0221 11.7969 31.0939 11.8864C31.1649 11.976 31.2548 12.0206 31.3623 12.0206H33.5641C33.7789 12.0206 33.9221 11.9044 33.9939 11.6716L34.4772 8.5568C34.495 8.41366 34.5577 8.29727 34.6653 8.20764C34.7727 8.11818 34.9068 8.05966 35.0681 8.0329C35.2291 8.00631 35.381 7.99284 35.5245 7.99284C35.6677 7.99284 35.8376 8.00196 36.0347 8.01977C36.2315 8.03758 36.3572 8.04636 36.4106 8.04636C37.9504 8.04636 39.1585 7.61258 40.0358 6.74402C40.9131 5.87597 41.3516 4.67221 41.3516 3.13226C41.3517 2.07608 41.0069 1.31078 40.3178 0.836206V0.836453ZM37.5655 5.25382C37.1716 5.52229 36.5807 5.65649 35.7933 5.65649L34.9338 5.68341L35.3904 2.81002C35.4258 2.61336 35.5422 2.5147 35.7393 2.5147H36.2225C36.6164 2.5147 36.9296 2.53268 37.1627 2.56838C37.395 2.60433 37.6192 2.71604 37.834 2.90392C38.0489 3.09196 38.1562 3.36512 38.1562 3.72298C38.1562 4.47514 37.9591 4.98509 37.5655 5.25382Z" fill="#009CDE"/>
</svg>
