<svg width="64" height="14" viewBox="0 0 64 14" fill="none" xmlns="http://www.w3.org/2000/svg">
<path d="M41.4575 4.9924C40.3804 4.08968 39.0798 3.6484 37.5765 3.6484C36.0936 3.6484 34.7931 4.09024 33.7153 4.9924C32.6382 5.87552 32.0906 7.10472 32.0906 8.67944C32.0906 10.2542 32.6382 11.4822 33.7153 12.385C34.7925 13.2681 36.0936 13.7099 37.5765 13.7099C39.0798 13.7099 40.3804 13.2681 41.4575 12.385C42.5552 11.4822 43.1028 10.2536 43.1028 8.67944C43.1028 7.10528 42.5546 5.87552 41.4575 4.9924ZM35.5454 10.6949C34.9772 10.1769 34.691 9.50432 34.691 8.67888C34.691 7.85344 34.9748 7.18144 35.5454 6.68192C35.8099 6.43284 36.1264 6.23631 36.4755 6.10432C36.8245 5.97232 37.1989 5.90762 37.5759 5.91416C37.9559 5.90756 38.3335 5.97215 38.686 6.10407C39.0386 6.23599 39.3588 6.43253 39.6275 6.68192C40.2155 7.18144 40.5017 7.85288 40.5017 8.67888C40.5017 9.50488 40.218 10.1763 39.6275 10.6949C39.0593 11.1938 38.368 11.4436 37.5759 11.4436C37.2009 11.4491 36.8285 11.3858 36.48 11.2573C36.1315 11.1288 35.8139 10.9377 35.5454 10.6949ZM46.9452 13.4406V0.26488H44.3852V13.4406H46.9452ZM55.2079 3.9172V9.17448C55.2079 10.4412 54.4833 11.2812 53.1043 11.2812C51.7017 11.2812 50.9965 10.4423 50.9965 9.17448V3.9172H48.4317V9.57768C48.4317 11.7706 49.8946 13.7094 53.1043 13.7094H53.1242C56.314 13.7094 57.7745 11.7275 57.7745 9.57768V3.9172H55.2079ZM29.3663 3.9172L26.8063 10.3684L24.2463 3.9172H21.5239L25.6091 13.4411H28.0072L32.0918 3.9172H29.3663ZM21.536 8.41008C21.536 7.028 21.0693 5.89512 20.1546 4.9924C19.2398 4.08968 18.0631 3.6484 16.6201 3.6484C15.1372 3.6484 13.8765 4.12888 12.8405 5.06912C11.8237 6.01048 11.3171 7.20048 11.3171 8.67888C11.3171 10.1573 11.8249 11.3674 12.8205 12.3077C13.8373 13.249 15.0563 13.7094 16.4987 13.7094C18.7146 13.7094 20.2783 12.7876 21.2317 10.925L19.3226 9.88792C18.694 11.0589 17.7781 11.6351 16.5392 11.6351C15.0158 11.6351 13.9387 10.7134 13.7757 9.25456H21.5354V8.40952L21.536 8.41008ZM16.5374 5.49136C17.9798 5.49136 18.9355 6.25912 19.1789 7.48832H13.7745C14.1615 6.35544 15.2169 5.49136 16.538 5.49136H16.5374ZM11.3165 13.4406L7.88166 7.75768C10.0546 7.00896 11.1318 5.7036 11.1318 3.8024C11.1342 1.47896 9.18219 0 6.07396 0H0V13.4406H2.68196V7.98784H4.95819L8.24875 13.4411L11.3165 13.4406ZM6.07396 2.22712C7.65887 2.22712 8.45162 2.8224 8.45162 3.99336C8.45162 5.16432 7.65826 5.7596 6.07396 5.7596H2.68196V2.22712H6.07396ZM62.1144 13.7094C60.4667 13.7094 59.1306 12.446 59.1306 10.887V1.344H61.6906V3.92056H63.8859V5.87888H61.6906V10.7313C61.6906 11.1882 62.0824 11.5584 62.5666 11.5584H63.8859V13.7094H62.1144Z" fill="black"/>
</svg>
