<svg width="135" height="16" viewBox="0 0 135 16" fill="none" xmlns="http://www.w3.org/2000/svg">
<g clip-path="url(#clip0_7700_266060)">
<path fill-rule="evenodd" clip-rule="evenodd" d="M8.22509 4.99051L14.9583 8.59915V11.2964L8.22509 7.69515C7.99912 7.57233 7.74154 7.50754 7.47917 7.50754C7.2168 7.50754 6.95922 7.57233 6.73325 7.69515L0 11.2964V8.59915L6.73325 4.99051C6.95922 4.86769 7.2168 4.8029 7.47917 4.8029C7.74154 4.8029 7.99912 4.86769 8.22509 4.99051ZM1.10093 12.8031L6.68538 9.81183C6.92793 9.68282 7.20308 9.6149 7.48316 9.6149C7.76324 9.6149 8.03838 9.68282 8.28094 9.81183L13.8654 12.8031L8.28094 15.8017C8.03838 15.9307 7.76324 15.9987 7.48316 15.9987C7.20308 15.9987 6.92793 15.9307 6.68538 15.8017L1.10093 12.8031ZM8.22509 0.1839L14.9583 3.79254V6.48983L8.22509 2.88854C7.99912 2.76571 7.74154 2.70093 7.47917 2.70093C7.2168 2.70093 6.95922 2.76571 6.73325 2.88854L0 6.48983V3.79254L6.73325 0.1839C6.96055 0.0646954 7.21761 0.00201416 7.47917 0.00201416C7.74072 0.00201416 7.99778 0.0646954 8.22509 0.1839Z" fill="#0099FF"/>
<path d="M20.3047 2.93982C20.3068 2.85728 20.3438 2.77878 20.4079 2.72109C20.472 2.6634 20.5581 2.63112 20.6477 2.63114H24.3175C24.8539 2.62896 25.3889 2.68071 25.9131 2.78548C26.3983 2.88191 26.8606 3.05872 27.2773 3.3073C27.6778 3.5442 28.007 3.87027 28.2346 4.25539C28.4872 4.69368 28.611 5.18522 28.5936 5.68121C28.6246 6.36864 28.3707 7.04121 27.8836 7.5627C27.458 7.96941 26.9202 8.26161 26.3279 8.4079C26.2788 8.42258 26.2338 8.44708 26.1961 8.47963C26.1585 8.51218 26.1291 8.55198 26.11 8.5962C26.091 8.64043 26.0827 8.68797 26.0859 8.73546C26.0891 8.78295 26.1036 8.8292 26.1285 8.87092L28.7212 12.7588C28.7519 12.8063 28.7686 12.8604 28.7695 12.9156C28.7705 12.9709 28.7557 13.0254 28.7266 13.0737C28.6976 13.1221 28.6553 13.1625 28.6039 13.1911C28.5526 13.2197 28.494 13.2354 28.434 13.2366H26.7348C26.6745 13.2359 26.6155 13.2206 26.5636 13.1922C26.5118 13.1638 26.469 13.1233 26.4396 13.0749L23.9346 8.89297C23.9065 8.84346 23.864 8.80212 23.8119 8.77356C23.7597 8.74501 23.7 8.73037 23.6394 8.73128H22.6821C22.6374 8.7303 22.593 8.73756 22.5514 8.75263C22.5098 8.7677 22.4719 8.79029 22.44 8.81905C22.408 8.84781 22.3826 8.88217 22.3653 8.92011C22.3479 8.95805 22.339 8.9988 22.339 9.03996V12.9205C22.339 13.0043 22.3029 13.0847 22.2385 13.144C22.1742 13.2033 22.087 13.2366 21.996 13.2366H20.6477C20.5567 13.2366 20.4695 13.2033 20.4052 13.144C20.3408 13.0847 20.3047 13.0043 20.3047 12.9205V2.93982ZM24.0383 7.20992C24.3346 7.20861 24.6304 7.18897 24.9238 7.15112C25.2022 7.11884 25.4722 7.04172 25.7216 6.92328C25.9689 6.81009 26.1784 6.63741 26.3279 6.42351C26.4929 6.19033 26.5739 5.91514 26.5593 5.63711C26.5756 5.37813 26.5031 5.12098 26.3518 4.90215C26.211 4.71616 26.0253 4.56272 25.8094 4.45383C25.5788 4.33907 25.3273 4.26433 25.0674 4.23334C24.804 4.19052 24.5371 4.16839 24.2696 4.1672H22.339V7.18052L24.0383 7.20992Z" fill="#0099FF"/>
<path d="M37.4065 9.72348C37.4119 9.85821 37.3668 9.99054 37.2789 10.0983C37.1684 10.1675 37.0375 10.2034 36.9039 10.2012H31.4392C31.4553 10.4582 31.5315 10.7089 31.6625 10.9362C31.7884 11.149 31.9561 11.3384 32.1572 11.4947C32.3693 11.6497 32.6061 11.7737 32.8592 11.8622C33.115 11.9478 33.3848 11.9925 33.657 11.9945C34.0919 12.0152 34.5255 11.9343 34.9175 11.7593C35.1503 11.6489 35.3587 11.4994 35.5318 11.3183C35.5904 11.2562 35.6727 11.2171 35.7616 11.2089C35.8506 11.2007 35.9395 11.2241 36.0104 11.2742L36.8082 11.8402C36.8451 11.8653 36.8761 11.8972 36.899 11.9339C36.922 11.9705 36.9366 12.0111 36.9418 12.0531C36.9471 12.0952 36.9429 12.1378 36.9295 12.1783C36.9161 12.2187 36.8938 12.2563 36.864 12.2885C36.4676 12.6879 35.9803 13.0018 35.4369 13.2076C34.8936 13.4134 34.3076 13.5061 33.7208 13.4791C33.1504 13.4834 32.5835 13.3964 32.0455 13.2219C31.5534 13.0597 31.1007 12.8099 30.7132 12.4869C30.3301 12.1594 30.0304 11.7578 29.8356 11.311C29.6132 10.8073 29.5046 10.2671 29.5165 9.72348C29.5068 9.18237 29.6153 8.645 29.8356 8.14332C30.0319 7.68613 30.3278 7.2709 30.7052 6.92329C31.0694 6.57084 31.506 6.28855 31.9896 6.09279C32.4982 5.9097 33.0392 5.81501 33.5852 5.81351C34.1031 5.8068 34.6177 5.89162 35.101 6.0634C35.5554 6.2213 35.9646 6.47267 36.2976 6.79835C36.658 7.1458 36.9305 7.56245 37.0954 8.01838C37.3063 8.56566 37.4116 9.14274 37.4065 9.72348ZM35.452 8.90768C35.4541 8.68362 35.4191 8.46057 35.3483 8.24622C35.2801 8.04273 35.1659 7.85486 35.0132 7.695C34.8538 7.52599 34.6546 7.39276 34.4308 7.30547C34.1771 7.21222 33.9062 7.16482 33.633 7.16583C33.0863 7.15156 32.5537 7.32735 32.1412 7.65825C31.9432 7.81412 31.7811 8.00502 31.6647 8.21964C31.5482 8.43425 31.4796 8.66822 31.4631 8.90768H35.452Z" fill="#0099FF"/>
<path d="M48.3114 5.81351C48.7653 5.8011 49.2161 5.88668 49.6277 6.0634C49.9756 6.21609 50.2812 6.43978 50.5212 6.71751C50.7647 6.99024 50.9464 7.3051 51.0557 7.64355C51.1612 7.99798 51.2149 8.36379 51.2153 8.73129V12.9205C51.2164 12.9617 51.2085 13.0026 51.1921 13.0409C51.1758 13.0792 51.1512 13.1141 51.12 13.1436C51.0888 13.173 51.0515 13.1964 51.0103 13.2124C50.9691 13.2284 50.9249 13.2366 50.8802 13.2366H49.5799C49.5352 13.2366 49.4909 13.2284 49.4498 13.2124C49.4086 13.1964 49.3713 13.173 49.3401 13.1436C49.3088 13.1141 49.2843 13.0792 49.268 13.0409C49.2516 13.0026 49.2437 12.9617 49.2448 12.9205V9.24576C49.2437 9.02457 49.2277 8.80366 49.1969 8.5843C49.1678 8.36556 49.0947 8.15373 48.9815 7.95958C48.8769 7.77527 48.7232 7.61848 48.5348 7.50391C48.2952 7.37019 48.0163 7.30854 47.737 7.32752C47.4585 7.31764 47.1825 7.37867 46.9392 7.50391C46.7259 7.6224 46.5412 7.78 46.3967 7.96693C46.2574 8.16289 46.155 8.37905 46.0936 8.60635C46.0208 8.84546 45.9858 9.09299 45.9899 9.3413V12.9646C45.9909 13.0058 45.983 13.0467 45.9667 13.085C45.9503 13.1233 45.9258 13.1582 45.8946 13.1877C45.8634 13.2171 45.8261 13.2405 45.7849 13.2565C45.7437 13.2725 45.6995 13.2807 45.6548 13.2807H44.4342C44.3432 13.2807 44.256 13.2474 44.1916 13.1881C44.1273 13.1288 44.0911 13.0485 44.0911 12.9646V8.92238C44.1068 8.525 43.9838 8.13346 43.7401 7.80524C43.6104 7.65371 43.442 7.53412 43.2499 7.45718C43.0578 7.38023 42.848 7.34831 42.6392 7.36427C42.3613 7.35019 42.0847 7.40879 41.8414 7.53331C41.6339 7.64424 41.4545 7.79456 41.3149 7.97428C41.1749 8.16551 41.0698 8.37653 41.0037 8.599C40.9319 8.83829 40.897 9.0857 40.9 9.33395V13.0087C40.9 13.0926 40.8639 13.1729 40.7996 13.2322C40.7352 13.2915 40.648 13.3248 40.557 13.3248H39.2805C39.1896 13.3248 39.1023 13.2915 39.038 13.2322C38.9736 13.1729 38.9375 13.0926 38.9375 13.0087V6.39413C38.9375 6.35296 38.9464 6.31221 38.9637 6.27428C38.9811 6.23634 39.0065 6.20198 39.0384 6.17322C39.0704 6.14445 39.1083 6.12187 39.1499 6.1068C39.1914 6.09173 39.2359 6.08446 39.2805 6.08544H40.4613C40.5501 6.08544 40.6353 6.11797 40.6982 6.17586C40.761 6.23374 40.7963 6.31226 40.7963 6.39413V7.18053C40.8876 6.99751 41.0057 6.82689 41.1473 6.67341C41.3035 6.50789 41.4802 6.35988 41.6739 6.23244C41.8887 6.10064 42.1223 5.99677 42.3679 5.92375C42.6474 5.84703 42.9379 5.80986 43.2295 5.81351C43.7643 5.79451 44.2928 5.92519 44.7453 6.18834C45.1445 6.43696 45.464 6.77957 45.6707 7.18053C45.9128 6.76136 46.274 6.41075 46.7158 6.16629C47.2016 5.914 47.7542 5.79181 48.3114 5.81351Z" fill="#0099FF"/>
<path d="M60.6333 9.72348C60.6414 9.79015 60.6335 9.85766 60.6101 9.92118C60.5866 9.98471 60.5482 10.0427 60.4976 10.091C60.4545 10.1293 60.4031 10.1589 60.3467 10.1779C60.2904 10.1969 60.2304 10.2048 60.1706 10.2012H54.6659C54.682 10.4581 54.7582 10.7089 54.8893 10.9362C55.0151 11.149 55.1829 11.3384 55.3839 11.4947C55.596 11.6497 55.8328 11.7737 56.0859 11.8622C56.3418 11.9478 56.6116 11.9925 56.8837 11.9945C57.316 12.0139 57.7467 11.9331 58.1362 11.7593C58.3702 11.6472 58.5808 11.4979 58.7585 11.3183C58.8158 11.2567 58.8966 11.2178 58.9843 11.2096C59.0719 11.2014 59.1596 11.2245 59.2292 11.2742L60.027 11.8402C60.0639 11.8653 60.0948 11.8972 60.1178 11.9338C60.1408 11.9705 60.1554 12.0111 60.1606 12.0531C60.1658 12.0952 60.1616 12.1378 60.1482 12.1783C60.1349 12.2187 60.1126 12.2563 60.0828 12.2885C59.6864 12.6879 59.1991 13.0018 58.6557 13.2076C58.1123 13.4134 57.5263 13.5061 56.9396 13.4791C56.3691 13.4834 55.8023 13.3964 55.2642 13.2219C54.7721 13.0597 54.3195 12.8099 53.9319 12.4869C53.5514 12.1574 53.2521 11.7563 53.0544 11.311C52.8319 10.8073 52.7233 10.2671 52.7353 9.72348C52.7255 9.18237 52.8341 8.64499 53.0544 8.14332C53.2528 7.68717 53.5485 7.27232 53.9239 6.92329C54.2882 6.57084 54.7248 6.28855 55.2084 6.09279C55.7169 5.9097 56.2579 5.81501 56.8039 5.81351C57.3192 5.80773 57.8309 5.89254 58.3117 6.06339C58.7661 6.2213 59.1754 6.47267 59.5084 6.79835C59.8657 7.14795 60.1378 7.56393 60.3062 8.01838C60.519 8.56564 60.6296 9.14217 60.6333 9.72348ZM58.6787 8.90767C58.6808 8.68361 58.6458 8.46057 58.575 8.24621C58.5068 8.04273 58.3926 7.85486 58.2399 7.695C58.0805 7.52599 57.8813 7.39276 57.6575 7.30547C57.4038 7.21222 57.133 7.16481 56.8598 7.16583C56.313 7.15156 55.7804 7.32735 55.3679 7.65825C55.1699 7.81412 55.0079 8.00502 54.8914 8.21963C54.7749 8.43425 54.7064 8.66821 54.6898 8.90767H58.6787Z" fill="#0099FF"/>
<path d="M66.5014 7.84933C66.3897 7.84933 66.3019 7.76114 66.1982 7.67294C66.0622 7.56896 65.9152 7.47786 65.7594 7.40101C65.4544 7.24515 65.111 7.16416 64.7622 7.16582C64.4631 7.16203 64.1675 7.22507 63.9006 7.34956C63.7773 7.40026 63.6739 7.48444 63.604 7.59084C63.5341 7.69724 63.5012 7.82077 63.5097 7.94488C63.5031 8.07349 63.5413 8.20067 63.6188 8.3078C63.6963 8.41493 63.8091 8.49637 63.9405 8.54019C64.3509 8.69289 64.7754 8.81097 65.209 8.89297C65.51 8.95447 65.8059 9.03551 66.0945 9.13551C66.3811 9.22905 66.6502 9.36293 66.8923 9.53238C67.1395 9.69415 67.344 9.90516 67.4906 10.1497C67.651 10.4174 67.7334 10.7187 67.7299 11.0243C67.7426 11.4133 67.6522 11.7993 67.4667 12.1488C67.2908 12.4407 67.0453 12.692 66.7487 12.8838C66.4309 13.0792 66.0765 13.2188 65.7036 13.2954C65.3002 13.378 64.8882 13.4199 64.475 13.4203C63.8662 13.421 63.2627 13.3163 62.696 13.1116C62.2659 12.9717 61.8662 12.7627 61.5152 12.4943C61.4809 12.4653 61.4535 12.4301 61.4347 12.3909C61.4159 12.3517 61.4062 12.3093 61.4062 12.2664C61.4062 12.2236 61.4159 12.1812 61.4347 12.1419C61.4535 12.1027 61.4809 12.0675 61.5152 12.0386L62.313 11.3698C62.3771 11.3123 62.463 11.2802 62.5524 11.2802C62.6418 11.2802 62.7276 11.3123 62.7917 11.3698C62.9779 11.5324 63.1872 11.6708 63.414 11.7813C63.7706 11.9529 64.1685 12.0388 64.5707 12.0312C64.7157 12.0311 64.8601 12.0163 65.0015 11.9871C65.1439 11.9594 65.281 11.9124 65.4084 11.8475C65.5313 11.7833 65.6353 11.6925 65.7116 11.5829C65.7904 11.4609 65.8292 11.3205 65.8233 11.1787C65.8297 11.0417 65.7904 10.9062 65.7104 10.7905C65.6305 10.6748 65.5139 10.5845 65.3765 10.5319C64.9421 10.3616 64.4905 10.2311 64.0283 10.1424C63.7382 10.082 63.453 10.0034 63.1746 9.90721C62.9079 9.81803 62.6577 9.69161 62.4327 9.53238C62.2143 9.37753 62.037 9.17899 61.9141 8.95177C61.7631 8.68439 61.6889 8.38581 61.6987 8.08452C61.6861 7.72288 61.7798 7.36481 61.97 7.04823C62.1379 6.75345 62.3817 6.5011 62.68 6.31327C62.9843 6.12428 63.3216 5.98505 63.6772 5.9017C64.0487 5.80701 64.4326 5.76002 64.818 5.76206C65.3817 5.76103 65.9411 5.85313 66.4694 6.03399C66.8604 6.16155 67.2189 6.36166 67.5225 6.62196C67.5556 6.6508 67.5819 6.68556 67.5999 6.7241C67.6179 6.76264 67.6272 6.80416 67.6272 6.84612C67.6272 6.88808 67.6179 6.92959 67.5999 6.96814C67.5819 7.00668 67.5556 7.04143 67.5225 7.07028L66.7965 7.65824C66.7965 7.65824 66.621 7.84933 66.5014 7.84933Z" fill="#0099FF"/>
<path d="M73.3995 7.82728C73.2798 7.82728 73.2399 7.78319 73.1522 7.70234C73.0079 7.58613 72.85 7.48507 72.6815 7.40101C72.376 7.24607 72.0329 7.16514 71.6842 7.16582C71.3849 7.16022 71.0888 7.22337 70.8226 7.34956C70.6994 7.40026 70.5959 7.48444 70.526 7.59084C70.4562 7.69724 70.4233 7.82077 70.4317 7.94488C70.4251 8.07349 70.4633 8.20067 70.5409 8.3078C70.6184 8.41493 70.7311 8.49637 70.8625 8.54019C71.2705 8.69198 71.6923 8.81004 72.123 8.89297C72.4243 8.95344 72.7203 9.03451 73.0086 9.13551C73.2948 9.22969 73.5638 9.36352 73.8063 9.53238C74.0493 9.69641 74.2507 9.90704 74.3967 10.1497C74.5626 10.416 74.6506 10.7174 74.652 11.0243C74.6658 11.4142 74.5725 11.801 74.3807 12.1488C74.2093 12.4436 73.9629 12.6958 73.6627 12.8838C73.3457 13.0806 72.9911 13.2203 72.6176 13.2954C72.2143 13.3784 71.8023 13.4203 71.3891 13.4203C70.7804 13.4196 70.1772 13.315 69.61 13.1116C69.18 12.9717 68.7802 12.7627 68.4293 12.4943C68.395 12.4653 68.3675 12.4301 68.3488 12.3909C68.33 12.3517 68.3203 12.3093 68.3203 12.2664C68.3203 12.2236 68.33 12.1812 68.3488 12.1419C68.3675 12.1027 68.395 12.0675 68.4293 12.0386L69.2271 11.3698C69.2925 11.3118 69.3797 11.2795 69.4704 11.2795C69.5611 11.2795 69.6483 11.3118 69.7137 11.3698C69.8985 11.5306 70.105 11.669 70.328 11.7813C70.6855 11.9509 71.0828 12.0367 71.4848 12.0312C71.6297 12.0311 71.7742 12.0163 71.9156 11.9871C72.0609 11.9607 72.2009 11.9136 72.3305 11.8475C72.451 11.7831 72.5524 11.6922 72.6256 11.5829C72.7072 11.4617 72.7488 11.3213 72.7453 11.1787C72.7512 11.0408 72.7106 10.9047 72.6292 10.7889C72.5478 10.6731 72.4295 10.5834 72.2906 10.5319C71.859 10.3614 71.41 10.2309 70.9503 10.1424C70.6597 10.084 70.3743 10.0054 70.0967 9.90721C69.83 9.81803 69.5797 9.69161 69.3547 9.53238C69.1319 9.37993 68.9514 9.18094 68.8282 8.95177C68.681 8.6831 68.6071 8.38543 68.6128 8.08452C68.6015 7.7239 68.6922 7.36678 68.8761 7.04823C69.0463 6.75495 69.2896 6.50306 69.5861 6.31327C69.8907 6.12492 70.228 5.98574 70.5833 5.9017C70.9548 5.80701 71.3387 5.76002 71.7241 5.76206C72.2994 5.77411 72.8673 5.88374 73.3995 6.08544C73.7914 6.21124 74.1501 6.41157 74.4525 6.6734C74.4846 6.70277 74.5101 6.7377 74.5275 6.77617C74.5448 6.81464 74.5538 6.8559 74.5538 6.89756C74.5538 6.93923 74.5448 6.98049 74.5275 7.01896C74.5101 7.05743 74.4846 7.09235 74.4525 7.12173L73.6548 7.73909C73.5803 7.78994 73.4919 7.8205 73.3995 7.82728Z" fill="#0099FF"/>
<path d="M80.8727 12.3179H80.8248C80.604 12.6613 80.276 12.9353 79.8835 13.1043C79.4231 13.3159 78.914 13.4218 78.3996 13.413C78.0583 13.413 77.7183 13.376 77.3864 13.3027C77.0505 13.2316 76.7315 13.1046 76.445 12.9279C76.1537 12.7488 75.9086 12.5129 75.727 12.237C75.5259 11.9159 75.4264 11.5493 75.4398 11.1787C75.4148 10.7045 75.5923 10.2402 75.9345 9.88517C76.2925 9.54893 76.733 9.29687 77.2189 9.15021C77.7889 8.97123 78.3814 8.86008 78.982 8.81948C79.6202 8.76068 80.2425 8.73864 80.8488 8.73864V8.5549C80.8633 8.36045 80.8223 8.16589 80.7299 7.99055C80.6376 7.8152 80.497 7.66517 80.3222 7.55536C79.9461 7.33489 79.5074 7.22234 79.0617 7.23197C78.6485 7.23164 78.2401 7.31441 77.8651 7.47451C77.6227 7.57692 77.3928 7.70255 77.179 7.84934C77.1149 7.9068 77.0291 7.93896 76.9397 7.93896C76.8503 7.93896 76.7644 7.9068 76.7003 7.84934L76.1339 7.23197C76.1021 7.20323 76.0768 7.16893 76.0595 7.13107C76.0422 7.09321 76.0333 7.05255 76.0333 7.01149C76.0333 6.97042 76.0422 6.92977 76.0595 6.89191C76.0768 6.85405 76.1021 6.81974 76.1339 6.791C76.5173 6.50959 76.9486 6.28857 77.4103 6.13689C77.9784 5.94807 78.5775 5.8511 79.1814 5.85026C79.77 5.83144 80.3564 5.92399 80.9046 6.12219C81.2944 6.26892 81.6417 6.49749 81.9187 6.78968C82.1957 7.08188 82.3948 7.42963 82.5002 7.80524C82.6015 8.15776 82.6525 8.52096 82.6517 8.88563V12.9573C82.6528 12.9984 82.6449 13.0394 82.6286 13.0777C82.6122 13.116 82.5877 13.1509 82.5565 13.1803C82.5253 13.2098 82.488 13.2332 82.4468 13.2491C82.4056 13.2651 82.3614 13.2733 82.3167 13.2733H80.8248L80.8727 12.3179ZM80.8727 9.94396H80.4339C80.1228 9.94396 79.7877 9.94396 79.4367 9.98071C79.1118 10.0044 78.7908 10.0611 78.4794 10.1498C78.2095 10.2199 77.9592 10.3427 77.7454 10.5099C77.5924 10.6446 77.4921 10.8223 77.4604 11.0151C77.4286 11.208 77.4671 11.4051 77.5699 11.5756C77.6537 11.6883 77.7625 11.7835 77.889 11.8548C78.0291 11.9241 78.1797 11.9736 78.3358 12.0018C78.496 12.0314 78.659 12.0462 78.8224 12.0459C79.1007 12.0646 79.3802 12.0305 79.6436 11.9459C79.9071 11.8612 80.1489 11.7276 80.3541 11.5535C80.5342 11.3714 80.6729 11.1579 80.7619 10.9257C80.851 10.6934 80.8887 10.4471 80.8727 10.2012V9.94396Z" fill="#0099FF"/>
<path d="M87.1491 7.88608C87.137 7.09796 87.2971 6.31566 87.6198 5.58567C87.9061 4.92202 88.3442 4.32293 88.9042 3.82912C89.4702 3.34446 90.1344 2.96734 90.8587 2.71934C91.6514 2.45512 92.4889 2.32322 93.3319 2.32981C94.1826 2.32325 95.0279 2.45512 95.8289 2.71934C96.5581 2.96718 97.2275 3.3442 97.7994 3.82912C98.3593 4.32455 98.7997 4.92305 99.0918 5.58567C99.4145 6.31566 99.5746 7.09796 99.5625 7.88608C99.5714 8.66679 99.4114 9.44131 99.0918 10.1644C98.7939 10.8285 98.3544 11.4308 97.7994 11.9357C97.232 12.4367 96.5622 12.8289 95.8289 13.0896C95.033 13.3741 94.1855 13.5163 93.3319 13.5085C92.4859 13.5164 91.6463 13.3742 90.8587 13.0896C90.1304 12.8286 89.4659 12.4363 88.9042 11.9357C88.3489 11.4325 87.9118 10.8296 87.6198 10.1644C87.3002 9.44131 87.1402 8.66679 87.1491 7.88608ZM89.3829 7.88608C89.3761 8.42192 89.4734 8.95457 89.6701 9.45889C89.8436 9.91548 90.1149 10.3353 90.4678 10.6936C90.8259 11.0475 91.2608 11.3279 91.7443 11.5168C92.2486 11.7147 92.7917 11.8148 93.3398 11.8107C93.8877 11.8121 94.4303 11.7122 94.9354 11.5168C95.4155 11.3263 95.8475 11.046 96.2039 10.6936C96.5568 10.3353 96.828 9.91548 97.0016 9.45889C97.1983 8.95457 97.2956 8.42192 97.2888 7.88608C97.2943 7.3647 97.197 6.84672 97.0016 6.35737C96.8216 5.90356 96.551 5.48478 96.2039 5.12264C95.852 4.76879 95.4223 4.48816 94.9434 4.29949C94.4397 4.09902 93.8965 3.99644 93.3478 3.99816C92.7989 3.9945 92.2553 4.09717 91.7523 4.29949C91.2661 4.49399 90.8309 4.78219 90.4758 5.14469C90.1286 5.50682 89.858 5.92561 89.678 6.37942C89.4719 6.85952 89.3611 7.36986 89.3509 7.88608H89.3829Z" fill="#0099FF"/>
<path d="M101.461 6.02663H102.642C102.687 6.02565 102.731 6.03291 102.773 6.04799C102.814 6.06306 102.852 6.08564 102.884 6.1144C102.916 6.14317 102.941 6.17753 102.959 6.21547C102.976 6.2534 102.985 6.29415 102.985 6.33532V7.18052C103.185 6.79211 103.497 6.46166 103.887 6.22507C104.337 5.94711 104.869 5.80342 105.41 5.8135C105.864 5.80109 106.315 5.88666 106.727 6.06338C107.075 6.21607 107.38 6.43977 107.62 6.71749C107.858 6.99146 108.034 7.30624 108.139 7.64354C108.244 7.99796 108.298 8.36377 108.298 8.73127V12.9205C108.298 13.0043 108.262 13.0847 108.198 13.144C108.133 13.2033 108.046 13.2366 107.955 13.2366H106.679C106.634 13.2366 106.59 13.2283 106.549 13.2124C106.507 13.1964 106.47 13.173 106.439 13.1436C106.408 13.1141 106.383 13.0792 106.367 13.0409C106.351 13.0026 106.343 12.9617 106.344 12.9205V9.24574C106.343 9.02456 106.327 8.80365 106.296 8.58428C106.267 8.36555 106.194 8.15372 106.08 7.95957C105.974 7.77668 105.82 7.62033 105.634 7.5039C105.405 7.37744 105.142 7.31606 104.876 7.32751C104.598 7.31898 104.323 7.37724 104.078 7.49655C103.859 7.60683 103.666 7.75683 103.512 7.93752C103.364 8.12762 103.251 8.33862 103.177 8.56223C103.102 8.80119 103.064 9.04859 103.065 9.29719V12.972C103.065 13.0558 103.029 13.1362 102.964 13.1954C102.9 13.2547 102.813 13.288 102.722 13.288H101.445C101.401 13.288 101.356 13.2798 101.315 13.2638C101.274 13.2479 101.237 13.2245 101.206 13.195C101.174 13.1656 101.15 13.1307 101.133 13.0924C101.117 13.0541 101.109 13.0131 101.11 12.972V6.35736C101.107 6.31375 101.113 6.26995 101.13 6.22888C101.146 6.1878 101.172 6.15039 101.205 6.11912C101.238 6.08785 101.278 6.06343 101.322 6.04749C101.366 6.03154 101.414 6.02444 101.461 6.02663Z" fill="#0099FF"/>
<path d="M110.656 1.88149H111.932C112.022 1.88147 112.108 1.91375 112.172 1.97144C112.236 2.02913 112.273 2.10763 112.275 2.19017V12.9205C112.275 13.0044 112.239 13.0847 112.175 13.144C112.111 13.2033 112.023 13.2366 111.932 13.2366H110.656C110.565 13.2366 110.478 13.2033 110.413 13.144C110.349 13.0847 110.313 13.0044 110.313 12.9205V2.20487C110.311 2.16249 110.318 2.12014 110.334 2.08047C110.351 2.04081 110.376 2.00467 110.408 1.97433C110.44 1.94398 110.479 1.92007 110.521 1.9041C110.564 1.88813 110.61 1.88043 110.656 1.88149Z" fill="#0099FF"/>
<path d="M114.086 3.57924C114.094 3.30147 114.22 3.03774 114.437 2.84429C114.555 2.73823 114.695 2.65499 114.848 2.59946C115.002 2.54392 115.166 2.51721 115.33 2.52091C115.663 2.51236 115.986 2.62302 116.232 2.82959C116.351 2.92666 116.446 3.04678 116.51 3.18142C116.573 3.31607 116.604 3.46193 116.599 3.60864C116.597 3.74802 116.564 3.88551 116.5 4.01214C116.437 4.13878 116.346 4.25171 116.232 4.3436C115.986 4.55016 115.663 4.66082 115.33 4.65228C115.166 4.65597 115.002 4.62927 114.848 4.57373C114.695 4.5182 114.555 4.43495 114.437 4.3289C114.327 4.23209 114.239 4.11581 114.179 3.98701C114.118 3.8582 114.087 3.71952 114.086 3.57924ZM114.708 6.02665H115.985C116.074 6.02665 116.159 6.05917 116.222 6.11706C116.284 6.17495 116.32 6.25346 116.32 6.33533V12.9499C116.321 12.9911 116.313 13.032 116.297 13.0703C116.28 13.1086 116.256 13.1435 116.224 13.173C116.193 13.2024 116.156 13.2258 116.115 13.2418C116.074 13.2578 116.029 13.266 115.985 13.266H114.708C114.617 13.266 114.53 13.2327 114.466 13.1734C114.401 13.1141 114.365 13.0338 114.365 12.9499V6.33533C114.365 6.29417 114.374 6.25342 114.391 6.21548C114.409 6.17754 114.434 6.14318 114.466 6.11442C114.498 6.08566 114.536 6.06308 114.578 6.048C114.619 6.03293 114.664 6.02567 114.708 6.02665Z" fill="#0099FF"/>
<path d="M118.71 6.02663H119.891C119.935 6.02565 119.98 6.03291 120.021 6.04799C120.063 6.06306 120.101 6.08564 120.133 6.1144C120.165 6.14317 120.19 6.17753 120.207 6.21547C120.225 6.2534 120.234 6.29415 120.234 6.33532V7.18052C120.434 6.79211 120.745 6.46166 121.135 6.22507C121.585 5.94711 122.117 5.80342 122.659 5.8135C123.113 5.80109 123.564 5.88666 123.975 6.06338C124.323 6.21607 124.629 6.43977 124.869 6.71749C125.106 6.99146 125.283 7.30624 125.387 7.64354C125.493 7.99796 125.546 8.36377 125.547 8.73127V12.9205C125.546 12.996 125.515 13.0686 125.461 13.1252C125.407 13.1818 125.333 13.2187 125.252 13.2292H123.975C123.931 13.2292 123.886 13.221 123.845 13.205C123.804 13.1891 123.767 13.1657 123.735 13.1362C123.704 13.1068 123.68 13.0719 123.663 13.0336C123.647 12.9953 123.639 12.9543 123.64 12.9132V9.23839C123.639 9.01721 123.623 8.7963 123.592 8.57693C123.563 8.3582 123.49 8.14637 123.377 7.95222C123.27 7.76933 123.117 7.61298 122.93 7.49655C122.702 7.37009 122.438 7.30871 122.172 7.32016C121.895 7.31163 121.62 7.36989 121.374 7.4892C121.155 7.59948 120.963 7.74948 120.808 7.93017C120.66 8.12027 120.547 8.33127 120.473 8.55488C120.399 8.79384 120.361 9.04124 120.361 9.28984V12.9646C120.361 13.0484 120.325 13.1288 120.261 13.1881C120.196 13.2474 120.109 13.2807 120.018 13.2807H118.742C118.697 13.2807 118.653 13.2724 118.612 13.2565C118.57 13.2405 118.533 13.2171 118.502 13.1877C118.471 13.1582 118.446 13.1233 118.43 13.085C118.414 13.0467 118.406 13.0058 118.407 12.9646V6.35002C118.402 6.2705 118.431 6.19245 118.488 6.13219C118.544 6.07193 118.624 6.03411 118.71 6.02663Z" fill="#0099FF"/>
<path d="M135 9.72347C135.001 9.84972 134.953 9.97204 134.865 10.0689C134.759 10.1451 134.631 10.1911 134.498 10.2012H129.033C129.049 10.4581 129.125 10.7088 129.256 10.9361C129.382 11.149 129.55 11.3384 129.751 11.4947C129.963 11.6497 130.2 11.7737 130.453 11.8622C130.709 11.9478 130.979 11.9925 131.251 11.9945C131.686 12.0152 132.119 11.9343 132.511 11.7593C132.742 11.6492 132.95 11.5024 133.126 11.3257C133.182 11.2608 133.264 11.2191 133.353 11.2095C133.443 11.1998 133.533 11.2231 133.604 11.2742L134.402 11.8401C134.439 11.8653 134.47 11.8972 134.493 11.9338C134.516 11.9705 134.53 12.0111 134.536 12.0531C134.541 12.0952 134.537 12.1378 134.523 12.1782C134.51 12.2187 134.488 12.2562 134.458 12.2885C134.061 12.6879 133.574 13.0018 133.031 13.2076C132.487 13.4134 131.901 13.5061 131.315 13.4791C130.744 13.4834 130.177 13.3964 129.639 13.2219C129.147 13.0596 128.694 12.8099 128.307 12.4869C127.924 12.1594 127.624 11.7578 127.429 11.311C127.207 10.8073 127.098 10.2671 127.11 9.72347C127.101 9.18236 127.209 8.64498 127.429 8.14331C127.626 7.68612 127.922 7.27089 128.299 6.92328C128.678 6.58609 129.125 6.32132 129.615 6.14423C130.124 5.96114 130.665 5.86644 131.211 5.86495C131.726 5.85917 132.238 5.94398 132.719 6.11483C133.173 6.27274 133.582 6.5241 133.915 6.84979C134.276 7.19724 134.548 7.61388 134.713 8.06981C134.91 8.60212 135.007 9.16126 135 9.72347ZM133.046 8.90767C133.048 8.6836 133.013 8.46056 132.942 8.2462C132.874 8.04272 132.76 7.85485 132.607 7.69499C132.448 7.52598 132.248 7.39275 132.025 7.30546C131.771 7.21221 131.5 7.16481 131.227 7.16582C130.68 7.15155 130.147 7.32734 129.735 7.65824C129.537 7.81411 129.375 8.00501 129.258 8.21962C129.142 8.43424 129.073 8.6682 129.057 8.90767H133.046Z" fill="#0099FF"/>
</g>
<defs>
<clipPath id="clip0_7700_266060">
<rect width="135" height="16" fill="white"/>
</clipPath>
</defs>
</svg>
