<svg width="49" height="18" viewBox="0 0 49 18" fill="none" xmlns="http://www.w3.org/2000/svg">
<path d="M38.9676 2.16878L43.0394 1.43122V17.3327H38.9676V2.16878ZM44.9114 2.16878V17.3239H48.9832V1.43122L44.9114 2.16878ZM33.179 17.3239H37.2508V5.69854H33.179V17.3239ZM6.27214 7.34049C5.75453 7.30537 4.56404 7.22634 4.56404 6.13756C4.56404 4.82049 6.28077 4.82049 6.91915 4.82049C8.04925 4.82049 9.5158 5.16293 10.5596 5.47902C10.5596 5.47902 11.1463 5.68976 11.638 5.90049L11.6811 5.90927V2.30927L11.6207 2.29171C10.3871 1.85268 8.95506 1.43122 6.28939 1.43122C1.69996 1.43122 0.078125 4.15317 0.078125 6.48C0.078125 7.82342 0.647491 10.9844 5.90119 11.3532C6.34978 11.3795 7.53165 11.4498 7.53165 12.5824C7.53165 13.5132 6.56545 14.0663 4.93499 14.0663C3.14925 14.0663 1.4239 13.601 0.371435 13.162V16.8761C1.94151 17.2976 3.71862 17.5083 5.79767 17.5083C10.2836 17.5083 12.2936 14.9356 12.2936 12.3805C12.2936 9.48293 10.0507 7.6039 6.27214 7.34049ZM30.8843 5.53171C27.123 5.65463 25.2165 7.37561 25.2165 10.7912V17.3327H29.3228V11.9941C29.3228 9.94829 29.5816 9.07024 31.9713 8.99122V5.58439C31.5572 5.50537 30.8843 5.53171 30.8843 5.53171ZM19.842 5.68976C19.7558 5.91805 19.1001 7.79707 17.5214 9.73756V1.43122L13.3202 2.27415V17.3239H17.5214V12.6702C18.7378 14.5317 19.3417 17.3239 19.3417 17.3239H24.3711C23.8707 15.2166 21.6968 11.3356 21.6968 11.3356C23.6464 8.81561 24.5091 6.12878 24.6471 5.68098H19.842V5.68976ZM35.2063 4.58342C36.3105 4.58342 37.2163 3.67024 37.2163 2.54634C37.2163 1.42244 36.3191 0.500488 35.2063 0.500488C34.1021 0.500488 33.2049 1.41366 33.2049 2.54634C33.2049 3.67024 34.1021 4.58342 35.2063 4.58342Z" fill="url(#paint0_linear_7700_266047)"/>
<defs>
<linearGradient id="paint0_linear_7700_266047" x1="0.0867544" y1="8.99889" x2="48.986" y2="8.99889" gradientUnits="userSpaceOnUse">
<stop stop-color="#872166"/>
<stop offset="1" stop-color="#4F2455"/>
</linearGradient>
</defs>
</svg>
