<svg width="124" height="24" viewBox="0 0 124 24" fill="none" xmlns="http://www.w3.org/2000/svg">
<g clip-path="url(#clip0_7700_266049)">
<path d="M19.1048 14.928H10.1288V13.152C10.1288 12.24 9.12075 11.664 8.35275 12.144L1.00875 16.752C0.28875 17.232 0.28875 18.288 1.00875 18.72L8.35275 23.328C9.12075 23.808 10.1288 23.28 10.1288 22.32V20.544H19.1048C19.7288 20.544 20.2568 20.016 20.2568 19.392V16.08C20.2568 15.456 19.7288 14.928 19.1048 14.928Z" fill="#02C155"/>
<path d="M22.9902 5.28001L15.6462 0.672008C14.8782 0.192008 13.8702 0.720007 13.8702 1.68001V3.45601H4.89419C4.27019 3.45601 3.74219 3.98401 3.74219 4.60801V7.92001C3.74219 8.54401 4.27019 9.07201 4.89419 9.07201H13.8702V10.848C13.8702 11.76 14.8782 12.336 15.6462 11.856L22.9902 7.24801C23.7102 6.81601 23.7102 5.71201 22.9902 5.28001Z" fill="#00A2F0"/>
</g>
<path d="M35.5068 14.2646L37.4893 6.54688H38.5283L38.4121 8.53613L36.293 16.5H35.2129L35.5068 14.2646ZM34.0234 6.54688L35.6299 14.2031L35.7734 16.5H34.625L32.3213 6.54688H34.0234ZM40.7773 14.1826L42.3633 6.54688H44.0723L41.7686 16.5H40.6201L40.7773 14.1826ZM38.9316 6.54688L40.8936 14.2852L41.1807 16.5H40.1006L38.0156 8.53613L37.9062 6.54688H38.9316ZM46.9434 9.10352V16.5H45.2891V9.10352H46.9434ZM45.1797 7.16211C45.1797 6.91146 45.2617 6.7041 45.4258 6.54004C45.5944 6.37142 45.8268 6.28711 46.123 6.28711C46.4147 6.28711 46.6449 6.37142 46.8135 6.54004C46.9821 6.7041 47.0664 6.91146 47.0664 7.16211C47.0664 7.4082 46.9821 7.61328 46.8135 7.77734C46.6449 7.94141 46.4147 8.02344 46.123 8.02344C45.8268 8.02344 45.5944 7.94141 45.4258 7.77734C45.2617 7.61328 45.1797 7.4082 45.1797 7.16211ZM50.4023 10.5117V16.5H48.7549V9.10352H50.3271L50.4023 10.5117ZM52.665 9.05566L52.6514 10.5869C52.5511 10.5687 52.4417 10.555 52.3232 10.5459C52.2093 10.5368 52.0954 10.5322 51.9814 10.5322C51.6989 10.5322 51.4505 10.5732 51.2363 10.6553C51.0221 10.7327 50.8421 10.8467 50.6963 10.9971C50.555 11.1429 50.4456 11.3206 50.3682 11.5303C50.2907 11.7399 50.2451 11.9746 50.2314 12.2344L49.8555 12.2617C49.8555 11.7969 49.901 11.3662 49.9922 10.9697C50.0833 10.5732 50.2201 10.2246 50.4023 9.92383C50.5892 9.62305 50.8216 9.38835 51.0996 9.21973C51.3822 9.05111 51.708 8.9668 52.0771 8.9668C52.1774 8.9668 52.2845 8.97591 52.3984 8.99414C52.5169 9.01237 52.6058 9.03288 52.665 9.05566ZM56.8213 16.6367C56.2744 16.6367 55.7799 16.5479 55.3379 16.3701C54.9004 16.1878 54.5267 15.9349 54.2168 15.6113C53.9115 15.2878 53.6768 14.9072 53.5127 14.4697C53.3486 14.0322 53.2666 13.5605 53.2666 13.0547V12.7812C53.2666 12.2025 53.3509 11.6784 53.5195 11.209C53.6882 10.7396 53.9229 10.3385 54.2236 10.0059C54.5244 9.66862 54.8799 9.41113 55.29 9.2334C55.7002 9.05566 56.1445 8.9668 56.623 8.9668C57.1517 8.9668 57.6143 9.05566 58.0107 9.2334C58.4072 9.41113 58.7354 9.66178 58.9951 9.98535C59.2594 10.3044 59.4554 10.6849 59.583 11.127C59.7152 11.569 59.7812 12.0566 59.7812 12.5898V13.2939H54.0664V12.1113H58.1543V11.9814C58.1452 11.6852 58.0859 11.4072 57.9766 11.1475C57.8717 10.8877 57.71 10.6781 57.4912 10.5186C57.2725 10.359 56.9808 10.2793 56.6162 10.2793C56.3428 10.2793 56.099 10.3385 55.8848 10.457C55.6751 10.571 55.4997 10.7373 55.3584 10.9561C55.2171 11.1748 55.1077 11.4391 55.0303 11.749C54.9574 12.0544 54.9209 12.3984 54.9209 12.7812V13.0547C54.9209 13.3783 54.9642 13.679 55.0508 13.957C55.1419 14.2305 55.2741 14.4697 55.4473 14.6748C55.6204 14.8799 55.8301 15.0417 56.0762 15.1602C56.3223 15.2741 56.6025 15.3311 56.917 15.3311C57.3135 15.3311 57.6667 15.2513 57.9766 15.0918C58.2865 14.9323 58.5553 14.7067 58.7832 14.415L59.6514 15.2559C59.4919 15.4883 59.2845 15.7116 59.0293 15.9258C58.7741 16.1354 58.4619 16.3063 58.0928 16.4385C57.7282 16.5706 57.3044 16.6367 56.8213 16.6367ZM65.5781 14.9688V6H67.2324V16.5H65.7354L65.5781 14.9688ZM60.7656 12.8838V12.7402C60.7656 12.1797 60.8317 11.6693 60.9639 11.209C61.096 10.7441 61.2874 10.3454 61.5381 10.0127C61.7887 9.67546 62.0941 9.41797 62.4541 9.24023C62.8141 9.05794 63.2197 8.9668 63.6709 8.9668C64.1175 8.9668 64.5094 9.05339 64.8467 9.22656C65.1839 9.39974 65.471 9.64811 65.708 9.97168C65.945 10.2907 66.1341 10.6735 66.2754 11.1201C66.4167 11.5622 66.5169 12.0544 66.5762 12.5967V13.0547C66.5169 13.5833 66.4167 14.0664 66.2754 14.5039C66.1341 14.9414 65.945 15.3197 65.708 15.6387C65.471 15.9577 65.1816 16.2038 64.8398 16.377C64.5026 16.5501 64.1084 16.6367 63.6572 16.6367C63.2106 16.6367 62.8073 16.5433 62.4473 16.3564C62.0918 16.1696 61.7887 15.9076 61.5381 15.5703C61.2874 15.2331 61.096 14.8366 60.9639 14.3809C60.8317 13.9206 60.7656 13.4215 60.7656 12.8838ZM62.4131 12.7402V12.8838C62.4131 13.221 62.4427 13.5355 62.502 13.8271C62.5658 14.1188 62.6637 14.3763 62.7959 14.5996C62.9281 14.8184 63.099 14.9915 63.3086 15.1191C63.5228 15.2422 63.778 15.3037 64.0742 15.3037C64.4479 15.3037 64.7555 15.2217 64.9971 15.0576C65.2386 14.8936 65.4277 14.6725 65.5645 14.3945C65.7057 14.112 65.8014 13.7975 65.8516 13.4512V12.2139C65.8242 11.945 65.7673 11.6943 65.6807 11.4619C65.5986 11.2295 65.487 11.0267 65.3457 10.8535C65.2044 10.6758 65.029 10.5391 64.8193 10.4434C64.6143 10.3431 64.3704 10.293 64.0879 10.293C63.7871 10.293 63.5319 10.3568 63.3223 10.4844C63.1126 10.612 62.9395 10.7874 62.8027 11.0107C62.6706 11.234 62.5726 11.4938 62.5088 11.79C62.445 12.0863 62.4131 12.403 62.4131 12.7402ZM76.3721 6.54688V16.5H74.6699V6.54688H76.3721ZM79.4961 6.54688V7.91406H71.5732V6.54688H79.4961ZM81.8066 10.5117V16.5H80.1592V9.10352H81.7314L81.8066 10.5117ZM84.0693 9.05566L84.0557 10.5869C83.9554 10.5687 83.846 10.555 83.7275 10.5459C83.6136 10.5368 83.4997 10.5322 83.3857 10.5322C83.1032 10.5322 82.8548 10.5732 82.6406 10.6553C82.4264 10.7327 82.2464 10.8467 82.1006 10.9971C81.9593 11.1429 81.8499 11.3206 81.7725 11.5303C81.695 11.7399 81.6494 11.9746 81.6357 12.2344L81.2598 12.2617C81.2598 11.7969 81.3053 11.3662 81.3965 10.9697C81.4876 10.5732 81.6243 10.2246 81.8066 9.92383C81.9935 9.62305 82.2259 9.38835 82.5039 9.21973C82.7865 9.05111 83.1123 8.9668 83.4814 8.9668C83.5817 8.9668 83.6888 8.97591 83.8027 8.99414C83.9212 9.01237 84.0101 9.03288 84.0693 9.05566ZM89.0254 15.0166V11.4893C89.0254 11.2249 88.9775 10.9971 88.8818 10.8057C88.7861 10.6143 88.6403 10.4661 88.4443 10.3613C88.2529 10.2565 88.0114 10.2041 87.7197 10.2041C87.4508 10.2041 87.2184 10.2497 87.0225 10.3408C86.8265 10.432 86.6738 10.555 86.5645 10.71C86.4551 10.8649 86.4004 11.0404 86.4004 11.2363H84.7598C84.7598 10.9447 84.8304 10.6621 84.9717 10.3887C85.113 10.1152 85.318 9.87142 85.5869 9.65723C85.8558 9.44303 86.1771 9.27441 86.5508 9.15137C86.9245 9.02832 87.3438 8.9668 87.8086 8.9668C88.3646 8.9668 88.8568 9.06022 89.2852 9.24707C89.7181 9.43392 90.0576 9.71647 90.3037 10.0947C90.5544 10.4684 90.6797 10.9378 90.6797 11.5029V14.791C90.6797 15.1283 90.7025 15.4313 90.748 15.7002C90.7982 15.9645 90.8688 16.1947 90.96 16.3906V16.5H89.2715C89.194 16.3223 89.1325 16.0967 89.0869 15.8232C89.0459 15.5452 89.0254 15.2764 89.0254 15.0166ZM89.2646 12.002L89.2783 13.0205H88.0957C87.7904 13.0205 87.5215 13.0501 87.2891 13.1094C87.0566 13.1641 86.863 13.2461 86.708 13.3555C86.5531 13.4648 86.4368 13.597 86.3594 13.752C86.2819 13.9069 86.2432 14.0824 86.2432 14.2783C86.2432 14.4743 86.2887 14.6543 86.3799 14.8184C86.471 14.9779 86.6032 15.1032 86.7764 15.1943C86.9541 15.2855 87.1683 15.3311 87.4189 15.3311C87.7562 15.3311 88.0501 15.2627 88.3008 15.126C88.556 14.9847 88.7565 14.8138 88.9023 14.6133C89.0482 14.4082 89.1257 14.2145 89.1348 14.0322L89.668 14.7637C89.6133 14.9505 89.5199 15.151 89.3877 15.3652C89.2555 15.5794 89.0824 15.7845 88.8682 15.9805C88.6585 16.1719 88.4056 16.3291 88.1094 16.4521C87.8177 16.5752 87.4805 16.6367 87.0977 16.6367C86.6146 16.6367 86.1839 16.541 85.8057 16.3496C85.4274 16.1536 85.1312 15.8916 84.917 15.5635C84.7028 15.2308 84.5957 14.8548 84.5957 14.4355C84.5957 14.0436 84.6686 13.6973 84.8145 13.3965C84.9648 13.0911 85.1836 12.8359 85.4707 12.6309C85.7624 12.4258 86.1178 12.2708 86.5371 12.166C86.9564 12.0566 87.4349 12.002 87.9727 12.002H89.2646ZM94.0361 10.6826V16.5H92.3887V9.10352H93.9404L94.0361 10.6826ZM93.7422 12.5283L93.209 12.5215C93.2135 11.9974 93.2865 11.5166 93.4277 11.0791C93.5736 10.6416 93.7741 10.2656 94.0293 9.95117C94.2891 9.63672 94.599 9.39518 94.959 9.22656C95.319 9.05339 95.7201 8.9668 96.1621 8.9668C96.5176 8.9668 96.8389 9.01693 97.126 9.11719C97.4176 9.21289 97.666 9.37012 97.8711 9.58887C98.0807 9.80762 98.2402 10.0924 98.3496 10.4434C98.459 10.7897 98.5137 11.2158 98.5137 11.7217V16.5H96.8594V11.7148C96.8594 11.3594 96.807 11.0791 96.7021 10.874C96.6019 10.6644 96.4538 10.5163 96.2578 10.4297C96.0664 10.3385 95.8271 10.293 95.54 10.293C95.2575 10.293 95.0046 10.3522 94.7812 10.4707C94.5579 10.5892 94.3688 10.751 94.2139 10.9561C94.0635 11.1611 93.9473 11.3981 93.8652 11.667C93.7832 11.9359 93.7422 12.223 93.7422 12.5283ZM104.345 14.4971C104.345 14.333 104.304 14.1849 104.222 14.0527C104.14 13.916 103.982 13.793 103.75 13.6836C103.522 13.5742 103.185 13.474 102.738 13.3828C102.346 13.2962 101.986 13.1937 101.658 13.0752C101.335 12.9521 101.057 12.804 100.824 12.6309C100.592 12.4577 100.412 12.2526 100.284 12.0156C100.157 11.7786 100.093 11.5052 100.093 11.1953C100.093 10.8945 100.159 10.6097 100.291 10.3408C100.423 10.0719 100.612 9.83496 100.858 9.62988C101.104 9.4248 101.403 9.26302 101.754 9.14453C102.109 9.02604 102.506 8.9668 102.943 8.9668C103.563 8.9668 104.094 9.07161 104.536 9.28125C104.983 9.48633 105.325 9.7666 105.562 10.1221C105.799 10.473 105.917 10.8695 105.917 11.3115H104.27C104.27 11.1156 104.219 10.9333 104.119 10.7646C104.023 10.5915 103.878 10.4525 103.682 10.3477C103.486 10.2383 103.24 10.1836 102.943 10.1836C102.661 10.1836 102.426 10.2292 102.239 10.3203C102.057 10.4069 101.92 10.5208 101.829 10.6621C101.743 10.8034 101.699 10.9583 101.699 11.127C101.699 11.25 101.722 11.3617 101.768 11.4619C101.818 11.5576 101.9 11.6465 102.014 11.7285C102.128 11.806 102.283 11.8789 102.479 11.9473C102.679 12.0156 102.93 12.0817 103.23 12.1455C103.796 12.264 104.281 12.4167 104.687 12.6035C105.097 12.7858 105.411 13.0228 105.63 13.3145C105.849 13.6016 105.958 13.9661 105.958 14.4082C105.958 14.7363 105.887 15.0371 105.746 15.3105C105.609 15.5794 105.409 15.8141 105.145 16.0146C104.88 16.2106 104.563 16.3633 104.194 16.4727C103.83 16.582 103.42 16.6367 102.964 16.6367C102.294 16.6367 101.727 16.5182 101.262 16.2812C100.797 16.0397 100.444 15.7321 100.202 15.3584C99.9652 14.9801 99.8467 14.5882 99.8467 14.1826H101.439C101.458 14.488 101.542 14.7318 101.692 14.9141C101.847 15.0918 102.039 15.2217 102.267 15.3037C102.499 15.3812 102.738 15.4199 102.984 15.4199C103.281 15.4199 103.529 15.3812 103.729 15.3037C103.93 15.2217 104.083 15.1123 104.188 14.9756C104.292 14.8343 104.345 14.6748 104.345 14.4971ZM109.629 16.5H107.981V8.39258C107.981 7.84115 108.084 7.37858 108.289 7.00488C108.499 6.62663 108.797 6.3418 109.185 6.15039C109.572 5.95443 110.03 5.85645 110.559 5.85645C110.723 5.85645 110.884 5.86784 111.044 5.89062C111.203 5.90885 111.358 5.93848 111.509 5.97949L111.468 7.25098C111.377 7.22819 111.276 7.21224 111.167 7.20312C111.062 7.19401 110.948 7.18945 110.825 7.18945C110.575 7.18945 110.358 7.2373 110.176 7.33301C109.998 7.42415 109.861 7.55859 109.766 7.73633C109.674 7.91406 109.629 8.13281 109.629 8.39258V16.5ZM111.153 9.10352V10.3066H106.847V9.10352H111.153ZM115.446 16.6367C114.899 16.6367 114.405 16.5479 113.963 16.3701C113.525 16.1878 113.152 15.9349 112.842 15.6113C112.536 15.2878 112.302 14.9072 112.138 14.4697C111.974 14.0322 111.892 13.5605 111.892 13.0547V12.7812C111.892 12.2025 111.976 11.6784 112.145 11.209C112.313 10.7396 112.548 10.3385 112.849 10.0059C113.149 9.66862 113.505 9.41113 113.915 9.2334C114.325 9.05566 114.77 8.9668 115.248 8.9668C115.777 8.9668 116.239 9.05566 116.636 9.2334C117.032 9.41113 117.36 9.66178 117.62 9.98535C117.884 10.3044 118.08 10.6849 118.208 11.127C118.34 11.569 118.406 12.0566 118.406 12.5898V13.2939H112.691V12.1113H116.779V11.9814C116.77 11.6852 116.711 11.4072 116.602 11.1475C116.497 10.8877 116.335 10.6781 116.116 10.5186C115.897 10.359 115.606 10.2793 115.241 10.2793C114.968 10.2793 114.724 10.3385 114.51 10.457C114.3 10.571 114.125 10.7373 113.983 10.9561C113.842 11.1748 113.733 11.4391 113.655 11.749C113.582 12.0544 113.546 12.3984 113.546 12.7812V13.0547C113.546 13.3783 113.589 13.679 113.676 13.957C113.767 14.2305 113.899 14.4697 114.072 14.6748C114.245 14.8799 114.455 15.0417 114.701 15.1602C114.947 15.2741 115.228 15.3311 115.542 15.3311C115.938 15.3311 116.292 15.2513 116.602 15.0918C116.911 14.9323 117.18 14.7067 117.408 14.415L118.276 15.2559C118.117 15.4883 117.91 15.7116 117.654 15.9258C117.399 16.1354 117.087 16.3063 116.718 16.4385C116.353 16.5706 115.929 16.6367 115.446 16.6367ZM121.346 10.5117V16.5H119.698V9.10352H121.271L121.346 10.5117ZM123.608 9.05566L123.595 10.5869C123.494 10.5687 123.385 10.555 123.267 10.5459C123.153 10.5368 123.039 10.5322 122.925 10.5322C122.642 10.5322 122.394 10.5732 122.18 10.6553C121.965 10.7327 121.785 10.8467 121.64 10.9971C121.498 11.1429 121.389 11.3206 121.312 11.5303C121.234 11.7399 121.188 11.9746 121.175 12.2344L120.799 12.2617C120.799 11.7969 120.844 11.3662 120.936 10.9697C121.027 10.5732 121.163 10.2246 121.346 9.92383C121.533 9.62305 121.765 9.38835 122.043 9.21973C122.326 9.05111 122.651 8.9668 123.021 8.9668C123.121 8.9668 123.228 8.97591 123.342 8.99414C123.46 9.01237 123.549 9.03288 123.608 9.05566Z" fill="#292929"/>
<defs>
<clipPath id="clip0_7700_266049">
<rect width="24" height="24" fill="white"/>
</clipPath>
</defs>
</svg>
