<svg width="73" height="16" viewBox="0 0 73 16" fill="none" xmlns="http://www.w3.org/2000/svg">
<path d="M40.5487 0.343839H44.9958L42.7585 15.6742H38.3115L40.5487 0.343839ZM34.9421 0.343839L31.941 9.17512L30.6313 0.343839H27.5211L23.5924 9.14892L23.1014 0.343839H18.7906L20.2912 15.6742H23.8653L28.2851 5.97808L29.8403 15.6742H33.3597L39.1709 0.343839H34.9421ZM72.2786 9.25372H61.7201C61.7747 11.2455 63.0162 12.5557 64.844 12.5557C66.2218 12.5557 67.3131 11.8481 68.1589 10.4986L71.7234 12.0552C70.4985 14.3731 67.9174 15.8838 64.7348 15.8838C60.3969 15.8838 57.5186 13.0798 57.5186 8.57248C57.5186 3.61956 60.9016 0.107994 65.6761 0.107994C69.8776 0.107994 72.5241 2.83339 72.5241 7.07869C72.5241 7.78628 72.4423 8.49388 72.2786 9.25372ZM68.3226 6.31875C68.3226 4.53677 67.2859 3.40991 65.6216 3.40991C63.9574 3.40991 62.4841 4.58917 62.1022 6.31875H68.3226ZM4.89142 4.96391L0.351562 10.0597H8.45729L9.36853 7.65654H5.89542L8.01802 5.29935L8.02486 5.23645L6.64435 2.95526H12.8526L8.03986 15.6742H11.3329L17.1442 0.343839H2.13041L4.89005 4.96391H4.89142ZM52.2258 3.40991C53.7944 3.40991 55.1695 4.21968 56.3699 5.60858L57.0003 1.28725C55.8815 0.560048 54.3674 0.107994 52.3622 0.107994C48.3789 0.107994 46.1417 2.34858 46.1417 5.19191C46.1417 7.16392 47.2876 8.36934 49.1701 9.14892L50.0704 9.5421C51.7482 10.23 52.1985 10.5706 52.1985 11.2979C52.1985 12.0251 51.4414 12.5295 50.2887 12.5295C48.3856 12.536 46.8442 11.5992 45.6847 10.0006L45.0422 14.4045C46.3627 15.3716 48.0556 15.8838 50.2887 15.8838C54.0741 15.8838 56.4 13.7874 56.4 10.8785C56.4 8.9 55.486 7.62907 53.1807 6.63323L52.1985 6.18773C50.8342 5.60465 50.3705 5.28363 50.3705 4.64159C50.3705 3.94714 51.0048 3.40991 52.2258 3.40991Z" fill="#163300"/>
</svg>
