<svg xmlns="http://www.w3.org/2000/svg" width="84" height="12" viewBox="0 0 84 12" fill="none">
  <g clip-path="url(#clip0_271_88608)">
    <mask id="mask0_271_88608" style="mask-type:luminance" maskUnits="userSpaceOnUse" x="0" y="0" width="84" height="12">
      <path d="M83.8187 0.0856934H0.242676V11.9844H83.8187V0.0856934Z" fill="white"/>
    </mask>
    <g mask="url(#mask0_271_88608)">
      <path d="M0.242676 6.26511C0.242676 2.15645 1.90681 0.0856934 4.53195 0.0856934C6.34871 0.0856934 7.72232 1.0389 8.10337 3.19239L8.1644 3.53811L6.60764 3.89965L6.54659 3.58797C6.25608 2.14172 5.50874 1.58294 4.50142 1.58294C3.08148 1.58294 1.95207 2.91471 1.95207 6.15177C1.95207 9.20859 2.97517 10.4905 4.40986 10.4905C5.43296 10.4905 6.62342 9.91585 6.62342 7.89382V7.54928H4.37933V6.11891H8.1802V11.7894H6.82132L6.72973 10.3919C6.22555 11.5253 5.23403 11.9866 4.07407 11.9866C1.75418 11.9844 0.242676 9.99634 0.242676 6.26511Z" fill="white"/>
      <path d="M14.04 10.9984C13.5664 11.5402 12.9412 11.9686 11.9339 11.9844C10.4992 11.9844 9.56763 10.9485 9.56763 9.61787C9.56763 8.17161 10.6823 7.46435 11.6591 7.16855L14.0253 6.44541V6.14961C14.0253 5.22927 13.4906 4.7691 12.6517 4.7691C11.8728 4.7691 11.2475 5.29501 10.9728 5.88664L10.9265 5.98524L9.72027 5.29501L9.7971 5.13064C10.1329 4.39053 11.0644 3.37158 12.7885 3.37158C14.5127 3.37158 15.6126 4.30893 15.6126 6.00112V10.324C15.6126 10.7343 15.6284 11.2772 15.7042 11.6388L15.7347 11.7872H14.1474L14.1316 11.7045C14.0853 11.4744 14.0548 11.2443 14.04 10.9984ZM12.3454 10.6856C13.0475 10.6856 13.6738 10.2412 14.0243 9.76521V7.69444L12.3759 8.23735C11.7507 8.45044 11.2002 8.79612 11.2002 9.50338C11.2002 10.2106 11.6433 10.6867 12.3454 10.6867V10.6856Z" fill="white"/>
      <path d="M24.83 4.85167C24.2047 4.85167 23.5479 5.31184 23.1816 5.70627V11.7871H21.5943V6.11659C21.5943 5.27784 21.1975 4.85056 20.4344 4.85056C19.8091 4.85056 19.1523 5.31073 18.786 5.70516V11.786H17.1987V3.56979H18.7103V4.47424C19.2902 3.81687 20.1144 3.37256 20.9691 3.37256C22.0375 3.37256 22.6785 3.89847 22.9837 4.62159C23.5637 3.88147 24.4489 3.37256 25.3647 3.37256C26.9373 3.37256 27.5784 4.50713 27.5784 5.73916V11.7871H25.991V6.11659C25.991 5.27784 25.5941 4.85056 24.831 4.85056L24.83 4.85167Z" fill="white"/>
      <path d="M30.8287 11.0312L30.676 11.7872H29.333V0.282959H30.9201V4.24426C31.3781 3.68549 32.0801 3.37266 32.8127 3.37266C34.5526 3.37266 35.7283 4.77018 35.7283 7.56406C35.7283 10.3579 34.4917 11.9855 32.7518 11.9855C31.9727 11.9855 31.2561 11.6398 30.8287 11.0323V11.0312ZM32.4465 10.6039C33.3474 10.6039 34.1105 9.71644 34.1105 7.61281C34.1105 5.50918 33.317 4.76903 32.4158 4.76903C31.8055 4.76903 31.3012 5.09772 30.9201 5.52503V9.81504C31.317 10.2593 31.8359 10.6039 32.4465 10.6039Z" fill="white"/>
      <path d="M37.04 0.282959H38.6274V11.7872H37.04V0.282959Z" fill="white"/>
      <path d="M40.0315 7.79404C40.0315 5.19739 41.2377 3.37256 43.344 3.37256C44.825 3.37256 46.3806 4.32576 46.3806 7.28402V8.05587H41.5884V8.15447C41.5884 9.74919 42.3672 10.6367 43.4038 10.6367C44.0756 10.6367 44.6407 10.3408 45.0219 9.60073L45.1132 9.41936L46.3648 9.99516L46.289 10.1595C45.7238 11.3756 44.7166 11.9843 43.3587 11.9843C41.4356 11.9843 40.0315 10.521 40.0315 7.7929V7.79404ZM44.8849 6.92244V6.80684C44.8849 5.3107 44.1522 4.75193 43.344 4.75193C42.5355 4.75193 41.7409 5.40933 41.6041 6.9213H44.8859L44.8849 6.92244Z" fill="white"/>
      <path d="M50.5932 0.282959H52.8982L55.9201 11.7872H54.2254L53.4771 8.76322H49.9362L49.1878 11.7872H47.5847L50.5932 0.282959ZM53.1119 7.34985L51.7078 1.69634L50.3037 7.34985H53.1119Z" fill="#EB4A00"/>
      <path d="M55.5225 3.56982H57.1098L58.3611 9.43754L59.7505 3.56982H61.2463L62.6052 9.43754L63.903 3.56982H65.3536L63.3841 11.7871H61.8114L60.438 5.9364L59.0486 11.7871H57.4917L55.5225 3.56982Z" fill="#EB4A00"/>
      <path d="M70.0372 10.9984C69.5636 11.5402 68.9384 11.9686 67.9311 11.9844C66.4963 11.9844 65.5647 10.9485 65.5647 9.61787C65.5647 8.17161 66.6785 7.46435 67.6563 7.16855L70.0225 6.44541V6.14961C70.0225 5.22927 69.4878 4.7691 68.6488 4.7691C67.871 4.7691 67.2447 5.29501 66.9701 5.88664L66.9247 5.98524L65.7185 5.29501L65.7954 5.13064C66.1312 4.39053 67.0625 3.37158 68.7869 3.37158C70.511 3.37158 71.6109 4.30893 71.6109 6.00112V10.324C71.6109 10.7343 71.6266 11.2772 71.7025 11.6388L71.7329 11.7872H70.1456L70.1298 11.7045C70.0847 11.4744 70.054 11.2443 70.0382 10.9984H70.0372ZM68.3435 10.6856C69.0457 10.6856 69.672 10.2412 70.0225 9.76521V7.69444L68.3742 8.23735C67.7479 8.45044 67.1985 8.79612 67.1985 9.50338C67.1985 10.2106 67.6416 10.6867 68.3435 10.6867V10.6856Z" fill="#EB4A00"/>
      <path d="M73.1509 3.56973H74.6319V5.11459C75.6394 3.84856 76.5403 3.4711 77.3034 3.4541V5.04884C76.235 5.04884 75.395 5.69036 74.7393 6.33073V11.787H73.1519V3.56973H73.1509Z" fill="#EB4A00"/>
      <path d="M77.4697 7.79404C77.4697 5.19739 78.6759 3.37256 80.7822 3.37256C82.263 3.37256 83.8199 4.32576 83.8199 7.28402V8.05587H79.0274V8.15447C79.0274 9.74919 79.8062 10.6367 80.8442 10.6367C81.5156 10.6367 82.0811 10.3408 82.462 9.60073L82.5536 9.41936L83.8052 9.99516L83.7293 10.1595C83.1641 11.3756 82.1567 11.9843 80.799 11.9843C78.8759 11.9843 77.4718 10.521 77.4718 7.7929L77.4697 7.79404ZM82.3231 6.92244V6.80684C82.3231 5.3107 81.5905 4.75193 80.7812 4.75193C79.9716 4.75193 79.1781 5.40933 79.0411 6.9213H82.3231V6.92244Z" fill="#EB4A00"/>
    </g>
  </g>
  <defs>
    <clipPath id="clip0_271_88608">
      <rect width="84" height="12" fill="white"/>
    </clipPath>
  </defs>
</svg>