<svg width="49" height="48" viewBox="0 0 49 48" fill="none" xmlns="http://www.w3.org/2000/svg">
<rect x="0.5" width="48" height="48" rx="16" fill="#292929"/>
<path d="M24.5308 8.09637C15.8493 8.09637 8.81641 15.3039 8.81641 24.2009C8.81641 33.098 15.8493 40.3055 24.5308 40.3055C33.2056 40.3055 40.2452 33.098 40.2452 24.2009C40.2452 15.3039 33.2056 8.09637 24.5308 8.09637ZM31.8695 31.7082C31.0851 31.6674 31.0652 31.6401 30.2741 31.4017C30.1412 31.3608 29.3103 30.9793 28.8317 31.2314C28.825 31.2382 28.8117 31.2382 28.8051 31.245C28.6123 31.3676 28.4129 31.4834 28.2068 31.5924C28.1669 31.6129 28.127 31.6333 28.0938 31.6537C27.0169 32.1987 25.8071 32.4985 24.5308 32.4985C20.0571 32.4985 16.4277 28.7857 16.4277 24.2009C16.4277 19.6162 20.0571 15.8966 24.5308 15.8966C29.0045 15.8966 32.6273 19.6162 32.6273 24.2009C32.6273 25.4067 32.3747 26.5512 31.9227 27.5867C31.7897 28.159 31.8961 28.4587 32.1819 28.9696C32.7004 29.9098 33.3319 30.6251 34.216 31.2109C33.4981 31.5311 32.7137 31.7559 31.8695 31.7082Z" fill="#F77C42"/>
<path d="M24.5301 8.16461C18.5142 8.16461 13.2894 11.3324 10.6504 16.7823L20.9339 16.6529L21.2795 16.5848C21.9443 16.1011 23.4067 15.8899 24.6099 15.8899C29.0836 15.8899 32.6665 19.6095 32.6665 24.1942C32.6665 25.4 32.394 26.5445 31.9419 27.58C31.809 28.1523 31.9021 28.452 32.1879 28.9698C32.713 29.9099 33.3379 30.6252 34.2153 31.211C33.4974 31.5312 32.7064 31.756 31.8622 31.7083C31.6096 31.6947 31.4301 31.6811 31.2839 31.6675C31.6362 32.8801 31.8289 34.1676 31.8289 35.5029C31.8289 36.5929 31.7026 37.6488 31.4633 38.657C36.6616 36.0342 40.2379 30.5843 40.2379 24.2419C40.2445 15.3381 33.2049 8.16461 24.5301 8.16461Z" fill="#D25E27"/>
<path d="M24.5307 8.09637C24.2715 8.09637 24.0122 8.10319 23.753 8.11681C29.0775 10.726 32.7535 16.2985 32.7535 22.7567C32.7535 23.6696 32.5275 25.4612 32.5076 25.4681C32.4012 26.1561 32.2151 26.8237 31.9558 27.4437C31.7697 28.1113 31.8694 28.4178 32.1752 28.9765C32.6937 29.9166 33.3252 30.6319 34.2093 31.2177C33.4914 31.5379 32.707 31.7627 31.8561 31.7151C31.0717 31.6742 31.0518 31.6469 30.2607 31.4085C30.1411 31.3744 29.4298 31.0474 28.9446 31.1905C26.7842 35.4551 23.1879 38.5343 18.1426 38.9294C20.0903 39.815 22.2507 40.3123 24.5174 40.3123C33.1922 40.3123 40.2318 33.1048 40.2318 24.2078C40.2451 15.3039 33.2055 8.09637 24.5307 8.09637Z" fill="#D25E27"/>
<path d="M13.4715 28.8469C13.4715 21.4554 19.3145 15.4673 26.5269 15.4673C33.6728 15.4673 39.5026 21.4622 39.6023 28.7583C40.0743 27.2255 40.3069 25.4816 40.3069 23.7853C40.3136 14.895 33.274 7.6875 24.5992 7.6875C15.9177 7.6875 8.88477 14.895 8.88477 23.7921C8.88477 29.787 12.0822 35.0121 16.8151 37.7848C14.7411 35.4141 13.4715 32.2804 13.4715 28.8469Z" fill="#F77C42"/>
<path d="M28.9514 31.2585C28.6921 31.3743 28.4262 31.4833 28.1603 31.5855C28.1537 31.5855 28.147 31.5923 28.1404 31.5923C28.1005 31.6128 28.0606 31.6332 28.0274 31.6536C26.9505 32.1986 25.7407 32.4984 24.4644 32.4984C24.1786 32.4984 23.8927 32.4848 23.6069 32.4507C23.5072 32.4507 23.4141 32.4507 23.3144 32.4507C16.1618 32.4507 10.2523 27.0144 9.29508 19.9499C8.94277 21.3124 8.75 22.7294 8.75 24.2008C8.75 30.8225 12.652 36.5109 18.2225 38.9838C23.228 38.5614 26.8043 35.4958 28.9514 31.2585Z" fill="#E96F35"/>
</svg>
