<svg width="416" height="86" viewBox="0 0 416 86" fill="none" xmlns="http://www.w3.org/2000/svg">
<path d="M42.9965 1.40236C19.3431 1.40236 0.181274 20.2544 0.181274 43.5256C0.181274 66.7967 19.3431 85.6488 42.9965 85.6488C66.6319 85.6488 85.8118 66.7967 85.8118 43.5256C85.8118 20.2544 66.6319 1.40236 42.9965 1.40236ZM62.9915 63.1617C60.8544 63.0547 60.8 62.9835 58.6448 62.3598C58.2826 62.2529 56.0186 61.2551 54.7146 61.9144C54.6965 61.9322 54.6603 61.9322 54.6422 61.95C54.1169 62.2707 53.5736 62.5736 53.0121 62.8587C52.9035 62.9122 52.7948 62.9657 52.7042 63.0191C49.7702 64.4446 46.4739 65.2286 42.9965 65.2286C30.8076 65.2286 20.9188 55.5175 20.9188 43.5256C20.9188 31.5336 30.8076 21.8047 42.9965 21.8047C55.1855 21.8047 65.0562 31.5336 65.0562 43.5256C65.0562 46.6794 64.368 49.673 63.1364 52.3814C62.7742 53.8782 63.0639 54.6622 63.8427 55.9986C65.2554 58.4575 66.976 60.3285 69.3848 61.8609C67.4288 62.6984 65.2916 63.2864 62.9915 63.1617Z" fill="#F77C42"/>
<path d="M42.9964 1.58073C26.6056 1.58073 12.3701 9.86638 5.17987 24.1213L33.1982 23.7827L34.1399 23.6045C35.9511 22.3394 39.9356 21.787 43.2137 21.787C55.4027 21.787 65.1647 31.516 65.1647 43.5079C65.1647 46.6618 64.4221 49.6553 63.1906 52.3638C62.8284 53.8605 63.0819 54.6445 63.8607 55.9988C65.2915 58.4577 66.994 60.3287 69.3847 61.8611C67.4286 62.6986 65.2734 63.2866 62.9732 63.1618C62.285 63.1262 61.796 63.0906 61.3976 63.0549C62.3575 66.2266 62.8827 69.5944 62.8827 73.0868C62.8827 75.9378 62.5386 78.6997 61.8866 81.3368C76.0496 74.4767 85.7936 60.2218 85.7936 43.6326C85.8117 20.3437 66.6317 1.58073 42.9964 1.58073Z" fill="#D25E27"/>
<path d="M42.9963 1.40234C42.29 1.40234 41.5836 1.42015 40.8773 1.45579C55.3845 8.28032 65.4001 22.8559 65.4001 39.748C65.4001 42.1357 64.7843 46.822 64.73 46.8398C64.4402 48.6395 63.9331 50.3857 63.2267 52.0072C62.7196 53.7534 62.9913 54.5553 63.8244 56.0164C65.2371 58.4754 66.9577 60.3463 69.3665 61.8787C67.4105 62.7162 65.2733 63.3042 62.9551 63.1795C60.8179 63.0726 60.7636 63.0013 58.6083 62.3776C58.2823 62.2885 56.3444 61.4332 55.0223 61.8074C49.1361 72.9619 39.3378 81.0159 25.5913 82.0494C30.8979 84.3658 36.7841 85.6666 42.9601 85.6666C66.5954 85.6666 85.7754 66.8145 85.7754 43.5434C85.8116 20.2544 66.6317 1.40234 42.9963 1.40234Z" fill="#D25E27"/>
<path d="M12.8594 55.6779C12.8594 36.3447 28.7793 20.6822 48.4301 20.6822C67.8998 20.6822 83.7835 36.3626 84.0552 55.4463C85.3411 51.4371 85.975 46.8755 85.975 42.4387C85.9931 19.1854 66.8132 0.333328 43.1778 0.333328C19.5244 0.333328 0.362549 19.1854 0.362549 42.4565C0.362549 58.1369 9.07412 71.8038 21.9694 79.056C16.3187 72.8551 12.8594 64.6585 12.8594 55.6779Z" fill="#F77C42"/>
<path d="M55.0404 61.9856C54.3341 62.2885 53.6096 62.5736 52.8852 62.8409C52.8671 62.8409 52.849 62.8587 52.8309 62.8587C52.7222 62.9122 52.6135 62.9656 52.523 63.0191C49.5889 64.4446 46.2927 65.2286 42.8153 65.2286C42.0365 65.2286 41.2577 65.193 40.4789 65.1039C40.2072 65.1039 39.9537 65.1039 39.682 65.1039C20.1942 65.1039 4.09317 50.8846 1.48513 32.4067C0.52523 35.9704 0 39.6767 0 43.5255C0 60.8452 10.6314 75.7238 25.8087 82.1919C39.4466 81.0872 49.1905 73.0688 55.0404 61.9856Z" fill="#E96F35"/>
<path d="M110.389 55.1966V11.4341H120.459V27.2748C122.867 26.8472 125.149 26.6334 127.341 26.6334C133.571 26.6334 138.353 28.4152 141.685 31.9789C145.036 35.5427 146.702 40.6744 146.702 47.3742C146.702 51.0627 146.213 54.3057 145.235 57.121C144.257 59.9363 143.098 62.0568 141.776 63.5179C140.454 64.9612 138.842 66.155 136.994 67.0638C135.129 67.9725 133.517 68.5427 132.14 68.7566C130.764 68.9704 129.388 69.0773 127.993 69.0773C122.016 69.0773 117.579 67.7231 114.699 64.9968C111.82 62.2884 110.389 59.0276 110.389 55.1966ZM120.459 56.141C120.459 59.0989 122.958 60.5778 127.993 60.5778C131.181 60.5778 133.426 59.5087 134.712 57.3705C135.998 55.2322 136.632 51.722 136.632 46.8397C136.632 42.2068 135.799 38.9638 134.151 37.1285C132.503 35.2754 130.112 34.3666 126.961 34.3666C124.497 34.3666 122.324 34.5983 120.459 35.0616V56.141Z" fill="white"/>
<path d="M153.367 48.3008C153.367 41.6901 154.87 36.4158 157.859 32.4601C160.847 28.5044 165.592 26.5443 172.094 26.5443C178.234 26.5443 182.888 28.4687 186.04 32.2997C189.191 36.1486 190.767 40.8705 190.767 46.4834C190.767 48.7998 190.713 50.4925 190.604 51.5973H163.437C163.709 55.161 164.795 57.5665 166.697 58.7604C168.599 59.972 171.062 60.5779 174.086 60.5779C178.995 60.5779 183.74 59.5266 188.34 57.3883V65.3711C183.703 67.8479 178.451 69.0774 172.583 69.0774C170.718 69.0774 168.979 68.9348 167.349 68.6319C165.719 68.329 164.016 67.7231 162.26 66.7788C160.503 65.8344 159 64.6405 157.732 63.1972C156.464 61.7539 155.432 59.7404 154.617 57.1745C153.784 54.6086 153.367 51.6507 153.367 48.3008ZM163.437 44.7549H180.299C180.027 41.9396 179.176 39.5519 177.745 37.5919C176.314 35.6496 174.34 34.6696 171.822 34.6696C169.305 34.6696 167.349 35.4715 165.936 37.0395C164.56 38.6432 163.709 41.209 163.437 44.7549Z" fill="white"/>
<path d="M193.321 35.7743V27.2748H200.366V15.0513H210.436V27.257H220.343V35.7565H210.436V56.0519C210.436 57.8159 210.816 59.0276 211.559 59.6334C212.32 60.2571 213.642 60.56 215.561 60.56C217.373 60.56 218.966 60.2571 220.343 59.6691V67.8478C218.387 68.6497 216.232 69.0595 213.913 69.0595C213.841 69.0595 213.768 69.0595 213.714 69.0595C209.567 69.0595 206.307 67.8478 203.934 65.4423C201.561 63.019 200.366 59.6869 200.366 55.4461V35.7743H193.321Z" fill="white"/>
<path d="M226.446 55.7846C226.446 53.9315 226.791 52.2744 227.497 50.8132C228.203 49.3521 229.054 48.1583 230.051 47.2495C231.065 46.3408 232.351 45.5568 233.908 44.9153C235.466 44.2738 236.842 43.7927 238.038 43.4898C239.233 43.1869 240.664 42.9552 242.312 42.7949C243.96 42.6345 245.137 42.5454 245.826 42.5098C246.514 42.492 247.347 42.4741 248.307 42.4741L255.026 42.8661C255.026 39.1242 253.994 36.4693 251.947 34.8656C249.883 33.2619 246.84 32.4779 242.819 32.4779C238.291 32.4779 234.216 33.1372 230.576 34.4558V28.7004C234.705 27.2749 238.889 26.5621 243.145 26.5621C249.013 26.5621 253.487 28.0232 256.566 30.9277C259.645 33.8499 261.184 38.1086 261.184 43.7214V56.0876C261.184 58.7247 260.568 60.9699 259.319 62.8408C258.069 64.7118 256.475 66.066 254.537 66.8856C252.581 67.7231 250.752 68.2933 249.049 68.614C247.347 68.9348 245.663 69.0951 243.996 69.0951C242.71 69.0951 241.388 69.0061 240.048 68.8457C238.69 68.6853 237.168 68.3111 235.448 67.7409C233.745 67.1529 232.26 66.4224 231.01 65.5136C229.743 64.6049 228.674 63.3219 227.787 61.6292C226.881 59.9364 226.446 57.9942 226.446 55.7846ZM232.496 55.7846C232.496 60.9164 236.281 63.4823 243.87 63.4823C243.888 63.4823 243.942 63.4823 243.996 63.4823C251.404 63.4823 255.117 61.0055 255.117 56.0341V48.1405C253.269 47.8197 250.788 47.6594 247.673 47.6594C237.567 47.6415 232.496 50.3678 232.496 55.7846Z" fill="white"/>
<path d="M270.167 68.4361V30.5181C276.47 27.9166 283.244 26.6337 290.47 26.6337V32.2287C285.906 32.3356 281.143 33.0484 276.216 34.3669V68.4361H270.167Z" fill="white"/>
<path d="M294.273 48.3721C294.273 48.3187 294.273 48.2296 294.273 48.087C294.273 47.9623 294.273 47.8376 294.273 47.7663C294.273 33.6183 300.377 26.5443 312.602 26.5443C315.156 26.5443 317.474 26.9363 319.539 27.7382C321.622 28.5222 323.27 29.4666 324.483 30.5357C325.697 31.6048 326.783 33.0125 327.707 34.7409C328.631 36.4693 329.283 37.9482 329.681 39.1599C330.08 40.3716 330.387 41.8327 330.605 43.5433C330.822 45.2004 330.931 46.2517 330.931 46.6794V48.4434L330.768 51.3478H300.341C300.721 55.4817 302.007 58.4931 304.198 60.3462C306.39 62.2172 309.632 63.1438 313.924 63.1438C319.992 63.1438 324.773 62.1281 328.25 60.079V66.2086C324.23 68.1152 319.34 69.0595 313.598 69.0595C313.526 69.0595 313.435 69.0595 313.345 69.0595C310.9 69.0595 308.654 68.7744 306.607 68.1864C304.561 67.6162 302.55 66.6184 300.594 65.1929C298.62 63.7674 297.081 61.6292 295.958 58.7604C294.835 55.9272 294.273 52.4526 294.273 48.3721ZM300.341 46.0735H324.864C324.864 45.1291 324.755 44.0778 324.519 42.9374C324.284 41.7792 323.831 40.3003 323.125 38.4828C322.419 36.6653 321.169 35.1507 319.358 33.9569C317.547 32.7452 315.283 32.1394 312.602 32.1394C308.455 32.1394 305.43 33.2085 303.565 35.3289C301.681 37.4493 300.612 41.0309 300.341 46.0735Z" fill="white"/>
<path d="M339.262 68.4359V30.5713C344.75 27.8807 350.654 26.5443 356.975 26.5443C362.245 26.5443 366.32 27.8629 369.218 30.5001C372.116 33.1372 373.583 36.8435 373.583 41.6189V68.4537H367.516V41.6011C367.516 40.4428 367.389 39.4272 367.154 38.5184C366.9 37.6275 366.429 36.6653 365.723 35.6318C365.016 34.6162 363.875 33.8321 362.282 33.2798C360.706 32.7274 358.714 32.4601 356.323 32.4601C352.809 32.4601 349.151 33.0125 345.329 34.1172V68.4359H339.262Z" fill="white"/>
<path d="M381.262 55.7846C381.262 53.9315 381.606 52.2744 382.313 50.8132C383.001 49.3521 383.87 48.1583 384.867 47.2495C385.881 46.3408 387.167 45.5568 388.724 44.9153C390.282 44.2738 391.658 43.7927 392.854 43.4898C394.049 43.1869 395.48 42.9552 397.128 42.7949C398.776 42.6345 399.953 42.5454 400.642 42.5098C401.33 42.492 402.163 42.4741 403.123 42.4741L409.842 42.8661C409.842 39.1242 408.81 36.4693 406.763 34.8656C404.698 33.2619 401.656 32.4779 397.635 32.4779C393.107 32.4779 389.032 33.1372 385.392 34.4558V28.7004C389.521 27.2749 393.705 26.5621 397.961 26.5621C403.829 26.5621 408.303 28.0232 411.382 30.9277C414.46 33.8499 416 38.1086 416 43.7214V56.0876C416 58.7247 415.384 60.9699 414.134 62.8408C412.885 64.7118 411.291 66.066 409.353 66.8856C407.397 67.7231 405.568 68.2933 403.865 68.614C402.163 68.9348 400.479 69.0951 398.812 69.0951C397.526 69.0951 396.204 69.0061 394.864 68.8457C393.506 68.6853 391.984 68.3111 390.264 67.7409C388.561 67.1529 387.076 66.4224 385.808 65.5136C384.559 64.6049 383.472 63.3219 382.584 61.6292C381.715 59.9364 381.262 57.9942 381.262 55.7846ZM387.33 55.7846C387.33 60.9164 391.115 63.4823 398.685 63.4823C398.704 63.4823 398.758 63.4823 398.812 63.4823C406.22 63.4823 409.933 61.0055 409.933 56.0341V48.1405C408.085 47.8197 405.604 47.6594 402.489 47.6594C392.383 47.6415 387.33 50.3678 387.33 55.7846Z" fill="white"/>
</svg>
