<svg width="40" height="43" viewBox="0 0 40 43" fill="none" xmlns="http://www.w3.org/2000/svg">
<g filter="url(#filter0_d_5036_38599)">
<path d="M20 0L28.7 4.93116L37.3205 10L37.4 20L37.3205 30L28.7 35.0688L20 40L11.3 35.0688L2.67949 30L2.6 20L2.67949 10L11.3 4.93116L20 0Z" fill="url(#paint0_linear_5036_38599)"/>
<path d="M20 0L28.7 4.93116L37.3205 10L37.4 20L37.3205 30L28.7 35.0688L20 40L11.3 35.0688L2.67949 30L2.6 20L2.67949 10L11.3 4.93116L20 0Z" fill="url(#paint1_linear_5036_38599)"/>
</g>
<path d="M13.0469 22.8261V21.8534H13.8183V17.9292H13.0469V16.9565H16.0655C16.4233 16.9565 16.7335 17.018 16.9963 17.141C17.2646 17.2584 17.4714 17.4289 17.6168 17.6525C17.7677 17.8705 17.8431 18.1333 17.8431 18.4407V18.5246C17.8431 18.7929 17.7928 19.0137 17.6922 19.187C17.5916 19.3547 17.4714 19.486 17.3317 19.5811C17.1975 19.6705 17.0689 19.7348 16.9459 19.7739V19.9249C17.0689 19.9584 17.2031 20.0227 17.3484 20.1177C17.4938 20.2072 17.6168 20.3385 17.7174 20.5118C17.8236 20.6851 17.8767 20.9115 17.8767 21.191V21.2749C17.8767 21.5991 17.8012 21.8786 17.6503 22.1134C17.4994 22.3426 17.2897 22.5187 17.0214 22.6416C16.7587 22.7646 16.4512 22.8261 16.099 22.8261H13.0469ZM14.9251 21.8199H15.9649C16.2053 21.8199 16.3981 21.7612 16.5435 21.6438C16.6944 21.5264 16.7699 21.3587 16.7699 21.1407V21.0569C16.7699 20.8388 16.6972 20.6711 16.5518 20.5537C16.4065 20.4364 16.2109 20.3777 15.9649 20.3777H14.9251V21.8199ZM14.9251 19.3714H15.9481C16.1773 19.3714 16.3646 19.3128 16.5099 19.1954C16.6608 19.078 16.7363 18.9159 16.7363 18.709V18.6252C16.7363 18.4128 16.6636 18.2506 16.5183 18.1388C16.373 18.0214 16.1829 17.9628 15.9481 17.9628H14.9251V19.3714Z" fill="#848484"/>
<path d="M19.7914 22.8261V17.9628H18.0808V16.9565H22.6088V17.9628H20.8982V22.8261H19.7914Z" fill="#848484"/>
<path d="M22.168 22.8261L23.7109 16.9565H25.6394L27.1823 22.8261H26.0419L25.7233 21.5348H23.627L23.3084 22.8261H22.168ZM23.887 20.5118H25.4634L24.7506 17.6525H24.5997L23.887 20.5118Z" fill="#848484"/>
<path fill-rule="evenodd" clip-rule="evenodd" d="M5.64528 19.1073H6.24604H7.44958C7.43084 19.3875 7.42131 19.6702 7.42131 19.9552C7.42131 20.2406 7.43087 20.5238 7.44967 20.8044H6.24604H5.64526L5.70528 21.4022C6.43015 28.6217 12.5258 34.2576 19.9358 34.2576C27.3477 34.2576 33.441 28.6217 34.1658 21.4022L34.2259 20.8044H33.6251H32.4254C32.4442 20.5238 32.4538 20.2406 32.4538 19.9552C32.4538 19.6702 32.4443 19.3875 32.4255 19.1073H33.6251H34.2258L34.1658 18.5096C33.441 11.2878 27.3478 5.65186 19.9358 5.65186C12.5258 5.65186 6.43013 11.2877 5.70528 18.5096L5.64528 19.1073ZM32.3051 18.0203H33.0106C32.075 11.6378 26.578 6.73881 19.9358 6.73881C13.2954 6.73881 7.7963 11.6378 6.86057 18.0203H7.56996C8.50009 12.0267 13.683 7.43907 19.9374 7.43907C26.1919 7.43907 31.375 12.0267 32.3051 18.0203ZM32.3049 21.8914C31.3743 27.8846 26.1915 32.4716 19.9374 32.4716C13.6834 32.4716 8.50081 27.8846 7.57015 21.8914H6.8606C7.79641 28.2717 13.2954 33.1706 19.9358 33.1706C26.578 33.1706 32.0749 28.2717 33.0105 21.8914H32.3049ZM8.50827 19.9552C8.50827 26.2675 13.6252 31.3846 19.9374 31.3846C26.2497 31.3846 31.3668 26.2675 31.3668 19.9552C31.3668 13.6432 26.2497 8.52603 19.9374 8.52603C13.6252 8.52603 8.50827 13.6431 8.50827 19.9552Z" fill="#848484"/>
<defs>
<filter id="filter0_d_5036_38599" x="1.9269" y="0" width="36.1462" height="42.0192" filterUnits="userSpaceOnUse" color-interpolation-filters="sRGB">
<feFlood flood-opacity="0" result="BackgroundImageFix"/>
<feColorMatrix in="SourceAlpha" type="matrix" values="0 0 0 0 0 0 0 0 0 0 0 0 0 0 0 0 0 0 127 0" result="hardAlpha"/>
<feOffset dy="1.34615"/>
<feGaussianBlur stdDeviation="0.336536"/>
<feComposite in2="hardAlpha" operator="out"/>
<feColorMatrix type="matrix" values="0 0 0 0 0 0 0 0 0 0 0 0 0 0 0 0 0 0 0.08 0"/>
<feBlend mode="normal" in2="BackgroundImageFix" result="effect1_dropShadow_5036_38599"/>
<feBlend mode="normal" in="SourceGraphic" in2="effect1_dropShadow_5036_38599" result="shape"/>
</filter>
<linearGradient id="paint0_linear_5036_38599" x1="1.65681" y1="3.31361" x2="34.5562" y2="36.4497" gradientUnits="userSpaceOnUse">
<stop stop-color="white"/>
<stop offset="1" stop-color="#D5D5D5"/>
</linearGradient>
<linearGradient id="paint1_linear_5036_38599" x1="20" y1="0" x2="20" y2="40" gradientUnits="userSpaceOnUse">
<stop stop-color="#94C0E3"/>
<stop offset="1" stop-color="white"/>
</linearGradient>
</defs>
</svg>
