<svg width="42" height="43" viewBox="0 0 42 43" fill="none" xmlns="http://www.w3.org/2000/svg">
<g filter="url(#filter0_d_5036_38617)">
<path d="M20.9999 0L25.5034 3.19289L30.9999 2.67949L33.3036 7.69634L38.3204 10L37.807 15.4965L40.9999 20L37.807 24.5035L38.3204 30L33.3036 32.3037L30.9999 37.3205L25.5034 36.8071L20.9999 40L16.4965 36.8071L10.9999 37.3205L8.69628 32.3037L3.67943 30L4.19283 24.5035L0.999939 20L4.19283 15.4965L3.67943 10L8.69628 7.69634L10.9999 2.67949L16.4965 3.19289L20.9999 0Z" fill="url(#paint0_linear_5036_38617)"/>
<path d="M20.9999 0L25.5034 3.19289L30.9999 2.67949L33.3036 7.69634L38.3204 10L37.807 15.4965L40.9999 20L37.807 24.5035L38.3204 30L33.3036 32.3037L30.9999 37.3205L25.5034 36.8071L20.9999 40L16.4965 36.8071L10.9999 37.3205L8.69628 32.3037L3.67943 30L4.19283 24.5035L0.999939 20L4.19283 15.4965L3.67943 10L8.69628 7.69634L10.9999 2.67949L16.4965 3.19289L20.9999 0Z" fill="url(#paint1_linear_5036_38617)"/>
</g>
<path d="M13.7304 22.9547V21.9378H14.5369V17.8352H13.7304V16.8184H16.8863C17.2603 16.8184 17.5846 16.8826 17.8593 17.0112C18.1398 17.1339 18.3561 17.3122 18.508 17.546C18.6658 17.7739 18.7447 18.0486 18.7447 18.37V18.4576C18.7447 18.7382 18.6921 18.969 18.5869 19.1502C18.4817 19.3255 18.3561 19.4628 18.21 19.5622C18.0697 19.6557 17.9353 19.7229 17.8067 19.7638V19.9216C17.9353 19.9567 18.0755 20.0239 18.2275 20.1232C18.3794 20.2167 18.508 20.3541 18.6132 20.5352C18.7242 20.7164 18.7798 20.9531 18.7798 21.2453V21.333C18.7798 21.6719 18.7009 21.9641 18.5431 22.2096C18.3853 22.4492 18.1661 22.6333 17.8856 22.7619C17.6109 22.8904 17.2895 22.9547 16.9213 22.9547H13.7304ZM15.694 21.9028H16.7811C17.0324 21.9028 17.234 21.8414 17.3859 21.7187C17.5437 21.596 17.6226 21.4206 17.6226 21.1927V21.105C17.6226 20.8771 17.5466 20.7018 17.3947 20.5791C17.2427 20.4563 17.0382 20.395 16.7811 20.395H15.694V21.9028ZM15.694 19.343H16.7635C17.0031 19.343 17.1989 19.2817 17.3509 19.1589C17.5087 19.0362 17.5876 18.8667 17.5876 18.6505V18.5628C17.5876 18.3408 17.5116 18.1713 17.3596 18.0544C17.2077 17.9317 17.009 17.8703 16.7635 17.8703H15.694V19.343Z" fill="#0E7F83"/>
<path d="M20.7815 22.9547V17.8703H18.9932V16.8184H23.7269V17.8703H21.9386V22.9547H20.7815Z" fill="#0E7F83"/>
<path d="M23.2662 22.9547L24.8791 16.8184H26.8954L28.5084 22.9547H27.3162L26.983 21.6047H24.7915L24.4584 22.9547H23.2662ZM25.0632 20.5352H26.7113L25.9662 17.546H25.8084L25.0632 20.5352Z" fill="#0E7F83"/>
<path fill-rule="evenodd" clip-rule="evenodd" d="M5.87966 19.0675H6.50772H7.76596C7.74637 19.3604 7.73642 19.656 7.73642 19.9538C7.73642 20.2522 7.74641 20.5483 7.76607 20.8417H6.50772H5.87964L5.94238 21.4667C6.7002 29.0144 13.073 34.9064 20.8197 34.9064C28.5686 34.9064 34.9388 29.0143 35.6966 21.4667L35.7593 20.8417H35.1313H33.8771C33.8967 20.5483 33.9067 20.2522 33.9067 19.9538C33.9067 19.656 33.8968 19.3604 33.8772 19.0675H35.1313H35.7593L35.6966 18.4426C34.9389 10.8926 28.5687 5.00049 20.8197 5.00049C13.0729 5.00049 6.70018 10.8925 5.94238 18.4426L5.87966 19.0675ZM33.7513 17.9312H34.4888C33.5107 11.2585 27.7639 6.13685 20.8197 6.13685C13.8775 6.13685 8.12845 11.2586 7.15018 17.9312H7.8918C8.86413 11.665 14.2826 6.86877 20.8214 6.86877C27.3603 6.86877 32.779 11.665 33.7513 17.9312ZM33.7511 21.9781C32.7781 28.2437 27.3598 33.0391 20.8214 33.0391C14.2832 33.0391 8.86505 28.2437 7.89204 21.9781H7.15021C8.12857 28.6484 13.8775 33.7701 20.8197 33.7701C27.7638 33.7701 33.5106 28.6485 34.4888 21.9781H33.7511ZM8.87278 19.9538C8.87278 26.553 14.2223 31.9027 20.8214 31.9027C27.4206 31.9027 32.7704 26.553 32.7704 19.9538C32.7704 13.3549 27.4207 8.00514 20.8214 8.00514C14.2223 8.00514 8.87278 13.3549 8.87278 19.9538Z" fill="#0E7F83"/>
<defs>
<filter id="filter0_d_5036_38617" x="0.296272" y="0" width="41.4073" height="42.111" filterUnits="userSpaceOnUse" color-interpolation-filters="sRGB">
<feFlood flood-opacity="0" result="BackgroundImageFix"/>
<feColorMatrix in="SourceAlpha" type="matrix" values="0 0 0 0 0 0 0 0 0 0 0 0 0 0 0 0 0 0 127 0" result="hardAlpha"/>
<feOffset dy="1.40733"/>
<feGaussianBlur stdDeviation="0.351834"/>
<feComposite in2="hardAlpha" operator="out"/>
<feColorMatrix type="matrix" values="0 0 0 0 0 0 0 0 0 0 0 0 0 0 0 0 0 0 0.08 0"/>
<feBlend mode="normal" in2="BackgroundImageFix" result="effect1_dropShadow_5036_38617"/>
<feBlend mode="normal" in="SourceGraphic" in2="effect1_dropShadow_5036_38617" result="shape"/>
</filter>
<linearGradient id="paint0_linear_5036_38617" x1="2.65674" y1="3.31361" x2="35.5562" y2="36.4497" gradientUnits="userSpaceOnUse">
<stop stop-color="#41E2E8"/>
<stop offset="1" stop-color="#14B9BE"/>
</linearGradient>
<linearGradient id="paint1_linear_5036_38617" x1="20.9999" y1="0" x2="20.9999" y2="40" gradientUnits="userSpaceOnUse">
<stop stop-color="#30A8FF"/>
<stop offset="1" stop-color="#00FFD1"/>
</linearGradient>
</defs>
</svg>
