<svg width="42" height="43" viewBox="0 0 42 43" fill="none" xmlns="http://www.w3.org/2000/svg">
<g filter="url(#filter0_d_5036_38608)">
<path d="M21 0L27.6587 3.9245L35.1421 5.85786L37.0755 13.3413L41 20L37.0755 26.6587L35.1421 34.1421L27.6587 36.0755L21 40L14.3413 36.0755L6.85786 34.1421L4.9245 26.6587L1 20L4.9245 13.3413L6.85786 5.85786L14.3413 3.9245L21 0Z" fill="url(#paint0_linear_5036_38608)"/>
<path d="M21 0L27.6587 3.9245L35.1421 5.85786L37.0755 13.3413L41 20L37.0755 26.6587L35.1421 34.1421L27.6587 36.0755L21 40L14.3413 36.0755L6.85786 34.1421L4.9245 26.6587L1 20L4.9245 13.3413L6.85786 5.85786L14.3413 3.9245L21 0Z" fill="url(#paint1_linear_5036_38608)"/>
</g>
<path d="M13.7266 22.9547V21.9378H14.5331V17.8352H13.7266V16.8184H16.8824C17.2564 16.8184 17.5808 16.8826 17.8555 17.0112C18.136 17.1339 18.3522 17.3122 18.5042 17.546C18.662 17.7739 18.7408 18.0486 18.7408 18.37V18.4576C18.7408 18.7382 18.6883 18.969 18.5831 19.1502C18.4779 19.3255 18.3522 19.4628 18.2061 19.5622C18.0658 19.6557 17.9314 19.7229 17.8029 19.7638V19.9216C17.9314 19.9567 18.0717 20.0239 18.2236 20.1232C18.3756 20.2167 18.5042 20.3541 18.6094 20.5352C18.7204 20.7164 18.7759 20.9531 18.7759 21.2453V21.333C18.7759 21.6719 18.697 21.9641 18.5392 22.2096C18.3814 22.4492 18.1623 22.6333 17.8818 22.7619C17.6071 22.8904 17.2857 22.9547 16.9175 22.9547H13.7266ZM15.6902 21.9028H16.7772C17.0285 21.9028 17.2301 21.8414 17.3821 21.7187C17.5399 21.596 17.6188 21.4206 17.6188 21.1927V21.105C17.6188 20.8771 17.5428 20.7018 17.3908 20.5791C17.2389 20.4563 17.0344 20.395 16.7772 20.395H15.6902V21.9028ZM15.6902 19.343H16.7597C16.9993 19.343 17.1951 19.2817 17.347 19.1589C17.5048 19.0362 17.5837 18.8667 17.5837 18.6505V18.5628C17.5837 18.3408 17.5077 18.1713 17.3558 18.0544C17.2038 17.9317 17.0051 17.8703 16.7597 17.8703H15.6902V19.343Z" fill="#9C5E00"/>
<path d="M20.7776 22.9547V17.8703H18.9893V16.8184H23.7231V17.8703H21.9348V22.9547H20.7776Z" fill="#9C5E00"/>
<path d="M23.2623 22.9547L24.8753 16.8184H26.8915L28.5045 22.9547H27.3123L26.9792 21.6047H24.7876L24.4545 22.9547H23.2623ZM25.0594 20.5352H26.7074L25.9623 17.546H25.8045L25.0594 20.5352Z" fill="#9C5E00"/>
<path fill-rule="evenodd" clip-rule="evenodd" d="M5.87978 18.9528H6.50785H7.76218C7.74259 19.2457 7.73263 19.5412 7.73263 19.8391C7.73263 20.1375 7.74262 20.4337 7.76229 20.7271H6.50785H5.87976L5.94251 21.3521C6.70032 28.8998 13.0731 34.7918 20.8199 34.7918C28.5687 34.7918 34.939 28.8997 35.6967 21.3521L35.7595 20.7271H35.1314H33.8733C33.893 20.4337 33.9029 20.1375 33.9029 19.8391C33.9029 19.5412 33.893 19.2457 33.8734 18.9528H35.1314H35.7594L35.6967 18.3279C34.939 10.7779 28.5688 4.88574 20.8199 4.88574C13.073 4.88574 6.7003 10.7778 5.94251 18.3279L5.87978 18.9528ZM33.7476 17.8164H34.4889C33.5108 11.1437 27.764 6.02211 20.8199 6.02211C13.8776 6.02211 8.12857 11.1438 7.15031 17.8164H7.88801C8.86035 11.5503 14.2789 6.75403 20.8177 6.75403C27.3565 6.75403 32.7752 11.5503 33.7476 17.8164ZM33.7473 21.8635C32.7742 28.129 27.3559 32.9244 20.8177 32.9244C14.2795 32.9244 8.86133 28.129 7.88828 21.8635H7.15034C8.12869 28.5338 13.8777 33.6554 20.8199 33.6554C27.7639 33.6554 33.5107 28.5338 34.4889 21.8635H33.7473ZM8.869 19.8391C8.869 26.4383 14.2186 31.788 20.8177 31.788C27.4169 31.788 32.7666 26.4383 32.7666 19.8391C32.7666 13.2401 27.4169 7.89039 20.8177 7.89039C14.2186 7.89039 8.869 13.2401 8.869 19.8391Z" fill="#9C5E00"/>
<defs>
<filter id="filter0_d_5036_38608" x="0.296333" y="0" width="41.4073" height="42.111" filterUnits="userSpaceOnUse" color-interpolation-filters="sRGB">
<feFlood flood-opacity="0" result="BackgroundImageFix"/>
<feColorMatrix in="SourceAlpha" type="matrix" values="0 0 0 0 0 0 0 0 0 0 0 0 0 0 0 0 0 0 127 0" result="hardAlpha"/>
<feOffset dy="1.40733"/>
<feGaussianBlur stdDeviation="0.351834"/>
<feComposite in2="hardAlpha" operator="out"/>
<feColorMatrix type="matrix" values="0 0 0 0 0 0 0 0 0 0 0 0 0 0 0 0 0 0 0.08 0"/>
<feBlend mode="normal" in2="BackgroundImageFix" result="effect1_dropShadow_5036_38608"/>
<feBlend mode="normal" in="SourceGraphic" in2="effect1_dropShadow_5036_38608" result="shape"/>
</filter>
<linearGradient id="paint0_linear_5036_38608" x1="2.65681" y1="3.31361" x2="35.5562" y2="36.4497" gradientUnits="userSpaceOnUse">
<stop stop-color="#F3B130"/>
<stop offset="1" stop-color="#DF8600"/>
</linearGradient>
<linearGradient id="paint1_linear_5036_38608" x1="21" y1="0" x2="21" y2="40" gradientUnits="userSpaceOnUse">
<stop stop-color="#FFDD3A"/>
<stop offset="1" stop-color="#FF8800"/>
</linearGradient>
</defs>
</svg>
