<svg width="40" height="40" viewBox="0 0 40 40" fill="none" xmlns="http://www.w3.org/2000/svg">
<circle cx="20" cy="20" r="20" fill="url(#paint0_linear_5036_38590)"/>
<path d="M11.8164 23.6511V22.5065H12.7242V17.8887H11.8164V16.7441H15.3686C15.7896 16.7441 16.1546 16.8165 16.4638 16.9612C16.7796 17.0994 17.0229 17.3 17.194 17.5631C17.3716 17.8197 17.4604 18.1288 17.4604 18.4906V18.5893C17.4604 18.905 17.4012 19.1649 17.2828 19.3688C17.1644 19.5661 17.023 19.7207 16.8585 19.8325C16.7006 19.9378 16.5493 20.0134 16.4046 20.0595V20.2371C16.5493 20.2766 16.7072 20.3522 16.8782 20.464C17.0493 20.5693 17.194 20.7239 17.3124 20.9278C17.4374 21.1317 17.4999 21.3981 17.4999 21.727V21.8257C17.4999 22.2072 17.4111 22.5361 17.2334 22.8124C17.0558 23.0821 16.8092 23.2893 16.4934 23.434C16.1842 23.5788 15.8225 23.6511 15.408 23.6511H11.8164ZM14.0266 22.4671H15.2502C15.533 22.4671 15.76 22.398 15.931 22.2599C16.1086 22.1217 16.1974 21.9244 16.1974 21.6678V21.5692C16.1974 21.3126 16.1119 21.1153 15.9409 20.9771C15.7698 20.839 15.5396 20.7699 15.2502 20.7699H14.0266V22.4671ZM14.0266 19.5859H15.2304C15.5001 19.5859 15.7205 19.5168 15.8915 19.3787C16.0691 19.2405 16.1579 19.0498 16.1579 18.8064V18.7077C16.1579 18.4577 16.0724 18.267 15.9014 18.1354C15.7304 17.9973 15.5067 17.9282 15.2304 17.9282H14.0266V19.5859Z" fill="#7D3113"/>
<path d="M19.753 23.6511V17.9282H17.7401V16.7441H23.0683V17.9282H21.0554V23.6511H19.753Z" fill="#7D3113"/>
<path d="M22.5497 23.6511L24.3652 16.7441H26.6346L28.4502 23.6511H27.1083L26.7333 22.1316H24.2665L23.8916 23.6511H22.5497ZM24.5724 20.9278H26.4274L25.5887 17.5631H25.4111L24.5724 20.9278Z" fill="#7D3113"/>
<path fill-rule="evenodd" clip-rule="evenodd" d="M2.97268 19.0895H3.67962H5.09287C5.07082 19.4192 5.05961 19.7518 5.05961 20.0871C5.05961 20.423 5.07086 20.7563 5.09299 21.0866H3.67962H2.97266L3.04328 21.79C3.89626 30.2856 11.0693 36.9175 19.7889 36.9175C28.5109 36.9175 35.6812 30.2855 36.5341 21.79L36.6047 21.0866H35.8977H34.4831C34.5052 20.7563 34.5164 20.423 34.5164 20.0871C34.5164 19.7518 34.5052 19.4192 34.4832 19.0895H35.8977H36.6047L36.5341 18.3861C35.6812 9.88793 28.511 3.25586 19.7889 3.25586C11.0693 3.25586 3.89625 9.88785 3.04328 18.3861L2.97268 19.0895ZM34.3415 17.8104H35.1746C34.0737 10.2998 27.6051 4.53493 19.7889 4.53493C11.9749 4.53493 5.50388 10.2998 4.40276 17.8104H5.23452C6.32899 10.7574 12.428 5.35884 19.7879 5.35884C27.1479 5.35884 33.247 10.7573 34.3415 17.8104ZM34.3413 22.3656C33.246 29.418 27.1473 34.8157 19.7879 34.8157C12.4285 34.8157 6.32997 29.418 5.23478 22.3656H4.40279C5.50401 29.8736 11.975 35.6384 19.7889 35.6384C27.6051 35.6384 34.0736 29.8737 35.1746 22.3656H34.3413ZM6.33868 20.0871C6.33868 27.5151 12.3601 33.5366 19.7879 33.5366C27.2158 33.5366 33.2374 27.5151 33.2374 20.0871C33.2374 12.6595 27.2158 6.63791 19.7879 6.63791C12.36 6.63791 6.33868 12.6595 6.33868 20.0871Z" fill="#7D3113"/>
<defs>
<linearGradient id="paint0_linear_5036_38590" x1="1.65681" y1="3.31361" x2="34.5562" y2="36.4497" gradientUnits="userSpaceOnUse">
<stop stop-color="#ED622D"/>
<stop offset="1" stop-color="#FF8C61"/>
</linearGradient>
</defs>
</svg>
