<svg width="18" height="16" viewBox="0 0 18 16" fill="none" xmlns="http://www.w3.org/2000/svg">
<path d="M17.9199 1.92204C17.3377 2.19225 16.7256 2.38041 16.0987 2.48186C16.3918 2.42769 16.823 1.85884 16.9947 1.62859C17.2554 1.28128 17.4542 0.884795 17.5808 0.459281C17.5808 0.427678 17.6101 0.382531 17.5808 0.359957C17.566 0.351264 17.5495 0.346708 17.5327 0.346708C17.5158 0.346708 17.4993 0.351264 17.4845 0.359957C16.8038 0.757441 16.0794 1.06081 15.3283 1.2629C15.3021 1.27152 15.2743 1.27229 15.2477 1.26513C15.2212 1.25798 15.1969 1.24316 15.1776 1.22226C15.1191 1.1472 15.0562 1.07632 14.9892 1.01007C14.6829 0.714112 14.3353 0.47188 13.9592 0.292237C13.4516 0.0676658 12.9033 -0.029591 12.3557 0.00781131C11.8244 0.0439956 11.3056 0.197671 10.8317 0.459281C10.365 0.735093 9.95489 1.10979 9.62592 1.56087C9.27987 2.02513 9.03004 2.56393 8.89323 3.14101C8.78041 3.68993 8.76762 4.25726 8.85555 4.81144C8.85555 4.90625 8.85555 4.9198 8.78019 4.90625C5.79501 4.43221 3.34574 3.28999 1.34445 0.838515C1.25653 0.730162 1.21047 0.730162 1.1393 0.838515C0.268446 2.26516 0.691312 4.5225 1.77988 5.63763C1.92641 5.78662 2.07714 5.93109 2.23624 6.06653C1.73714 6.02832 1.25023 5.88247 0.804355 5.63763C0.720619 5.57894 0.674564 5.61054 0.670378 5.7189C0.658509 5.86911 0.658509 6.02015 0.670378 6.17037C0.757737 6.89028 1.02084 7.57225 1.43279 8.14655C1.84474 8.72086 2.39075 9.16688 3.01498 9.439C3.16715 9.50929 3.32571 9.56225 3.48809 9.59702C3.02604 9.69511 2.55216 9.71036 2.08551 9.64217C1.98503 9.61959 1.94735 9.67828 1.98503 9.78212C2.60049 11.588 3.93607 12.1388 4.91578 12.4458C5.04976 12.4684 5.18373 12.4684 5.33446 12.5045C5.33446 12.5045 5.33446 12.5045 5.30934 12.5316C5.02045 13.1004 3.85234 13.4842 3.31643 13.6828C2.33826 14.0617 1.29534 14.2065 0.260072 14.1072C0.0967876 14.0801 0.0591065 14.0846 0.0172386 14.1072C-0.0246292 14.1298 0.0172386 14.1794 0.0632933 14.2246C0.272633 14.3736 0.481972 14.5045 0.699685 14.6309C1.34782 15.0121 2.03303 15.3149 2.74284 15.5338C6.41884 16.6264 10.5554 15.8228 13.3145 12.8657C15.4832 10.5451 16.2452 7.34419 16.2452 4.13875C16.2452 4.01686 16.3834 3.94462 16.4629 3.88142C17.0116 3.42042 17.4954 2.87599 17.899 2.26516C17.9689 2.1741 18.0048 2.05817 17.9995 1.9401C17.9995 1.87238 17.9995 1.88592 17.9199 1.92204Z" fill="#F5620F"/>
</svg>
