<svg width="20" height="20" viewBox="0 0 20 20" fill="none" xmlns="http://www.w3.org/2000/svg">
<path d="M7.91667 12.0844L7.91667 14.5616C7.91667 15.8082 8.70896 16.917 9.88833 17.3209L10.2133 17.4322C10.5283 17.5401 10.8733 17.5178 11.1718 17.3704C11.4703 17.223 11.6977 16.9626 11.8035 16.6469L13.3333 12.0833L16.3021 12.0833C16.9637 12.0833 17.5 11.547 17.5 10.8854L17.5 3.69792C17.5 3.03633 16.9637 2.5 16.3021 2.5L5.2616 2.5C4.16223 2.5 3.20394 3.24821 2.9373 4.31476L1.73938 9.10643C1.56045 9.82216 1.72125 10.5804 2.17528 11.1619C2.6293 11.7434 3.32592 12.0833 4.06368 12.0833L7.91667 12.0833" stroke="#8C8C8C" stroke-width="1.5" stroke-linecap="round" stroke-linejoin="round"/>
<path d="M13.3333 2.50004L13.3333 12.0834" stroke="#8C8C8C" stroke-width="1.5" stroke-linecap="round" stroke-linejoin="round"/>
</svg>