<svg width="18" height="18" viewBox="0 0 18 18" fill="none" xmlns="http://www.w3.org/2000/svg">
<path d="M7.125 10.8759L7.125 13.1054C7.125 14.2273 7.83806 15.2253 8.8995 15.5888L9.192 15.6889C9.47547 15.786 9.78596 15.766 10.0546 15.6333C10.3233 15.5007 10.5279 15.2663 10.6232 14.9822L12 10.875L14.6719 10.875C15.2673 10.875 15.75 10.3923 15.75 9.79684L15.75 3.32809C15.75 2.73266 15.2673 2.24997 14.6719 2.24997L4.73544 2.24997C3.74601 2.24997 2.88354 2.92336 2.64357 3.88325L1.56545 8.19575C1.4044 8.83991 1.54912 9.52234 1.95775 10.0457C2.36637 10.5691 2.99333 10.875 3.65731 10.875L7.125 10.875" stroke="#F5620F" stroke-width="1.5" stroke-linecap="round" stroke-linejoin="round"/>
<path d="M12 2.25L12 10.875" stroke="#F5620F" stroke-width="1.5" stroke-linecap="round" stroke-linejoin="round"/>
</svg>
 