<svg width="20" height="21" viewBox="0 0 20 21" fill="none" xmlns="http://www.w3.org/2000/svg">
<g clip-path="url(#clip0_2957_69369)">
<path fill-rule="evenodd" clip-rule="evenodd" d="M19.8873 2.78839L18.0749 4.60081C19.3353 6.32015 20 8.35218 20 10.5C20 13.1711 18.9598 15.6824 17.0711 17.5711C15.1823 19.4598 12.6711 20.5 10 20.5C7.32891 20.5 4.81766 19.4598 2.92891 17.571C1.0402 15.6823 0 13.171 0 10.5C0 7.82893 1.04016 5.31765 2.92895 3.42894C4.8177 1.54022 7.32895 0.500029 10 0.500029C12.1478 0.500029 14.1798 1.16472 15.8992 2.42507L17.7116 0.612685C17.8197 0.504638 17.9814 0.470693 18.1238 0.526513C18.2661 0.582216 18.3619 0.716865 18.3679 0.869599L18.4155 2.08448L19.6304 2.1321C19.7832 2.13808 19.9178 2.23393 19.9735 2.3762C20.0292 2.51851 19.9954 2.6803 19.8873 2.78839ZM17.6337 1.77843L16.2063 3.20589L16.1113 3.30073L16.1523 4.34757L17.1992 4.38858L17.2945 4.29335L18.7216 2.86628L18.0301 2.83917C17.8295 2.83128 17.6687 2.67054 17.6608 2.46991L17.6337 1.77843ZM9.99996 10.8846C9.90156 10.8846 9.80313 10.8471 9.72801 10.772C9.57781 10.6218 9.57781 10.3782 9.72801 10.228L11.6115 8.34456C11.1619 8.00757 10.6038 7.80768 10 7.80768C8.51547 7.80768 7.30769 9.01546 7.30769 10.5C7.30769 11.9845 8.51543 13.1923 9.99996 13.1923C11.4845 13.1923 12.6923 11.9845 12.6923 10.5C12.6923 9.89616 12.4924 9.33811 12.1554 8.88854L10.2719 10.772C10.1968 10.8471 10.0984 10.8846 9.99996 10.8846ZM10 7.03847C10.8161 7.03847 11.567 7.32253 12.1594 7.79671L13.7964 6.15964C12.7811 5.2705 11.4525 4.73077 10 4.73077C6.81883 4.73077 4.23074 7.31882 4.23074 10.5C4.23074 13.6812 6.81883 16.2692 9.99996 16.2692C13.1811 16.2692 15.7692 13.6811 15.7692 10.5C15.7692 9.04757 15.2295 7.71894 14.3403 6.70358L12.7033 8.34061C13.1775 8.93304 13.4615 9.6839 13.4615 10.5C13.4615 12.4087 11.9087 13.9615 10 13.9615C8.09133 13.9615 6.53848 12.4087 6.53848 10.5C6.53848 8.59132 8.09133 7.03847 10 7.03847ZM0.769219 10.5C0.769219 15.5899 4.91012 19.7307 10 19.7307C15.0898 19.7307 19.2307 15.5899 19.2307 10.5C19.2307 8.5489 18.6369 6.70116 17.5094 5.1305L17.5048 5.13226C17.4957 5.1362 17.4864 5.13956 17.4771 5.14276C17.4756 5.14329 17.4741 5.14385 17.4726 5.1444C17.4705 5.14518 17.4685 5.14595 17.4663 5.14663C17.4531 5.15073 17.4398 5.15417 17.4262 5.15683C17.4252 5.15702 17.4242 5.15715 17.4233 5.15727C17.4225 5.15737 17.4217 5.15747 17.421 5.15761C17.4091 5.15976 17.3971 5.1614 17.3851 5.16245C17.3807 5.16284 17.3763 5.16288 17.3719 5.16312C17.3654 5.16343 17.3588 5.16409 17.3522 5.16409C17.3497 5.16409 17.3471 5.16406 17.3446 5.16401C17.3421 5.16395 17.3396 5.16388 17.3371 5.16378L15.9831 5.11073L15.4148 5.62909L14.8849 6.15901C15.9129 7.31448 16.5384 8.83546 16.5384 10.5C16.5384 14.1053 13.6053 17.0385 10 17.0385C6.39469 17.0385 3.46156 14.1053 3.46156 10.5C3.46156 6.89472 6.39469 3.96155 10 3.96155C11.6646 3.96155 13.1855 4.58714 14.3409 5.61507L15.1485 4.80745L15.1499 4.80589L15.1514 4.80448L15.391 4.56491L15.3361 3.16272C15.3356 3.14854 15.3359 3.13436 15.3369 3.12034C15.3373 3.11554 15.338 3.11081 15.3386 3.10601C15.3396 3.09683 15.3407 3.08761 15.3423 3.07858C15.343 3.07501 15.3438 3.07149 15.3446 3.06795C15.3451 3.06607 15.3455 3.06419 15.3459 3.06229C15.3478 3.05409 15.3498 3.04589 15.3522 3.0378C15.3537 3.03278 15.3554 3.02785 15.3572 3.02288L15.3577 3.02132C15.3604 3.01354 15.3633 3.00585 15.3665 2.99827C15.367 2.99707 15.3674 2.99585 15.3679 2.99463C15.3684 2.99324 15.3688 2.99185 15.3695 2.9905C13.7989 1.86304 11.9511 1.26925 10 1.26925C4.91012 1.26925 0.769219 5.41011 0.769219 10.5Z" fill="#8C8C8C"/>
</g>
<defs>
<clipPath id="clip0_2957_69369">
<rect width="20" height="20" fill="white" transform="translate(0 0.5)"/>
</clipPath>
</defs>
</svg>
