<svg width="20" height="21" viewBox="0 0 20 21" fill="none" xmlns="http://www.w3.org/2000/svg">
<path d="M10 1.125C4.82239 1.125 0.625 5.32239 0.625 10.5C0.625 15.6776 4.82239 19.875 10 19.875C15.1776 19.875 19.375 15.6776 19.375 10.5C19.3691 5.32483 15.1752 1.13086 10 1.125ZM10 19.25C5.16748 19.25 1.25 15.3325 1.25 10.5C1.25 5.66748 5.16748 1.75 10 1.75C14.8325 1.75 18.75 5.66748 18.75 10.5C18.7445 15.3302 14.8302 19.2445 10 19.25Z" fill="white"/>
<path d="M12.8125 5.5C12.8125 4.80969 12.2528 4.25 11.5625 4.25C10.8722 4.25 10.3125 4.80969 10.3125 5.5C10.3125 6.19031 10.8722 6.75 11.5625 6.75C12.2528 6.75 12.8125 6.19031 12.8125 5.5ZM10.9375 5.5C10.9375 5.15479 11.2173 4.875 11.5625 4.875C11.9077 4.875 12.1875 5.15479 12.1875 5.5C12.1875 5.84521 11.9077 6.125 11.5625 6.125C11.2173 6.125 10.9375 5.84521 10.9375 5.5Z" fill="white"/>
<path d="M8.4375 7.375C7.74719 7.375 7.1875 7.93469 7.1875 8.625C7.1875 9.31531 7.74719 9.875 8.4375 9.875C9.12781 9.875 9.6875 9.31531 9.6875 8.625C9.6875 7.93469 9.12781 7.375 8.4375 7.375ZM8.4375 9.25C8.09229 9.25 7.8125 8.97021 7.8125 8.625C7.8125 8.27979 8.09229 8 8.4375 8C8.78271 8 9.0625 8.27979 9.0625 8.625C9.0625 8.97021 8.78271 9.25 8.4375 9.25Z" fill="white"/>
<path d="M13.2807 8.58618C12.8525 8.2439 12.2512 8.22046 11.7977 8.52857C11.3442 8.83667 11.1443 9.4043 11.3049 9.92848C11.4654 10.4526 11.9488 10.8112 12.497 10.8125C12.5439 10.8125 12.5908 10.8101 12.6373 10.8051C13.1401 10.7493 13.5596 10.3964 13.7005 9.91053C13.8411 9.42481 13.6755 8.9021 13.2805 8.58618H13.2807ZM12.9879 9.95313C12.811 10.1738 12.5081 10.2484 12.2492 10.1349C11.9902 10.0214 11.8397 9.74793 11.8823 9.46839C11.9246 9.18885 12.1497 8.97266 12.4306 8.94129C12.4536 8.93885 12.4764 8.9375 12.4995 8.9375C12.8173 8.93824 13.084 9.1775 13.1191 9.49341C13.1384 9.65797 13.0909 9.82362 12.9876 9.95313H12.9879Z" fill="white"/>
</svg>
