<svg width="20" height="21" viewBox="0 0 20 21" fill="none" xmlns="http://www.w3.org/2000/svg">
<g clip-path="url(#clip0_2957_69327)">
<path d="M10 0.5C4.47721 0.5 0 4.97721 0 10.5C0 16.0228 4.47721 20.5 10 20.5C15.5228 20.5 20 16.0228 20 10.5C19.9938 4.97982 15.5202 0.506185 10 0.5ZM17.7443 5.29671L17.0513 8.24268L13.4001 9.45964L10.3333 7.00667V3.39225L13.8333 1.99235C15.418 2.71029 16.7718 3.85417 17.7443 5.29671ZM17.8 15.6151L14.4943 16.137L12.6943 13.7593L13.6113 10.0926L17.222 8.88932L19.2904 11.3713C19.1494 12.8867 18.6375 14.3442 17.8 15.6151ZM5.52035 16.1393L2.20003 15.6151C1.36247 14.3439 0.850749 12.8861 0.709961 11.3703L2.77669 8.88835L6.38737 10.0916L7.30436 13.7603L5.52035 16.1393ZM0.669596 10.3757C0.687337 8.88867 1.0625 7.42757 1.76335 6.11605L2.30404 8.41602L0.669596 10.3757ZM7.92692 13.5L7.04264 9.95931L10 7.59359L12.958 9.96029L12.0731 13.5H7.92692ZM17.696 8.41471L18.2367 6.11475C18.9375 7.42627 19.3127 8.88721 19.3304 10.3743L17.696 8.41471ZM12.9243 1.63835L10 2.80794L7.06006 1.64372C8.96305 1.00944 11.0202 1.00765 12.9243 1.63835ZM6.15072 2L9.66667 3.39339V7.00667L6.59994 9.45964L2.94873 8.24268L2.2557 5.29671C3.22494 3.85938 4.57292 2.71842 6.15072 2ZM2.757 16.3779L5.46663 16.806L7.10531 19.3727C5.3986 18.8122 3.88916 17.7726 2.757 16.3779ZM8.06104 19.6294L6.07194 16.5153L7.83333 14.1667H12.1667L13.9533 16.5267L12.2201 19.5643C10.8566 19.9001 9.4349 19.9229 8.06136 19.631L8.06104 19.6294ZM13.146 19.2863L14.5667 16.8L17.2443 16.3776C16.1686 17.7023 14.7515 18.708 13.146 19.2863Z" fill="white"/>
</g>
<defs>
<clipPath id="clip0_2957_69327">
<rect width="20" height="20" fill="white" transform="translate(0 0.5)"/>
</clipPath>
</defs>
</svg>
