<svg width="20" height="21" viewBox="0 0 20 21" fill="none" xmlns="http://www.w3.org/2000/svg">
<g clip-path="url(#clip0_2957_69339)">
<path d="M19.9791 9.84061C19.9633 9.60023 19.9371 9.36131 19.9041 9.12337C19.7588 8.0637 19.4437 7.03447 18.9707 6.07521C18.8744 5.87975 18.7713 5.6877 18.6618 5.49891C18.5201 5.25251 18.3679 5.01457 18.1952 4.77158C17.2366 3.40008 15.9494 2.29077 14.4515 1.54505C12.6662 0.657081 10.6563 0.323931 8.67999 0.588075C5.60709 1.00244 2.89843 2.81418 1.34188 5.49582C1.31551 5.54123 1.29322 5.5881 1.26783 5.63383C1.22519 5.71082 1.18157 5.78715 1.14056 5.8651C1.1347 5.87405 1.12933 5.88317 1.12444 5.89244C1.1098 5.92076 1.09743 5.95022 1.08278 5.97854C1.03884 6.06577 0.997174 6.15415 0.95551 6.24252C0.907173 6.34505 0.859812 6.44808 0.815219 6.5524C0.77746 6.6398 0.741818 6.72817 0.706827 6.81638C0.665162 6.92184 0.625288 7.02747 0.58753 7.13374C0.554655 7.22602 0.523081 7.31863 0.492809 7.41172C0.459608 7.51539 0.428197 7.61939 0.398251 7.72404C0.369933 7.82202 0.342265 7.91999 0.317201 8.01911C0.292138 8.11806 0.268213 8.22401 0.245265 8.32703C0.222155 8.43005 0.199858 8.52966 0.180491 8.6317C0.161286 8.73358 0.144848 8.84295 0.128248 8.9489C0.112949 9.04899 0.0948838 9.14892 0.0831657 9.24901C0.0681927 9.36831 0.0585904 9.48793 0.0478489 9.60755C0.039874 9.69528 0.0296208 9.78251 0.0239245 9.87056C0.0107416 10.0675 0.00341788 10.2639 0.00195312 10.4599V10.4958V10.5115C0.00195312 10.7035 0.0092769 10.8943 0.0201812 11.0835C0.022948 11.1249 0.0265285 11.1662 0.0296208 11.2076C0.0413388 11.3708 0.0568001 11.5332 0.0758419 11.6945C0.0779577 11.7108 0.0786087 11.7279 0.0805617 11.7435C0.0838168 11.7695 0.0885365 11.7951 0.0922798 11.8211C0.106276 11.9268 0.121249 12.0321 0.138501 12.1369C0.149568 12.2034 0.161937 12.2702 0.174143 12.3367C0.18993 12.4191 0.205229 12.5014 0.22248 12.5835C0.242824 12.6798 0.265935 12.7753 0.289208 12.8707C0.301903 12.9221 0.313621 12.9734 0.326804 13.0243C0.36326 13.1651 0.403134 13.3044 0.445612 13.4424L0.45082 13.461C1.37329 16.4209 3.61404 18.787 6.51947 19.869L6.56781 19.8864C6.7011 19.9347 6.83455 19.9805 6.96785 20.0236C6.9921 20.0316 7.01716 20.0389 7.04174 20.0467C7.17047 20.0866 7.30018 20.1242 7.4312 20.1593L7.51078 20.18C7.64408 20.214 7.77737 20.2454 7.91082 20.2742L7.98113 20.2889C8.12403 20.3185 8.26839 20.345 8.41438 20.3683L8.45539 20.3753C8.85689 20.4383 9.26182 20.4767 9.66804 20.4907V20.4987H9.79401V20.4936H9.80964V20.4987V20.4939V20.4987V20.4943V20.4987V20.4943H9.81159V20.4987V20.4943C9.86725 20.4943 9.92291 20.4983 9.97825 20.4983H10.0014C10.0131 20.5006 10.0251 20.5006 10.037 20.4983H10.049C10.1633 20.4983 10.2743 20.4939 10.3796 20.4879C15.7497 20.2846 19.9988 15.8731 20.0008 10.4993C20.0008 10.2787 19.9934 10.0592 19.9791 9.84061ZM14.9913 18.3811C13.6636 19.2253 12.142 19.7163 10.5713 19.8073C12.0372 16.8653 11.9682 13.3917 10.3866 10.5102C11.1053 9.32176 12.0798 8.30832 13.2394 7.54371C15.0033 9.29638 15.9971 11.679 16.001 14.1657C16.0065 15.6313 15.6602 17.077 14.9913 18.3811ZM1.06553 13.1881C1.04258 13.1114 1.02191 13.0338 1.00043 12.9547C3.5216 15.6915 7.35877 16.7935 10.9479 15.8113C10.8766 17.2179 10.488 18.5903 9.81094 19.8254C5.79116 19.737 2.27737 17.0897 1.08376 13.2501C1.07757 13.2294 1.07188 13.2087 1.06553 13.1881ZM0.66858 10.4622C0.66858 10.2789 0.674602 10.0961 0.686483 9.91385C0.691528 9.83296 0.70113 9.75257 0.708129 9.672C0.718219 9.55954 0.727496 9.44692 0.741492 9.33495C0.75321 9.24234 0.768509 9.15022 0.782831 9.05795C0.798455 8.95802 0.813591 8.85792 0.832145 8.75962C0.849884 8.66572 0.870554 8.57295 0.891223 8.47969C0.911892 8.38627 0.934515 8.28439 0.957788 8.18772C0.980899 8.09739 1.0058 8.00772 1.03151 7.91837C1.06016 7.81844 1.08978 7.71834 1.12152 7.62069C1.14886 7.53639 1.1775 7.45404 1.2068 7.36876C1.24342 7.26606 1.28182 7.16434 1.32219 7.06278C1.35311 6.9845 1.38452 6.90573 1.41756 6.8294C1.46118 6.72703 1.50789 6.62612 1.55508 6.52538C1.58649 6.45882 1.61709 6.39209 1.6498 6.32813C2.52687 7.66203 3.71039 8.76646 5.10158 9.54929C6.53835 10.3573 8.15316 10.7961 9.80134 10.8262C10.5266 12.143 10.9224 13.6159 10.9552 15.1189C7.14199 16.2434 3.03546 14.8206 0.735145 11.5781C0.718545 11.437 0.705036 11.2958 0.694457 11.1545C0.692179 11.1179 0.688598 11.0808 0.686157 11.0438C0.675253 10.8658 0.66858 10.6872 0.66858 10.5108V10.4993C0.66858 10.4859 0.66858 10.4739 0.66858 10.4622ZM17.6508 5.15486C17.6975 5.22159 17.7395 5.2862 17.7841 5.35179C14.4873 5.54155 11.4943 7.34011 9.77937 10.1622C8.37239 10.1288 6.99145 9.77682 5.74022 9.13265C6.93107 5.19717 10.556 2.50398 14.6677 2.49974C14.7154 2.49974 14.762 2.5017 14.809 2.50332C15.9317 3.17874 16.9 4.08201 17.6518 5.15486H17.6508ZM13.6177 1.8948C9.67537 2.31437 6.35281 5.02254 5.14699 8.79933C3.86907 8.02106 2.79655 6.94788 2.01909 5.66948C2.05717 5.60649 2.09639 5.54383 2.1361 5.48182C2.18949 5.3985 2.24238 5.31517 2.29804 5.23314C2.35777 5.14623 2.42043 5.0616 2.48276 4.97681C2.5407 4.89788 2.59848 4.81862 2.65902 4.74163C2.72575 4.65896 2.79248 4.57888 2.85904 4.49865C2.92138 4.4246 2.98338 4.34989 3.048 4.27796C3.11879 4.19919 3.19203 4.12367 3.26543 4.04767C3.332 3.97833 3.39872 3.90868 3.46529 3.84195C3.54129 3.76757 3.62006 3.69661 3.69867 3.62533C3.76866 3.56169 3.83766 3.49659 3.90927 3.43491C3.99 3.36558 4.07365 3.29966 4.15665 3.23294C4.23005 3.17435 4.30199 3.11462 4.37669 3.0583C4.46197 2.99402 4.55002 2.93331 4.63726 2.87196C4.71359 2.81874 4.78894 2.76373 4.8669 2.7123C4.95625 2.65338 5.04853 2.5987 5.13999 2.54271C5.21893 2.4947 5.29689 2.44473 5.37761 2.39868C5.47119 2.34529 5.56754 2.29598 5.66324 2.24569C5.74461 2.20305 5.82452 2.15878 5.9072 2.11842C6.00713 2.07041 6.10722 2.02712 6.20715 1.98236C6.2895 1.94542 6.3712 1.90668 6.45453 1.87201C6.55755 1.8297 6.6622 1.79276 6.76652 1.75402C6.85018 1.72277 6.93318 1.68941 7.01749 1.66076C7.12409 1.6248 7.23281 1.59404 7.34087 1.56067C7.42518 1.53545 7.50753 1.50778 7.59379 1.48483C7.70543 1.45472 7.81871 1.4308 7.93182 1.40476C8.01547 1.38572 8.09848 1.36374 8.18213 1.34682C8.30143 1.32306 8.42235 1.30548 8.54311 1.28611C8.62237 1.27342 8.70098 1.25779 8.78073 1.24705C8.9163 1.22915 9.05366 1.21776 9.19037 1.20571C9.25694 1.20018 9.32171 1.19074 9.38795 1.18651C9.59106 1.17316 9.79548 1.16649 10.0014 1.16649C11.2435 1.16307 12.4734 1.41078 13.6174 1.8948H13.6177ZM16.0599 17.5937C17.3801 13.9836 16.5119 9.93615 13.8268 7.18534C15.0959 6.47916 16.5115 6.077 17.9625 6.01076C18.0338 6.00816 18.1052 6.00474 18.1771 6.00344C20.3119 9.87984 19.4269 14.723 16.0589 17.5937H16.0599Z" fill="white"/>
</g>
<defs>
<clipPath id="clip0_2957_69339">
<rect width="20" height="20" fill="white" transform="translate(0 0.5)"/>
</clipPath>
</defs>
</svg>
