<svg width="20" height="21" viewBox="0 0 20 21" fill="none" xmlns="http://www.w3.org/2000/svg">
<g clip-path="url(#clip0_2957_69346)">
<path d="M19.0817 14.6786C19.12 14.5955 19.159 14.5128 19.1948 14.4286C19.2303 14.3455 19.2631 14.2614 19.2966 14.1772C19.3197 14.119 19.3434 14.0614 19.3655 14.0028C19.4 13.911 19.4317 13.8179 19.4634 13.7245C19.4814 13.6721 19.4997 13.62 19.5169 13.5672C19.5479 13.4717 19.5762 13.3752 19.6045 13.2786C19.6197 13.2262 19.6348 13.1741 19.6493 13.1214C19.6755 13.0255 19.6997 12.929 19.7231 12.8317C19.7366 12.7755 19.7497 12.7193 19.7621 12.6631C19.7828 12.5693 19.8024 12.4752 19.8207 12.3803C19.8328 12.3176 19.8438 12.2545 19.8545 12.1914C19.8697 12.1021 19.8848 12.0124 19.8976 11.9221C19.9083 11.849 19.9169 11.7752 19.9255 11.7017C19.9352 11.6203 19.9455 11.539 19.9534 11.4569C19.9624 11.3648 19.9683 11.2724 19.9745 11.18C19.979 11.1141 19.9848 11.049 19.9879 10.9828C19.9955 10.8224 20 10.6614 20 10.5C20 10.3386 19.9955 10.1776 19.9876 10.0172C19.9845 9.95103 19.9786 9.88586 19.9741 9.82C19.9679 9.72759 19.9617 9.63517 19.9531 9.5431C19.9452 9.46103 19.9348 9.37965 19.9252 9.29828C19.9162 9.22483 19.9076 9.15138 19.8972 9.07793C19.8845 8.98759 19.8693 8.89828 19.8541 8.80862C19.8434 8.74552 19.8324 8.68241 19.8203 8.61966C19.8024 8.52483 19.7828 8.43069 19.7617 8.3369C19.7493 8.28034 19.7362 8.22448 19.7228 8.16828C19.6993 8.07138 19.6752 7.97448 19.649 7.87862C19.6348 7.82586 19.6193 7.77379 19.6041 7.72138C19.5762 7.62448 19.5476 7.52828 19.5166 7.43276C19.4997 7.38 19.481 7.32793 19.4631 7.27552C19.4314 7.18241 19.3993 7.08931 19.3652 6.99724C19.3431 6.93862 19.3193 6.88103 19.2962 6.82276C19.2628 6.73862 19.2303 6.65448 19.1945 6.57138C19.1586 6.48724 19.1197 6.40448 19.0814 6.32138C19.0559 6.26621 19.0321 6.21034 19.0055 6.15552C18.6124 5.34138 18.1076 4.57793 17.4997 3.88862L17.2414 3.59586L17.2328 3.60552C15.4103 1.69448 12.8428 0.5 10 0.5C7.15724 0.5 4.58965 1.69448 2.76724 3.60552L2.75862 3.59586L2.5 3.88897C1.89207 4.57828 1.38724 5.34172 0.994138 6.15586C0.967931 6.21 0.944138 6.26552 0.918966 6.32C0.880345 6.40379 0.841035 6.48724 0.804828 6.57207C0.769655 6.65448 0.736897 6.73828 0.703793 6.82172C0.68069 6.88034 0.656552 6.93862 0.634483 6.99759C0.6 7.08931 0.568276 7.18241 0.536552 7.27552C0.518621 7.32793 0.500345 7.38 0.483103 7.43276C0.452069 7.52828 0.423793 7.62483 0.395517 7.72138C0.380345 7.77379 0.365172 7.82586 0.35069 7.87862C0.324483 7.97448 0.300345 8.07103 0.276897 8.16828C0.263448 8.22448 0.250345 8.28069 0.237931 8.3369C0.217241 8.43069 0.197586 8.52483 0.17931 8.61966C0.167241 8.68241 0.156207 8.74552 0.145517 8.80862C0.130345 8.89793 0.115172 8.98759 0.102414 9.07793C0.0917241 9.15103 0.0831034 9.22483 0.0744828 9.29828C0.0648276 9.37965 0.0544828 9.46103 0.0465517 9.5431C0.0375862 9.63517 0.0317241 9.72759 0.0255172 9.82C0.0210345 9.88586 0.0151724 9.95103 0.012069 10.0172C0.00448276 10.1776 0 10.3386 0 10.5C0 10.6614 0.00448276 10.8224 0.0124138 10.9828C0.0155172 11.049 0.0213793 11.1141 0.0258621 11.18C0.032069 11.2724 0.0382759 11.3648 0.0468966 11.4569C0.0548276 11.539 0.0651724 11.6203 0.0748276 11.7017C0.0837931 11.7752 0.0924138 11.8486 0.102759 11.9221C0.115517 12.0124 0.13069 12.1017 0.145862 12.1914C0.156552 12.2545 0.167586 12.3176 0.179655 12.3803C0.197586 12.4752 0.217241 12.5693 0.238276 12.6631C0.25069 12.7197 0.263793 12.7755 0.277241 12.8317C0.30069 12.9286 0.324828 13.0255 0.351034 13.1214C0.365172 13.1741 0.38069 13.2262 0.395862 13.2786C0.423793 13.3755 0.452414 13.4717 0.483448 13.5672C0.500345 13.62 0.518966 13.6721 0.536897 13.7245C0.568621 13.8176 0.60069 13.9107 0.634828 14.0024C0.656897 14.0614 0.681035 14.1197 0.704138 14.1783C0.737241 14.2617 0.769655 14.3455 0.805172 14.4279C0.841379 14.5128 0.88069 14.5962 0.91931 14.68C0.944483 14.7345 0.968276 14.79 0.994483 14.8441C1.38759 15.6583 1.89241 16.4217 2.50034 17.111L2.75862 17.4041L2.76724 17.3945C4.58965 19.3055 7.15724 20.5 10 20.5C12.8428 20.5 15.4103 19.3055 17.2328 17.3945L17.2414 17.4041L17.5 17.111C18.1079 16.4217 18.6128 15.6583 19.0059 14.8441C19.0324 14.7897 19.0562 14.7334 19.0817 14.6786ZM19.2793 11.2272C19.2766 11.2648 19.2741 11.3024 19.2707 11.3397C19.2493 11.5762 19.219 11.8117 19.1797 12.0448C19.1748 12.0734 19.1693 12.1017 19.1645 12.13C19.0772 12.621 18.951 13.1034 18.7869 13.5721C18.7814 13.5879 18.7762 13.6041 18.7707 13.62C18.691 13.8438 18.6014 14.0638 18.5048 14.2807C18.4893 14.3155 18.4734 14.3503 18.4576 14.3852C18.3624 14.5917 18.2603 14.7948 18.15 14.9945C18.1283 15.0341 18.1048 15.0728 18.0824 15.1117C17.9762 15.2976 17.8641 15.4807 17.7448 15.6597C17.719 15.6983 17.6924 15.7362 17.6662 15.7745C17.5545 15.9366 17.4366 16.0945 17.3141 16.2497C17.289 16.2814 17.2645 16.3138 17.239 16.3452C16.7717 15.7666 16.3828 15.1362 16.069 14.4721L16.6607 14.2748C16.841 14.2145 16.939 14.0193 16.8786 13.8386C16.8183 13.6583 16.6248 13.5603 16.4424 13.6207L15.7986 13.8352C15.6538 13.459 15.5324 13.0745 15.4376 12.6817L16.2555 12.5648C16.4441 12.5379 16.5752 12.3634 16.5483 12.1748C16.5214 11.9866 16.3472 11.8541 16.1579 11.8824L15.2979 12.0052C15.2352 11.6228 15.2017 11.2348 15.1872 10.8441H15.8621C16.0528 10.8441 16.2069 10.6897 16.2069 10.4993C16.2069 10.309 16.0528 10.1545 15.8621 10.1545H15.1872C15.2017 9.76379 15.2352 9.37586 15.2979 8.99345L16.1579 9.11621C16.1745 9.11862 16.191 9.11966 16.2072 9.11966C16.3762 9.11966 16.5238 8.99552 16.5483 8.82379C16.5752 8.63517 16.4441 8.46069 16.2555 8.43379L15.4376 8.3169C15.5324 7.92414 15.6538 7.53966 15.7986 7.16345L16.4424 7.37793C16.479 7.39103 16.5159 7.39655 16.5517 7.39655C16.6962 7.39655 16.8307 7.30517 16.8786 7.16069C16.939 6.98 16.8414 6.78483 16.6607 6.72448L16.069 6.52724C16.3828 5.86345 16.7717 5.23276 17.239 4.65414C17.2645 4.68552 17.289 4.71793 17.3141 4.74966C17.4362 4.90483 17.5545 5.0631 17.6662 5.22483C17.6924 5.2631 17.7193 5.30103 17.7448 5.33966C17.8641 5.51828 17.9759 5.70138 18.0824 5.88724C18.1048 5.92655 18.1283 5.96517 18.15 6.00483C18.26 6.20414 18.3624 6.40759 18.4572 6.61379C18.4731 6.64862 18.489 6.68345 18.5045 6.71828C18.601 6.93517 18.6907 7.15517 18.7703 7.37897C18.7759 7.39483 18.781 7.41103 18.7866 7.4269C18.9507 7.89586 19.0766 8.37793 19.1641 8.86897C19.1693 8.89759 19.1748 8.92586 19.1793 8.95448C19.2186 9.18759 19.2486 9.4231 19.27 9.65966C19.2734 9.6969 19.2755 9.73448 19.2786 9.77207C19.2983 10.0138 19.3103 10.2562 19.3103 10.5C19.3103 10.7438 19.2983 10.9862 19.2793 11.2272ZM3.12138 7.16069C3.16931 7.30517 3.30379 7.39655 3.44828 7.39655C3.48414 7.39655 3.52103 7.39069 3.55724 7.37862L4.20103 7.16414C4.34586 7.54035 4.46724 7.92483 4.56207 8.31759L3.74414 8.43448C3.55552 8.46138 3.42448 8.63586 3.45138 8.82448C3.47621 8.99655 3.62379 9.12069 3.79276 9.12069C3.80897 9.12069 3.82552 9.11966 3.84207 9.11724L4.70207 8.99448C4.76483 9.3769 4.79828 9.76483 4.81276 10.1555H4.13793C3.94724 10.1555 3.7931 10.31 3.7931 10.5003C3.7931 10.6907 3.94724 10.8452 4.13793 10.8452H4.81276C4.79828 11.2359 4.76483 11.6238 4.70207 12.0062L3.84207 11.8834C3.65414 11.8566 3.47862 11.9876 3.45172 12.1759C3.42483 12.3645 3.55586 12.539 3.74448 12.5659L4.56241 12.6828C4.46759 13.0755 4.34621 13.46 4.20138 13.8362L3.55759 13.6217C3.37552 13.5614 3.18172 13.6593 3.12138 13.8397C3.06103 14.0203 3.15862 14.2155 3.33931 14.2759L3.93103 14.4731C3.61724 15.1369 3.22828 15.7676 2.76103 16.3462C2.73552 16.3148 2.71103 16.2824 2.68586 16.2507C2.56379 16.0955 2.44552 15.9372 2.33379 15.7755C2.30759 15.7372 2.28103 15.6993 2.25517 15.6607C2.13586 15.4817 2.02379 15.2983 1.91724 15.1121C1.89483 15.0731 1.87207 15.0348 1.85034 14.9955C1.74 14.7959 1.63793 14.5928 1.54276 14.3859C1.5269 14.351 1.51103 14.3162 1.49552 14.2814C1.39897 14.0645 1.30931 13.8445 1.22966 13.6207C1.22414 13.6048 1.21897 13.5886 1.21345 13.5728C1.04931 13.1038 0.923103 12.6214 0.835862 12.13C0.831034 12.1017 0.825517 12.0738 0.82069 12.0455C0.781379 11.8121 0.751034 11.5766 0.729655 11.34C0.726207 11.3028 0.724138 11.2652 0.721035 11.2276C0.701724 10.9862 0.689655 10.7438 0.689655 10.5C0.689655 10.2562 0.701724 10.0138 0.72069 9.77276C0.723448 9.73517 0.725862 9.69759 0.72931 9.66035C0.75069 9.42345 0.781034 9.18828 0.820345 8.95483C0.825172 8.92655 0.830345 8.89828 0.835517 8.87035C0.922759 8.37897 1.04897 7.89655 1.2131 7.42759C1.21862 7.41172 1.22379 7.39552 1.22931 7.37966C1.30897 7.15586 1.39862 6.93586 1.49517 6.71897C1.51069 6.68414 1.52655 6.64931 1.54241 6.61448C1.63759 6.40793 1.73966 6.20448 1.85 6.00517C1.87172 5.96586 1.89483 5.92724 1.91724 5.88828C2.02345 5.70207 2.13552 5.51897 2.25483 5.34C2.28069 5.30138 2.30724 5.26345 2.33345 5.22517C2.44517 5.0631 2.5631 4.90517 2.68552 4.75C2.71069 4.71828 2.73517 4.68586 2.76069 4.65448C3.22793 5.2331 3.6169 5.86345 3.93069 6.52759L3.33897 6.72483C3.15862 6.78483 3.06103 6.98 3.12138 7.16069ZM10 19.8103C7.32931 19.8103 4.91931 18.6783 3.21966 16.8707C3.7731 16.2021 4.23276 15.47 4.59207 14.6931L5.40793 14.9652C5.44448 14.9772 5.48138 14.9828 5.51724 14.9828C5.66172 14.9828 5.79621 14.8914 5.84414 14.7469C5.90448 14.5662 5.8069 14.371 5.62621 14.3107L4.86241 14.0562C5.02069 13.6407 5.15103 13.2148 5.25276 12.781L6.15793 12.9103C6.17448 12.9128 6.19103 12.9138 6.20724 12.9138C6.37621 12.9138 6.52379 12.7897 6.54828 12.6179C6.57517 12.4293 6.44414 12.2548 6.25552 12.2279L5.38517 12.1034C5.45241 11.6886 5.49448 11.2686 5.50931 10.8448H6.2069C6.39759 10.8448 6.55172 10.6903 6.55172 10.5C6.55172 10.3097 6.39759 10.1552 6.2069 10.1552H5.50931C5.49483 9.73138 5.45276 9.31138 5.38517 8.89655L6.25552 8.77207C6.44414 8.74517 6.57517 8.57069 6.54828 8.38207C6.52138 8.19379 6.34586 8.06138 6.15793 8.08966L5.25276 8.21897C5.15103 7.78517 5.02069 7.35931 4.86241 6.94379L5.62621 6.68931C5.80655 6.62897 5.90448 6.43379 5.84414 6.2531C5.78414 6.07276 5.59 5.97414 5.40793 6.03517L4.59207 6.30724C4.23276 5.53034 3.7731 4.79828 3.21966 4.12966C4.91931 2.32172 7.32931 1.18966 10 1.18966C12.6707 1.18966 15.0807 2.32172 16.7803 4.12931C16.2269 4.79793 15.7672 5.53 15.4079 6.3069L14.5921 6.03483C14.4103 5.97414 14.2159 6.07241 14.1559 6.25276C14.0955 6.43345 14.1931 6.62862 14.3738 6.68897L15.1376 6.94345C14.9793 7.35897 14.849 7.78483 14.7472 8.21862L13.8421 8.08931C13.6534 8.06276 13.4786 8.19345 13.4517 8.38172C13.4248 8.57034 13.5559 8.74483 13.7445 8.77172L14.6148 8.89621C14.5476 9.31104 14.5055 9.73104 14.4907 10.1548H13.7931C13.6024 10.1548 13.4483 10.3093 13.4483 10.4997C13.4483 10.69 13.6024 10.8445 13.7931 10.8445H14.4907C14.5052 11.2683 14.5472 11.6883 14.6148 12.1031L13.7445 12.2276C13.5559 12.2545 13.4248 12.429 13.4517 12.6176C13.4762 12.7897 13.6238 12.9138 13.7928 12.9138C13.809 12.9138 13.8255 12.9128 13.8421 12.9103L14.7472 12.781C14.849 13.2148 14.9793 13.6407 15.1376 14.0562L14.3738 14.3107C14.1934 14.371 14.0955 14.5662 14.1559 14.7469C14.2038 14.8914 14.3383 14.9828 14.4828 14.9828C14.5186 14.9828 14.5555 14.9769 14.5917 14.9648L15.4076 14.6928C15.7669 15.4697 16.2266 16.2017 16.78 16.8703C15.0807 18.6783 12.6707 19.8103 10 19.8103Z" fill="white"/>
</g>
<defs>
<clipPath id="clip0_2957_69346">
<rect width="20" height="20" fill="white" transform="translate(0 0.5)"/>
</clipPath>
</defs>
</svg>
