<svg width="20" height="21" viewBox="0 0 20 21" fill="none" xmlns="http://www.w3.org/2000/svg">
<g clip-path="url(#clip0_2957_69333)">
<path d="M17.414 3.80765C14.1815 0.235767 8.86165 -0.523733 4.759 2.00117C0.656264 4.52593 -1.06287 9.61737 0.669358 14.1125C2.40158 18.6077 7.09275 21.2288 11.8288 20.3475C16.565 19.4663 19.9996 15.3334 19.9991 10.516C19.9991 10.2052 19.9848 9.89644 19.9562 9.58996C19.7574 7.43808 18.8654 5.40895 17.4146 3.80732L17.414 3.80765ZM18.4408 6.53803C18.4567 6.57146 18.4722 6.60514 18.4879 6.63888C18.5851 6.85169 18.6742 7.06784 18.7552 7.28716C18.7678 7.32174 18.7802 7.35648 18.7928 7.39164C18.8714 7.61307 18.9419 7.83732 19.004 8.06456C19.0132 8.09774 19.0216 8.13141 19.0303 8.16469C19.0905 8.39619 19.1432 8.62996 19.1854 8.86626C19.1905 8.89371 19.1944 8.92189 19.1992 8.94937C19.2405 9.19293 19.2738 9.43829 19.2958 9.68549C19.2975 9.70309 19.2979 9.72048 19.2996 9.73794C19.3109 9.88515 19.3142 10.0371 19.3191 10.1854L15.0169 10.183C15.0863 8.11553 15.8427 6.12998 17.1667 4.54044L17.1778 4.55318C17.3365 4.74416 17.4863 4.94202 17.6284 5.14368C17.6451 5.16745 17.6625 5.19067 17.6788 5.21432C17.8153 5.41151 17.9429 5.61449 18.0632 5.82103L18.1154 5.91131C18.2323 6.11573 18.3399 6.3247 18.4408 6.53803ZM19.258 11.6272C19.2356 11.8147 19.2137 12.0018 19.1801 12.187C19.1606 12.2944 19.1328 12.3993 19.1096 12.5059C19.0737 12.6708 19.039 12.8358 18.9943 12.9981C18.963 13.1112 18.9245 13.2215 18.889 13.3334C18.841 13.4855 18.7949 13.6366 18.7379 13.7869C18.695 13.9012 18.6452 14.0135 18.5979 14.1261C18.5384 14.2682 18.4788 14.4102 18.4125 14.549C18.3579 14.6623 18.2978 14.7731 18.2386 14.8847C18.1679 15.0179 18.0965 15.1509 18.0192 15.2806C17.9536 15.3908 17.8834 15.4982 17.8132 15.6059C17.7312 15.7303 17.6492 15.8546 17.5602 15.9783C17.4842 16.0831 17.4035 16.184 17.3238 16.2877C17.2714 16.3546 17.2159 16.4197 17.1612 16.485C15.8406 14.8966 15.086 12.9139 15.0169 10.8491L19.3166 10.8492C19.3107 11.0188 19.3083 11.1893 19.2931 11.3581C19.2853 11.4488 19.2687 11.5371 19.258 11.6272ZM16.7173 4.04298C15.2548 5.76221 14.4187 7.92653 14.3454 10.1824L10.3398 10.1833L10.3401 1.19981C12.7532 1.28877 15.0382 2.30759 16.7173 4.04298ZM9.67356 1.20193L9.67355 10.183L5.66933 10.183C5.59591 7.9281 4.7602 5.76475 3.29853 4.04617C4.97176 2.30366 7.25917 1.2831 9.67356 1.20193ZM2.84685 16.4923L2.83549 16.4791C2.67694 16.2884 2.52754 16.0911 2.38555 15.8898C2.36866 15.8657 2.35107 15.8421 2.33438 15.8177C2.19781 15.6205 2.07045 15.4178 1.95024 15.2116C1.93276 15.1813 1.91544 15.1513 1.89796 15.121C1.78038 14.9174 1.67423 14.7075 1.57485 14.495C1.55883 14.4611 1.54302 14.4272 1.52728 14.3931C1.43024 14.1808 1.34121 13.9648 1.26005 13.7452C1.24747 13.7104 1.23511 13.6756 1.22297 13.641C1.14411 13.4195 1.0736 13.1952 1.01121 12.9678C1.00208 12.9347 0.993864 12.901 0.985916 12.8693C0.925602 12.6377 0.871474 12.4047 0.830477 12.1672C0.825717 12.1401 0.821862 12.1123 0.817302 12.0849C0.775143 11.8401 0.742207 11.5961 0.720288 11.3486C0.718939 11.331 0.717502 11.3119 0.716722 11.2953C0.704913 11.1483 0.701836 10.9963 0.697265 10.8485L4.9978 10.8485C4.9282 12.9165 4.17143 14.9024 2.84685 16.4923ZM0.696602 10.1832C0.702642 10.0132 0.704869 9.8427 0.719974 9.67436C0.728358 9.58221 0.74494 9.49189 0.756191 9.40014C0.77842 9.21454 0.799901 9.02863 0.833075 8.84573C0.852924 8.737 0.880992 8.63047 0.904817 8.52245C0.940197 8.35931 0.974526 8.19565 1.0185 8.03374C1.04971 7.91996 1.08901 7.80882 1.12446 7.69653C1.17233 7.54495 1.21884 7.39361 1.2751 7.24451C1.31786 7.13025 1.36746 7.01842 1.41477 6.90586C1.47457 6.76355 1.534 6.62126 1.60075 6.48188C1.6549 6.36912 1.71482 6.25923 1.77359 6.14831C1.8446 6.01436 1.91628 5.88058 1.99508 5.75134C2.05998 5.64195 2.12999 5.53487 2.19993 5.42801C2.28112 5.30227 2.3656 5.17669 2.45379 5.0546C2.52981 4.94949 2.6097 4.84685 2.69019 4.74461C2.74294 4.67791 2.79778 4.6132 2.85244 4.54784C4.17328 6.13665 4.92778 8.11967 4.99723 10.1846L0.696602 10.1832ZM3.29591 16.9894C4.7589 15.2704 5.59575 13.1061 5.66988 10.8501L9.67418 10.8502L9.67369 19.833C7.26052 19.7439 4.97529 18.725 3.29607 16.9897L3.29591 16.9894ZM10.3409 19.8324L10.3409 10.8487L14.3454 10.8485C14.4189 13.1049 15.2556 15.2697 16.7191 16.9887C15.0398 18.7243 12.7543 19.7433 10.3409 19.8324Z" fill="white"/>
</g>
<defs>
<clipPath id="clip0_2957_69333">
<rect width="20" height="20" fill="white" transform="translate(0 0.5)"/>
</clipPath>
</defs>
</svg>
