<svg width="20" height="21" viewBox="0 0 20 21" fill="none" xmlns="http://www.w3.org/2000/svg">
<g clip-path="url(#clip0_2957_69353)">
<path d="M10 0.5C8.66931 0.5 7.4 0.763448 6.23759 1.23724L6.2331 1.2331L6.02345 1.32414C5.99483 1.33655 5.96828 1.35241 5.94 1.36517C5.70207 1.47138 5.46793 1.58414 5.24035 1.70759C5.18862 1.73552 5.13862 1.76655 5.08759 1.79552C4.90379 1.89966 4.72345 2.00931 4.5469 2.12483C4.45517 2.18448 4.36517 2.24586 4.27586 2.30828C4.13034 2.41034 3.98793 2.51621 3.84828 2.62552C3.74207 2.70862 3.63759 2.79345 3.53483 2.88069C3.40828 2.98759 3.28483 3.09793 3.16414 3.21103C3.07517 3.29448 2.9869 3.37828 2.90103 3.46517C2.76793 3.59931 2.63931 3.73862 2.51379 3.88035C2.44483 3.95862 2.37552 4.03655 2.30897 4.1169C2.17241 4.28103 2.04207 4.45103 1.91586 4.62414C1.86483 4.69448 1.81414 4.76448 1.76517 4.83621C1.63207 5.02931 1.50586 5.22724 1.38621 5.43C1.35448 5.48414 1.3231 5.53828 1.29241 5.5931C1.16586 5.8169 1.04724 6.04552 0.937931 6.27965C0.93 6.29621 0.920345 6.31172 0.912759 6.32862L0.813448 6.54483L0.816552 6.54793C0.291724 7.76069 0 9.09655 0 10.5C0 16.0141 4.48621 20.5 10 20.5C15.5138 20.5 20 16.0141 20 10.5C20 4.98586 15.5138 0.5 10 0.5ZM1.63828 6.41069C1.64897 6.38862 1.66069 6.36724 1.67172 6.34552C1.76586 6.1569 1.8669 5.97276 1.97276 5.79207C1.99793 5.74931 2.02172 5.70552 2.04759 5.6631C2.15138 5.49276 2.26276 5.32793 2.37655 5.16483C2.42448 5.09655 2.47207 5.02759 2.52207 4.96035C2.63034 4.81414 2.74345 4.67241 2.85966 4.53345C2.92621 4.45414 2.99414 4.37586 3.0631 4.29862C3.16448 4.18517 3.26862 4.07448 3.37517 3.96621C3.46448 3.87552 3.55621 3.78759 3.64931 3.70069C3.73379 3.62172 3.82034 3.54448 3.90793 3.46862C4.02 3.37138 4.13414 3.2769 4.25103 3.18517C4.35414 3.10414 4.45862 3.02483 4.56517 2.94793C4.63966 2.89414 4.71379 2.83966 4.79 2.78793C4.95 2.67966 5.11448 2.57724 5.28172 2.47897C5.34655 2.44069 5.41207 2.40276 5.47793 2.36586C5.66138 2.26379 5.84793 2.16655 6.03897 2.0769C6.05931 2.06724 6.08034 2.05862 6.10069 2.04897C7.07414 2.87586 8.42069 3.25586 10.0121 3.1531C12.419 3.25931 14.3903 4.62517 15.2879 6.80931C16.0641 8.69862 15.7331 10.9814 14.4241 12.7669C13.9769 13.3776 13.4655 13.9448 12.9041 14.4534C11.9793 15.291 10.9369 15.831 9.88931 16.0155C8.12448 16.3269 6.32379 15.8721 4.95207 14.7683C3.63 13.7048 2.85966 12.1424 2.78103 10.3672C2.88621 8.74897 2.49207 7.38759 1.63828 6.41069ZM10 19.8103C4.86621 19.8103 0.689655 15.6338 0.689655 10.5C0.689655 9.31172 0.915862 8.17586 1.32345 7.13C1.91207 7.94966 2.17862 9.04517 2.09069 10.34L2.08966 10.359L2.09034 10.3779C2.17241 12.3621 3.03483 14.1124 4.51862 15.3062C5.73103 16.2814 7.24172 16.8014 8.79448 16.8014C9.19759 16.8014 9.60379 16.7662 10.0083 16.6952C11.1838 16.4879 12.3452 15.89 13.3662 14.9648C13.9621 14.4248 14.5048 13.8224 14.9797 13.1748C16.4297 11.1966 16.7917 8.65724 15.9248 6.54724C14.9203 4.10138 12.7134 2.57448 10.0214 2.4631L10.0028 2.46241L9.98379 2.46379C8.72655 2.54828 7.65414 2.29759 6.84172 1.74207C7.82862 1.38517 8.89172 1.18966 10 1.18966C15.1338 1.18966 19.3103 5.36621 19.3103 10.5C19.3103 15.6338 15.1338 19.8103 10 19.8103Z" fill="white"/>
</g>
<defs>
<clipPath id="clip0_2957_69353">
<rect width="20" height="20" fill="white" transform="translate(0 0.5)"/>
</clipPath>
</defs>
</svg>
