<svg width="20" height="20" viewBox="0 0 20 20" fill="none" xmlns="http://www.w3.org/2000/svg">
<path fill-rule="evenodd" clip-rule="evenodd" d="M18.4753 9.86021C18.4753 14.5148 14.6266 18.3635 9.97204 18.3635C5.31743 18.3635 1.46875 14.5148 1.46875 9.86021C1.46875 5.19738 5.30921 1.34869 9.96381 1.34869C14.6184 1.34869 18.4753 5.19738 18.4753 9.86021ZM7.58477 13.9967C8.34476 14.3986 9.19211 14.5995 10.1268 14.5995C10.9218 14.5995 11.6424 14.4597 12.2889 14.1802C12.9353 13.9007 13.4769 13.4945 13.9137 12.9616L12.5509 11.7037C11.9307 12.4287 11.162 12.7912 10.2447 12.7912C9.67694 12.7912 9.17027 12.6689 8.72476 12.4243C8.27924 12.171 7.92982 11.8216 7.67649 11.3761C7.43189 10.9306 7.3096 10.4239 7.3096 9.85609C7.3096 9.28827 7.43189 8.78161 7.67649 8.3361C7.92982 7.89058 8.27924 7.54553 8.72476 7.30093C9.17027 7.0476 9.67694 6.92093 10.2447 6.92093C11.162 6.92093 11.9307 7.27909 12.5509 7.99541L13.9137 6.73749C13.4769 6.21335 12.9353 5.81152 12.2889 5.53198C11.6512 5.25244 10.9349 5.11267 10.1399 5.11267C9.19648 5.11267 8.34476 5.31796 7.58477 5.72853C6.83351 6.13036 6.23949 6.69381 5.80271 7.41886C5.37467 8.13518 5.16064 8.94759 5.16064 9.85609C5.16064 10.7646 5.37467 11.5814 5.80271 12.3064C6.23949 13.0227 6.83351 13.5862 7.58477 13.9967Z" fill="#FFB904"/>
</svg>
