<svg width="80" height="80" viewBox="0 0 80 80" fill="none" xmlns="http://www.w3.org/2000/svg">
<rect width="80" height="80" rx="4" fill="#F2F2F2"/>
<path d="M37.2006 29.6533C38.1184 29.4385 39.0581 29.3311 40.0007 29.3333C49.334 29.3333 54.6673 40 54.6673 40C53.858 41.5141 52.8927 42.9396 51.7873 44.2533M42.8273 42.8266C42.4611 43.2196 42.0195 43.5349 41.5289 43.7535C41.0382 43.9721 40.5085 44.0897 39.9714 44.0991C39.4344 44.1086 38.9009 44.0098 38.4028 43.8086C37.9047 43.6075 37.4523 43.308 37.0724 42.9282C36.6926 42.5484 36.3932 42.0959 36.192 41.5978C35.9908 41.0998 35.892 40.5663 35.9015 40.0292C35.911 39.4921 36.0285 38.9624 36.2472 38.4718C36.4658 37.9811 36.781 37.5395 37.174 37.1733M47.9207 47.92C45.6414 49.6573 42.8661 50.6198 40.0007 50.6666C30.6673 50.6666 25.334 40 25.334 40C26.9925 36.9092 29.2928 34.2088 32.0807 32.08L47.9207 47.92Z" stroke="#8C8C8C" stroke-width="2" stroke-linecap="round" stroke-linejoin="round"/>
<path d="M25.334 25.3333L54.6673 54.6666" stroke="#8C8C8C" stroke-width="2" stroke-linecap="round" stroke-linejoin="round"/>
</svg>
