<svg id="ezNhJ7usrCt1" xmlns="http://www.w3.org/2000/svg" xmlns:xlink="http://www.w3.org/1999/xlink" viewBox="0 0 48 48" shape-rendering="geometricPrecision" text-rendering="geometricPrecision">
<style><![CDATA[
#ezNhJ7usrCt3_tr {animation: ezNhJ7usrCt3_tr__tr 1200ms linear infinite normal forwards}@keyframes ezNhJ7usrCt3_tr__tr { 0% {transform: translate(23.999998px,23.999998px) rotate(0deg)} 25% {transform: translate(23.999998px,23.999998px) rotate(90deg)} 50% {transform: translate(23.999998px,23.999998px) rotate(180deg)} 75% {transform: translate(23.999998px,23.999998px) rotate(270deg)} 100% {transform: translate(23.999998px,23.999998px) rotate(360deg)}}
]]></style>
<path d="M24,0C10.7452,0,0,10.7452,0,24s10.7452,24,24,24s24-10.7452,24-24-10.7452-24-24-24Zm0,43.2C13.3961,43.2,4.8,34.6039,4.8,24s8.5961-19.2,19.2-19.2s19.2,8.5961,19.2,19.2-8.5961,19.2-19.2,19.2Z" transform="translate(0-.000069)" opacity="0.1" fill="#d9d9d9"/><g id="ezNhJ7usrCt3_tr" transform="translate(23.999998,23.999998) rotate(0)"><path d="M24,0c4.7468,0,9.3869,1.40757,13.3337,4.04473s7.0229,6.38547,8.8394,10.77087s2.2918,9.211,1.3657,13.8666c-.926,4.6555-3.2118,8.9319-6.5682,12.2884s-7.6329,5.6422-12.2884,6.5682c-4.6556.9261-9.4812.4508-13.8666-1.3657s-8.13372-4.8926-10.77087-8.8394C1.40757,33.3869,0,28.7468,0,24h4.8c0,3.7974,1.12606,7.5095,3.23578,10.6669c2.10972,3.1575,5.10832,5.6184,8.61672,7.0716s7.3688,1.8334,11.0932,1.0926s7.1456-2.5695,9.8308-5.2546c2.6851-2.6852,4.5137-6.1063,5.2546-9.8308s.3606-7.5849-1.0926-11.0932c-1.4532-3.5084-3.9141-6.507-7.0716-8.61672s-6.8695-3.23578-10.6669-3.23578L24,0Z" transform="translate(-23.999998,-23.999998)" fill="#d9d9d9"/></g></svg>
