<svg width="18" height="19" viewBox="0 0 18 19" fill="none" xmlns="http://www.w3.org/2000/svg">
<g clip-path="url(#clip0_6015_9873)">
<path d="M8.99946 6.79226L10.4645 7.85294L11.926 8.91853M8.99946 6.79226L7.5344 7.85294L6.0729 8.91853M8.99946 6.79226L8.99948 2.87109M11.926 8.91853L11.37 10.6396L10.8082 12.3589M11.926 8.91853L15.6158 7.72044M10.8082 12.3589L8.99946 12.3619L7.19074 12.3589M10.8082 12.3589L12.932 14.9614M7.19074 12.3589L6.62894 10.6396L6.0729 8.91853M7.19074 12.3589L5.04504 14.9614M6.0729 8.91853L2.35494 7.72044M8.99948 2.87109L12.3009 1.57658M8.99948 2.87109L5.69802 1.57658M12.3009 1.57658C11.2847 1.15264 10.1694 0.918518 8.99948 0.918518C7.82955 0.918518 6.7143 1.15264 5.69802 1.57658M12.3009 1.57658C13.9357 2.25853 15.3144 3.43167 16.2526 4.91162M5.69802 1.57658C4.06324 2.25853 2.68456 3.43167 1.74636 4.91162M15.6158 7.72044L16.2526 4.91162M15.6158 7.72044L17.5693 9.95194M16.2526 4.91162C17.0939 6.2387 17.581 7.81248 17.581 9.50003C17.581 9.65162 17.5771 9.80229 17.5693 9.95194M17.5693 9.95194C17.4837 11.6014 16.9324 13.1276 16.0443 14.4016M12.932 14.9614L16.0443 14.4016M12.932 14.9614L11.37 17.75M16.0443 14.4016C14.9309 15.999 13.288 17.1999 11.37 17.75M11.37 17.75C10.6171 17.9659 9.82179 18.0815 8.99948 18.0815C8.17718 18.0815 7.38189 17.9659 6.62899 17.75M5.04504 14.9614L6.62899 17.75M5.04504 14.9614L1.95462 14.4016M6.62899 17.75C4.71099 17.1999 3.06811 15.999 1.95462 14.4016M1.95462 14.4016C1.06656 13.1276 0.51524 11.6014 0.429664 9.95194M2.35494 7.72044L1.74636 4.91162M2.35494 7.72044L0.429664 9.95194M1.74636 4.91162C0.905078 6.2387 0.417969 7.81248 0.417969 9.50003C0.417969 9.65162 0.421899 9.80229 0.429664 9.95194" stroke="#FF3C3C"/>
</g>
<defs>
<clipPath id="clip0_6015_9873">
<rect width="18" height="18" fill="white" transform="translate(0 0.5)"/>
</clipPath>
</defs>
</svg>
