<svg width="32" height="32" viewBox="0 0 32 32" fill="none" xmlns="http://www.w3.org/2000/svg">
<g clip-path="url(#clip0_3691_30163)">
<path d="M4.77301 28.2613H23.785L22.877 25.3213L25.049 27.1853L27.0397 28.9693L30.6663 32V3.3C30.5757 1.516 29.0397 0 27.1357 0L4.77967 0.004C2.87701 0.004 1.33301 1.52267 1.33301 3.30667V24.96C1.33301 26.8413 2.87434 28.2613 4.77301 28.2613ZM18.837 7.57733L18.793 7.59333L18.809 7.57733H18.837ZM8.66234 9.26933C11.1063 7.49067 13.3717 7.576 13.3717 7.576L13.5543 7.756C10.5637 8.46933 9.20767 9.80533 9.20767 9.80533C9.20767 9.80533 9.57034 9.628 10.2037 9.35733C14.2317 7.77333 18.6303 7.888 22.7023 9.89333C22.7023 9.89333 21.3437 8.644 18.537 7.844L18.785 7.6C19.173 7.60133 21.2263 7.67333 23.4237 9.28C23.4237 9.28 25.8823 13.48 25.8823 18.64C25.801 18.5413 24.357 20.8613 20.641 20.9413C20.641 20.9413 20.0117 20.2293 19.5637 19.608C21.737 18.984 22.5503 17.736 22.5503 17.736C21.837 18.1853 21.1863 18.452 20.6583 18.7187C19.8463 19.076 19.033 19.252 18.221 19.432C14.3757 20.056 12.217 19.012 10.177 18.184L9.47968 17.8293C9.47968 17.8293 10.2917 19.0773 12.3783 19.7013C11.8303 20.3267 11.2877 21.0373 11.2877 21.0373C7.57301 20.9493 6.21834 18.6293 6.21834 18.6293C6.21834 13.4613 8.66234 9.26933 8.66234 9.26933Z" fill="#8C8C8C"/>
<path d="M19.0774 17.0281C20.0254 17.0281 20.7974 16.2281 20.7974 15.2414C20.7974 14.2614 20.0294 13.4614 19.0774 13.4614V13.4654C18.1334 13.4654 17.3601 14.2628 17.3574 15.2494C17.3574 16.2281 18.1294 17.0281 19.0774 17.0281Z" fill="#8C8C8C"/>
<path d="M12.9202 17.0281C13.8682 17.0281 14.6402 16.2281 14.6402 15.2414C14.6402 14.2614 13.8735 13.4614 12.9255 13.4614L12.9202 13.4654C11.9722 13.4654 11.2002 14.2628 11.2002 15.2494C11.2002 16.2281 11.9722 17.0281 12.9202 17.0281Z" fill="#8C8C8C"/>
</g>
<defs>
<clipPath id="clip0_3691_30163">
<rect width="32" height="32" fill="white"/>
</clipPath>
</defs>
</svg>
