<svg width="32" height="32" viewBox="0 0 32 32" fill="none" xmlns="http://www.w3.org/2000/svg">
<path fill-rule="evenodd" clip-rule="evenodd" d="M15.9943 0.799805C12.2196 0.801763 8.56866 2.13869 5.69433 4.57152C2.82001 7.00435 0.909712 10.3745 0.305025 14.0792C-0.299662 17.784 0.440684 21.5818 2.3937 24.7936C4.34671 28.0054 7.38503 30.4218 10.9654 31.6106C11.7552 31.7572 12.0528 31.2676 12.0528 30.8514C12.0528 30.4351 12.037 29.2282 12.0317 27.9088C7.60837 28.8643 6.67368 26.0422 6.67368 26.0422C5.95226 24.2096 4.90961 23.7279 4.90961 23.7279C3.46676 22.7488 5.01757 22.7671 5.01757 22.7671C6.61576 22.8797 7.45567 24.3981 7.45567 24.3981C8.87219 26.8145 11.176 26.1155 12.0817 25.7071C12.2239 24.6835 12.6373 23.9871 13.0928 23.5918C9.55938 23.1938 5.84694 21.8377 5.84694 15.7798C5.82504 14.2087 6.41138 12.6893 7.48463 11.5361C7.32139 11.1381 6.77636 9.53071 7.63997 7.34733C7.63997 7.34733 8.97488 6.92322 12.0133 8.96784C14.6194 8.2592 17.3691 8.2592 19.9753 8.96784C23.0111 6.92322 24.3433 7.34733 24.3433 7.34733C25.2096 9.52547 24.6645 11.1329 24.5013 11.5361C25.578 12.6895 26.1655 14.2115 26.1416 15.785C26.1416 21.8561 22.4213 23.1938 18.8826 23.5839C19.4513 24.0761 19.9595 25.0369 19.9595 26.5134C19.9595 28.6287 19.9411 30.3304 19.9411 30.8514C19.9411 31.2729 20.228 31.765 21.0337 31.6106C24.6145 30.4216 27.6531 28.0048 29.6061 24.7925C31.5591 21.5801 32.299 17.7817 31.6936 14.0766C31.0883 10.3715 29.177 7.00139 26.3017 4.56898C23.4265 2.13657 19.7747 0.800522 15.9995 0.799805H15.9943Z" fill="#8C8C8C"/>
<path d="M6.11605 23.5003C6.08183 23.5789 5.95545 23.6024 5.85276 23.5475C5.75008 23.4925 5.67373 23.3904 5.71059 23.3092C5.74745 23.2281 5.8712 23.2071 5.97388 23.2621C6.07657 23.3171 6.15555 23.4218 6.11605 23.5003Z" fill="#8C8C8C"/>
<path d="M6.76101 24.2149C6.70649 24.2422 6.64411 24.2498 6.58455 24.2364C6.52499 24.2231 6.47196 24.1895 6.43453 24.1416C6.33185 24.0316 6.31077 23.8798 6.38976 23.8117C6.46875 23.7436 6.61094 23.775 6.71362 23.885C6.81631 23.995 6.84 24.1468 6.76101 24.2149Z" fill="#8C8C8C"/>
<path d="M7.3872 25.1232C7.28979 25.1913 7.1239 25.1232 7.03175 24.9871C7.00627 24.9627 6.986 24.9334 6.97216 24.901C6.95832 24.8686 6.95117 24.8338 6.95117 24.7986C6.95117 24.7634 6.95832 24.7286 6.97216 24.6962C6.986 24.6638 7.00627 24.6345 7.03175 24.6101C7.12917 24.5446 7.29505 24.6101 7.3872 24.7436C7.47936 24.8771 7.48199 25.0551 7.3872 25.1232Z" fill="#8C8C8C"/>
<path d="M8.23696 26.0028C8.15007 26.0996 7.97367 26.0734 7.82886 25.9425C7.68405 25.8116 7.64981 25.6336 7.7367 25.5394C7.82358 25.4451 7.99999 25.4713 8.15007 25.5996C8.30015 25.7279 8.32911 25.9085 8.23696 26.0028Z" fill="#8C8C8C"/>
<path d="M9.43043 26.516C9.39094 26.639 9.2119 26.694 9.03286 26.6416C8.85382 26.5893 8.73533 26.4427 8.76956 26.317C8.80379 26.1913 8.98547 26.1337 9.16714 26.1913C9.34881 26.2489 9.46466 26.3877 9.43043 26.516Z" fill="#8C8C8C"/>
<path d="M10.7308 26.6049C10.7308 26.7332 10.5833 26.8432 10.3937 26.8458C10.2042 26.8484 10.0488 26.7437 10.0488 26.6154C10.0488 26.4871 10.1963 26.3772 10.3858 26.3746C10.5754 26.3719 10.7308 26.474 10.7308 26.6049Z" fill="#8C8C8C"/>
<path d="M11.9411 26.4034C11.9648 26.5317 11.8331 26.6652 11.6435 26.6966C11.454 26.728 11.2881 26.6521 11.2644 26.5264C11.2407 26.4008 11.3776 26.2646 11.5619 26.2306C11.7462 26.1966 11.9174 26.2751 11.9411 26.4034Z" fill="#8C8C8C"/>
</svg>
