<svg width="32" height="32" viewBox="0 0 32 32" fill="none" xmlns="http://www.w3.org/2000/svg">
<path d="M5.16339 26.5716V12.4083H9.87768V26.5716H5.16339ZM10.1838 8.04095C10.1838 9.38789 9.1634 10.4899 7.51033 10.4899H7.48993C5.89809 10.4899 4.87768 9.38789 4.87768 8.04095C4.87768 6.65319 5.93891 5.59197 7.55115 5.59197C9.1634 5.59197 10.1634 6.65319 10.1838 8.04095ZM22.1226 26.5716V19.0001C22.1226 17.0818 21.4491 15.7961 19.7552 15.7961C18.4491 15.7961 17.6736 16.6736 17.3267 17.5103C17.2042 17.8165 17.1838 18.245 17.1838 18.6532V26.5716H12.4695C12.5307 13.7348 12.4695 12.4083 12.4695 12.4083H17.1838V14.4695H17.143C17.7552 13.4899 18.8777 12.0818 21.4083 12.0818C24.5103 12.0818 26.8369 14.1022 26.8369 18.4491V26.5716H22.1226ZM31.6736 6.20421C31.6736 2.95931 29.0409 0.32666 25.796 0.32666H6.20421C2.95931 0.32666 0.32666 2.95931 0.32666 6.20421V25.796C0.32666 29.0409 2.95931 31.6736 6.20421 31.6736H25.796C29.0409 31.6736 31.6736 29.0409 31.6736 25.796V6.20421Z" fill="#8C8C8C"/>
</svg>
