<svg width="142" height="30" viewBox="0 0 142 30" fill="none" xmlns="http://www.w3.org/2000/svg">
<path d="M14.6767 0.375854C6.60271 0.375854 0.0618896 7.00354 0.0618896 15.1848C0.0618896 23.366 6.60271 29.9937 14.6767 29.9937C22.7445 29.9937 29.2915 23.366 29.2915 15.1848C29.2915 7.00354 22.7445 0.375854 14.6767 0.375854ZM21.5019 22.0881C20.7724 22.0505 20.7539 22.0255 20.0182 21.8062C19.8945 21.7686 19.1218 21.4178 18.6766 21.6496C18.6704 21.6559 18.6581 21.6559 18.6519 21.6621C18.4726 21.7749 18.2871 21.8814 18.0955 21.9816C18.0584 22.0004 18.0213 22.0192 17.9904 22.038C16.9889 22.5391 15.8637 22.8148 14.6767 22.8148C10.5161 22.8148 7.14056 19.4007 7.14056 15.1848C7.14056 10.9689 10.5161 7.54854 14.6767 7.54854C18.8374 7.54854 22.2067 10.9689 22.2067 15.1848C22.2067 16.2936 21.9718 17.346 21.5514 18.2982C21.4277 18.8244 21.5266 19.1 21.7925 19.5698C22.2747 20.4343 22.862 21.0921 23.6843 21.6308C23.0166 21.9252 22.2871 22.132 21.5019 22.0881Z" fill="#F77C42"/>
<path d="M14.6766 0.438538C9.08166 0.438538 4.22242 3.35146 1.76807 8.36295L11.332 8.24393L11.6535 8.18128C12.2717 7.73651 13.6318 7.54232 14.7508 7.54232C18.9114 7.54232 22.2437 10.9627 22.2437 15.1786C22.2437 16.2874 21.9902 17.3398 21.5698 18.292C21.4462 18.8182 21.5327 19.0938 21.7985 19.5699C22.2869 20.4344 22.8681 21.0921 23.6841 21.6309C23.0164 21.9253 22.2808 22.132 21.4956 22.0882C21.2607 22.0756 21.0938 22.0631 20.9578 22.0506C21.2854 23.1656 21.4647 24.3496 21.4647 25.5774C21.4647 26.5797 21.3472 27.5507 21.1247 28.4778C25.9592 26.066 29.2852 21.0545 29.2852 15.2224C29.2914 7.0349 22.7444 0.438538 14.6766 0.438538Z" fill="#D25E27"/>
<path d="M14.6766 0.375824C14.4355 0.375824 14.1944 0.382088 13.9533 0.394617C18.9053 2.79387 22.324 7.91811 22.324 13.8567C22.324 14.6961 22.1139 16.3437 22.0953 16.3499C21.9964 16.9826 21.8233 17.5965 21.5822 18.1666C21.4091 18.7805 21.5018 19.0624 21.7862 19.5761C22.2684 20.4406 22.8557 21.0983 23.678 21.637C23.0103 21.9315 22.2808 22.1382 21.4894 22.0943C20.7599 22.0568 20.7414 22.0317 20.0057 21.8125C19.8944 21.7811 19.2329 21.4804 18.7816 21.612C16.7724 25.5335 13.4278 28.365 8.73547 28.7283C10.5469 29.5427 12.5561 30 14.6642 30C22.7321 30 29.2791 23.3723 29.2791 15.191C29.2914 7.00351 22.7444 0.375824 14.6766 0.375824Z" fill="#D25E27"/>
<path d="M4.38953 19.4571C4.38953 12.6603 9.82372 7.15389 16.5315 7.15389C23.1774 7.15389 28.5992 12.6665 28.6919 19.3757C29.1309 17.9662 29.3473 16.3625 29.3473 14.8027C29.3534 6.62769 22.8064 0 14.7386 0C6.66459 0 0.123779 6.62769 0.123779 14.8089C0.123779 20.3216 3.09744 25.1263 7.4992 27.6759C5.57034 25.4959 4.38953 22.6143 4.38953 19.4571Z" fill="#F77C42"/>
<path d="M18.7878 21.6747C18.5467 21.7812 18.2994 21.8814 18.0522 21.9754C18.046 21.9754 18.0398 21.9816 18.0336 21.9816C17.9965 22.0004 17.9594 22.0192 17.9285 22.038C16.927 22.5391 15.8018 22.8148 14.6148 22.8148C14.349 22.8148 14.0832 22.8022 13.8173 22.7709C13.7246 22.7709 13.638 22.7709 13.5453 22.7709C6.8932 22.7709 1.39719 17.772 0.506944 11.2758C0.179285 12.5287 0 13.8317 0 15.1848C0 21.2737 3.62898 26.5045 8.8097 28.7784C13.4649 28.3901 16.791 25.5711 18.7878 21.6747Z" fill="#E96F35"/>
<path d="M37.6807 19.2879V3.90266H41.118V9.47168C41.9402 9.32133 42.7192 9.24616 43.4672 9.24616C45.5939 9.24616 47.226 9.8726 48.3636 11.1255C49.5073 12.3783 50.0761 14.1825 50.0761 16.5379C50.0761 17.8346 49.9091 18.9747 49.5753 19.9645C49.2415 20.9542 48.8458 21.6997 48.3945 22.2134C47.9432 22.7208 47.393 23.1405 46.7624 23.46C46.1256 23.7795 45.5754 23.9799 45.1055 24.0551C44.6357 24.1303 44.1658 24.1679 43.6898 24.1679C41.6497 24.1679 40.135 23.6918 39.152 22.7333C38.1691 21.7811 37.6807 20.6348 37.6807 19.2879ZM41.118 19.6199C41.118 20.6598 41.9711 21.1798 43.6898 21.1798C44.7779 21.1798 45.5445 20.8039 45.9834 20.0522C46.4224 19.3005 46.6387 18.0664 46.6387 16.3499C46.6387 14.7212 46.3544 13.5811 45.7918 12.9359C45.2292 12.2844 44.4131 11.9649 43.3374 11.9649C42.4966 11.9649 41.7548 12.0463 41.118 12.2092V19.6199Z" fill="white"/>
<path d="M52.3511 16.8636C52.3511 14.5396 52.8642 12.6853 53.8843 11.2946C54.9043 9.90394 56.5241 9.21486 58.7435 9.21486C60.8393 9.21486 62.4281 9.89141 63.5038 11.2382C64.5796 12.5913 65.1174 14.2514 65.1174 16.2247C65.1174 17.039 65.0989 17.6342 65.0618 18.0225H55.7884C55.8811 19.2754 56.2521 20.1211 56.9012 20.5408C57.5503 20.9668 58.3911 21.1798 59.4236 21.1798C61.099 21.1798 62.7187 20.8102 64.289 20.0585V22.8649C62.7063 23.7356 60.9135 24.1679 58.9104 24.1679C58.2737 24.1679 57.6802 24.1178 57.1238 24.0113C56.5674 23.9048 55.9862 23.6918 55.3866 23.3598C54.7869 23.0278 54.2737 22.6081 53.841 22.1006C53.4082 21.5932 53.0559 20.8854 52.7777 19.9833C52.4933 19.0812 52.3511 18.0413 52.3511 16.8636ZM55.7884 15.617H61.5441C61.4513 14.6273 61.1608 13.7878 60.6724 13.0988C60.184 12.4159 59.5101 12.0714 58.6508 12.0714C57.7915 12.0714 57.1238 12.3533 56.6416 12.9046C56.1717 13.4684 55.8811 14.3704 55.7884 15.617Z" fill="white"/>
<path d="M65.9893 12.4598V9.47168H68.3942V5.17433H71.8315V9.46542H75.2132V12.4535H71.8315V19.5886C71.8315 20.2088 71.9613 20.6348 72.2148 20.8477C72.4744 21.067 72.9257 21.1735 73.5811 21.1735C74.1993 21.1735 74.7433 21.067 75.2132 20.8603V23.7356C74.5455 24.0175 73.8098 24.1616 73.0185 24.1616C72.9937 24.1616 72.969 24.1616 72.9505 24.1616C71.5347 24.1616 70.4219 23.7356 69.6121 22.8899C68.8022 22.038 68.3942 20.8665 68.3942 19.3756V12.4598H65.9893Z" fill="white"/>
<path d="M77.2964 19.4947C77.2964 18.8432 77.4139 18.2606 77.655 17.7469C77.8961 17.2332 78.1866 16.8135 78.5267 16.494C78.8729 16.1746 79.3118 15.8989 79.8435 15.6734C80.3751 15.4479 80.845 15.2787 81.253 15.1723C81.6611 15.0658 82.1494 14.9843 82.712 14.9279C83.2746 14.8716 83.6765 14.8402 83.9114 14.8277C84.1463 14.8214 84.4307 14.8152 84.7584 14.8152L87.052 14.953C87.052 13.6375 86.6996 12.7041 86.001 12.1403C85.2962 11.5765 84.2576 11.3009 82.8851 11.3009C81.3396 11.3009 79.9486 11.5327 78.7059 11.9962V9.97284C80.1155 9.47169 81.5436 9.22112 82.9964 9.22112C84.9995 9.22112 86.5265 9.73479 87.5775 10.7559C88.6285 11.7832 89.1539 13.2804 89.1539 15.2537V19.6012C89.1539 20.5283 88.9437 21.3176 88.5172 21.9753C88.0906 22.6331 87.5466 23.1092 86.8851 23.3974C86.2174 23.6918 85.593 23.8922 85.0118 24.005C84.4307 24.1178 83.8558 24.1741 83.287 24.1741C82.848 24.1741 82.3967 24.1428 81.9393 24.0864C81.4756 24.0301 80.9563 23.8985 80.369 23.698C79.7878 23.4913 79.2809 23.2345 78.8543 22.915C78.4216 22.5955 78.0568 22.1445 77.7539 21.5494C77.4448 20.9543 77.2964 20.2714 77.2964 19.4947ZM79.3613 19.4947C79.3613 21.2988 80.6533 22.2009 83.2437 22.2009C83.2499 22.2009 83.2684 22.2009 83.287 22.2009C85.8155 22.2009 87.0829 21.3301 87.0829 19.5824V16.8073C86.4523 16.6945 85.6053 16.6381 84.542 16.6381C81.0923 16.6318 79.3613 17.5903 79.3613 19.4947Z" fill="white"/>
<path d="M92.2205 23.9424V10.6118C94.3719 9.69725 96.684 9.24622 99.1508 9.24622V11.2132C97.5928 11.2508 95.9669 11.5014 94.2853 11.9649V23.9424H92.2205Z" fill="white"/>
<path d="M100.449 16.8887C100.449 16.8699 100.449 16.8386 100.449 16.7885C100.449 16.7446 100.449 16.7008 100.449 16.6757C100.449 11.7018 102.532 9.21486 106.705 9.21486C107.577 9.21486 108.368 9.35267 109.073 9.63457C109.784 9.9102 110.347 10.2422 110.761 10.6181C111.175 10.9939 111.546 11.4888 111.861 12.0965C112.177 12.7041 112.399 13.224 112.535 13.65C112.671 14.076 112.776 14.5897 112.851 15.1911C112.925 15.7736 112.962 16.1432 112.962 16.2936V16.9138L112.906 17.9348H102.52C102.65 19.3882 103.089 20.4468 103.837 21.0983C104.585 21.7561 105.692 22.0818 107.157 22.0818C109.228 22.0818 110.86 21.7248 112.047 21.0044V23.1593C110.674 23.8296 109.005 24.1616 107.045 24.1616C107.021 24.1616 106.99 24.1616 106.959 24.1616C106.124 24.1616 105.358 24.0614 104.659 23.8547C103.96 23.6542 103.274 23.3034 102.607 22.8022C101.933 22.3011 101.407 21.5494 101.024 20.5408C100.641 19.5448 100.449 18.3232 100.449 16.8887ZM102.52 16.0806H110.891C110.891 15.7486 110.854 15.379 110.773 14.9781C110.693 14.5709 110.538 14.0509 110.297 13.412C110.056 12.773 109.63 12.2405 109.011 11.8208C108.393 11.3949 107.62 11.1819 106.705 11.1819C105.29 11.1819 104.257 11.5577 103.62 12.3032C102.978 13.0486 102.613 14.3078 102.52 16.0806Z" fill="white"/>
<path d="M115.806 23.9424V10.6306C117.679 9.68469 119.694 9.21486 121.852 9.21486C123.651 9.21486 125.042 9.67842 126.031 10.6055C127.02 11.5327 127.521 12.8357 127.521 14.5145V23.9486H125.45V14.5082C125.45 14.1011 125.407 13.744 125.326 13.4245C125.24 13.1113 125.079 12.773 124.838 12.4097C124.597 12.0526 124.207 11.777 123.663 11.5828C123.125 11.3886 122.445 11.2946 121.629 11.2946C120.43 11.2946 119.181 11.4888 117.877 11.8772V23.9424H115.806Z" fill="white"/>
<path d="M130.142 19.4947C130.142 18.8432 130.26 18.2606 130.501 17.7469C130.736 17.2332 131.033 16.8135 131.373 16.494C131.719 16.1746 132.158 15.8989 132.689 15.6734C133.221 15.4479 133.691 15.2787 134.099 15.1723C134.507 15.0658 134.995 14.9843 135.558 14.9279C136.121 14.8716 136.522 14.8402 136.757 14.8277C136.992 14.8214 137.277 14.8152 137.604 14.8152L139.898 14.953C139.898 13.6375 139.546 12.7041 138.847 12.1403C138.142 11.5765 137.104 11.3009 135.731 11.3009C134.186 11.3009 132.795 11.5327 131.552 11.9962V9.97284C132.961 9.47169 134.39 9.22112 135.842 9.22112C137.845 9.22112 139.372 9.73479 140.423 10.7559C141.474 11.7832 142 13.2804 142 15.2537V19.6012C142 20.5283 141.79 21.3176 141.363 21.9753C140.937 22.6331 140.392 23.1092 139.731 23.3974C139.063 23.6918 138.439 23.8922 137.858 24.005C137.277 24.1178 136.702 24.1741 136.133 24.1741C135.694 24.1741 135.243 24.1428 134.785 24.0864C134.322 24.0301 133.802 23.8985 133.215 23.698C132.634 23.4913 132.127 23.2345 131.694 22.915C131.268 22.5955 130.897 22.1445 130.594 21.5494C130.297 20.9543 130.142 20.2714 130.142 19.4947ZM132.213 19.4947C132.213 21.2988 133.505 22.2009 136.09 22.2009C136.096 22.2009 136.114 22.2009 136.133 22.2009C138.661 22.2009 139.929 21.3301 139.929 19.5824V16.8073C139.298 16.6945 138.451 16.6381 137.388 16.6381C133.938 16.6318 132.213 17.5903 132.213 19.4947Z" fill="white"/>
</svg>
