<svg width="20" height="20" viewBox="0 0 20 20" fill="none" xmlns="http://www.w3.org/2000/svg">
<path d="M19.0031 0.61087L11.1992 6.4312L12.6424 2.99728L19.0031 0.61087Z" fill="#E2761B"/>
<path d="M0.987592 0.61087L8.72877 6.48633L7.35622 2.99728L0.987592 0.61087ZM16.1954 14.1024L14.117 17.3L18.5641 18.5287L19.8425 14.1733L16.1954 14.1024ZM0.164062 14.1733L1.43465 18.5287L5.88171 17.3L3.80328 14.1024L0.164062 14.1733Z" fill="#E4761B"/>
<path d="M5.62984 8.69948L4.39062 10.5818L8.80631 10.7787L8.64945 6.01378L5.62984 8.69948ZM14.3593 8.69948L11.3004 5.95865L11.1985 10.7787L15.6063 10.5818L14.3593 8.69948ZM5.88082 17.3L8.5318 16.0005L6.24161 14.2048L5.88082 17.3ZM11.4573 16.0005L14.1161 17.3L13.7475 14.2048L11.4573 16.0005Z" fill="#E4761B"/>
<path d="M14.1181 17.3L11.4593 16.0005L11.671 17.7411L11.6475 18.4735L14.1181 17.3ZM5.88281 17.3L8.3534 18.4735L8.33771 17.7411L8.53379 16.0005L5.88281 17.3Z" fill="#D7C1B3"/>
<path d="M8.39145 13.0549L6.17969 12.4012L7.74047 11.6844L8.39145 13.0549ZM11.5993 13.0549L12.2503 11.6844L13.8189 12.4012L11.5993 13.0549Z" fill="#233447"/>
<path d="M5.88312 17.3L6.25959 14.1024L3.80469 14.1733L5.88312 17.3ZM13.7419 14.1024L14.1184 17.3L16.1968 14.1733L13.7419 14.1024ZM15.6086 10.5818L11.2008 10.7787L11.6086 13.0549L12.2596 11.6845L13.8282 12.4012L15.6086 10.5818ZM6.18116 12.4012L7.74979 11.6845L8.39292 13.0549L8.80861 10.7787L4.39292 10.5818L6.18116 12.4012Z" fill="#CD6116"/>
<path d="M4.39062 10.5818L6.24161 14.2048L6.17886 12.4012L4.39062 10.5818ZM13.8259 12.4012L13.7475 14.2048L15.6063 10.5818L13.8259 12.4012ZM8.80631 10.7787L8.39062 13.0549L8.90827 15.7406L9.02592 12.2043L8.80631 10.7787ZM11.1985 10.7787L10.9867 12.1964L11.0808 15.7406L11.6063 13.0549L11.1985 10.7787Z" fill="#E4751F"/>
<path d="M11.6071 13.0549L11.0816 15.7406L11.4581 16.0005L13.7483 14.2048L13.8267 12.4012L11.6071 13.0549ZM6.17969 12.4012L6.24243 14.2048L8.53263 16.0005L8.9091 15.7406L8.39145 13.0549L6.17969 12.4012Z" fill="#F6851B"/>
<path d="M11.6475 18.4735L11.671 17.7411L11.475 17.5678H8.51811L8.33771 17.7411L8.3534 18.4735L5.88281 17.3L6.74556 18.0089L8.49458 19.2296H11.4985L13.2554 18.0089L14.1181 17.3L11.6475 18.4735Z" fill="#C0AD9E"/>
<path d="M11.4575 16.0005L11.081 15.7406H8.90849L8.53202 16.0005L8.33594 17.7411L8.51633 17.5678H11.4732L11.6693 17.7411L11.4575 16.0005Z" fill="#161616"/>
<path d="M19.3333 6.80925L20 3.59586L19.0039 0.61087L11.4588 6.2343L14.3608 8.69948L18.4627 9.9045L19.3725 8.84124L18.9804 8.55771L19.6078 7.98276L19.1216 7.60472L19.749 7.12429L19.3333 6.80925ZM0 3.59586L0.666667 6.80925L0.243137 7.12429L0.870588 7.60472L0.392157 7.98276L1.01961 8.55771L0.627451 8.84124L1.52941 9.9045L5.63137 8.69948L8.53333 6.2343L0.988236 0.61087L0 3.59586Z" fill="#763D16"/>
<path d="M18.4621 9.9045L14.3601 8.69947L15.6072 10.5818L13.7484 14.2048L16.1954 14.1733H19.8425L18.4621 9.9045ZM5.63073 8.69947L1.52877 9.9045L0.164062 14.1733H3.80328L6.24249 14.2048L4.39151 10.5818L5.63073 8.69947ZM11.1994 10.7787L11.4582 6.2343L12.6503 2.99728H7.35622L8.53269 6.2343L8.8072 10.7787L8.90132 12.2121L8.90916 15.7406H11.0817L11.0974 12.2121L11.1994 10.7787Z" fill="#F6851B"/>
</svg>
