<svg width="20" height="20" viewBox="0 0 20 20" fill="none" xmlns="http://www.w3.org/2000/svg">
  <g clip-path="url(#clip0_6848_221442)">
    <path
      d="M10 12.5C11.3807 12.5 12.5 11.3807 12.5 10C12.5 8.61929 11.3807 7.5 10 7.5C8.61929 7.5 7.5 8.61929 7.5 10C7.5 11.3807 8.61929 12.5 10 12.5Z"
      stroke="#8C8C8C" stroke-width="1.5" stroke-linecap="round" stroke-linejoin="round" />
    <path
      d="M16.1693 12.5C16.0583 12.7513 16.0253 13.0302 16.0743 13.3005C16.1233 13.5708 16.2522 13.8203 16.4443 14.0167L16.4943 14.0667C16.6492 14.2214 16.7722 14.4053 16.856 14.6076C16.9399 14.8099 16.9831 15.0268 16.9831 15.2458C16.9831 15.4649 16.9399 15.6817 16.856 15.8841C16.7722 16.0864 16.6492 16.2702 16.4943 16.425C16.3395 16.58 16.1557 16.7029 15.9533 16.7868C15.751 16.8706 15.5341 16.9138 15.3151 16.9138C15.0961 16.9138 14.8792 16.8706 14.6769 16.7868C14.4745 16.7029 14.2907 16.58 14.1359 16.425L14.0859 16.375C13.8895 16.1829 13.6401 16.054 13.3698 16.005C13.0994 15.956 12.8206 15.9891 12.5693 16.1C12.3228 16.2056 12.1126 16.381 11.9645 16.6046C11.8165 16.8282 11.737 17.0902 11.7359 17.3583V17.5C11.7359 17.942 11.5603 18.3659 11.2478 18.6785C10.9352 18.9911 10.5113 19.1667 10.0693 19.1667C9.62724 19.1667 9.20332 18.9911 8.89076 18.6785C8.5782 18.3659 8.4026 17.942 8.4026 17.5V17.425C8.39615 17.1492 8.30687 16.8817 8.14636 16.6572C7.98586 16.4328 7.76155 16.2619 7.5026 16.1667C7.25126 16.0557 6.97244 16.0226 6.70211 16.0717C6.43178 16.1207 6.18234 16.2495 5.98594 16.4417L5.93594 16.4917C5.78115 16.6466 5.59733 16.7696 5.395 16.8534C5.19267 16.9373 4.9758 16.9805 4.75677 16.9805C4.53775 16.9805 4.32087 16.9373 4.11854 16.8534C3.91621 16.7696 3.73239 16.6466 3.5776 16.4917C3.42264 16.3369 3.29971 16.1531 3.21584 15.9507C3.13196 15.7484 3.08879 15.5315 3.08879 15.3125C3.08879 15.0935 3.13196 14.8766 3.21584 14.6743C3.29971 14.4719 3.42264 14.2881 3.5776 14.1333L3.6276 14.0833C3.81972 13.8869 3.94859 13.6375 3.99761 13.3672C4.04662 13.0968 4.01353 12.818 3.9026 12.5667C3.79697 12.3202 3.62157 12.11 3.39799 11.9619C3.17442 11.8139 2.91243 11.7344 2.64427 11.7333H2.5026C2.06058 11.7333 1.63665 11.5577 1.32409 11.2452C1.01153 10.9326 0.835938 10.5087 0.835938 10.0667C0.835938 9.62463 1.01153 9.20071 1.32409 8.88815C1.63665 8.57559 2.06058 8.4 2.5026 8.4H2.5776C2.85343 8.39354 3.12094 8.30426 3.34535 8.14375C3.56977 7.98325 3.7407 7.75894 3.83594 7.5C3.94687 7.24865 3.97996 6.96983 3.93094 6.6995C3.88193 6.42918 3.75305 6.17973 3.56094 5.98333L3.51094 5.93333C3.35598 5.77854 3.23305 5.59473 3.14917 5.3924C3.0653 5.19007 3.02213 4.97319 3.02213 4.75416C3.02213 4.53514 3.0653 4.31826 3.14917 4.11593C3.23305 3.9136 3.35598 3.72978 3.51094 3.575C3.66573 3.42003 3.84954 3.2971 4.05187 3.21323C4.2542 3.12935 4.47108 3.08618 4.6901 3.08618C4.90913 3.08618 5.12601 3.12935 5.32834 3.21323C5.53067 3.2971 5.71448 3.42003 5.86927 3.575L5.91927 3.62499C6.11567 3.81711 6.36512 3.94598 6.63545 3.995C6.90578 4.04401 7.18459 4.01092 7.43594 3.89999H7.5026C7.74908 3.79436 7.95929 3.61896 8.10735 3.39538C8.25541 3.17181 8.33487 2.90982 8.33594 2.64166V2.49999C8.33594 2.05797 8.51153 1.63404 8.82409 1.32148C9.13665 1.00892 9.56058 0.833328 10.0026 0.833328C10.4446 0.833328 10.8686 1.00892 11.1811 1.32148C11.4937 1.63404 11.6693 2.05797 11.6693 2.49999V2.57499C11.6703 2.84315 11.7498 3.10514 11.8979 3.32872C12.0459 3.55229 12.2561 3.72769 12.5026 3.83333C12.754 3.94426 13.0328 3.97735 13.3031 3.92833C13.5734 3.87932 13.8229 3.75044 14.0193 3.55833L14.0693 3.50833C14.2241 3.35337 14.4079 3.23044 14.6102 3.14656C14.8125 3.06269 15.0294 3.01952 15.2484 3.01952C15.4675 3.01952 15.6843 3.06269 15.8867 3.14656C16.089 3.23044 16.2728 3.35337 16.4276 3.50833C16.5826 3.66312 16.7055 3.84693 16.7894 4.04926C16.8732 4.25159 16.9164 4.46847 16.9164 4.6875C16.9164 4.90652 16.8732 5.1234 16.7894 5.32573C16.7055 5.52806 16.5826 5.71187 16.4276 5.86666L16.3776 5.91666C16.1855 6.11306 16.0566 6.36251 16.0076 6.63284C15.9586 6.90317 15.9917 7.18198 16.1026 7.43333V7.5C16.2082 7.74647 16.3836 7.95668 16.6072 8.10474C16.8308 8.2528 17.0928 8.33226 17.3609 8.33333H17.5026C17.9446 8.33333 18.3686 8.50892 18.6811 8.82148C18.9937 9.13404 19.1693 9.55797 19.1693 10C19.1693 10.442 18.9937 10.8659 18.6811 11.1785C18.3686 11.4911 17.9446 11.6667 17.5026 11.6667H17.4276C17.1594 11.6677 16.8975 11.7472 16.6739 11.8953C16.4503 12.0433 16.2749 12.2535 16.1693 12.5Z"
      stroke="#8C8C8C" stroke-width="1.5" stroke-linecap="round" stroke-linejoin="round" />
  </g>
  <defs>
    <clipPath id="clip0_6848_221442">
      <rect width="20" height="20" fill="white" />
    </clipPath>
  </defs>
</svg>