<svg width="48" height="48" viewBox="0 0 48 48" fill="none" xmlns="http://www.w3.org/2000/svg">
<path d="M43.2008 33.12V33.87C43.615 33.87 43.9508 33.5342 43.9508 33.12H43.2008ZM43.2008 22.56H43.9508C43.9508 22.1458 43.615 21.81 43.2008 21.81V22.56ZM14.9552 13.2891C14.6068 13.5131 14.5059 13.9772 14.7299 14.3256C14.9539 14.674 15.4179 14.7749 15.7663 14.5509L14.9552 13.2891ZM28.8008 5.28003L29.3928 4.81957C29.1545 4.51317 28.7217 4.43924 28.3952 4.64915L28.8008 5.28003ZM34.9288 14.3805C35.1831 14.7074 35.6543 14.7663 35.9812 14.512C36.3082 14.2577 36.3671 13.7865 36.1128 13.4596L34.9288 14.3805ZM43.2008 32.37H36.9608V33.87H43.2008V32.37ZM36.9608 23.31H43.2008V21.81H36.9608V23.31ZM42.4508 22.56V33.12H43.9508V22.56H42.4508ZM32.4308 27.84C32.4308 25.3382 34.4589 23.31 36.9608 23.31V21.81C33.6305 21.81 30.9308 24.5098 30.9308 27.84H32.4308ZM36.9608 32.37C34.4589 32.37 32.4308 30.3419 32.4308 27.84H30.9308C30.9308 31.1703 33.6305 33.87 36.9608 33.87V32.37ZM15.7663 14.5509L29.2063 5.91091L28.3952 4.64915L14.9552 13.2891L15.7663 14.5509ZM28.2088 5.74048L34.9288 14.3805L36.1128 13.4596L29.3928 4.81957L28.2088 5.74048ZM6.72078 14.67H39.3608V13.17H6.72078V14.67ZM39.3608 41.97H6.72078V43.47H39.3608V41.97ZM5.55078 40.8V15.84H4.05078V40.8H5.55078ZM6.72078 41.97C6.07461 41.97 5.55078 41.4462 5.55078 40.8H4.05078C4.05078 42.2746 5.24618 43.47 6.72078 43.47V41.97ZM40.5308 40.8C40.5308 41.4462 40.007 41.97 39.3608 41.97V43.47C40.8354 43.47 42.0308 42.2746 42.0308 40.8H40.5308ZM39.3608 14.67C40.007 14.67 40.5308 15.1939 40.5308 15.84H42.0308C42.0308 14.3654 40.8354 13.17 39.3608 13.17V14.67ZM6.72078 13.17C5.24618 13.17 4.05078 14.3654 4.05078 15.84H5.55078C5.55078 15.1939 6.07461 14.67 6.72078 14.67V13.17ZM40.5308 34.56V40.8H42.0308V34.56H40.5308ZM40.5308 15.84V20.88H42.0308V15.84H40.5308Z" fill="#F5620F"/>
</svg>
