<svg width="33" height="32" viewBox="0 0 33 32" fill="none" xmlns="http://www.w3.org/2000/svg">
<g clip-path="url(#clip0_5228_311418)">
<path d="M13.6997 5.65335C14.6174 5.43852 15.5571 5.33113 16.4997 5.33335C25.833 5.33335 31.1663 16 31.1663 16C30.357 17.5142 29.3917 18.9397 28.2863 20.2533M19.3263 18.8267C18.9601 19.2197 18.5185 19.5349 18.0279 19.7535C17.5372 19.9721 17.0075 20.0897 16.4705 20.0992C15.9334 20.1086 15.3999 20.0098 14.9018 19.8087C14.4037 19.6075 13.9513 19.3081 13.5715 18.9282C13.1916 18.5484 12.8922 18.0959 12.691 17.5979C12.4898 17.0998 12.391 16.5663 12.4005 16.0292C12.41 15.4921 12.5276 14.9625 12.7462 14.4718C12.9648 13.9811 13.28 13.5395 13.673 13.1733M24.4197 23.92C22.1405 25.6574 19.3651 26.6198 16.4997 26.6667C7.16634 26.6667 1.83301 16 1.83301 16C3.49153 12.9092 5.79185 10.2088 8.57967 8.08001L24.4197 23.92Z" stroke="#A8A8A8" stroke-width="2" stroke-linecap="round" stroke-linejoin="round"/>
<path d="M1.83301 1.33331L31.1663 30.6666" stroke="#A8A8A8" stroke-width="2" stroke-linecap="round" stroke-linejoin="round"/>
</g>
<defs>
<clipPath id="clip0_5228_311418">
<rect width="32" height="32" fill="white" transform="translate(0.5)"/>
</clipPath>
</defs>
</svg>
