<svg width="28" height="32" viewBox="0 0 28 32" fill="none" xmlns="http://www.w3.org/2000/svg">
<g id="Group">
<path id="Vector" d="M21.514 5.59523L16.8843 4.92207L14.8142 0.587461C14.5091 -0.0333856 13.4909 -0.0333856 13.1858 0.587461L11.1157 4.92207L6.48601 5.59523C6.14368 5.64488 5.85984 5.88434 5.7534 6.21341C5.64696 6.54157 5.73566 6.90255 5.98402 7.14377L9.33299 10.4094L8.54188 15.0196C8.48333 15.3602 8.6235 15.7044 8.90377 15.9074C9.18229 16.1123 9.55653 16.1372 9.85987 15.9766L14 13.8001L18.1401 15.9766C18.456 16.1429 18.8262 16.1045 19.0962 15.9074C19.3765 15.7043 19.5166 15.3602 19.4581 15.0196L18.667 10.4094L22.016 7.14371C22.2643 6.90249 22.353 6.54151 22.2466 6.21335C22.1401 5.8844 21.8563 5.64494 21.514 5.59523Z" fill="#292929"/>
<path id="Vector_2" d="M21.2656 29.3055H20.3574V25.6727C20.3574 25.2815 20.1073 24.9347 19.7366 24.8114L14.2873 22.995C14.0993 22.933 13.9006 22.933 13.7126 22.995L8.26342 24.8114C7.8927 24.9347 7.64258 25.2815 7.64258 25.6727V29.3055H6.73437C6.23238 29.3055 5.82617 29.7117 5.82617 30.2137C5.82617 30.7157 6.23238 31.1219 6.73437 31.1219H21.2656C21.7676 31.1219 22.1738 30.7157 22.1738 30.2137C22.1738 29.7117 21.7676 29.3055 21.2656 29.3055ZM15.8164 28.3973H12.1836C11.6816 28.3973 11.2754 27.9911 11.2754 27.4891C11.2754 26.9871 11.6816 26.5809 12.1836 26.5809H15.8164C16.3184 26.5809 16.7246 26.9871 16.7246 27.4891C16.7246 27.9911 16.3184 28.3973 15.8164 28.3973Z" fill="#292929"/>
<path id="Vector_3" d="M4.00976 8.3562C4.00976 7.85421 3.60355 7.448 3.10156 7.448H1.28516C0.783162 7.448 0.376953 7.85421 0.376953 8.3562C0.376953 8.85819 0.783162 9.2644 1.28516 9.2644H3.10156C3.60355 9.2644 4.00976 8.85819 4.00976 8.3562Z" fill="#292929"/>
<path id="Vector_4" d="M26.7148 7.448H24.8984C24.3964 7.448 23.9902 7.85421 23.9902 8.3562C23.9902 8.85819 24.3964 9.2644 24.8984 9.2644H26.7148C27.2168 9.2644 27.623 8.85819 27.623 8.3562C27.623 7.85421 27.2168 7.448 26.7148 7.448Z" fill="#292929"/>
<path id="Vector_5" d="M3.58409 11.6875L1.90603 12.3828C1.44309 12.5744 1.22313 13.1065 1.4147 13.5695C1.60929 14.037 2.14217 14.251 2.60141 14.0609L4.27947 13.3655C4.74241 13.174 4.96238 12.6418 4.77081 12.1788C4.57917 11.7167 4.0506 11.4959 3.58409 11.6875Z" fill="#292929"/>
<path id="Vector_6" d="M25.3987 2.65157L23.7206 3.34689C23.2577 3.53846 23.0377 4.0706 23.2293 4.53361C23.4239 5.00103 23.9567 5.21506 24.416 5.02494L26.094 4.32962C26.557 4.13805 26.777 3.60591 26.5854 3.14291C26.3937 2.68087 25.8634 2.46175 25.3987 2.65157Z" fill="#292929"/>
<path id="Vector_7" d="M26.094 12.3828L24.4159 11.6874C23.9565 11.4985 23.4225 11.714 23.2292 12.1788C23.0376 12.6417 23.2576 13.1739 23.7205 13.3655L25.3986 14.0608C25.859 14.2514 26.3911 14.0358 26.5853 13.5695C26.7769 13.1065 26.557 12.5743 26.094 12.3828Z" fill="#292929"/>
<path id="Vector_8" d="M4.27941 3.34695L2.60135 2.65157C2.14192 2.46 1.60802 2.67906 1.41463 3.14291C1.22306 3.60585 1.44303 4.13806 1.90597 4.32963L3.58409 5.02495C4.04449 5.21555 4.57663 4.99988 4.77081 4.53361C4.96231 4.07067 4.74241 3.53852 4.27941 3.34695Z" fill="#292929"/>
<path id="Vector_9" d="M14.8567 21.27L17.7166 22.2233C17.4093 21.0875 17.0782 19.4374 16.8866 17.3697L14 15.8525L11.1136 17.3695C10.9208 19.4416 10.5873 21.096 10.2832 22.2237L13.1379 21.2718C13.4199 21.1787 13.7091 21.1326 13.9999 21.1326C14.2908 21.1326 14.58 21.1787 14.8567 21.27Z" fill="#292929"/>
</g>
</svg>
