<svg width="32" height="32" viewBox="0 0 32 32" fill="none" xmlns="http://www.w3.org/2000/svg">
<g id="laurel-wreath 1" clip-path="url(#clip0_5_2411)">
<g id="Group">
<path id="Vector" d="M27.8404 16.9771C29.8583 16.9771 31.4999 15.3354 31.4999 13.3176V11.5697H29.1807C28.469 11.5697 27.7808 11.7774 27.191 12.1615C27.1255 11.7993 27.0427 11.4409 26.942 11.0872L27.6403 10.6853C28.4869 10.1966 29.0924 9.40747 29.3454 8.46328C29.5984 7.51908 29.4686 6.53287 28.9798 5.68634L28.1059 4.17261L26.0974 5.33222C25.3048 5.78981 24.7166 6.52458 24.4412 7.40114C24.17 8.26408 24.2241 9.19029 24.5933 10.0109L25.0054 10.992C25.3716 12.017 25.5574 13.0977 25.5574 14.2046C25.5574 19.4745 21.2701 23.7618 16.0002 23.7618C10.7303 23.7618 6.44299 19.4745 6.44299 14.2046C6.44299 13.095 6.62868 12.0143 6.99467 10.992L7.40667 10.0109C7.77588 9.19023 7.82994 8.26408 7.55882 7.40114C7.28341 6.52458 6.69522 5.78981 5.90263 5.33222L3.89406 4.17261L3.02016 5.68634C2.53139 6.53287 2.40158 7.51908 2.65454 8.46328C2.90749 9.40747 3.51306 10.1966 4.36068 10.6859L5.05773 11.0871C4.95717 11.4406 4.87434 11.7989 4.80889 12.1614C4.21907 11.7774 3.53086 11.5697 2.81922 11.5697H0.5V13.3176C0.5 15.3355 2.14166 16.9771 4.16076 16.9771L4.96873 16.976C5.059 17.3353 5.16653 17.6878 5.29016 18.0326C4.58566 17.9934 3.8845 18.157 3.26767 18.5132L1.25923 19.6728L2.13319 21.1865C2.8102 22.3591 4.04234 23.0154 5.30832 23.0154C5.92897 23.0154 6.55802 22.8575 7.13332 22.5253L7.83842 22.1169C8.09482 22.3814 8.36394 22.6334 8.64481 22.872C8.01448 23.1901 7.48811 23.6833 7.13096 24.3018L5.97135 26.3102L7.48508 27.1842C8.04899 27.5097 8.67472 27.6761 9.30892 27.6761C9.62678 27.6761 9.94682 27.6343 10.262 27.5498C11.2062 27.2969 11.9953 26.6913 12.4847 25.8437L12.8868 25.145C13.8766 25.4271 14.9211 25.5782 16.0002 25.5782C17.0792 25.5782 18.1236 25.4271 19.1133 25.1451L19.516 25.8448C20.1931 27.0175 21.4256 27.6738 22.6914 27.6738C23.3118 27.6738 23.9402 27.5161 24.515 27.1842L26.0287 26.3103L24.8691 24.3018C24.5121 23.6834 23.9858 23.1903 23.3556 22.8722C23.6364 22.6335 23.9055 22.3815 24.162 22.117L24.8679 22.5261C25.4428 22.858 26.071 23.0156 26.6915 23.0156C27.9571 23.0156 29.1899 22.3592 29.8669 21.1866L30.7408 19.6729L28.7324 18.5133C28.1156 18.1572 27.4146 17.9936 26.7103 18.0328C26.8339 17.6879 26.9414 17.3354 27.0317 16.9761L27.8404 16.9771Z" fill="#292929"/>
<path id="Vector_2" d="M16 6.50415C11.7932 6.50415 8.37073 9.92661 8.37073 14.1334C8.37073 18.3402 11.7932 21.7627 16 21.7627C20.2068 21.7627 23.6293 18.3402 23.6293 14.1334C23.6293 9.92661 20.2068 6.50415 16 6.50415ZM16.908 17.1607H15.0917V14.0001C14.7154 14.1668 14.2994 14.2594 13.862 14.2594V12.4431C14.54 12.4431 15.0917 11.8915 15.0917 11.2134V11.1062H16.908V17.1607Z" fill="#292929"/>
</g>
</g>
<defs>
<clipPath id="clip0_5_2411">
<rect width="31" height="31" fill="white" transform="translate(0.5 0.424316)"/>
</clipPath>
</defs>
</svg>
