<svg width="142" height="30" viewBox="0 0 142 30" fill="none" xmlns="http://www.w3.org/2000/svg">
<path d="M14.6773 0.375977C6.60332 0.375977 0.0625 7.00366 0.0625 15.1849C0.0625 23.3662 6.60332 29.9939 14.6773 29.9939C22.7452 29.9939 29.2922 23.3662 29.2922 15.1849C29.2922 7.00366 22.7452 0.375977 14.6773 0.375977ZM21.5025 22.0882C20.773 22.0506 20.7545 22.0256 20.0188 21.8063C19.8951 21.7688 19.1224 21.4179 18.6772 21.6497C18.6711 21.656 18.6587 21.656 18.6525 21.6623C18.4732 21.775 18.2878 21.8815 18.0961 21.9817C18.059 22.0005 18.0219 22.0193 17.991 22.0381C16.9895 22.5393 15.8643 22.8149 14.6773 22.8149C10.5167 22.8149 7.14117 19.4008 7.14117 15.1849C7.14117 10.969 10.5167 7.54866 14.6773 7.54866C18.838 7.54866 22.2073 10.969 22.2073 15.1849C22.2073 16.2937 21.9724 17.3461 21.552 18.2983C21.4283 18.8245 21.5273 19.1001 21.7931 19.57C22.2753 20.4344 22.8626 21.0922 23.6849 21.6309C23.0172 21.9254 22.2877 22.1321 21.5025 22.0882Z" fill="#F77C42"/>
<path d="M14.6781 0.438477C9.08313 0.438477 4.22388 3.3514 1.76953 8.36289L11.3335 8.24386L11.6549 8.18122C12.2732 7.73645 13.6333 7.54226 14.7522 7.54226C18.9129 7.54226 22.2451 10.9626 22.2451 15.1785C22.2451 16.2873 21.9917 17.3397 21.5713 18.2919C21.4476 18.8181 21.5342 19.0937 21.8 19.5698C22.2884 20.4343 22.8695 21.0921 23.6856 21.6308C23.0179 21.9252 22.2822 22.1319 21.4971 22.0881C21.2622 22.0756 21.0952 22.063 20.9592 22.0505C21.2869 23.1656 21.4662 24.3495 21.4662 25.5773C21.4662 26.5796 21.3487 27.5506 21.1261 28.4777C25.9607 26.066 29.2867 21.0545 29.2867 15.2224C29.2929 7.03484 22.7459 0.438477 14.6781 0.438477Z" fill="#D25E27"/>
<path d="M14.6755 0.375977C14.4344 0.375977 14.1933 0.382241 13.9522 0.39477C18.9042 2.79402 22.323 7.91826 22.323 13.8569C22.323 14.6963 22.1128 16.3438 22.0942 16.3501C21.9953 16.9828 21.8222 17.5967 21.5811 18.1667C21.408 18.7807 21.5007 19.0625 21.7851 19.5762C22.2673 20.4407 22.8546 21.0985 23.6769 21.6372C23.0092 21.9316 22.2797 22.1383 21.4883 22.0945C20.7588 22.0569 20.7403 22.0319 20.0046 21.8126C19.8933 21.7813 19.2318 21.4806 18.7805 21.6121C16.7713 25.5336 13.4267 28.3651 8.73438 28.7285C10.5458 29.5428 12.555 30.0001 14.6631 30.0001C22.731 30.0001 29.278 23.3724 29.278 15.1912C29.2903 7.00366 22.7433 0.375977 14.6755 0.375977Z" fill="#D25E27"/>
<path d="M4.39075 19.4571C4.39075 12.6603 9.82494 7.15389 16.5327 7.15389C23.1786 7.15389 28.6004 12.6665 28.6932 19.3757C29.1321 17.9662 29.3485 16.3625 29.3485 14.8027C29.3547 6.62769 22.8077 0 14.7398 0C6.66582 0 0.125 6.62769 0.125 14.8089C0.125 20.3216 3.09866 25.1263 7.50042 27.6759C5.57156 25.4959 4.39075 22.6143 4.39075 19.4571Z" fill="#F77C42"/>
<path d="M18.7878 21.6747C18.5467 21.7812 18.2994 21.8814 18.0522 21.9754C18.046 21.9754 18.0398 21.9817 18.0336 21.9817C17.9965 22.0005 17.9594 22.0192 17.9285 22.038C16.927 22.5392 15.8018 22.8148 14.6148 22.8148C14.349 22.8148 14.0832 22.8023 13.8173 22.771C13.7246 22.771 13.638 22.771 13.5453 22.771C6.8932 22.771 1.39719 17.772 0.506944 11.2759C0.179285 12.5288 0 13.8317 0 15.1848C0 21.2738 3.62898 26.5045 8.8097 28.7785C13.4649 28.3901 16.791 25.5711 18.7878 21.6747Z" fill="#E96F35"/>
<path d="M37.6797 19.2881V3.90283H41.117V9.47184C41.9393 9.3215 42.7182 9.24633 43.4663 9.24633C45.593 9.24633 47.2251 9.87276 48.3626 11.1256C49.5063 12.3785 50.0751 14.1826 50.0751 16.538C50.0751 17.8348 49.9082 18.9749 49.5743 19.9646C49.2405 20.9544 48.8448 21.6999 48.3935 22.2135C47.9422 22.721 47.392 23.1407 46.7614 23.4602C46.1246 23.7796 45.5744 23.9801 45.1046 24.0553C44.6347 24.1304 44.1649 24.168 43.6888 24.168C41.6487 24.168 40.134 23.6919 39.1511 22.7335C38.1681 21.7813 37.6797 20.6349 37.6797 19.2881ZM41.117 19.6201C41.117 20.66 41.9702 21.1799 43.6888 21.1799C44.7769 21.1799 45.5435 20.8041 45.9824 20.0523C46.4214 19.3006 46.6378 18.0665 46.6378 16.3501C46.6378 14.7214 46.3534 13.5813 45.7908 12.936C45.2282 12.2845 44.4122 11.9651 43.3364 11.9651C42.4957 11.9651 41.7538 12.0465 41.117 12.2094V19.6201Z" fill="white"/>
<path d="M52.3516 16.8636C52.3516 14.5395 52.8647 12.6853 53.8848 11.2946C54.9048 9.90392 56.5246 9.21484 58.744 9.21484C60.8398 9.21484 62.4286 9.89139 63.5043 11.2382C64.58 12.5913 65.1179 14.2514 65.1179 16.2247C65.1179 17.039 65.0993 17.6341 65.0623 18.0225H55.7889C55.8816 19.2754 56.2526 20.1211 56.9017 20.5408C57.5508 20.9668 58.3916 21.1798 59.4241 21.1798C61.0994 21.1798 62.7192 20.8102 64.2895 20.0584V22.8649C62.7068 23.7356 60.914 24.1679 58.9109 24.1679C58.2742 24.1679 57.6807 24.1177 57.1243 24.0113C56.5679 23.9048 55.9867 23.6918 55.387 23.3598C54.7874 23.0278 54.2742 22.608 53.8415 22.1006C53.4087 21.5932 53.0563 20.8853 52.7781 19.9833C52.4938 19.0812 52.3516 18.0413 52.3516 16.8636ZM55.7889 15.617H61.5446C61.4518 14.6272 61.1613 13.7878 60.6729 13.0987C60.1845 12.4159 59.5106 12.0714 58.6513 12.0714C57.7919 12.0714 57.1243 12.3533 56.642 12.9045C56.1722 13.4683 55.8816 14.3704 55.7889 15.617Z" fill="white"/>
<path d="M65.9883 12.4598V9.47166H68.3932V5.17432H71.8305V9.4654H75.2122V12.4535H71.8305V19.5886C71.8305 20.2088 71.9603 20.6347 72.2138 20.8477C72.4735 21.067 72.9248 21.1735 73.5801 21.1735C74.1983 21.1735 74.7423 21.067 75.2122 20.8603V23.7356C74.5445 24.0175 73.8088 24.1616 73.0175 24.1616C72.9928 24.1616 72.968 24.1616 72.9495 24.1616C71.5338 24.1616 70.421 23.7356 69.6111 22.8899C68.8012 22.038 68.3932 20.8665 68.3932 19.3756V12.4598H65.9883Z" fill="white"/>
<path d="M77.2969 19.4947C77.2969 18.8432 77.4143 18.2607 77.6554 17.747C77.8966 17.2333 78.1871 16.8136 78.5271 16.4941C78.8733 16.1746 79.3123 15.899 79.844 15.6735C80.3756 15.448 80.8455 15.2788 81.2535 15.1723C81.6615 15.0658 82.1499 14.9844 82.7125 14.928C83.2751 14.8716 83.677 14.8403 83.9119 14.8278C84.1468 14.8215 84.4312 14.8153 84.7589 14.8153L87.0525 14.9531C87.0525 13.6376 86.7001 12.7042 86.0015 12.1404C85.2967 11.5766 84.2581 11.301 82.8856 11.301C81.3401 11.301 79.9491 11.5327 78.7064 11.9963V9.97291C80.116 9.47177 81.5441 9.22119 82.9969 9.22119C85 9.22119 86.527 9.73487 87.578 10.756C88.6289 11.7833 89.1544 13.2805 89.1544 15.2538V19.6012C89.1544 20.5284 88.9442 21.3177 88.5176 21.9754C88.0911 22.6332 87.547 23.1093 86.8855 23.3974C86.2179 23.6919 85.5934 23.8923 85.0123 24.0051C84.4312 24.1178 83.8562 24.1742 83.2875 24.1742C82.8485 24.1742 82.3972 24.1429 81.9397 24.0865C81.4761 24.0301 80.9568 23.8986 80.3695 23.6981C79.7883 23.4914 79.2814 23.2346 78.8548 22.9151C78.422 22.5956 78.0573 22.1446 77.7544 21.5494C77.4452 20.9543 77.2969 20.2715 77.2969 19.4947ZM79.3617 19.4947C79.3617 21.2989 80.6538 22.2009 83.2442 22.2009C83.2504 22.2009 83.2689 22.2009 83.2875 22.2009C85.816 22.2009 87.0834 21.3302 87.0834 19.5824V16.8073C86.4528 16.6946 85.6058 16.6382 84.5425 16.6382C81.0928 16.6319 79.3617 17.5904 79.3617 19.4947Z" fill="white"/>
<path d="M92.2188 23.9428V10.6122C94.3702 9.69762 96.6823 9.24658 99.149 9.24658V11.2136C97.5911 11.2512 95.9652 11.5018 94.2836 11.9653V23.9428H92.2188Z" fill="white"/>
<path d="M100.449 16.8887C100.449 16.8699 100.449 16.8386 100.449 16.7885C100.449 16.7446 100.449 16.7008 100.449 16.6757C100.449 11.7018 102.533 9.21484 106.706 9.21484C107.577 9.21484 108.369 9.35266 109.073 9.63456C109.784 9.91019 110.347 10.2422 110.761 10.6181C111.175 10.9939 111.546 11.4888 111.862 12.0964C112.177 12.7041 112.399 13.224 112.536 13.65C112.672 14.076 112.777 14.5897 112.851 15.191C112.925 15.7736 112.962 16.1432 112.962 16.2936V16.9137L112.906 17.9348H102.52C102.65 19.3882 103.089 20.4468 103.837 21.0983C104.585 21.7561 105.692 22.0818 107.157 22.0818C109.228 22.0818 110.86 21.7248 112.047 21.0044V23.1593C110.675 23.8296 109.005 24.1616 107.046 24.1616C107.021 24.1616 106.99 24.1616 106.959 24.1616C106.125 24.1616 105.358 24.0614 104.659 23.8546C103.961 23.6542 103.275 23.3034 102.607 22.8022C101.933 22.3011 101.407 21.5494 101.024 20.5408C100.641 19.5448 100.449 18.3232 100.449 16.8887ZM102.52 16.0806H110.891C110.891 15.7486 110.854 15.379 110.774 14.9781C110.693 14.5709 110.539 14.0509 110.298 13.412C110.056 12.773 109.63 12.2405 109.012 11.8208C108.393 11.3948 107.621 11.1819 106.706 11.1819C105.29 11.1819 104.257 11.5577 103.621 12.3032C102.978 13.0486 102.613 14.3078 102.52 16.0806Z" fill="white"/>
<path d="M115.805 23.9423V10.6306C117.678 9.68467 119.693 9.21484 121.851 9.21484C123.65 9.21484 125.041 9.67841 126.03 10.6055C127.019 11.5327 127.52 12.8356 127.52 14.5145V23.9486H125.449V14.5082C125.449 14.101 125.406 13.744 125.325 13.4245C125.239 13.1113 125.078 12.773 124.837 12.4097C124.596 12.0526 124.206 11.777 123.662 11.5828C123.124 11.3886 122.444 11.2946 121.628 11.2946C120.429 11.2946 119.18 11.4888 117.876 11.8772V23.9423H115.805Z" fill="white"/>
<path d="M130.141 19.4947C130.141 18.8432 130.258 18.2607 130.499 17.747C130.734 17.2333 131.031 16.8136 131.371 16.4941C131.717 16.1746 132.156 15.899 132.688 15.6735C133.219 15.448 133.689 15.2788 134.097 15.1723C134.505 15.0658 134.994 14.9844 135.556 14.928C136.119 14.8716 136.521 14.8403 136.756 14.8278C136.991 14.8215 137.275 14.8153 137.603 14.8153L139.896 14.9531C139.896 13.6376 139.544 12.7042 138.845 12.1404C138.14 11.5766 137.102 11.301 135.729 11.301C134.184 11.301 132.793 11.5327 131.55 11.9963V9.97291C132.96 9.47177 134.388 9.22119 135.841 9.22119C137.844 9.22119 139.371 9.73487 140.422 10.756C141.473 11.7833 141.998 13.2805 141.998 15.2538V19.6012C141.998 20.5284 141.788 21.3177 141.361 21.9754C140.935 22.6332 140.391 23.1093 139.729 23.3974C139.062 23.6919 138.437 23.8923 137.856 24.0051C137.275 24.1178 136.7 24.1742 136.131 24.1742C135.692 24.1742 135.241 24.1429 134.783 24.0865C134.32 24.0301 133.801 23.8986 133.213 23.6981C132.632 23.4914 132.125 23.2346 131.692 22.9151C131.266 22.5956 130.895 22.1446 130.592 21.5494C130.295 20.9543 130.141 20.2715 130.141 19.4947ZM132.212 19.4947C132.212 21.2989 133.504 22.2009 136.088 22.2009C136.094 22.2009 136.113 22.2009 136.131 22.2009C138.66 22.2009 139.927 21.3302 139.927 19.5824V16.8073C139.297 16.6946 138.45 16.6382 137.386 16.6382C133.937 16.6319 132.212 17.5904 132.212 19.4947Z" fill="white"/>
</svg>
